<?xml version="1.0" standalone="no"?>
<!DOCTYPE svg PUBLIC "-//W3C//DTD SVG 20010904//EN"
 "http://www.w3.org/TR/2001/REC-SVG-20010904/DTD/svg10.dtd">
<svg version="1.0" xmlns="http://www.w3.org/2000/svg"
 width="1136.000000pt" height="1136.000000pt" viewBox="0 0 1136.000000 1136.000000"
 preserveAspectRatio="xMidYMid meet">
<metadata>
Created by potrace 1.14, written by Peter Selinger 2001-2017
</metadata>
<g transform="translate(0.000000,1136.000000) scale(0.100000,-0.100000)"
fill="#000000" stroke="none">
<path d="M5813 9113 c-3 -9 -7 -82 -7 -164 -1 -162 -4 -155 62 -143 22 4 22 8
21 119 0 63 -5 115 -10 115 -5 0 -4 11 2 24 8 17 8 29 0 45 -14 25 -59 29 -68
4z"/>
<path d="M5643 9102 c-20 -10 -33 -23 -33 -35 0 -11 -9 -21 -20 -24 -16 -4
-19 -12 -16 -32 2 -14 5 -29 5 -33 1 -5 7 -8 15 -8 9 0 13 -16 14 -57 1 -101
24 -130 98 -121 25 3 28 7 29 38 0 24 -5 35 -15 36 -8 1 -21 2 -28 3 -9 1 -12
16 -10 54 3 48 5 52 28 52 23 0 26 4 26 37 0 35 -2 38 -27 38 -24 0 -28 4 -31
34 l-3 33 -32 -15z"/>
<path d="M5132 9093 c-22 -4 -23 -8 -17 -51 3 -26 8 -57 11 -69 2 -13 6 -33 8
-45 1 -13 6 -43 10 -68 4 -25 10 -58 12 -75 3 -16 6 -30 7 -31 1 -1 19 1 40 4
l37 4 -6 47 c-8 65 -14 104 -19 121 -2 8 -7 35 -10 60 -3 25 -7 54 -9 65 -3
11 -5 26 -5 33 -1 12 -15 13 -59 5z"/>
<path d="M6050 9038 c-77 -20 -120 -117 -85 -192 49 -103 224 -56 227 62 3 97
-57 151 -142 130z m48 -80 c7 -7 12 -26 12 -43 0 -71 -64 -78 -74 -8 -7 46 33
80 62 51z"/>
<path d="M5441 9031 c-5 -3 -8 -41 -6 -83 3 -58 0 -80 -11 -89 -29 -24 -38 1
-47 137 -2 30 -4 32 -43 31 l-40 0 2 -46 c5 -84 12 -128 24 -150 16 -31 65
-50 104 -41 17 3 45 6 63 4 36 -2 45 10 37 53 -3 15 -7 57 -9 93 -2 36 -4 72
-4 81 -1 15 -50 22 -70 10z"/>
<path d="M6286 9022 c-3 -4 -8 -31 -12 -58 -3 -27 -8 -58 -10 -69 -2 -11 -7
-41 -10 -67 -6 -47 -6 -47 27 -56 l34 -8 13 75 c14 83 24 100 53 98 16 -1 23
-14 21 -38 -4 -27 -15 -107 -18 -121 -2 -13 5 -20 24 -24 15 -3 34 -8 43 -10
10 -3 15 3 16 18 0 13 4 46 8 73 20 128 -2 163 -108 171 -28 2 -56 9 -63 15
-7 5 -15 6 -18 1z"/>
<path d="M4616 8965 c-21 -7 -39 -15 -40 -17 -40 -53 -46 -93 -21 -132 20 -31
60 -47 138 -55 4 -1 7 -12 7 -25 0 -29 -41 -43 -83 -27 -30 12 -32 8 -16 -38
11 -31 16 -33 77 -34 31 0 88 32 101 57 14 29 16 46 7 83 -8 35 -44 57 -111
67 -42 7 -57 20 -48 43 4 10 18 13 46 11 36 -2 41 0 44 22 6 52 -32 69 -101
45z"/>
<path d="M6830 8973 c-90 -18 -148 -143 -108 -235 24 -55 73 -86 151 -94 l55
-6 4 32 c5 35 0 40 -45 47 -45 7 -85 29 -92 52 -10 34 -1 83 22 107 26 28 82
32 126 9 25 -13 30 -13 44 0 21 22 9 58 -24 72 -35 14 -100 22 -133 16z"/>
<path d="M4901 8949 c-65 -39 -83 -108 -46 -180 17 -31 61 -59 95 -59 35 0 88
27 105 54 41 62 5 169 -62 190 -46 15 -62 14 -92 -5z m71 -76 c34 -40 26 -93
-14 -93 -26 0 -47 27 -48 61 0 45 35 63 62 32z"/>
<path d="M7055 8816 c-83 -36 -103 -174 -31 -221 59 -39 151 -23 179 32 45 86
25 155 -56 191 -35 15 -54 15 -92 -2z m87 -83 c16 -20 16 -27 0 -65 -22 -53
-80 -43 -78 14 2 28 31 68 51 68 7 0 19 -8 27 -17z"/>
<path d="M4310 8755 c-35 -12 -35 -12 -35 -74 l0 -63 -42 46 -41 46 -38 -16
-37 -16 79 -81 c43 -45 82 -84 87 -87 4 -4 -4 -24 -18 -45 l-26 -38 26 -26 26
-26 24 28 c13 15 28 42 34 61 8 29 7 294 -1 301 -2 1 -19 -3 -38 -10z"/>
<path d="M7288 8620 l-53 -108 28 -16 c16 -9 32 -16 37 -16 4 0 25 36 46 80
26 56 42 79 52 75 7 -3 16 -5 18 -5 12 0 0 -34 -31 -96 l-35 -69 22 -17 c13
-10 26 -18 30 -18 4 0 24 32 43 70 25 50 41 70 55 70 10 0 21 -4 24 -9 6 -9
-39 -124 -57 -149 -5 -7 -8 -13 -6 -15 68 -39 83 -36 95 22 1 8 6 17 11 20 13
10 30 45 38 79 13 61 -28 113 -91 116 -12 1 -30 11 -40 22 -11 12 -45 33 -76
47 l-57 25 -53 -108z"/>
<path d="M3970 8670 c-14 -13 -21 -27 -17 -39 3 -11 -1 -25 -9 -32 -12 -9 -10
-16 7 -40 11 -16 25 -27 30 -23 5 3 17 -10 27 -28 9 -18 32 -48 50 -66 27 -28
37 -33 60 -27 58 14 64 36 27 91 -26 38 -29 37 -25 -5 2 -32 -16 -19 -40 29
l-20 39 25 17 c23 15 24 17 8 40 -13 20 -21 24 -44 19 -24 -6 -29 -3 -35 19
-7 31 -14 32 -44 6z"/>
<path d="M3838 8528 c-16 -5 -28 -15 -28 -21 1 -7 18 -41 40 -77 35 -57 38
-66 25 -80 -14 -13 -18 -12 -40 12 -14 15 -25 30 -25 33 0 3 -12 23 -26 44
-24 37 -27 38 -55 28 -33 -13 -37 -34 -11 -68 22 -31 39 -59 53 -85 25 -48 96
-65 137 -32 9 7 21 16 27 21 57 42 56 41 43 69 -7 16 -16 28 -20 28 -5 0 -8 4
-8 9 0 12 -72 131 -79 130 -3 0 -18 -5 -33 -11z"/>
<path d="M7674 8458 c-26 -46 -57 -99 -67 -118 -11 -19 -26 -44 -33 -55 -8
-11 -14 -23 -14 -27 0 -7 52 -38 63 -38 3 0 12 16 22 36 10 21 20 32 24 26 12
-20 63 -40 93 -37 39 5 84 42 101 85 13 31 14 45 8 96 -2 17 -52 64 -68 64 -8
0 -29 11 -47 25 l-33 25 -49 -82z m116 -48 c17 -17 19 -24 9 -43 -21 -38 -38
-49 -64 -43 -32 8 -33 43 -4 80 25 31 33 32 59 6z"/>
<path d="M3526 8349 c-22 -17 -56 -67 -56 -82 0 -3 14 -11 32 -18 24 -10 33
-10 36 -1 6 18 32 42 45 42 6 0 4 -6 -5 -12 -54 -44 -64 -114 -22 -153 42 -39
75 -33 134 23 39 38 49 53 44 68 -4 10 -10 21 -14 24 -3 3 -17 21 -30 40 -63
93 -109 113 -164 69z m114 -144 c0 -17 -17 -28 -30 -20 -7 4 -7 13 0 26 12 21
30 17 30 -6z"/>
<path d="M7984 8342 c-6 -4 -14 -19 -18 -34 -3 -16 -12 -28 -19 -28 -6 0 -25
-11 -42 -24 -23 -18 -29 -31 -28 -59 1 -39 2 -41 79 -105 57 -46 64 -49 64
-27 0 9 18 40 40 70 69 93 64 157 -14 195 -48 23 -47 22 -62 12z m40 -71 c4
-5 -3 -7 -14 -4 -23 6 -26 13 -6 13 8 0 17 -4 20 -9z m-44 -71 c13 -9 13 -11
0 -19 -16 -11 -43 5 -34 20 7 11 15 11 34 -1z"/>
<path d="M3341 8188 c-95 -35 -88 -179 10 -223 33 -15 45 -16 77 -6 38 12 78
43 98 77 10 16 8 22 -13 39 l-25 21 -35 -33 c-19 -18 -42 -33 -51 -33 -13 0
-11 5 8 24 14 13 27 22 28 21 8 -7 42 31 42 46 0 18 -53 68 -73 70 -7 0 -19 2
-27 3 -8 2 -26 -1 -39 -6z m25 -73 c-26 -19 -42 -19 -26 0 7 8 20 15 29 15 13
-1 13 -3 -3 -15z"/>
<path d="M8198 8181 c-8 -11 -45 -53 -81 -91 -37 -39 -67 -74 -67 -77 0 -4 10
-17 22 -30 l22 -23 62 65 c40 42 67 63 77 59 27 -10 26 -41 -5 -75 -16 -19
-38 -46 -49 -61 l-19 -27 25 -25 26 -26 54 64 c87 103 92 139 26 198 -84 75
-77 72 -93 49z"/>
<path d="M3087 8059 c-29 -8 -83 -50 -105 -80 -17 -25 -13 -31 107 -155 l104
-106 52 55 c30 31 56 69 60 86 9 42 -21 93 -63 107 -23 7 -39 22 -53 51 -22
44 -50 56 -102 42z m31 -86 c5 -31 -19 -44 -41 -23 -17 16 -17 19 -1 34 20 21
38 16 42 -11z m102 -94 c0 -11 -7 -27 -15 -36 -14 -14 -18 -13 -35 7 -24 27
-12 50 26 50 18 0 24 -6 24 -21z"/>
<path d="M8402 8025 c4 -4 0 -22 -9 -39 -10 -17 -18 -33 -18 -36 -1 -3 -10
-25 -22 -50 -11 -25 -23 -53 -27 -63 -4 -14 -15 -18 -43 -17 -56 3 -59 2 -70
-23 -14 -30 -5 -45 33 -56 47 -13 85 -6 159 28 39 18 94 44 123 57 28 14 52
28 52 33 0 4 -10 17 -22 28 l-23 21 -43 -20 c-23 -11 -45 -18 -48 -15 -3 3 4
23 15 46 26 49 26 46 -1 71 -22 21 -71 51 -56 35z"/>
<path d="M5753 8010 c-37 -15 -235 -375 -307 -560 -16 -41 -32 -78 -35 -82 -4
-4 -26 11 -51 33 -73 65 -231 149 -280 149 -9 0 -20 3 -24 7 -3 4 -12 8 -19 9
-7 1 -28 4 -47 7 -19 4 -65 9 -101 12 -83 8 -104 -7 -152 -107 -68 -143 -97
-269 -97 -422 0 -53 -3 -66 -13 -59 -13 10 -142 56 -192 69 -16 4 -32 8 -35 9
-5 2 -51 10 -110 21 -41 7 -315 8 -378 1 -49 -5 -68 -19 -77 -58 -6 -22 1 -32
47 -70 61 -51 90 -80 127 -129 14 -19 28 -37 31 -40 10 -10 100 -181 105 -200
1 -3 7 -18 14 -35 16 -37 70 -220 76 -255 2 -14 7 -42 11 -62 l7 -38 -97 45
c-140 66 -286 117 -371 131 -16 3 -48 10 -70 16 -22 6 -97 12 -167 13 -137 3
-231 -10 -337 -47 -52 -18 -66 -29 -77 -53 -11 -27 -10 -32 9 -52 11 -13 28
-23 36 -23 34 0 122 -62 180 -127 67 -74 83 -99 137 -213 170 -356 232 -457
347 -566 131 -125 233 -168 390 -165 74 1 87 -4 69 -25 -11 -12 -60 -137 -113
-289 -91 -261 -197 -434 -371 -607 -103 -102 -118 -121 -112 -142 3 -14 13
-28 22 -31 46 -18 409 -26 577 -12 112 9 142 14 280 41 48 10 119 29 145 39 8
3 33 11 55 18 21 6 64 23 95 37 30 14 58 25 63 24 4 -1 7 1 7 6 0 4 15 14 33
22 17 7 41 22 51 32 11 10 23 18 28 18 20 0 184 162 193 191 12 37 33 27 81
-39 91 -124 259 -274 397 -356 l48 -27 47 27 c26 15 49 30 52 33 3 3 28 22 55
41 101 70 214 182 296 292 32 44 59 74 59 68 0 -31 134 -175 214 -229 136 -94
384 -184 566 -207 14 -1 39 -5 55 -8 156 -29 463 -34 678 -12 59 6 67 11 67
41 0 16 -19 39 -62 77 -77 65 -157 149 -193 200 -118 170 -217 370 -251 508
-5 22 -59 169 -78 214 -24 58 -22 64 22 56 21 -4 46 -6 55 -4 9 1 35 5 59 8
44 6 139 36 148 47 3 3 15 12 28 18 48 26 166 137 210 200 40 56 78 115 98
151 10 19 22 37 25 40 4 3 43 81 88 174 45 93 98 194 119 225 67 102 162 183
245 210 35 12 55 33 52 56 -5 44 -30 67 -90 80 -11 2 -36 9 -55 15 -97 30
-323 33 -460 5 -145 -29 -285 -79 -447 -158 -52 -25 -93 -40 -93 -34 1 7 7 39
15 71 8 33 12 63 9 68 -3 4 -1 8 3 8 5 0 9 8 10 18 3 39 68 222 106 297 68
137 137 226 250 322 64 54 45 97 -48 112 -86 13 -336 5 -425 -14 -41 -9 -121
-31 -177 -50 -55 -19 -103 -35 -105 -35 -1 0 -3 39 -2 88 0 48 -3 101 -7 117
-4 17 -10 44 -12 62 -14 93 -103 295 -139 314 -14 8 -48 9 -97 5 -204 -19
-372 -85 -482 -190 l-36 -34 -23 56 c-72 179 -280 571 -314 594 -14 10 -35 9
-63 -2z m48 -177 c8 -16 16 -30 19 -33 37 -34 252 -505 265 -579 3 -15 12 -47
21 -72 8 -24 17 -53 19 -64 2 -11 11 -45 20 -75 9 -30 18 -66 21 -80 3 -14 9
-41 14 -60 11 -42 18 -85 35 -210 13 -95 13 -400 1 -470 -6 -30 -17 -87 -30
-155 -5 -22 -57 -180 -78 -232 -7 -18 -16 -33 -20 -33 -4 0 -8 -7 -8 -17 0
-15 -103 -193 -129 -225 -6 -7 -25 -31 -42 -53 -17 -22 -52 -63 -79 -92 l-48
-52 -51 52 c-55 57 -161 192 -161 205 0 5 -9 17 -20 27 -11 10 -17 21 -15 26
3 4 1 10 -5 14 -11 7 -88 166 -108 220 -5 17 -13 39 -18 50 -4 11 -8 25 -9 30
-2 6 -13 47 -24 93 -12 46 -24 104 -26 130 -2 26 -5 47 -6 47 -4 0 -8 75 -10
185 -2 136 3 203 26 363 8 57 63 281 82 337 8 25 16 50 17 55 4 18 28 90 41
120 7 17 20 48 28 70 8 22 29 72 47 110 17 39 32 72 32 75 2 20 169 320 178
320 4 0 13 -12 21 -27z m-814 -369 c99 -20 175 -49 241 -91 55 -34 112 -92
124 -125 5 -12 -5 -62 -26 -131 -33 -109 -76 -301 -82 -362 -1 -16 -3 -30 -4
-30 -3 0 -7 -38 -15 -135 -4 -52 -8 -96 -9 -97 -1 -1 -25 28 -53 65 -75 99
-139 167 -219 236 -97 83 -113 96 -122 96 -4 1 -20 11 -35 24 -25 20 -28 29
-31 102 -6 150 20 281 82 412 28 60 31 61 149 36z m1736 -37 c62 -139 76 -200
80 -352 4 -129 1 -138 -64 -182 -130 -88 -259 -216 -357 -352 -30 -42 -41 -42
-40 -1 1 16 -11 146 -17 190 -17 126 -55 287 -105 443 -24 77 -26 72 52 149
72 72 178 120 313 145 17 2 31 6 33 7 1 2 20 3 42 4 38 2 40 0 63 -51z m-2413
-451 c319 -48 629 -270 835 -600 59 -94 82 -151 88 -211 6 -51 8 -63 28 -150
25 -111 87 -274 143 -380 24 -44 21 -60 -5 -29 -24 29 -87 63 -166 91 -67 23
-97 27 -210 29 -147 2 -159 7 -218 79 -16 20 -40 48 -52 63 -29 34 -116 212
-138 282 -10 30 -20 60 -24 65 -3 6 -6 13 -7 18 -1 4 -2 8 -3 10 -2 1 -4 11
-6 22 -9 45 -95 296 -128 371 -20 45 -48 102 -64 125 -31 49 -149 170 -203
210 l-34 26 59 -7 c33 -4 80 -11 105 -14z m3110 20 c0 -2 -19 -16 -42 -31 -40
-26 -126 -109 -173 -166 -31 -37 -85 -134 -85 -153 0 -9 -4 -16 -9 -16 -4 0
-30 -66 -55 -147 -80 -250 -127 -386 -154 -443 -14 -30 -26 -58 -26 -61 -3
-21 -111 -171 -148 -206 l-45 -40 -99 1 c-83 2 -134 -3 -199 -18 -49 -11 -124
-44 -172 -75 -90 -57 -89 -57 -67 -25 20 28 89 184 96 214 2 8 6 17 9 20 12
10 65 221 73 292 10 84 12 90 46 159 58 115 143 231 245 334 55 56 111 110
125 121 41 32 161 106 215 132 54 27 205 83 205 77 0 -2 15 1 33 6 17 5 55 12
82 15 28 4 51 7 52 8 4 3 93 6 93 2z m-3195 -181 c101 -101 145 -182 213 -390
8 -27 17 -53 18 -57 1 -5 2 -9 3 -10 2 -2 4 -13 7 -26 6 -33 62 -204 74 -224
6 -10 10 -23 10 -29 0 -20 82 -182 120 -239 21 -30 56 -74 77 -98 44 -47 45
-46 -33 -85 -50 -25 -51 -26 -68 -6 -66 78 -196 304 -196 343 0 8 -4 17 -9 20
-5 3 -11 16 -14 28 -3 13 -14 59 -25 103 -19 73 -30 124 -36 165 -1 8 -5 22
-9 30 -3 8 -15 49 -27 90 -12 41 -23 80 -24 85 -11 39 -70 173 -103 235 -41
78 -54 100 -71 118 -6 7 -17 23 -23 35 -14 26 54 -26 116 -88z m3187 29 c-22
-33 -55 -93 -75 -135 -38 -82 -100 -249 -91 -249 2 0 0 -8 -5 -17 -5 -10 -11
-31 -14 -48 -3 -16 -8 -41 -12 -55 -3 -14 -7 -38 -10 -55 -8 -49 -26 -128 -35
-155 -4 -14 -13 -45 -20 -70 -33 -115 -194 -401 -235 -416 -7 -3 -34 6 -60 20
-25 14 -52 26 -60 26 -22 0 -18 12 13 46 59 67 73 86 117 163 25 44 45 82 45
84 0 3 10 26 22 53 12 27 23 54 25 59 1 6 25 77 53 159 28 82 52 156 53 165 1
9 5 21 8 26 8 14 23 68 21 78 -1 4 3 7 10 7 6 0 9 3 5 6 -8 8 46 126 82 177
48 70 187 205 199 193 1 -2 -15 -30 -36 -62z m-3702 -560 c90 -17 180 -43 270
-76 63 -23 266 -122 292 -142 10 -7 29 -44 44 -82 51 -138 120 -262 204 -370
l48 -62 -34 -33 c-33 -32 -37 -33 -120 -35 -47 -1 -102 3 -122 8 -20 5 -48 11
-62 14 -41 9 -152 55 -192 81 -21 12 -42 23 -47 23 -5 0 -11 3 -13 8 -1 4 -28
24 -58 44 -138 94 -302 262 -370 382 -24 42 -47 76 -52 76 -4 0 -8 6 -8 13 0
7 -34 45 -75 84 l-75 72 38 6 c20 4 42 8 47 9 27 7 210 -6 285 -20z m4465 12
c11 -2 29 -5 40 -5 18 -1 17 -3 -5 -18 -47 -32 -121 -116 -168 -191 -62 -98
-121 -170 -218 -264 -153 -150 -302 -247 -459 -300 -75 -26 -107 -31 -191 -32
l-102 -1 -36 38 c-21 22 -33 44 -29 50 4 7 26 37 49 67 71 94 124 194 173 328
22 58 35 78 64 98 20 13 37 21 37 17 0 -4 4 -3 8 3 9 13 153 84 241 119 65 25
193 63 240 71 14 3 32 7 39 9 7 3 41 8 75 11 34 3 63 7 64 8 4 4 156 -3 178
-8z m-332 -613 c-20 -38 -42 -75 -49 -84 -8 -8 -14 -19 -14 -23 0 -14 -78
-112 -133 -167 -59 -59 -155 -116 -209 -125 -103 -17 -222 -7 -240 20 -4 6
-19 29 -32 52 l-25 41 32 0 c103 2 268 50 377 110 111 61 183 114 289 210 20
18 37 33 38 33 1 0 -14 -30 -34 -67z m-4083 -3 c22 -23 127 -101 185 -137 51
-33 189 -98 225 -108 92 -24 173 -37 223 -37 20 0 37 -2 37 -4 0 -16 -65 -104
-76 -104 -9 0 -12 -5 -8 -11 5 -8 1 -8 -13 0 -11 6 -23 8 -27 4 -11 -11 -120
-12 -166 -1 -99 23 -222 115 -306 228 -29 39 -124 197 -124 207 0 6 27 -14 50
-37z m1402 -83 c29 -8 76 -27 105 -43 l51 -30 -31 -13 c-83 -33 -103 -48 -185
-137 -54 -61 -65 -124 -42 -254 5 -30 12 -71 15 -90 3 -19 13 -57 20 -85 8
-27 16 -54 17 -60 0 -5 7 -23 13 -39 11 -26 10 -35 -13 -75 -108 -197 -321
-359 -607 -463 -72 -26 -171 -57 -202 -63 -10 -2 -18 -4 -18 -5 0 -1 -9 -3
-20 -5 -11 -1 -40 -7 -65 -13 -25 -6 -63 -13 -85 -16 -23 -4 -52 -9 -65 -11
-14 -3 -51 -8 -84 -11 l-59 -6 49 51 c27 27 54 57 61 65 21 25 110 160 129
196 10 19 24 42 30 50 18 25 91 199 125 300 168 501 351 726 622 768 69 11
173 6 239 -11z m1493 13 c68 -14 79 -18 115 -36 60 -30 153 -96 188 -133 73
-78 232 -355 232 -403 0 -8 4 -18 9 -23 5 -6 23 -55 40 -110 32 -98 45 -133
62 -167 5 -10 9 -22 9 -28 0 -16 81 -181 124 -250 42 -68 119 -172 171 -228
25 -29 33 -51 15 -46 -5 2 -58 9 -140 20 -19 2 -50 9 -69 14 -19 5 -38 7 -42
4 -4 -2 -10 0 -14 6 -4 6 -10 8 -14 6 -8 -5 -164 38 -274 75 -94 32 -255 108
-288 135 -8 8 -19 14 -23 14 -9 0 -80 52 -84 63 -2 4 -8 7 -14 7 -35 0 -228
237 -228 279 0 9 12 51 25 95 14 43 28 95 31 115 3 20 8 39 9 42 7 10 18 104
20 169 2 58 -1 70 -29 110 -58 85 -177 180 -226 180 -46 0 80 72 155 89 52 12
189 13 240 1z m-1230 -212 c3 -3 -2 -22 -11 -44 -68 -162 -86 -359 -49 -554
19 -96 98 -296 152 -382 30 -49 29 -54 -4 -19 -111 117 -192 248 -263 425 -16
41 -32 85 -34 98 -3 13 -7 32 -10 43 -19 76 -37 169 -42 222 -5 51 -3 67 11
90 38 57 103 107 165 126 19 5 78 2 85 -5z m844 -12 c59 -31 150 -142 136
-166 -2 -3 -6 -34 -10 -70 -9 -78 -8 -74 -35 -179 -12 -47 -28 -97 -36 -113
-8 -15 -15 -31 -15 -35 0 -5 -23 -55 -51 -113 -50 -104 -108 -197 -160 -255
-14 -16 -35 -40 -46 -52 -27 -32 -37 -29 -14 5 62 90 142 314 159 447 8 59 8
234 0 280 -13 71 -47 185 -67 225 -18 36 -19 39 -2 42 36 8 111 -1 141 -16z
m-717 -28 c41 -23 132 -95 167 -132 54 -56 66 -52 181 53 25 22 48 41 52 41 4
0 13 6 20 13 8 6 24 18 36 24 19 11 23 10 36 -10 8 -12 26 -56 40 -97 100
-299 7 -657 -257 -993 l-45 -58 -66 84 c-36 47 -66 88 -66 93 0 4 -7 15 -16
25 -37 41 -125 220 -159 324 -36 110 -47 185 -45 309 0 76 3 99 15 156 3 14 8
35 10 46 9 39 55 134 65 134 6 0 20 -6 32 -12z m-345 -706 c3 -14 -2 -38 -13
-59 -21 -41 -131 -157 -184 -195 -97 -70 -276 -146 -410 -173 -8 -2 -15 -4
-15 -5 0 -1 -9 -3 -20 -4 -11 -2 -38 -6 -60 -10 -28 -5 -11 5 55 32 110 45
250 116 305 154 93 67 192 158 240 223 17 22 38 49 48 59 9 11 17 25 17 30 1
16 30 -26 37 -52z m1229 -12 c101 -141 299 -289 500 -373 62 -26 119 -47 127
-47 9 0 19 -5 23 -12 4 -6 3 -9 -2 -6 -5 4 -25 9 -44 12 -19 3 -60 12 -90 21
-30 8 -64 17 -74 20 -84 20 -219 82 -301 138 -68 46 -155 126 -155 144 0 6 -4
13 -9 15 -4 2 -20 22 -35 46 -26 42 -26 43 -10 78 9 19 20 32 24 27 3 -4 24
-33 46 -63z"/>
<path d="M8774 7310 c-32 -13 -53 -48 -49 -81 2 -16 26 -66 52 -111 66 -113
134 -255 195 -407 28 -69 51 -130 53 -136 1 -5 7 -23 13 -38 7 -16 12 -35 12
-43 0 -8 4 -22 9 -32 21 -41 83 -287 101 -402 7 -41 14 -82 15 -92 4 -16 13
-87 20 -143 27 -219 27 -616 0 -813 -11 -84 -17 -121 -26 -177 -6 -33 -13 -71
-15 -85 -2 -14 -7 -36 -10 -50 -3 -14 -8 -34 -10 -45 -2 -11 -13 -56 -24 -100
-12 -44 -23 -87 -25 -95 -14 -56 -89 -269 -111 -317 -7 -17 -14 -38 -14 -47 0
-9 -4 -16 -10 -16 -5 0 -10 -7 -10 -16 0 -17 -117 -261 -155 -324 -40 -65 -45
-94 -24 -129 10 -17 22 -31 26 -32 5 0 21 -3 36 -5 44 -7 84 43 170 218 129
261 246 581 292 798 2 8 11 49 20 90 9 41 18 91 21 110 3 19 11 76 18 125 8
50 14 97 15 105 0 8 4 49 8 90 10 96 10 521 0 620 -10 105 -16 160 -22 195 -2
17 -7 48 -10 70 -16 115 -76 382 -107 475 -3 8 -13 40 -22 70 -22 68 -82 232
-103 280 -8 19 -22 51 -30 70 -31 70 -121 247 -167 327 -36 63 -54 84 -78 92
-17 6 -31 11 -32 10 -1 0 -11 -4 -22 -9z"/>
<path d="M2648 7267 c-36 -40 -176 -303 -170 -319 1 -5 -3 -8 -8 -8 -5 0 -10
-4 -10 -10 0 -5 -13 -38 -28 -72 -84 -184 -199 -547 -228 -718 -3 -14 -11 -61
-19 -105 -8 -44 -17 -102 -20 -130 -3 -27 -7 -63 -10 -80 -26 -177 -26 -592 1
-835 8 -67 20 -149 29 -200 4 -19 9 -44 11 -55 6 -32 24 -118 29 -140 3 -11 7
-30 10 -42 6 -27 15 -64 19 -78 2 -5 6 -23 11 -40 16 -65 107 -331 117 -342 6
-7 7 -13 3 -13 -4 0 -3 -6 2 -12 5 -7 18 -35 28 -63 34 -95 186 -385 212 -405
35 -28 75 -25 106 6 32 31 32 64 2 114 -40 65 -141 274 -184 380 -23 58 -46
114 -51 125 -7 17 -52 158 -56 175 0 3 -3 12 -7 20 -8 22 -38 131 -44 160 -2
13 -12 60 -23 105 -10 44 -22 107 -26 140 -8 62 -10 73 -13 78 -1 1 -4 22 -7
46 -2 25 -6 56 -9 70 -29 156 -23 653 11 874 3 20 7 47 8 60 2 12 6 36 9 52 4
17 9 46 12 65 3 19 18 85 32 145 15 61 28 113 29 118 1 4 2 8 3 10 2 1 4 11 6
23 5 23 72 225 88 264 5 14 11 30 13 35 13 50 130 299 206 437 26 48 48 100
48 116 0 62 -90 96 -132 49z"/>
<path d="M5788 3854 c-2 -2 -26 -6 -54 -8 -91 -9 -128 -17 -141 -28 -7 -6 -13
-8 -13 -4 0 3 -12 1 -26 -4 -15 -6 -41 -12 -60 -15 -18 -2 -46 -10 -61 -18
-15 -7 -54 -22 -85 -31 -66 -20 -97 -44 -104 -79 -3 -18 2 -30 17 -41 20 -14
24 -12 60 25 20 21 41 39 46 39 5 0 14 5 21 12 19 19 139 56 153 48 7 -5 22
-2 34 6 31 20 36 8 14 -39 -10 -23 -19 -50 -19 -59 0 -16 -78 -197 -90 -208
-6 -6 -36 -69 -44 -93 -7 -22 7 -51 46 -92 l28 -30 -22 -15 c-65 -44 -136
-111 -140 -134 -6 -31 33 -71 79 -81 34 -7 211 21 227 36 6 5 20 9 32 9 12 0
44 15 71 33 82 54 87 57 123 73 19 9 59 32 88 51 29 20 55 34 57 31 4 -4 12
-39 14 -60 2 -19 17 -6 19 16 1 13 15 39 31 56 42 47 51 151 15 181 -8 6 -14
15 -14 20 0 17 -51 58 -87 70 -67 21 -123 44 -123 49 0 3 19 14 41 25 92 43
163 142 136 187 -7 10 -36 31 -67 46 -45 24 -68 29 -127 30 -39 0 -73 -1 -75
-4z m100 -49 c37 -6 72 -25 72 -40 0 -20 -91 -78 -210 -136 -36 -17 -73 -38
-82 -46 -16 -14 -17 -14 -13 3 2 11 16 48 30 83 15 38 25 77 23 93 -3 19 0 28
9 28 7 0 13 4 13 8 0 4 17 9 37 10 21 2 39 5 41 7 2 2 14 1 25 -1 12 -3 37 -7
55 -9z m-238 -306 c0 -8 17 -10 58 -4 88 11 202 13 248 3 49 -10 94 -48 94
-79 0 -31 -117 -139 -150 -139 -6 0 -10 -4 -10 -9 0 -5 -12 -14 -27 -20 -16
-6 -48 -22 -73 -35 -99 -52 -164 -74 -249 -83 -39 -4 -52 -2 -47 6 16 26 192
130 221 130 3 1 19 8 36 17 31 16 61 22 111 23 53 2 74 93 28 119 -23 13 -31
10 -115 -38 -174 -101 -214 -120 -210 -100 2 9 6 34 9 54 3 21 13 50 21 66 8
16 15 33 15 39 0 5 4 21 10 35 10 26 30 36 30 15z"/>
<path d="M8275 3614 c-48 -48 -60 -56 -100 -59 -25 -2 -50 -7 -57 -11 -7 -4
-57 -9 -113 -10 -183 -5 -226 -11 -245 -31 -28 -29 -33 -67 -11 -87 17 -16 22
-16 49 -2 16 8 65 17 109 20 92 6 163 14 211 21 17 3 32 2 32 -3 0 -21 -115
-122 -139 -122 -5 0 -16 -6 -23 -12 -8 -7 -25 -20 -40 -28 -27 -15 -139 -99
-148 -110 -10 -12 -77 -60 -84 -60 -4 0 -4 6 1 13 4 6 9 20 10 29 2 10 17 44
34 78 29 54 31 63 19 85 -18 34 -67 56 -98 44 -13 -5 -50 -29 -81 -54 -32 -25
-63 -45 -69 -45 -7 0 -15 -6 -18 -14 -3 -7 -23 -22 -44 -32 -22 -11 -40 -22
-40 -26 0 -7 -63 -48 -74 -48 -10 0 31 69 56 95 41 43 58 69 58 84 0 17 -26
61 -43 73 -17 11 -59 -2 -89 -27 -16 -14 -36 -25 -43 -25 -7 0 -15 -3 -17 -7
-5 -12 -67 -43 -84 -43 -15 0 -22 -6 -103 -84 -35 -34 -41 -37 -41 -19 0 11
18 54 39 96 42 82 44 113 7 123 -28 7 -47 3 -64 -13 -15 -14 -36 -18 -28 -5 2
4 -4 18 -13 31 -18 24 -67 32 -103 17 -9 -4 -22 -9 -30 -10 -25 -5 -73 -30
-130 -68 -58 -39 -78 -46 -78 -28 0 19 -27 10 -52 -17 -14 -16 -60 -50 -103
-78 -43 -27 -91 -58 -106 -68 -15 -10 -36 -20 -46 -22 -10 -2 -34 -9 -53 -14
-19 -6 -36 -11 -37 -11 -2 0 -3 9 -3 20 0 12 10 25 25 32 14 6 25 14 25 18 0
7 74 59 87 62 5 0 13 8 20 17 6 9 14 13 18 9 4 -4 17 3 30 15 12 12 32 29 45
37 50 34 43 78 -18 109 -33 17 -42 17 -75 6 -20 -7 -37 -10 -37 -7 0 3 -8 -2
-17 -10 -10 -9 -29 -19 -43 -23 -14 -4 -35 -20 -47 -34 -13 -14 -27 -26 -33
-26 -10 0 -52 -76 -45 -83 2 -2 -5 -13 -16 -25 -19 -21 -27 -77 -11 -77 5 0
17 -18 27 -41 21 -45 67 -73 97 -58 10 5 19 5 23 0 6 -11 49 -5 77 10 11 6 29
12 40 14 11 3 28 11 37 18 21 18 101 58 102 52 2 -7 4 -15 13 -53 8 -35 47
-62 89 -62 14 0 60 25 103 55 44 31 91 61 107 68 15 6 27 17 27 24 0 7 6 13
14 13 9 0 13 -10 11 -29 -2 -29 23 -96 33 -86 3 2 11 0 18 -6 7 -5 25 -8 41
-5 15 2 31 5 35 5 4 1 13 7 20 14 36 35 136 105 156 110 22 5 23 5 8 -16 -46
-63 -40 -104 21 -157 41 -36 56 -37 108 -5 22 14 47 28 55 31 17 8 86 63 134
106 37 34 42 26 22 -41 -15 -50 -14 -52 9 -77 13 -15 27 -35 30 -45 4 -11 11
-19 16 -19 8 0 80 37 134 69 6 3 19 7 30 8 11 2 33 17 48 33 15 16 39 33 52
36 14 3 25 10 25 14 0 4 13 13 29 20 16 6 32 18 35 26 3 8 12 14 20 14 12 0
12 -6 0 -41 -14 -38 -24 -89 -29 -134 -5 -51 40 -137 69 -132 18 3 54 48 59
74 2 13 -3 39 -12 57 -18 35 -19 86 -2 120 5 12 17 46 27 76 11 34 29 66 48
83 17 15 56 50 85 77 30 28 64 50 75 51 12 0 40 2 64 4 26 2 47 -2 56 -10 20
-21 83 20 114 74 22 39 0 54 -69 46 -91 -11 -139 8 -106 41 11 11 8 49 -5 62
-23 23 -49 12 -103 -44z m-1859 -243 c-4 -5 -29 -25 -56 -45 -34 -24 -50 -31
-50 -21 0 18 66 69 79 61 5 -4 12 -2 16 4 3 5 8 10 11 10 3 0 3 -4 0 -9z m522
-50 c10 -6 5 -15 -21 -37 -19 -16 -42 -41 -51 -55 -9 -15 -34 -32 -59 -40 -23
-7 -44 -16 -47 -19 -11 -14 -70 -38 -75 -30 -22 35 97 148 184 176 46 15 53
16 69 5z"/>
<path d="M2990 3529 c-105 -23 -91 -18 -232 -76 -100 -41 -127 -57 -184 -111
-36 -34 -69 -62 -71 -62 -3 0 -13 -8 -22 -18 -9 -10 -52 -46 -96 -80 -44 -35
-87 -69 -96 -76 -9 -7 -44 -33 -79 -57 -36 -24 -72 -51 -82 -60 -10 -9 -31
-22 -46 -30 -15 -8 -45 -26 -67 -40 -72 -48 -217 -121 -287 -145 -37 -12 -68
-21 -68 -19 0 2 -15 -2 -34 -10 -18 -8 -49 -17 -67 -20 -19 -3 -41 -8 -49 -10
-25 -7 -73 -16 -110 -20 -19 -2 -51 -6 -70 -8 -56 -8 -131 -16 -190 -22 -180
-16 -200 -20 -200 -40 0 -17 8 -22 51 -31 57 -11 275 -5 359 10 14 3 45 7 70
10 25 4 77 14 116 24 46 12 81 15 100 10 37 -10 61 -2 69 21 3 11 30 29 63 42
105 42 314 165 417 246 44 34 47 36 85 63 19 13 37 27 40 30 3 3 28 23 55 45
28 22 57 46 66 55 9 8 38 34 65 57 27 23 67 58 89 78 44 40 90 66 148 85 22 7
51 18 65 26 34 17 56 18 46 2 -9 -14 -10 -21 -19 -93 -4 -27 -8 -56 -11 -63
-2 -7 -3 -15 -3 -18 0 -3 -7 -16 -15 -30 -9 -13 -14 -24 -11 -24 3 0 -2 -15
-12 -32 -9 -18 -18 -42 -20 -53 -2 -11 -8 -24 -13 -29 -6 -6 -10 -20 -10 -32
0 -13 -4 -25 -9 -28 -26 -16 13 -105 55 -124 29 -14 47 0 50 40 7 78 46 234
63 251 8 8 11 7 11 -2 0 -14 19 -13 154 7 76 12 167 8 205 -8 33 -13 65 -70
57 -98 -6 -17 -64 -81 -101 -111 -65 -52 -107 -81 -120 -81 -8 0 -15 -4 -15
-9 0 -8 -53 -33 -75 -36 -5 0 -17 -5 -25 -10 -22 -14 -173 -54 -184 -48 -13 8
91 95 119 99 5 1 48 24 95 52 47 27 104 53 128 57 55 9 75 42 51 83 -18 32
-49 34 -97 6 -40 -23 -191 -134 -258 -189 -218 -180 -237 -242 -73 -239 54 1
87 7 104 18 13 9 29 16 35 16 18 0 101 40 154 74 27 17 53 30 57 29 5 -2 13 6
19 17 6 11 15 18 19 16 4 -3 22 8 40 24 18 17 35 30 39 30 4 0 20 14 35 30 29
30 47 32 47 4 0 -8 4 -14 9 -14 4 0 6 11 3 25 -2 14 0 25 6 25 21 0 62 85 62
127 0 22 -3 43 -7 47 -5 4 -8 11 -8 14 -1 29 -77 99 -116 108 -10 2 -28 6 -40
9 -11 2 -30 7 -42 11 -12 4 -34 7 -49 6 -36 -3 -35 4 3 23 46 24 108 84 129
125 42 82 -3 122 -160 143 -14 2 -63 -4 -110 -14z m183 -68 c17 -2 4 -34 -25
-62 -41 -37 -123 -93 -163 -110 -16 -7 -41 -22 -54 -33 -24 -21 -24 -21 -17
-1 13 35 28 119 28 152 0 18 4 30 8 28 5 -3 11 -1 15 5 4 6 11 8 16 4 5 -3 15
-1 22 4 7 5 21 12 32 14 17 3 111 3 138 -1z"/>
<path d="M4640 3343 c-39 -13 -140 -68 -140 -76 0 -19 -43 -68 -55 -63 -21 8
-155 -102 -155 -126 0 -5 -3 -8 -8 -8 -4 0 -7 15 -6 34 2 35 -50 151 -83 189
-27 29 -68 16 -78 -25 -17 -78 -18 -79 -40 -76 -33 4 -146 -103 -148 -140 -2
-26 -37 -82 -51 -82 -10 0 4 65 15 68 5 2 9 10 9 17 0 7 6 25 14 40 39 75 -34
137 -85 72 l-17 -20 -6 20 c-25 80 -202 -19 -310 -172 -52 -74 -69 -113 -62
-150 5 -25 27 -60 51 -77 15 -11 64 -9 87 3 30 16 179 169 189 194 7 17 8 18
10 3 1 -10 3 -22 4 -28 1 -5 3 -19 4 -30 2 -29 34 -57 62 -54 13 1 27 3 32 3
4 1 28 21 52 46 39 38 44 41 39 20 -4 -18 1 -31 25 -54 31 -30 46 -36 85 -31
37 4 161 88 239 163 66 62 77 67 77 38 0 -10 7 -24 16 -32 8 -7 22 -25 29 -40
9 -16 28 -31 47 -37 36 -11 108 -12 108 -2 0 3 34 24 77 46 42 21 83 46 92 54
9 8 28 24 42 35 14 11 44 49 67 84 32 49 40 70 35 90 -9 41 -21 47 -41 22 -25
-34 -101 -107 -105 -101 -1 3 -33 -25 -71 -61 -50 -49 -82 -71 -118 -83 -28
-9 -54 -13 -59 -10 -17 10 -9 34 19 51 15 10 30 22 34 28 26 38 34 45 45 45 7
0 13 5 13 10 0 6 6 10 14 10 8 0 18 9 21 21 4 11 9 18 12 16 7 -8 80 75 87
100 14 44 -53 77 -114 56z m-27 -128 c-15 -14 -33 -28 -38 -32 -6 -5 -18 -14
-28 -22 -11 -9 -17 -10 -17 -2 0 14 49 66 70 74 34 13 39 6 13 -18z m-466 -57
c-20 -137 -41 -175 -92 -166 -14 3 -28 1 -31 -3 -15 -24 -21 -4 -10 35 7 29
29 63 64 101 28 32 52 62 52 66 0 5 5 9 11 9 8 0 10 -14 6 -42z m-399 -117
c-46 -58 -202 -201 -221 -201 -13 0 3 42 24 66 11 11 17 23 14 26 -10 10 79
93 124 115 49 24 80 21 59 -6z"/>
<path d="M10370 3275 c-7 -8 -18 -15 -25 -15 -8 0 -15 -4 -17 -8 -3 -8 -167
-120 -222 -152 -17 -9 -65 -37 -106 -60 -128 -74 -340 -168 -440 -196 -17 -5
-131 -31 -170 -39 -97 -20 -447 -27 -585 -11 -38 4 -84 8 -102 9 -26 0 -31 4
-27 20 2 11 7 23 11 26 15 11 63 80 63 90 0 12 23 15 34 4 13 -14 36 -11 36 5
0 9 11 32 25 52 34 49 40 89 17 119 -20 25 -58 31 -95 13 -56 -26 -150 -62
-161 -62 -8 0 -33 -9 -57 -19 -45 -20 -129 -42 -129 -35 0 3 18 23 40 46 63
63 85 119 59 145 -17 17 -67 -1 -145 -51 -114 -74 -110 -70 -98 -102 6 -16 16
-28 23 -26 10 2 12 -4 7 -20 -14 -49 -14 -56 5 -88 20 -32 20 -32 85 -26 36 3
72 10 78 16 7 5 16 7 19 3 4 -3 7 -1 7 6 0 7 4 10 9 7 9 -6 159 41 179 57 21
17 14 -11 -15 -54 -16 -23 -37 -56 -48 -73 -29 -47 -73 -97 -88 -100 -6 -2
-25 -9 -42 -16 -16 -7 -34 -14 -40 -14 -15 -1 -143 -75 -150 -86 -4 -6 -11 -8
-16 -5 -5 4 -12 -1 -16 -11 -6 -16 -55 -68 -78 -82 -28 -18 -83 -102 -93 -141
-12 -48 -7 -64 31 -107 35 -41 90 -29 159 33 73 66 210 207 227 233 8 14 21
29 28 33 7 4 13 14 13 21 0 12 33 59 72 106 7 8 12 17 11 21 -3 8 111 4 125
-5 5 -3 63 -8 128 -12 66 -3 120 -7 122 -9 2 -2 17 1 33 5 18 5 29 5 29 -1 0
-6 5 -7 10 -4 6 4 43 8 83 10 310 16 584 103 877 281 164 99 366 256 354 275
-8 13 -20 11 -34 -6z m-1976 -627 c-10 -13 -27 -30 -36 -39 -10 -9 -18 -21
-18 -28 0 -6 -4 -11 -10 -11 -5 0 -10 -5 -10 -11 0 -15 -30 -38 -50 -39 -8 0
-39 -22 -69 -50 -104 -96 -81 -43 29 68 33 34 67 62 75 62 8 0 15 5 15 10 0 6
8 14 18 17 9 4 26 15 36 25 28 26 43 22 20 -4z"/>
<path d="M9888 2748 c-49 -17 -45 -89 6 -102 33 -8 51 0 65 30 21 46 -21 89
-71 72z"/>
</g>
</svg>
