<?xml version="1.0" encoding="utf-8"?>
<!-- Generator: Adobe Illustrator 23.0.1, SVG Export Plug-In . SVG Version: 6.00 Build 0)  -->
<svg version="1.1" id="Layer_1" xmlns="http://www.w3.org/2000/svg" xmlns:xlink="http://www.w3.org/1999/xlink" x="0px" y="0px"
	 viewBox="0 0 1208.7 316.4" style="enable-background:new 0 0 1208.7 316.4;" xml:space="preserve">
<style type="text/css">
	.st0{fill:#F7C04A;}
	.st1{fill:#539165;}
</style>
<path d="M40.4,166.7c-0.5,6.5,0.7,13,3.4,19c2.6,5.9,6.7,11.2,11.3,15.6c9.4,8.9,21.7,14.6,34.6,15.9c12.8,1.6,26,0,38.7-2.7
	c12.7-2.7,25.3-6.3,38.1-9.2c6.4-1.5,12.8-2.8,19.3-4c6.4-1.1,13-2.2,19.5-2.8c13-1.4,26.2-1.8,39.2-0.3c6.5,0.8,13,1.9,19.3,3.6
	c6.4,1.7,12.5,3.8,18.6,6.2c6.1,2.5,12.1,5.1,17.9,8.1c5.8,3,11.6,6.1,17.1,9.7c5.5,3.6,10.7,7.8,15.3,12.4
	c4.6,4.7,8.8,10,11.8,15.8c1.6,2.9,2.9,6,4,9c1.1,3.2,1.9,6.3,2.5,9.6c1,6.6,0.9,13.4-1.3,19.8c-1.1,3.2-2.9,6.3-5.7,8.5
	c-1.4,1.1-3,2-4.9,2.3c-1.8,0.4-3.7,0.2-5.4-0.6c-1.7-0.7-3.1-1.9-4.2-3.2c-1.1-1.4-1.9-2.9-2.5-4.7c-0.6-1.6-0.8-3.5-0.7-5.2
	c0.1-1.8,0.4-3.4,1-5.1c1-3.3,2.9-6.2,4.9-8.8c2-2.7,4.4-5.1,6.8-7.3c4.9-4.5,10.4-8.3,16.4-11.2c6-2.9,12.4-5,18.9-6
	c6.5-1.1,13.2-1.1,19.7-1.1c6.5,0,13.1,0.1,19.5-0.6c3.2-0.3,6.4-0.9,9.5-1.7c3.1-0.9,6.1-2.1,9-3.5c11.5-5.8,21-15.5,26.9-27
	c3-5.7,5.1-12,6.3-18.3c1.1-6.4,1.2-13,0.1-19.4l0.2-0.1c1.3,6.5,1.3,13.1,0.4,19.6c-1,6.4-3,12.8-6,18.8c-3,5.8-6.8,11.4-11.3,16.1
	c-4.6,4.7-9.9,8.9-15.8,11.8c-3,1.5-6.1,2.7-9.2,3.7c-3.2,1-6.5,1.5-9.8,1.9c-6.6,0.7-13.2,0.8-19.7,0.8c-6.6,0.1-13,0.1-19.4,1.1
	c-6.3,1-12.5,2.9-18.3,5.9c-5.8,2.8-11.2,6.5-15.8,10.9c-2.3,2.2-4.5,4.5-6.6,7.1c-1.9,2.6-3.7,5.2-4.7,8.1c-0.5,1.4-0.8,3-0.8,4.5
	c-0.1,1.5,0.1,3,0.5,4.5c0.9,2.8,2.9,5.5,5.5,6.6c1.3,0.5,2.8,0.7,4.2,0.5c1.4-0.3,2.7-0.9,3.9-1.9c2.3-1.9,3.9-4.7,5-7.7
	c0.6-1.5,0.9-3,1.2-4.5c0.1-0.8,0.3-1.6,0.3-2.4l0.2-2.4c0.2-3.1,0-6.4-0.4-9.5c-0.4-3.2-1.2-6.3-2.3-9.4c-1-3-2.3-6-3.8-8.9
	c-2.9-5.8-6.9-10.9-11.4-15.6c-4.5-4.6-9.6-8.7-15-12.4c-5.4-3.7-11.1-6.8-16.9-9.8c-5.8-3-11.7-5.7-17.8-8.2
	c-6-2.5-12.2-4.6-18.5-6.3c-1.5-0.5-3.2-0.8-4.7-1.2l-4.8-0.9c-1.5-0.4-3.2-0.5-4.8-0.8c-1.6-0.1-3.2-0.5-4.8-0.7l-4.9-0.5
	c-1.7-0.2-3.3-0.2-4.8-0.2c-1.7-0.2-3.3-0.1-4.8-0.1c-1.6,0.1-3.3-0.1-4.9,0.1c-6.6,0.1-13.1,0.8-19.5,1.5
	c-6.5,0.8-12.9,1.8-19.3,3.1c-6.5,1.3-12.7,2.7-19.1,4.2s-12.6,3.1-19,4.8c-6.4,1.6-12.7,3.2-19.1,4.5c-12.8,2.6-26.1,4.2-39.3,2.4
	c-13.2-1.5-25.8-7.5-35.2-16.7c-4.7-4.6-8.7-10.1-11.1-16.1c-2.6-6.1-3.6-12.8-2.9-19.3L40.4,166.7z"/>
<path d="M824,110.6c1.2-2.8,2.3-5.3,4.7-7.1c2.4-1.8,5.1-3.1,8-3.9c5.7-1.7,11.7-1.8,17.6-2.4c11.7-1.2,23.3-4.2,34.1-9
	c10.8-4.8,22.7-10.5,31.1-13c9.2-2.7,31.4-2.9,35.5-13.9s5.9-22.9,4.6-34.5c-0.2-1.4-0.4-2.9-0.6-4.4c-0.3-1.4-0.6-2.9-1.1-4.2
	c-0.5-1.4-1.2-2.6-2.1-3.5c-1-1-2.2-1.7-3.5-1.9c-2.7-0.5-5.6,0.7-7.5,2.6c-2,2-3.1,4.8-3.5,7.6c-0.2,1.4-0.3,2.9-0.3,4.3
	c0,0.7,0.1,1.4,0.1,2.2c0.1,0.7,0.1,1.4,0.2,2.2l0.3,2.2c0.1,0.7,0.3,1.4,0.5,2.1c0.3,1.4,0.7,2.8,1.2,4.2c0.2,0.7,0.5,1.4,0.7,2
	l0.4,1c0.1,0.3,0.3,0.7,0.5,1l0.9,2l1,1.9l0.5,1l0.6,1l1.2,1.8l1.3,1.8l0.6,0.9l0.7,0.9l1.4,1.7l1.5,1.6l0.7,0.8l0.7,0.7l1.6,1.6
	l1.6,1.4l0.8,0.7l0.9,0.7l1.7,1.4l1.8,1.3c1.2,0.9,2.5,1.6,3.7,2.4l1.9,1.1c0.6,0.3,1.3,0.7,1.9,1l2,1l2,1c1.3,0.6,2.7,1.2,4,1.7
	c10.9,4.3,22.5,6.5,34.3,7.7c5.9,0.7,11.7,1,17.6,1.4c2.9,0.1,5.9,0.3,8.9,0.3l4.4,0.1h4.4c1.5,0,2.9,0,4.4-0.1l4.4-0.1
	c2.9-0.1,5.9-0.2,8.8-0.4c5.9-0.3,11.7-0.9,17.6-1.5c11.7-1.4,23.3-3.3,34.8-6c5.7-1.3,11.4-2.8,17-4.6c2.8-0.9,5.5-1.9,8.2-3
	c2.7-1.1,5.4-2.3,7.9-3.7c2.6-1.4,5-2.9,7.4-4.6c1.2-0.8,2.3-1.8,3.5-2.7c1.1-1,2.2-1.9,3.2-2.9c2-2,4-4.3,5.6-6.7
	c1.6-2.4,3.1-4.9,4.2-7.6c1.2-2.7,2.1-5.4,2.7-8.2c0.5-2.9,0.7-5.7,0.6-8.6l-0.2-2.2c-0.1-0.7-0.3-1.4-0.3-2.1
	c-0.3-1.4-0.5-2.9-1.4-3.7c-0.4-0.4-1-0.7-1.6-0.9c-0.6-0.1-1.3-0.1-1.9,0c-1.3,0.2-2.7,0.8-3.8,1.6c-0.6,0.4-1.2,0.8-1.7,1.3
	c-0.5,0.5-1.1,1-1.6,1.4c-1.1,1-2.1,2-3.1,3.1c-2,2.2-3.7,4.5-5.4,6.9c-3.2,4.9-5.7,10.3-7.2,15.9l-0.7,2.5l-0.1-2.7
	c-0.3-9.7-5.9-19.3-14.4-24.4l0.1-0.2c8.6,5,14.5,14.4,15.1,24.5l-0.7-0.1c1.4-5.8,3.8-11.3,7-16.3c1.6-2.5,3.4-4.9,5.4-7.2
	c1-1.1,2-2.2,3.1-3.2c0.5-0.5,1.1-1,1.6-1.5c0.5-0.5,1.2-1,1.8-1.4c0.6-0.4,1.3-0.8,2-1.2c0.7-0.3,1.4-0.6,2.2-0.7
	c0.8-0.1,1.6-0.2,2.5,0c0.8,0.1,1.6,0.6,2.2,1.2c0.6,0.6,1,1.4,1.3,2.2c0.3,0.7,0.4,1.5,0.5,2.2c0.1,0.7,0.3,1.5,0.4,2.2l0.3,2.2
	c0.2,3,0,6.1-0.5,9c-0.5,3-1.5,5.9-2.7,8.6c-1.2,2.8-2.7,5.4-4.4,7.9c-1.7,2.5-3.6,4.8-5.7,6.9c-1,1.1-2.2,2-3.3,3.1
	c-1.2,1-2.3,1.9-3.5,2.8c-2.5,1.8-5,3.4-7.6,4.8c-5.2,2.9-10.8,5.1-16.5,6.9s-11.4,3.3-17.2,4.6c-23.1,5.3-46.8,8-70.5,8h-4.4
	l-4.4-0.1c-2.9-0.1-5.9-0.2-8.9-0.3c-5.9-0.3-11.8-0.8-17.7-1.5c-11.8-1.4-23.6-3.6-34.7-8c-1.4-0.6-2.8-1.1-4.1-1.8l-2-1l-2-1
	c-0.7-0.3-1.3-0.7-2-1.1l-2.5-0.9c-1.2-0.8-2.5-1.6-3.7-2.5l-1.8-1.3l-1.8-1.4l-0.9-0.7l-0.8-0.7l-1.6-1.5l-1.6-1.6l-0.8-0.8
	l-0.7-0.8l-1.5-1.7l-1.4-1.8l-0.7-0.9l-0.7-0.9l-1.3-1.8l-1.2-1.9l-0.6-1l-0.5-1l-1.1-2l-1-2c-0.1-0.3-0.3-0.7-0.5-1l-0.4-1
	c-0.3-0.7-0.5-1.4-0.7-2.1c-0.4-1.4-0.9-2.9-1.2-4.4c-0.1-0.7-0.3-1.4-0.5-2.2l-0.3-2.2c-0.1-0.7-0.1-1.5-0.2-2.2
	c0-0.7-0.1-1.5-0.1-2.2c0-1.5,0.1-3,0.3-4.5c0.5-3,1.6-6,3.9-8.2c0.5-0.5,1.2-1,1.8-1.4c0.7-0.4,1.4-0.7,2.1-1
	c1.5-0.5,3.1-0.7,4.7-0.4c0.8,0.1,1.6,0.4,2.2,0.8c0.7,0.4,1.3,0.9,1.9,1.5c1.1,1.2,1.8,2.5,2.4,4c0.5,1.4,0.9,2.9,1.2,4.4
	c0.2,1.5,0.4,2.9,0.6,4.4c1.2,11.9-0.6,23.9-4.8,35S923.1,74,917.4,76.9c-10.6,5.3-18.1,7.2-28.9,12c-10.8,4.8-22.5,7.8-34.3,8.9
	c-5.9,0.5-11.9,0.6-17.5,2.2c-2.8,0.8-5.5,2-7.9,3.8c-2.4,1.7-4.4,4-5.5,6.7L824,110.6z"/>
<path d="M1127.4,20.5c-2.5,0.3-4.8,1.4-6.7,2.9c-2,1.5-3.5,3.4-4.6,5.6c-1.2,2.1-1.8,4.5-2.1,6.9c-0.2,2.4,0,4.8,0.7,7.2
	c1.2,4.7,3.7,9,6.9,12.7c3.2,3.7,7.1,6.7,11.1,9.5c4,2.9,8.2,5.5,12.3,8.3l6.1,4.2c2,1.4,4.2,2.9,5.6,5c1.5,2.1,2.3,4.6,2.6,7.1
	c0.3,2.5-0.1,5.1-0.9,7.5c-1.7,4.8-5.2,8.6-9.3,11.4c2-1.5,3.7-3.2,5.2-5.2c1.5-2,2.7-4.2,3.4-6.5c0.7-2.3,1-4.8,0.7-7.2
	c-0.3-2.4-1.2-4.7-2.6-6.6c-1.4-1.9-3.4-3.3-5.4-4.7l-6.2-4.1c-4.1-2.7-8.3-5.4-12.4-8.2c-4-2.9-8-6.1-11.2-9.8
	c-3.3-3.8-5.9-8.2-7-13.2c-0.6-2.5-0.7-5-0.5-7.5c0.3-2.5,1.1-5,2.4-7.2c1.3-2.2,2.9-4.1,5-5.5C1122.5,21.6,1124.9,20.7,1127.4,20.5
	z"/>
<path class="st0" d="M945,25.2c0-2.9,0.3-5.9,1.9-8.2c0.4-0.6,1-1.2,1.7-1.3c1.2-0.3,2.2,0.5,3.1,1.4c1.8,2.1,2.2,5,2.5,7.6
	c0.8,7.2,1.2,15.1-0.2,22.1c-0.2,1-1,6.1-1,6.1s-2.8-5.2-3.3-6.1c-1.4-3.2-2.6-6.5-3.4-9.9C945.5,33.1,945,29.1,945,25.2z"/>
<path class="st1" d="M1125.5,52.1c-2.7-3.4-5.3-7.2-5.9-11.4c-0.3-2-0.1-4,0.2-6c0.3-2,0.9-4.1,1.9-5.9c1-1.8,2.7-3.3,4.6-4
	c2.5-0.8,5.2-0.2,7.4,1.2c2.2,1.4,3.8,3.5,5.2,5.7c4.2,6.4,6.4,13.9,7.9,21.4c0.3,1.8,0.7,3.7,1.6,5.4c2.1-3.9,3.3-8.2,5-12.3
	c2.9-6.9,7.4-13,12.1-18.8c1.7-2,3.5-4.1,5.7-5.4c0.5-0.3,1.2-0.7,1.8-0.5c0.9,0.2,1.3,1.2,1.5,2c0.6,2.8,0.1,5.7-0.5,8.5
	c-1.5,6.6-3.8,13.3-8.6,18.1c-1.6,1.6-3.5,3.1-5.3,4.4c-5,3.7-10,7.2-15.1,10.6c-0.8,0.5-2.9,2.5-3.8,2.5c-0.9,0-2.6-2-3.3-2.5
	c-2.2-1.9-4.3-3.9-6.3-5.9C1129.5,56.9,1127.4,54.6,1125.5,52.1z"/>
<path class="st1" d="M338.7,277.2c-2,2.7-3.9,5.6-4.9,8.8c-0.9,3.3-0.9,7,0.9,9.9c0.8,1.3,2.2,2.5,3.7,2.2c0.6-0.2,1.2-0.5,1.7-1
	c1.4-1.3,2-3.3,2.5-5.1c1.4-5,2.2-10.3,2.5-15.6c0-1.3,0.1-2.6,0.1-3.9c-0.1-1.4-0.2-2-1.4-1.2C341.7,272.6,340.1,275.4,338.7,277.2
	z"/>
<path d="M38.2,80.5H0v-8.1h85.6v8.1H47.2v105.8h-8.9V80.5z"/>
<path d="M106.6,66.3v52.2c4.6-8.5,12.5-15.6,26.8-15.6c11.6,0,27.5,5.9,27.5,31.6v51.7h-8.1v-50.1c0-16.1-7.3-25.2-20.8-25.2
	c-16.1,0-25.4,9.9-25.4,29.9v45.4h-8.1V66.3H106.6z"/>
<path d="M189.4,146.5c0.2,21,10.7,34,26.4,34c15.3,0,20.5-8.6,23.4-15.3h8.3c-3.4,10.7-12,22.9-32.1,22.9c-24.7,0-34.3-21.3-34.3-42
	c0-23.3,11.6-43.3,35.3-43.3c25.1,0,33,21.6,33,36.9c0,2.3,0,4.6-0.2,6.7H189.4z M241,139.4c-0.2-16.1-8.9-28.8-24.9-28.8
	c-16.8,0-24.4,11.7-26.2,28.8H241z"/>
<path d="M314.2,72.3h39.7c21.8,0,33.5,11.6,33.5,28c0,13.5-8.1,22.3-17.6,24.9c8.1,2.3,21.6,10.3,21.6,28.1
	c0,22.8-17.1,32.9-36.9,32.9h-40.4V72.3z M351,121.3c19.7,0,27.2-7.3,27.2-20.5c0-11.2-7.8-20.3-23.8-20.3h-31.6v40.8H351z
	 M322.8,178.1h32.1c15,0,27.5-7.5,27.5-24.2c0-14.5-9.3-24.4-32.2-24.4h-27.3V178.1z"/>
<path d="M469.4,170.8c0,7.2,0.7,12.9,1.1,15.5h-7.8c-0.7-2-1.1-5.5-1.5-12.5c-2.8,6-9.9,14.5-26.7,14.5c-18.9,0-27-12.2-27-24.4
	c0-17.9,13.8-26,38.2-26c6.8,0,12.2,0,15.5,0v-8.3c0-8.1-2.4-19-21-19c-16.4,0-18.9,8.6-20.7,15.3h-8.1c1-8.9,6.5-22.8,29-22.8
	c18.5,0,29,7.8,29,25.7V170.8z M461.5,144.7c-3.1,0-10.6,0-15.9,0c-18.1,0-29.3,4.7-29.3,18.7c0,10.3,7.3,17.2,18.7,17.2
	c23.3,0,26.5-15.5,26.5-33V144.7z"/>
<path d="M495.5,163.8c2.8,10.6,10.3,16.9,23.1,16.9c14.5,0,20.3-6.7,20.3-15.8c0-9.3-3.9-13.8-22.1-18.2c-21-5-26.2-11.4-26.2-22.1
	c0-11.2,8.5-21.6,26.8-21.6s27.2,11.2,28.5,22.8h-8.1c-1.5-6.8-6.8-15.3-20.7-15.3c-14.2,0-18.2,7-18.2,13.5c0,7.5,3.9,11.2,20,15.1
	c22.9,5.5,28.6,13,28.6,25.2c0,14.8-12,23.9-29.1,23.9c-18.5,0-29-9.8-31.2-24.4H495.5z"/>
<path d="M569.5,146.5c0.2,21,10.7,34,26.4,34c15.3,0,20.5-8.6,23.4-15.3h8.3c-3.4,10.7-12,22.9-32.1,22.9c-24.7,0-34.3-21.3-34.3-42
	c0-23.3,11.6-43.3,35.3-43.3c25.1,0,33,21.6,33,36.9c0,2.3,0,4.6-0.2,6.7H569.5z M621.1,139.4c-0.2-16.1-8.9-28.8-24.9-28.8
	c-16.8,0-24.4,11.7-26.2,28.8H621.1z"/>
<path d="M694.3,72.3H734c21.8,0,33.5,11.6,33.5,28c0,13.5-8.1,22.3-17.6,24.9c8.1,2.3,21.6,10.3,21.6,28.1
	c0,22.8-17.1,32.9-36.9,32.9h-40.4V72.3z M731.1,121.3c19.7,0,27.2-7.3,27.2-20.5c0-11.2-7.8-20.3-23.8-20.3h-31.6v40.8H731.1z
	 M702.9,178.1H735c15,0,27.5-7.5,27.5-24.2c0-14.5-9.3-24.4-32.2-24.4h-27.3V178.1z"/>
<path d="M796.6,146.5c0.2,21,10.7,34,26.4,34c15.3,0,20.5-8.6,23.4-15.3h8.3c-3.4,10.7-12,22.9-32.1,22.9c-24.7,0-34.3-21.3-34.3-42
	c0-23.3,11.6-43.3,35.3-43.3c25.1,0,33,21.6,33,36.9c0,2.3,0,4.6-0.2,6.7H796.6z M848.2,139.4c-0.2-16.1-8.9-28.8-24.9-28.8
	c-16.8,0-24.4,11.7-26.2,28.8H848.2z"/>
<path d="M932.3,170.8c0,7.2,0.7,12.9,1.1,15.5h-7.8c-0.7-2-1.1-5.5-1.5-12.5c-2.8,6-9.9,14.5-26.7,14.5c-18.9,0-27-12.2-27-24.4
	c0-17.9,13.8-26,38.2-26c6.8,0,12.2,0,15.5,0v-8.3c0-8.1-2.4-19-21-19c-16.4,0-18.9,8.6-20.7,15.3h-8.1c1-8.9,6.5-22.8,29-22.8
	c18.5,0,29,7.8,29,25.7V170.8z M924.4,144.7c-3.1,0-10.6,0-15.9,0c-18.1,0-29.3,4.7-29.3,18.7c0,10.3,7.3,17.2,18.7,17.2
	c23.3,0,26.5-15.5,26.5-33V144.7z"/>
<path d="M1019.1,162.5c0,8,0.2,20.7,0.2,23.8h-7.8c-0.3-2.1-0.5-7.5-0.5-14.2c-3.4,9.6-11.7,16.1-26.2,16.1
	c-11.7,0-26.7-4.6-26.7-29.5v-53.9h8v51.9c0,11.9,3.7,23.4,19.9,23.4c18.2,0,25.1-10.3,25.1-33.5v-41.8h8.1V162.5z"/>
<path d="M1035.5,104.9h15.1V79.5h8.1v25.4h19.4v7.6h-19.4v52.9c0,9.1,2,14.3,9.8,14.3c2.4,0,5.9-0.2,8.5-1v7.2
	c-2.8,1.1-6.7,1.5-10.1,1.5c-10.4,0-16.3-5.2-16.3-18.2v-56.6h-15.1V104.9z"/>
<path d="M1097.5,104.9c16.4,46.5,23.6,65.7,26.4,74.5h0.2c3.3-9.9,9.8-28.8,25.5-74.5h8.5c0,0-30.6,86.1-30.6,86.1
	c-5,14-10.4,28.4-27.1,29.4c-10.2,0.6-20.2-5-30.7-5.9c-11.6-1-23.3,0.1-34.6,2.6c-20,4.4-38.9,12.6-58.1,19.9
	c-19.2,7.2-39.1,13.5-59.6,13.5c-28.8,0.1-56.2-12.1-84.5-17.3c-13.7-2.5-28.9-4-38.3-14.2c6.6-4.4,15.3-3.2,23-1.3
	c22.1,5.5,43.1,15.2,65.4,19.6c19,3.7,38.8,3.5,57.8-0.6c26.1-5.7,50-18.6,75.3-27c22.3-7.4,48-11.3,70.5-2.5
	c7.5,3,13.4,7.9,21.5,2.8c2.8-1.8,4.7-4.5,6.3-7.4c1.2-2.2,6.2-10.5,5.3-12.7c-0.1-0.2-31.1-84.9-31.1-84.9H1097.5z"/>
</svg>
