<svg id="efp4hdkMVSv1" xmlns="http://www.w3.org/2000/svg" xmlns:xlink="http://www.w3.org/1999/xlink" viewBox="0 0 1920 1080" shape-rendering="geometricPrecision" text-rendering="geometricPrecision"><defs><rect id="efp4hdkMVSv2" width="1918.9" height="1081" rx="0" ry="0"/><path id="efp4hdkMVSv3" d="M1489.3,1040.3l-16.9,22.7-5.1,6.9-55.9,75-1.2-.7-267.1-161c0,0,5.9-4.6,18-13.5c1.3-.9,2.7-1.9,4.1-3c2.3-1.6,4.7-3.4,7.3-5.2c16.8-11.9,41-28.6,73.1-49.3c0,0,3.1-2.9,7.2-6.6c2.1-1.9,4.5-4,6.9-6c5.2-4.4,10.5-8.2,12.6-8.2c0,0,11.8,6.9,20.7,14.8l196.3,134.1Z"/></defs><g><g><g><g><polygon points="1773.5,259.1 1740.4,255.8 1753,240.4 1737.6,253 1734.4,219.9 1731.1,253 1715.7,240.4 1728.3,255.8 1695.2,259.1 1728.3,262.4 1715.7,277.7 1731.1,265.1 1734.4,298.3 1737.6,265.1 1753,277.7 1740.4,262.4" fill="#f5f9f6"/></g></g></g><g><g><g><polygon points="920,361 886.9,357.7 899.5,342.3 884.1,354.9 880.8,321.8 877.5,354.9 862.2,342.3 874.8,357.7 841.6,361 874.8,364.2 862.2,379.6 877.5,367 880.8,400.1 884.1,367 899.5,379.6 886.9,364.2" fill="#f5f9f6"/></g></g></g><g><g transform="translate(.000001 0.000001)" clip-path="url(#efp4hdkMVSv120)"><g><g><path d="M1633.7,851.8h-555.5v-411.7c0-151.3,122.7-274,274-274h7.6c151.3,0,274,122.7,274,274v411.7Z" fill="none" stroke="#fff" stroke-width="3" stroke-miterlimit="10"/><path d="M1618.7,833.3h-525.5v-389.5c0-143.1,116-259.2,259.2-259.2h7.1c143.1,0,259.2,116,259.2,259.2v389.5Z" fill="none" stroke="#fff" stroke-miterlimit="10"/></g><g id="efp4hdkMVSv19" transform="translate(0 2)" opacity="0.54"><g><path d="M1542,835.9c-4.1-18.1-8.5-36.2-12.3-54.4-3.8-17.9-8.4-35.5-14.7-52.7-1.9-5.1-3.8-10.4-6.8-14.9-10.8-16.1-12.3-33.6-9-52.2c1.9-10.8,3.8-21.6,4.8-32.5.7-8.6-.1-17.3-.2-25.9c0-1.5-.1-3,.2-4.3.2-.7,1.3-1.2,2.8-2.6-.9-2.9-2.2-7-3.3-11.2-.4-1.4,0-3,0-4.4c0-.9.3-1.9.1-2.7-.6-2.6-1.4-5.1-2.2-7.7-1.5-5.1,0-9.3,5.2-12.9c6.8,8.3,7.7,19.6,14.1,27.3c0,.1.2-.8.9-3.1c3.4,4.8,6.2,8.8,8.6,12.2-.6-5.8-1.3-12.1-1.9-18.3.5-.2,1.1-.5,1.6-.7c1,1.2,2.3,2.3,3,3.6c4.2,7.7,8.2,15.5,12.3,23.2.5.9,1.1,1.8,1.1,1.9.5-5.3.7-11.1,1.8-16.9.6-3.1,2.7-6,4.1-9c.4,0,.7.1,1.1.1c2.7,14.6,5.3,29.1,7.9,43.2c6.1-5.3,12-10.4,17.8-15.4.4.3.9.7,1.3,1-.4,1.2-.6,2.6-1.3,3.7-9.4,13.9-16.1,29-21.3,45-2.7,8.3-7.3,15.9-11,23.8-.9,2-1.8,4-2.8,6-4.6,8.9-4.7,18.1-2.3,27.7c4.3,17,11.6,32.7,18.6,48.7c10.3,23.7,20.8,47.4,31.1,71.2.5,1.1.7,2.3,1.1,3.4-16.8-.2-33.6-.2-50.4-.2Zm-13.4-227c-.1.1-.3.1-.4.2c2,6.8,3.9,13.7,6.1,20.5c1,3.1.3,4.6-2.8,5.3-2.1.5-4.2,1.1-6.3,1.8-7.6,2.4-7.3,2.3-9.2-4.8-.1-.4-.4-.8-.6-1.2-.4,0-.8.1-1.1.1.3,5,.2,10.1,1.2,14.9.6,3,2.4,6.2,4.5,8.4c2.9,3.1,5,2.6,7.4-.9c5-7.2,8-15.2,9.9-23.7.4-2,0-4.5-.9-6.3-2.3-4.9-5.2-9.6-7.8-14.3Z" fill="#fbfdfc"/><path d="M1264.3,624.6c-1.1-10.1,2.1-18.1,11.8-23.9-2.5-.6-4.3-1-6.1-1.5-19.5-4.6-38.3-11.2-54.9-22.8-27.8-19.4-39.5-46.5-37.8-79.9c1.6-30.2,12.3-57.6,26.4-83.9.5-1,1-1.9,1.5-2.9.1-.2,0-.5,0-.7-4.8-1.2-9.7-2.1-14.4-3.6-19.9-6.4-30.1-22.1-27.5-42.9c2.1-17.1,9.6-31.5,22.4-43c6.9-6.2,14.9-9.8,24.5-9.5c7,.2,7.2-.2,8.4-7.1.1-.7.3-1.4.3-2.2.5-4.5.1-9-3.9-11.9-4.3-3.1-9-2.4-13.6-.6-3.3,1.2-4.5,3.9-4,7.4.2,1.2.5,2.3.8,3.5-10.8.9-17.7-6.7-15.5-17c3.2-15.3,19.7-25.8,32.5-20.6c13.4,5.4,20.1,21.2,14.6,34.6-1.7,4-4.1,7.7-6.4,11.9c1.9-.7,3.8-1.2,5.5-1.9c8.1-3.3,16.4-5.1,25.3-4.1c11.3,1.3,17.3,6.8,19,18.1.2,1.2.3,2.4.5,3.8c5.3-1.5,10.4-3.1,15.6-4.2c28.9-6.4,57.6-4.4,86,2.6c18.3,4.5,35.8,10.9,51.4,21.8c7.3,5.1,13.5,11.1,17.6,19.2c3.1,6.2,4.1,12.8,2.9,20.4c5.6-4.6,11.3-5.1,17.4-3.3c7.4,2.2,11.5,8.3,10,15.9-.7,3.4-2.1,6.8-4,9.6-5,7.1-12,6.6-16.6-.6c1.6-1.3,3.6-2.3,4.6-4c.7-1,.2-3.1-.3-4.5-2-5.8-6.4-7.1-11.5-3.8-.9.6-1.7,1.4-2.6,2-2.7,2.1-3.1,3.9-1.1,7.2c9.4,15.4,14.6,32,13.6,50.3-.1,1.3.2,2.6.3,4.8c4.9-.7,9.4-1.4,13.9-2.1-2.5,4.4-7,6.2-12.7,8.1c3.4,4.5,6.2,9,9.8,12.6c5.7,5.7,12,10.7,17.9,16.1c3.1,2.9,6.3,5.7,8.9,9.1c4,5,3.3,8.9-1.8,12.8-2.7,2.1-5.7,3.8-8.4,5.9-5.3,4.1-5.6,8.3-1.1,13.3c1,1.1,2.1,2,3.2,3c4.1,3.3,4.6,7.1.9,10.9-2.5,2.6-5.5,4.6-8.6,7.1c2.1,1.3,4.2,2.4,6.1,3.7c4.8,3.5,5,8.2-.2,11.1-7.6,4.2-8.7,10.3-6.9,18c1,4.5,1.5,9.1,1.9,13.7.4,4.1-1.5,7.8-5.2,9.3-5.7,2.3-11.6,4.4-17.6,5.3-9.6,1.4-19.1.2-28.5-2.4-10.5-3-21.1-3.3-31.7-.4-6.8,1.8-10.9,5.9-12.8,13-4.5,17.2-9.3,34.2-16.4,50.6-6.9,16-3.8,32,3.1,47.4c2.6,5.7,5.7,11.4,9.2,16.6c9.9,14.7,19.5,29.8,30.4,43.8c15,19.4,35,33.2,55.5,46.4c2.1,1.4,4.4,2.7,6.5,4c.1.1.1.2.3.7-83.7,0-167.3,0-251.3,0c2-8.6,3.9-17,5.9-25.3c5.8-23.6,11.1-47.4,17.8-70.7c3.3-11.6,9.3-22.4,13.9-33.6c8.2-19.8,16.4-39.5,24.4-59.4c4.3-10.8,8.1-21.9,12-32.9c1.8-5,.8-6.6-4.4-7.5-10.2-1.8-19.1,3.1-24,13.2-1,1.7-1.8,3.8-2.7,5.9Z" fill="#fbfdfc"/></g></g></g><g><g id="efp4hdkMVSv24"><path d="M1565.7,1108.3c-.3-2.6-.5-5.2-2.7-6.9-1.7-1.4-4-2-5.7-3.2-1.1-.7-2.3-1.4-3.4-2.2-3.2-2.1-6.5-4.1-9.7-6.2-12.3-7.9-24.7-15.8-37-23.7-6.9-4.4-13.7-8.8-20.6-13.2v-.1L1290.3,918.7c-8.9-7.9-20.7-14.8-20.7-14.8-2.1,0-7.3,3.8-12.6,8.2-2.4,2-4.8,4.1-6.9,6-4.1,3.6-7.2,6.6-7.2,6.6-32.1,20.8-56.3,37.4-73.1,49.3-2.6,1.9-5.1,3.6-7.3,5.2-1.4,1-2.8,2-4.1,3-12.2,8.8-18,13.5-18,13.5l267.1,161l.8.5.4.8c0,0,44.6,25.8,44.6,25.8c7.3,4.2,14.8,8,22.6,11.2c3.1,1.3,6.3,2.7,9.6,3.9c1,.4,2,.7,3,1c.5.1.9.3,1.4.4c1.4.4,2.8.7,4.2.8c2.6.3,5.4.1,7.7-1.2c5.1-2.9,10-8.4,14.6-12.1c5-3.9,9.9-8,14.8-12.1c9.9-8.5,20-17.5,27.8-28c1.5-2.1,4.4-5.3,4.7-8.1l2-20c.3-4.9.3-8.5,0-11.3Z" opacity="0.2"/><g><path d="M1489.3,1040.3l-16.9,22.7-5.1,6.9-55.9,75-1.2-.7-267.1-161c0,0,5.9-4.6,18-13.5c1.3-.9,2.7-1.9,4.1-3c2.3-1.6,4.7-3.4,7.3-5.2c16.8-11.9,41-28.6,73.1-49.3c0,0,3.1-2.9,7.2-6.6c2.1-1.9,4.5-4,6.9-6c5.2-4.4,10.5-8.2,12.6-8.2c0,0,11.8,6.9,20.7,14.8l196.3,134.1Z" fill="#faf8ec"/><g opacity="0.55"><path d="M1411.8,1133.5l-1.7,10.6-267.1-161c0,0,5.9-4.6,18-13.5-2.1,6.5-3.2,15.2,3.6,20.4l247.2,143.5Z" fill="#fff"/><path d="M1424.2,1104.4l-12.3,12.5c0,0-212.8-101.3-246.6-150.2c2.3-1.6,4.7-3.4,7.3-5.2c37.9,20.9,235.1,130,251.6,142.9Z" fill="#fff"/><path d="M1479.8,1053c-2.5,3.3-4.9,6.7-7.4,10-1.7,2.3-3.4,4.6-5.1,6.9c0,0,0,0,0,0-14.6-10.4-29.3-20.7-43.9-31.1-58.8-41.6-119.2-82.4-170.5-133.3c2.1-1.9,4.5-4,6.9-6c28,19.6,55.9,39.1,83.9,58.7c21.9,15.3,43.7,30.6,65.6,45.9c9.7,6.8,19.3,13.5,29,20.3c13.6,9.6,28.6,17.9,41.5,28.6Z" fill="#fff"/></g><path d="M1568.2,1107.1l-2,20c-.3,2.8-3.1,6-4.7,8.1-7.8,10.6-17.9,19.5-27.8,28-4.8,4.1-9.8,8.2-14.8,12.1-4.7,3.7-9.5,9.2-14.6,12.1-2.3,1.3-5.1,1.6-7.7,1.2-1.4-.2-2.8-.5-4.2-.8-.5-.1-.9-.3-1.4-.4-1-.3-2-.7-3-1-3.3-1.2-6.5-2.7-9.6-3.9-7.8-3.2-15.3-7.1-22.6-11.2c0,0-44.6-25.8-44.6-25.8l-5.2-10.6c0,0-.4-4.2.8-11c.8-4.6,2.4-10.3,5.4-16.9c3-6.5,7.3-13.8,13.7-21.5v0c2-2.4,4.3-4.9,6.7-7.4c3.2-3.2,6.8-6.5,10.8-9.8c5.4-4.4,11.7-8.9,18.8-13.3.9-.5,1.8-1.1,2.7-1.6.3-.2.6-.3.8-.5l23.3-12.6c6.9,4.4,13.8,8.8,20.7,13.3c12.3,7.9,24.7,15.8,37,23.7c3.2,2.1,6.5,4.1,9.7,6.2c1.1.7,2.3,1.4,3.4,2.2c1.8,1.1,4.1,1.8,5.7,3.2c2.1,1.7,2.4,4.3,2.7,6.9.4,2.7.4,6.4,0,11.3Z" fill="#3f2926"/><path d="M1531.7,1116.9c-.4.3-.8.7-1.2,1-11.4,9.5-24.1,22.7-37.2,41c0,0-4.1,14.5-2.3,28.4-1-.3-2-.7-3-1-2.5-11.7-.8-28.7-.8-28.7-4.8,1.1-64.1-26.3-80.4-33.9.8-4.6,2.4-10.3,5.4-16.9l13.7-21.5v0c4.1,7,46.2,43.4,46.2,43.4c8.9,6.6,18.4,23,18.4,23v-3.3c-2.8-10.5-25-30.3-25-30.3-25.2-21-31.4-34.2-32.8-40.2c3.2-3.2,6.8-6.5,10.8-9.8.8,9.6,5.3,16.5,5.3,16.5l41.8,40.8c8.9,8.2,13.8,6.9,13.8,6.9c11.1-3.7,22.6-11.8,27.3-15.4Z" fill="#1b1a1c"/><path d="M1545.5,1109.5c0,0-2,6.1-7.7,5c0,0-7.9-4.9-20.9-14.2-10.6-8.5-21.1-16.9-31.7-25.4-4.4-3.5-9.1-7.2-13.5-10.8-1.8-1.4-4.8-3.4-7.1-5.7-1-1.1-1.9-2.2-2.4-3.4.9-.5,1.8-1.1,2.7-1.6.9.5,1.9,1.1,2.9,1.8l72.7,46.3c0,0,5.5,4.1,5,8Z" opacity="0.1" fill="#fff"/><path d="M1418.8,1107.7c-1.1-1.3-1.8-2.8-1.9-4.8c0-1.1.3-2.3,1.3-2.9.6-.4,1.4-.5,2.2-.5c4.5,0,8.2,3.3,11.5,6c3.7,3.1,7.5,6.2,11.2,9.2c0,0,45.2,35.7,46.2,39.2c0,0,2,2-4.4-1.3-8-5.4-16-10.7-24-16.1-11.7-7.8-23.4-15.6-35-23.5-2.4-1.7-5.3-3.1-7.1-5.3Z" opacity="0.1" fill="#fff"/><path d="M1568.2,1107.1l-2,20c-.3,2.8-3.1,6-4.7,8.1-7.8,10.6-17.9,19.5-27.8,28-4.8,4.1-9.8,8.2-14.8,12.1-4.7,3.7-9.5,9.2-14.6,12.1-2.3,1.3-5.1,1.6-7.7,1.2-1.4-.2-2.8-.5-4.2-.8l6.4-19.9c0,0,16.7-36,31.8-49.9c16-13.4,29.5-19.5,37.8-22.3.2,2.8.2,6.5-.2,11.4Z" fill="#46312e"/><path d="M1154.8,982c8.6-7.5,17.6-14.5,26.8-21.2c4.6-3.3,9.4-6.5,14-9.7c4.7-3.3,9.3-6.6,13.8-10.1c4.6-3.4,9.1-6.9,13.7-10.2s9.3-6.6,14-9.9c9.4-6.4,19.1-12.5,29-18.1l-.1.1c1.7-1.7,3.4-3.5,5.2-5.2c0,0,.1,0,.1,0s0,.1,0,.1c-1.5,1.9-3.1,3.8-4.7,5.7v0h-.1l-28.3,19.1-28.3,19.1c-4.7,3.2-9.3,6.5-13.9,9.9-4.5,3.5-9,7-13.5,10.5-9.1,6.9-18.3,13.6-27.7,20c0,0-.1,0-.1,0c.1,0,.1,0,.1-.1Z" fill="#f8f5e4"/><g><g clip-path="url(#efp4hdkMVSv52)"><g><g><path d="M1381.7,1062.2c.4-.5.6-.8,1-1.3c3.7,2.7,5.5,4.1,8.9,6.9c1.4-1.7,2-2.5,3.5-4.1.4.3.6.5,1.1.9-1.8,2.1-2.7,3.2-4.5,5.3-3.9-3.2-5.8-4.7-10-7.7Z"/><path d="M1399.2,1051.5c3.5,2.8,3.4,6.3,1.2,8.7-2.3,2.5-5.7,2.6-8.8.2-3.2-2.5-3.7-6-1.5-8.6c2.3-2.7,6.1-2.7,9.1-.3Zm-6.5,7.5c2.1,1.7,5,2.1,6.7.2c1.8-1.9.9-4.6-1.4-6.4-2-1.6-5.1-2.3-6.9-.2s-.6,4.7,1.6,6.4Z"/><path d="M1395.8,1046c.4-.7,1.2-1.7,2-2.5c1.3-1.3,2.3-1.9,3.5-2.1.9-.1,1.9.2,2.7.9c1.4,1.1,1.5,2.6.9,3.9c0,0,0,0,0,0c1-.5,2.1-.3,3.4.4c1.7.9,2.9,1.5,3.4,1.7-.5.5-.8.7-1.2,1.2-.4-.1-1.5-.6-3-1.4-1.6-.9-2.7-.9-3.8.2-.4.5-.7.7-1.1,1.1c1.7,1.4,2.6,2.2,4.3,3.7-.5.5-.7.7-1.2,1.2-3.8-3.4-5.8-5.1-9.9-8.3Zm5.8,2.6c.5-.5.7-.7,1.2-1.2c1.3-1.3,1.3-2.7.1-3.7-1.3-1.1-2.8-.7-4,.6-.6.6-.9,1.1-1,1.3c1.5,1.1,2.2,1.7,3.7,3Z"/><path d="M1413.4,1038.3c-1.5,1.4-2.3,2.1-3.8,3.5c1.5,1.2,2.2,1.9,3.6,3.1c1.7-1.5,2.5-2.3,4.2-3.8.4.4.6.6,1.1,1-2.2,2-3.3,2.9-5.4,5-3.9-3.5-6-5.2-10.1-8.6c2-2,3.1-3,5.2-5c.5.4.7.6,1.1.9-1.6,1.5-2.4,2.2-4,3.8c1.3,1.1,2,1.6,3.3,2.7c1.5-1.4,2.2-2.1,3.8-3.5.3.3.6.5,1,.9Z"/><path d="M1424.4,1029.4c-1.5-1.2-3.3-2.7-4.6-3.8c0,0,0,0,0,0c.9,1.4,1.7,2.8,2.6,4.5c1.2,2.4,1.9,3.6,3,6-.4.3-.6.5-1,.8-2.5-1.2-3.8-1.8-6.4-2.9-1.9-.8-3.7-1.6-5.2-2.4c0,0,0,0,0,0c1.3,1.1,2.9,2.7,4.4,4.1c1.6,1.6,2.4,2.4,4,4.1-.5.4-.7.6-1.2,1.1-3.7-3.9-5.6-5.7-9.5-9.5.7-.6,1-.9,1.6-1.5c2.7,1.1,4.1,1.6,6.7,2.8c1.7.7,3.1,1.4,4.4,2.2c0,0,0,0,0,0-.7-1.1-1.5-2.4-2.3-4-1.2-2.4-1.9-3.5-3.2-5.9.7-.6,1-.9,1.7-1.4c4.5,3.4,6.7,5.1,10.9,8.7-.5.4-.8.6-1.3,1-1.8-1.6-2.7-2.4-4.6-3.9Z"/><path d="M1427.1,1017.5c4.2,3.7,6.3,5.6,10.3,9.5-.6.4-.9.6-1.4,1-4-3.8-6-5.7-10.3-9.4.5-.5.8-.7,1.4-1.1Z"/><path d="M1438,1023.8c1-.1,2.2-.5,3.2-1.2c1.5-1,1.7-2.3.7-3.3-.9-.9-2.1-1-4.2-.5-2.4.7-4.4.8-5.9-.6-1.6-1.5-1.4-3.6.8-5.2c1.2-.8,2.3-1.2,3-1.3.3.5.4.8.7,1.3-.6.1-1.6.3-2.7,1.1-1.5,1.1-1.3,2.3-.5,3c1,.9,2.1.8,4.2.2c2.6-.7,4.4-.6,5.9.9c1.6,1.5,1.6,3.7-1.1,5.6-1.1.8-2.5,1.3-3.5,1.4-.1-.6-.3-.9-.6-1.4Z"/><path d="M1438,1009.8c.6-.6,1.5-1.3,2.7-2.1c1.5-1,2.9-1.4,4.2-1.4c1.1.1,2.3.5,3.2,1.4s1.4,1.8,1.3,2.7c-.1,1.2-1,2.5-2.5,3.4-.5.3-.9.5-1.3.7c1.6,1.6,2.4,2.4,4,4-.6.4-.9.6-1.5,1-3.9-3.9-5.9-5.9-10.1-9.7Zm6.5,3.7c.4-.1.9-.4,1.4-.7c1.8-1.2,2.2-2.7.7-4.1-1.4-1.3-3.2-1.2-4.8-.1-.7.4-1.1.8-1.3,1.1c1.6,1.5,2.4,2.3,4,3.8Z"/><path d="M1448.7,1002.6c2.5,2.4,3.8,3.6,6.2,6c2.3,2.3,4.4,2.6,6.1,1.7c1.8-1,2-2.7-.2-5.1-2.4-2.5-3.7-3.7-6.2-6.2.6-.4,1-.6,1.6-.9c2.5,2.4,3.7,3.6,6.1,6.1c3.1,3.2,2.3,5.7-.3,7.2-2.5,1.4-5.5,1.3-8.7-1.9-2.4-2.4-3.6-3.6-6.2-6c.7-.4,1-.6,1.6-.9Z"/><path d="M1475.7,996.8c-1.5-1.5-3.4-3.3-4.7-4.6c0,0,0,0-.1,0c.8,1.5,1.6,3.1,2.3,5c1.1,2.6,1.6,3.9,2.6,6.5-.5.3-.8.4-1.3.6-2.7-1.7-4.1-2.5-6.9-4.1-2.1-1.2-3.9-2.3-5.5-3.4c0,0,0,0,0,0c1.3,1.3,2.9,3.2,4.4,4.8c1.6,1.9,2.4,2.9,4,4.8-.6.3-.9.5-1.6.8-3.6-4.5-5.5-6.7-9.4-11.1.8-.5,1.3-.7,2.1-1.2c2.9,1.6,4.4,2.4,7.3,4c1.8,1.1,3.4,2,4.7,3c0,0,0,0,.1,0-.7-1.3-1.3-2.7-2.1-4.4-1.1-2.6-1.6-3.9-2.8-6.4.9-.4,1.3-.7,2.2-1.1c4.6,4.2,6.8,6.3,11.1,10.7-.7.3-1,.5-1.7.8-1.8-1.9-2.8-2.8-4.7-4.7Z"/></g></g><clipPath id="efp4hdkMVSv52"><use width="346.199951" height="253.499939" xlink:href="#efp4hdkMVSv3"/></clipPath></g></g></g></g><g id="efp4hdkMVSv54"><ellipse rx="103.7" ry="40.2" transform="translate(1873.9 772)" opacity="0.2"/><g><path d="M2005.1,584.9l-2.9,10.8-45.7,171.5c-10.5,29.5-47.4,41.1-76.1,41.6-7.2.1-14.2-.5-20.9-1.7-26.1-4.8-48.6-19.3-67.9-38.6-8-8-6.7-24.1-6.7-24.1l8.7-182.9l211.5,23.4Z" fill="#f8cb69"/><ellipse rx="62" ry="106" transform="matrix(.096801-.9953 0.9953 0.096801 1899.615647 573.882692)" fill="#f9cf75"/><path d="M1989.9,579.1c-.9,8.7-5.2,16.6-12.3,23.2-16.7,15.6-48.2,24.4-83.3,21-39.6-3.9-71.8-22-82.1-43.9-2.7-5.7-3.9-11.8-3.3-17.8c2.8-29.2,45.7-49,95.7-44.2c49.9,4.8,88.1,32.4,85.3,61.7Z" fill="#f7c04a"/><path d="M1977.5,602.3c-16.7,15.6-48.2,24.4-83.3,21-.9-.1-1.8-.2-2.7-.3s-1.8-.2-2.7-.3c-37.1-4.9-66.9-22.4-76.7-43.3c10.9-22.7,46.1-37,86.2-33.1c43.8,4.2,77.8,28.7,79.2,56Z" fill="#fad88f"/><path d="M1803.3,630.5l-7.1,101.4c0,0,69.2,70.1,151.8,17.9l18.8-97.4c0,0-74.6,50.9-163.5-21.9Z" fill="#f7f6f6"/><path d="M2002.2,595.7l-45.7,171.5c-10.5,29.5-47.4,41.1-76.1,41.6-7.2.1-14.2-.5-20.9-1.7-3.1-1.6-6.1-3.2-9.1-4.8-5.5-2.9-12.2-7.4-14.5-13.5-2.5-6.6.4-14.9,3-21c5.5-12.8,12.9-24.7,18-37.7c6.9-17.5,10.1-37.9,7-56.6-1.1-6.9-4.8-13.7-7.5-20-3.9-9-4.8-25.8,9.9-25.3.2,0,54.5,1.8,55.8,1.3c1.3-.4,61.2-22.8,61.2-22.8l18.9-11Z" opacity="0.1"/><g><path d="M1892.4,608.6l-.9,14.3c-.9-.1-1.8-.2-2.7-.3l.9-14.2c0-.8.7-1.4,1.4-1.3s1.3.8,1.3,1.5Z" fill="#231f20"/></g></g></g><g id="efp4hdkMVSv65"><path d="M1923.8,995.3l-49-170.6-5.5-19.2c-1-3.3-4-5.5-7.4-5.2L1521.1,832l-1.5.1-13,1.2c-2.2.2-4,1.4-5.1,3.1-.8,1.3-1.3,2.8-1.2,4.5c0,.5.1,1.1.3,1.6l49.4,172l4,14l1.1,3.7c.2.8.6,1.6,1.1,2.3l.1.2c1,3.3,4.1,5.5,7.4,5.1l308.3-31.2l45.7-4.2c.6-.1,1.2-.2,1.7-.4c3.4-1.1,5.5-5,4.4-8.7Z" opacity="0.2"/><g><path d="M1924.1,989.6c-.5.2-1.1.3-1.7.4l-233.6,21.7-3.1.3-118.6,11c-3.3.3-6.4-1.9-7.4-5.2l-1.1-3.7-4-14-49.4-172c-1.3-4.4,1.6-8.8,6-9.2l11.4-1.1l3-.3l340.8-31.7c3.3-.3,6.4,1.9,7.4,5.2l5.5,19.2l49,170.6c1.2,3.7-.8,7.5-4.2,8.8Z" fill="#46312e"/><path d="M1879.5,810.2c-.4,1-.6,1.5-.6,1.5-4-17-14.5-19-14.5-19L1751,802.2c-29,4-61.9,81.9-61.9,81.9-18,28-75.9,12-75.9,12-33-4.5-41.5,28.5-41.5,28.5-12,28,9,67.9,9,67.9-2,5.5-4,6.5-4,6.5-9.1,8-16.8,5.2-21.9,1l-49.4-172c-1.3-4.4,1.6-8.8,6-9.2l355.3-33c3.3-.3,6.4,1.9,7.4,5.2l5.4,19.2Z" fill="#1b1a1c"/><path d="M1925.2,985.5l-.2,3.6c-.5.2-1.1.3-1.7.4l-355,35.9c-3.3.3-6.4-1.8-7.4-5.1l-1.1-3.7c3.6-2.6,23.8-16.9,53.2-23.5c0,0,70.9-8.6,105.8-9.4.1,0,191.7-25.5,206.4,1.8Z" fill="#1b1a1c"/><g opacity="0.1"><path d="M1688.8,1011.7l-3.1.3c.6-2.6,1.6-7.4,2.3-12.3c1.7-12.3-.1-13.7-.1-13.7-18.3-1.4-38.1,1.2-57.2,3.7-12.5,1.7-25.5,3.4-37.8,3.9-21.4.9-25.8-21.5-29.4-39.5-1-4.9-1.9-9.6-3.1-13.5l-37.6-122.9l3-.3l37.4,122.3c1.2,4,2.2,8.8,3.2,13.8c3.5,17.8,7.4,37.9,26.3,37.1c12.2-.5,25.1-2.2,37.6-3.9c19.3-2.5,39.2-5.2,57.9-3.7.7.1,1.7.4,2.4,1.6c2.6,4.4-.2,20-1.8,27.1Z" fill="#fff"/></g></g></g><g id="efp4hdkMVSv73"><path d="M1290.3,846.2c0,0,0,0,0,0v0l-90.9-9.7c-.4-.1-.8-.1-1.2-.1v0v0c-4.5.1-8.3,5.7-9.8,13.7-14.2-1.6-75-8.1-89.5-6.5l-2-8-10.5,2.6-6.1-7.9.5,5.5-4.2,1.1-2.6-5.5c0,0-2.3,3.8-2.4,3.5s-2.4-5.6-3-5.8-1,5.4-1,5.4l-1-4-1.2,6c0,0-2.6-.9-3.1-3s-2.8-5.8-2.8-5.8l-.2,5.9c0,0-.6-2.3-.9-3.7-.4-1.4-.8,3.1-.8,3.1s.1,3.2-.4,3.3-2.3-.4-2.5-1.8c-.2-1.3-.9-3.7-.9-3.7s-2.1,4.6-3.1,3.9c-1-.8-1.3-5.2-1.3-5.2s-4.1,3.3-4.3,3.5c-.1.2-2.1-4.4-2.1-4.4l-1.1,3.2-2.7-3.3-.6,2.5c0,0-2.5-3-2.6-3.5s-2.8-.2-2.8-.2l.8,3.2-1.1,1-2.6-5.5-2,1.7-.3,2.1-2.6,2.1-2.4.6-2.6-5.4-.8,1.6-2.3,3.1-2,2.2-1.5-1.9-1.8-1.6-.7,3.3-3-2.3c0,0,.3,4.6.2,5.1s-2.3-.1-2.3-.1l-.5-1.9-2.1-1-.2,4.2c-13,1.6-5.5,7.2-5.5,7.2l1.7-.9-1.2,4.9l7-2.6l1.3,7.2l4.2-1.7l3.1,3.5l6.9-.5l2.6,2.9l3.7-3.5l5.2,7.8-.3-4.7l4.3-2.8l2.2,6.6l3.7-4.2l2.8-1.7l2.7,8.1l1-2.8l1.1-7c0,0,2.6,7.2,2.7,5.1.2-2.1,3-5,3-5l1.6,3l3.2,4.7l4.9-7.2l1.4,5.6l3.7-4.4l2,8l2.3-4.5l5.7-2.6l2.2,4.6l2.8-3.3l6.3-1.6l4.8,1.3.5-2.5c8.8,1.4,66.3,10.1,91.1,10.5c1.5,9,5.8,15.5,10.7,15.4c0,0,0,0,0,0l91.9,3.8c0,0,0,0,.1,0c5.2-.1,9.2-8.7,9.1-19.2-.1-10.7-4.4-19.2-9.6-19.1Z" opacity="0.2"/><g><path d="M1300.1,854.4c.2,10.5-3.9,19.1-9.1,19.2s-9.5-8.4-9.7-18.9s3.9-19.1,9.1-19.2s9.5,8.4,9.7,18.9Z" fill="none" stroke="#fff" stroke-miterlimit="10"/><polygon points="1290.4,835.5 1290.9,862.5 1291.1,873.6 1199.1,869.8 1198.3,825.6" fill="#fff"/><path d="M1290.9,862.5l.2,11.2-92-3.8l3.8-12.8c.3-1,15.6-.1,16.7-.1c14.1.3,28.2,1.5,42.3,2.4c9.2.5,20,.3,29,3.1Z" transform="translate(0 0.000001)" opacity="0.45" fill="#231f20"/><path d="M1209.4,845l81.3,7.4c0,0-.1-7.4-.1-7.4c0-2.5-18.7-6.5-20.5-6.9-7.8-1.6-15.9-1.9-23.7-.7-7.4,1.1-14.9,5.4-22.5,3.9l-15.4-3.1.9,6.8Z" opacity="0.45" fill="#231f20"/><g><ellipse rx="10.9" ry="22.1" transform="matrix(.9999-.017283 0.017283 0.9999 1198.757793 847.741713)" fill="#231f20"/><path d="M1096.1,843.8c0,0,73.1,11.4,96.6,10.7l-1.2-14.8c0,0-78.8-9-93.3-6.7c0,0-16.5,2.8-2.1,10.8Z" fill="#231f20"/><g opacity="0.45"><path d="M1178.6,842.9c-.1,0-.3,0-.4,0-5.4-.6-24.5-2.1-39.6-3.2-.7-.1-1.2-.6-1.1-1.3s.7-1.2,1.3-1.1c15.1,1.1,34.3,2.6,39.7,3.2.7.1,1.2.7,1.1,1.4-.1.5-.5.9-1,1Z" fill="#fff"/></g><g opacity="0.45"><path d="M1131.2,839.1c-.1,0-.3,0-.4,0-9-.7-15.7-1.2-15.7-1.2-.7-.1-1.2-.6-1.2-1.3s.6-1.2,1.3-1.2c0,0,6.7.5,15.7,1.2.7.1,1.2.6,1.2,1.3s-.4,1.1-.9,1.2Z" fill="#fff"/></g><path d="M998.1,834.2c0,0-7.4-5.7,5.5-7.2l.2-4.1l2.1,1l.5,1.9c0,0,2.2.6,2.3.1c0-.5-.2-5.1-.2-5.1l3,2.3.7-3.3l1.8,1.6l1.5,1.9l2-2.2l2.3-3.1.8-1.6l2.6,5.4l2.4-.6l2.6-2.1.3-2.1l2-1.7l2.6,5.5l1.1-1-.8-3.2c0,0,2.7-.3,2.8.2s2.6,3.5,2.6,3.5l.6-2.5l2.7,3.3l1.1-3.2c0,0,2,4.6,2.1,4.4s4.3-3.5,4.3-3.5.2,4.4,1.3,5.2c1,.8,3.1-3.9,3.1-3.9s.8,2.4.9,3.7c.2,1.3,2,1.9,2.5,1.8s.4-3.3.4-3.3.4-4.6.8-3.1c.4,1.4.9,3.7.9,3.7l.2-5.9c0,0,2.3,3.7,2.8,5.8s3.1,3,3.1,3l1.2-6l1,4c0,0,.5-5.6,1-5.4.6.2,2.9,5.4,3,5.8.1.3,2.4-3.5,2.4-3.5l2.6,5.5l4.2-1.1-.5-5.5l6.1,7.9l10.5-2.6l2.2,8.7-2.4,12.9-4.8-1.3-6.3,1.6-2.8,3.3-2.2-4.6-5.7,2.6-2.3,4.5-2-8-3.7,4.4-1.4-5.6-4.9,7.2-3.2-4.7-1.6-3c0,0-2.9,2.9-3,5-.2,2.1-2.7-5.1-2.7-5.1l-1.1,7-1,2.8-2.7-8.1-2.8,1.7-3.7,4.2-2.2-6.6-4.3,2.8.3,4.7-5.2-7.8-3.7,3.5-2.6-2.9-6.9.5-3.1-3.5-4.2,1.7-1.3-7.2-7,2.6l1.2-4.9-1.9.9Z" fill="#231f20"/></g></g></g><g id="efp4hdkMVSv88"><polygon points="1051.4,973.3 1051,971.8 1031.9,943.5 864.8,1004.5 861.4,1005.7 805.4,1026.1 806,1089.1 830.8,1117.4 889.4,1093.5 893.6,1091.8 1051.6,1027.3 1061.4,1012.3 1062.6,1010.5" opacity="0.2"/><g><polygon points="804.4,1015.8 805,1078.8 829.8,1107.1 841.4,1088 847.7,1038.3 820.1,1010.6" fill="#f5f9f6"/><polygon points="1061.6,1000.2 1060.4,1001.9 1050.6,1017 892.6,1081.5 888.4,1083.2 829.8,1107.1 839.1,1090.4 839.1,1090.3 835.6,1044.7 834.1,1043.3 804.4,1015.8 860.4,995.4 863.8,994.1 1030.9,933.2 1050,961.5 1050.4,962.9" fill="#f9fbf9"/><polygon points="1061.6,1000.2 1060.4,1001.9 839.1,1090.3 835.6,1044.7 834.1,1043.3 1050.4,962.9" fill="#f2f7f4"/><polygon points="839.1,1090.3 1060.4,1001.9 1050.6,1017 829.8,1107.1" fill="#f5f9f6"/><g opacity="0.45"><polygon points="897.1,1067.4 892.6,1081.5 888.4,1083.2 893.5,1067.3 882.4,1026.1 860.4,995.4 863.8,994.1 885.6,1024.6" fill="#eef4f0"/></g></g></g><g id="efp4hdkMVSv97"><path d="M918.7,846.2c-3.8-55.4-47.9-59.2-55.3-59.4c0,0,0,0,0,0-.2,0-.4,0-.6,0c0,0,0,0,0,0-.1,0-.3,0-.3,0s0,0,0,0c-.1,0-.1,0-.1,0-46.2,8.7-97.2,40-97.2,40s-.1,0-.2.1c-2.2.4-20.3,4-31.1,7.7l-81.6,7.5c0,0-.1.4-.3,1.3-31.1,2.9-206.4,19.4-216.7,20.6-11.2,1.3-25.1,3.6-24.1,17.9s15,14.7,26.3,14.3c10.4-.3,186.8-8.7,217.6-10.1.2.6.3.9.3.9l81.9-3.8c11.2,2.2,29.6,3.2,31.9,3.3.1,0,.2,0,.2,0s54.8,24,101.8,26.4c-.3-.1,51.7-6.1,47.5-66.7Z" opacity="0.2"/><g><path d="M920,829.4c4.2,60.6-47.8,66.6-47.8,66.6-47-2.3-101.8-26.4-101.8-26.4s-.1,0-.2,0c-2.5-.6-5.3-13.5-6.4-29.5-1.1-15.9,0-29.1,2.3-30.1.1,0,.2-.1.2-.1s51-31.3,97.2-40c0,.1,52.3-1,56.5,59.5Z" fill="#412b28"/><path d="M917.7,814.5c-10.9-45.4-54.2-44.5-54.2-44.5-46.2,8.7-97.2,40-97.2,40s-.1,0-.2.1c-1.4.6-2.4,5.6-2.7,12.9c22.5-7,45-14.4,67.5-22.6c30.1-10.4,61.3-3.7,86.8,14.1Z" fill="#1d1b1c"/><path d="M656.7,847.7c.6,9.8,2.7,17.5,4,21.3v0c0,0-210.8,10.1-222.1,10.3-11.3.3-25.3,0-26.3-14.3s12.9-16.6,24.1-17.9c11.3-1.3,221.4-21,221.4-21v0c-.7,3.9-1.8,11.8-1.1,21.6Z"/><path d="M656.5,842.9c-.1-7.6.7-13.6,1.3-16.9v0c0,0-210.1,19.7-221.4,21-10.3,1.2-22.8,3.3-24,14.7c81.4-5.3,162.6-14.6,244.1-18.8Z" opacity="0.2" fill="#fff"/><g><path d="M863.3,808.9c-3.9-.6-7.9-.3-11.7.3-3.9.5-7.7,1.3-11.6,2.2-7.6,1.8-15.2,3.8-22.8,6l-22.8,6.4c-7.6,2.1-15.3,4.2-23,5.8c7.4-2.8,14.8-5.5,22.3-8c7.5-2.6,15-4.9,22.7-7.1c7.6-2.1,15.3-4.1,23.2-5.4c7.7-1.1,15.9-2.5,23.7-.2Z" fill="#141314"/></g><g><path d="M877.2,817.8c-13.8,4.1-27.9,6.9-42,9.5-14.1,2.4-28.3,4.6-42.7,5.5c13.8-4.1,27.9-6.9,42-9.5c14.1-2.5,28.3-4.6,42.7-5.5Z" fill="#141314"/></g><g><path d="M867.4,839.6c-9.7,1.5-19.5,2.3-29.3,3-9.8.6-19.6,1.1-29.5,1c9.7-1.5,19.5-2.3,29.3-3c9.8-.6,19.6-1.1,29.5-1Z" fill="#141314"/></g><g><path d="M778,854.1c16-1.9,32-2.5,48.1-2.8c16-.2,32.1-.1,48.1,1.2-16,1.9-32,2.5-48.1,2.8-16,.3-32,.2-48.1-1.2Z" fill="#141314"/></g><g><path d="M863.6,868.4c-6.6.2-13.2.1-19.7,0-6.6-.1-13.1-.5-19.7-.9s-13.1-.9-19.6-1.6-13.1-1.3-19.6-2.4c6.6-.2,13.2-.1,19.7,0c6.6.1,13.1.5,19.7.9s13.1.9,19.7,1.6c6.5.6,13,1.3,19.5,2.4Z" fill="#141314"/></g><g><path d="M802.3,875.1c9.3.9,18.5,2.4,27.6,4c9.2,1.7,18.3,3.6,27.3,6-9.3-.9-18.5-2.4-27.6-4-9.1-1.7-18.2-3.6-27.3-6Z" fill="#141314"/></g><path d="M770.2,869.7c-2.3-.1-20.7-1.2-31.9-3.3-8.9-26.4-3.3-48.6-3.3-48.6c10.8-3.7,28.9-7.2,31.1-7.7-2.4,1-3.4,14.1-2.3,30.1c1.1,15.9,3.9,28.8,6.4,29.5Z" fill="#6d5c5a"/><path d="M763.3,828.6c0-10.3,1-17.7,2.8-18.5-2.2.4-20.3,4-31.1,7.7c0,0-1.3,5.2-1.6,13.5c9.9-1.2,19.8-2.1,29.9-2.7Z" opacity="0.25" fill="#fff"/><path d="M738.3,866.3l-81.9,3.8c0,0-.4-.9-.9-2.5-1.2-3.6-3.1-10.6-3.8-19.7-.6-9,.3-16.3,1-20c.3-1.7.5-2.6.5-2.6l81.6-7.5c.2,0-5.3,22.1,3.5,48.5Z" fill="#6d5c5a"/><path d="M735,817.8l-81.6,7.5c0,0-.2.9-.5,2.6-.5,2.8-1.2,7.6-1.2,13.6c27.2-1.9,54.5-3.7,81.7-5.6-.2-11,1.6-18.1,1.6-18.1Z" opacity="0.25" fill="#fff"/></g></g></g><clipPath id="efp4hdkMVSv120"><use width="1918.900024" height="1081" xlink:href="#efp4hdkMVSv2" transform="translate(.5-.5)"/></clipPath></g></g></g>

</svg>
