<?xml version="1.0" encoding="utf-8"?>
<!-- Generator: Adobe Illustrator 23.0.1, SVG Export Plug-In . SVG Version: 6.00 Build 0)  -->
<svg version="1.1" id="Layer_1" xmlns="http://www.w3.org/2000/svg" xmlns:xlink="http://www.w3.org/1999/xlink" x="0px" y="0px"
	 viewBox="0 0 484 118" style="enable-background:new 0 0 484 118;" xml:space="preserve">
<style type="text/css">
	.st0{fill:#539165;enable-background:new    ;}
	.st1{fill:#F7C04A;enable-background:new    ;}
</style>
<path d="M52.8,60.1c-0.3-5.6-0.7-12.3-0.6-17.3H52c-1.4,4.7-3,9.7-5,15.2l-7.1,19.4H36l-6.5-19c-1.9-5.6-3.5-10.8-4.6-15.5h-0.1
	c-0.1,5-0.4,11.7-0.8,17.7l-1.1,17.1H18l2.8-40h6.6L34.2,57c1.7,4.9,3,9.3,4,13.5h0.2c1-4,2.4-8.4,4.2-13.5l7.1-19.3h6.6l2.5,40h-5
	L52.8,60.1z"/>
<path d="M69.9,64.2c0.1,7.1,4.6,10,9.8,10c3.7,0,6-0.7,7.9-1.5l0.9,3.7c-1.8,0.8-5,1.8-9.5,1.8c-8.8,0-14.1-5.8-14.1-14.5
	c0-8.7,5.1-15.5,13.5-15.5c9.4,0,11.9,8.2,11.9,13.5c0,1.1-0.1,1.9-0.2,2.4H69.9z M85.2,60.5c0.1-3.3-1.4-8.5-7.2-8.5
	c-5.3,0-7.6,4.9-8,8.5H85.2z"/>
<path d="M99.6,64.2c0.1,7.1,4.6,10,9.8,10c3.7,0,6-0.7,7.9-1.5l0.9,3.7c-1.8,0.8-5,1.8-9.5,1.8c-8.8,0-14.1-5.8-14.1-14.5
	c0-8.7,5.1-15.5,13.5-15.5c9.4,0,11.9,8.2,11.9,13.5c0,1.1-0.1,1.9-0.2,2.4H99.6z M114.9,60.5c0.1-3.3-1.4-8.5-7.2-8.5
	c-5.3,0-7.6,4.9-8,8.5H114.9z"/>
<path d="M132.7,40.7v8.2h7.5v4h-7.5v15.5c0,3.6,1,5.6,3.9,5.6c1.4,0,2.4-0.2,3-0.4l0.2,3.9c-1,0.4-2.6,0.7-4.6,0.7
	c-2.4,0-4.4-0.8-5.6-2.2c-1.5-1.5-2-4.1-2-7.5V52.9h-4.4v-4h4.4v-6.9L132.7,40.7z"/>
<path d="M192.9,57.2c0,13.8-8.4,21.1-18.6,21.1c-10.6,0-18-8.2-18-20.3c0-12.7,7.9-21,18.6-21C185.9,37,192.9,45.4,192.9,57.2z
	 M161.9,57.9c0,8.5,4.6,16.2,12.8,16.2c8.2,0,12.8-7.5,12.8-16.6c0-7.9-4.2-16.3-12.8-16.3C166.2,41.2,161.9,49.1,161.9,57.9z"/>
<path d="M223.7,69.8c0,3,0.1,5.6,0.2,7.8h-4.6L219,73h-0.1c-1.4,2.3-4.4,5.3-9.5,5.3c-4.5,0-9.9-2.5-9.9-12.6V48.9h5.2v15.9
	c0,5.5,1.7,9.1,6.4,9.1c3.5,0,5.9-2.4,6.9-4.7c0.3-0.8,0.5-1.7,0.5-2.7V48.9h5.2V69.8z"/>
<path d="M232.3,57.9c0-3.4-0.1-6.3-0.2-9h4.6l0.2,5.6h0.2c1.3-3.9,4.4-6.3,7.9-6.3c0.6,0,1,0.1,1.5,0.2v4.9
	c-0.5-0.1-1.1-0.2-1.8-0.2c-3.7,0-6.3,2.8-7,6.7c-0.1,0.7-0.2,1.5-0.2,2.4v15.3h-5.2V57.9z"/>
<path d="M285.2,58.9h-15.5v14.4h17.3v4.3h-22.5v-40h21.6V42h-16.4v12.6h15.5V58.9z"/>
<path d="M295.9,48.9l4.1,6.2c1.1,1.6,2,3.1,2.9,4.7h0.2c0.9-1.7,1.9-3.2,2.8-4.7c1-1.5,2-3,3-4.5c1.7-2.6,3.2-5.2,4.9-7.8
	c0.8-1.3,1.7-2.5,2.5-3.8c1.3-2,2.6-4,4.6-5.3c1.9-1.3,4.6-1.9,6.6-0.7c0.6,0.4,1.1,0.9,1.8,1.2c1.4,0.7,3.1,0.5,4.6-0.1
	c1.4-0.7,2.6-1.7,3.8-2.8c1.4-1.3,2.8-2.5,4.1-3.8c-0.3,1.1-1,2-1.7,2.9c-1,1.3-1.8,2.7-2.5,4.2c-0.7,1.4-1.3,3-2.6,3.8
	c-1.6,0.9-3.6,0.4-5.3-0.2c-1.7-0.6-3.6-1.4-5.4-0.9c-2,0.5-3.2,2.4-4.3,4.2c-2.5,4-4.8,8.1-7.6,12c-1.9,2.8-3.9,5.5-5.8,8.3
	c-0.3,0.4-0.5,0.8-0.8,1.2c0,0,10.1,14.8,10.1,14.8H310l-4.2-6.5c-1.1-1.7-2.1-3.3-3.1-5h-0.1c-0.9,1.7-2,3.3-3,5l-4.2,6.5h-5.8
	L299.8,63l-9.7-14.1H295.9z"/>
<path d="M320.9,58.3c0-3.7-0.1-6.6-0.2-9.4h4.7l0.2,4.9h0.1c2.1-3.5,5.5-5.6,10.2-5.6c6.9,0,12.2,5.9,12.2,14.6
	c0,10.3-6.3,15.4-13,15.4c-3.8,0-7.1-1.7-8.8-4.5h-0.1v15.6h-5.2V58.3z M326.1,66c0,0.8,0.1,1.5,0.2,2.1c0.9,3.6,4.1,6.1,7.8,6.1
	c5.5,0,8.7-4.5,8.7-11.1c0-5.8-3-10.7-8.5-10.7c-3.6,0-6.9,2.6-7.9,6.5c-0.2,0.7-0.4,1.4-0.4,2.1V66z"/>
<path d="M357.6,64.2c0.1,7.1,4.6,10,9.8,10c3.7,0,6-0.7,7.9-1.5l0.9,3.7c-1.8,0.8-5,1.8-9.5,1.8c-8.8,0-14.1-5.8-14.1-14.5
	c0-8.7,5.1-15.5,13.5-15.5c9.4,0,11.9,8.2,11.9,13.5c0,1.1-0.1,1.9-0.2,2.4H357.6z M372.9,60.5c0.1-3.3-1.4-8.5-7.2-8.5
	c-5.3,0-7.6,4.9-8,8.5H372.9z"/>
<path d="M384.4,57.9c0-3.4-0.1-6.3-0.2-9h4.6l0.2,5.6h0.2c1.3-3.9,4.4-6.3,7.9-6.3c0.6,0,1,0.1,1.5,0.2v4.9
	c-0.5-0.1-1.1-0.2-1.8-0.2c-3.7,0-6.3,2.8-7,6.7c-0.1,0.7-0.2,1.5-0.2,2.4v15.3h-5.2V57.9z"/>
<path d="M411.5,40.7v8.2h7.5v4h-7.5v15.5c0,3.6,1,5.6,3.9,5.6c1.4,0,2.4-0.2,3-0.4l0.2,3.9c-1,0.4-2.6,0.7-4.6,0.7
	c-2.4,0-4.4-0.8-5.6-2.2c-1.5-1.5-2-4.1-2-7.5V52.9h-4.4v-4h4.4v-6.9L411.5,40.7z"/>
<path d="M424.1,72.3c1.5,1,4.3,2.1,6.9,2.1c3.8,0,5.6-1.9,5.6-4.3c0-2.5-1.5-3.9-5.3-5.3c-5.2-1.8-7.6-4.7-7.6-8.1
	c0-4.6,3.7-8.4,9.9-8.4c2.9,0,5.5,0.8,7.1,1.8l-1.3,3.8c-1.1-0.7-3.2-1.7-5.9-1.7c-3.1,0-4.8,1.8-4.8,3.9c0,2.4,1.7,3.4,5.5,4.9
	c5,1.9,7.5,4.4,7.5,8.7c0,5-3.9,8.6-10.7,8.6c-3.1,0-6-0.8-8.1-2L424.1,72.3z"/>
<path d="M459.9,74.6c0-2.1,1.5-3.7,3.5-3.7c2.1,0,3.5,1.5,3.5,3.7c0,2.1-1.4,3.7-3.5,3.7C461.3,78.3,459.9,76.7,459.9,74.6z
	 M461.4,66.1l-0.8-28.5h5.7l-0.8,28.5H461.4z"/>
<path d="M21.3,87.6c10.2,5.1,20.9,8.9,32,11.4c11,2.6,22.4,3.7,33.7,3.4c1.4-0.1,2.8-0.1,4.2-0.1l4.2-0.4c2.8-0.2,5.6-0.7,8.4-1.1
	c1.4-0.2,2.8-0.5,4.2-0.8l4.2-0.9l4.1-1.2c1.4-0.4,2.7-0.7,4.1-1.3c2.7-1,5.4-1.8,7.9-3.1l3.9-1.7c1.3-0.6,2.5-1.3,3.8-1.9
	c5-2.6,10.1-5.3,15.7-6.6c2.8-0.6,5.7-0.9,8.6-0.7c2.9,0.3,5.7,1.1,8.2,2.6c1.2,0.8,2.4,1.7,3.3,2.9c0.9,1.2,1.5,2.6,1.5,4.2
	c0,1.5-0.5,3.1-1.6,4.2c-0.5,0.6-1.3,1-2,1.2c-0.8,0.2-1.5,0.2-2.3,0.2c-2.9-0.3-5.7-0.6-8.5-1.6c-1.4-0.5-2.7-1.3-3.8-2.3
	c-1.1-1.1-1.9-2.4-2.3-3.8c-0.9-2.9-0.5-5.9,0.4-8.7c0.9-2.8,2.3-5.3,3.8-7.7c3.2-4.8,7.5-8.9,12.5-11.8c2.5-1.5,5-2.8,7.3-4.4
	c2.3-1.6,4.3-3.6,5.6-6.1c1.3-2.4,1.7-5.4,0.5-7.9c-0.6-1.2-1.4-2.4-2.6-3.2c-1.1-0.8-2.5-1.2-3.8-1.1c-0.7,0.1-1.3,0.3-1.6,0.9
	c-0.4,0.5-0.3,1.2-0.2,1.9c0.3,1.3,1.2,2.5,2.4,3.2c2.3,1.6,5.3,2.2,8.1,1.8l0,0.1c-2.8,0.5-5.8-0.1-8.2-1.7c-1.2-0.7-2.2-2-2.6-3.4
	c-0.2-0.7-0.2-1.5,0.2-2.2c0.4-0.7,1.2-1,2-1.1c1.5-0.2,3,0.3,4.2,1.1c1.2,0.8,2.2,2,2.8,3.4c0.6,1.3,0.9,2.8,0.8,4.3
	c-0.1,1.5-0.6,2.9-1.2,4.2c-1.3,2.6-3.4,4.7-5.8,6.4c-2.3,1.7-4.9,3.1-7.3,4.5c-4.8,2.9-9,6.8-12.1,11.5c-1.5,2.3-2.9,4.8-3.7,7.5
	c-0.8,2.6-1.2,5.5-0.4,8.1c0.4,1.3,1.1,2.5,2,3.4c1,0.9,2.1,1.6,3.4,2.1c2.6,1,5.4,1.3,8.2,1.6c0.7,0,1.4,0,2-0.1
	c0.6-0.2,1.2-0.5,1.6-0.9c0.9-0.9,1.4-2.2,1.4-3.5c0-1.3-0.5-2.6-1.3-3.7c-0.8-1.1-1.9-2-3-2.7c-2.4-1.5-5.1-2.3-7.9-2.6
	c-2.8-0.3-5.6,0-8.4,0.6c-5.5,1.2-10.6,3.9-15.7,6.4c-1.3,0.6-2.5,1.3-3.8,1.9l-3.9,1.7c-2.6,1.2-5.3,2.1-8,3.1
	c-10.8,3.8-22.1,5.7-33.5,6.2c-5.7,0.3-11.4,0-17.1-0.6c-1.4-0.1-2.8-0.4-4.2-0.6c-1.4-0.2-2.8-0.3-4.2-0.6l-4.2-0.8l-2.1-0.4
	l-2.1-0.5C42,97.1,31.3,93,21.3,87.6L21.3,87.6z"/>
<path d="M409.5,45.5c3.5-2,7.4-3.1,11.2-4.3c1.9-0.6,3.8-1.2,5.6-2.1c1.8-0.8,3.5-1.9,5-3.1c1.5-1.2,3-2.6,3.6-4.4
	c0.3-0.9,0.4-1.9,0.2-2.8c-0.1-1-0.4-1.9-0.9-2.7c-0.5-0.8-1.3-1.5-2.2-1.8c-0.9-0.3-2-0.2-2.7,0.5c-0.7,0.6-1,1.6-1.3,2.6
	c-0.3,1-0.5,1.9-0.5,2.9l-0.1,1.2l-0.3-1.2c-0.6-2.1-1.8-4.2-3.6-5.2c-0.9-0.5-2-0.8-3-0.8c-1,0-2,0.4-2.8,1.1
	c-1.6,1.4-2.2,3.6-2.3,5.8c-0.1,1.1,0,2.2,0.3,3.2c0.3,1,0.8,1.9,1.6,2.6c1.6,1.4,3.7,2.2,5.8,2.7c2.2,0.6,4.4,1.1,6.5,1.8
	c2.1,0.8,4.3,1.9,5.8,3.6c1.6,1.6,2.6,3.9,2.5,6.2l-0.1,0c0-2.3-1.2-4.3-2.7-5.8c-1.6-1.6-3.6-2.5-5.7-3.2c-2.1-0.7-4.3-1.1-6.5-1.6
	c-2.2-0.6-4.5-1.3-6.3-2.9c-0.9-0.8-1.6-1.9-1.9-3.1c-0.3-1.2-0.3-2.4-0.3-3.5c0.1-1.2,0.3-2.3,0.7-3.4c0.4-1.1,1.1-2.2,2-3
	c0.9-0.8,2.1-1.3,3.4-1.3c1.2,0,2.4,0.4,3.4,1c2,1.3,3.1,3.5,3.7,5.7l-0.4,0c0.1-1,0.3-2,0.6-3c0.3-0.9,0.6-2,1.4-2.7
	c0.8-0.7,2-0.8,3-0.6c1,0.3,1.9,1,2.4,1.9c0.6,0.9,0.9,1.9,1.1,2.9c0.2,1,0.2,2.1-0.1,3.1c-0.6,2.1-2.1,3.6-3.7,4.9
	c-1.6,1.3-3.3,2.4-5.2,3.2c-1.9,0.8-3.8,1.5-5.7,2C417.1,42.9,413.2,43.8,409.5,45.5L409.5,45.5z"/>
<path class="st0" d="M425,28.6c-0.6-0.8-1.2-1.5-2-2.1c-0.8-0.5-1.8-0.9-2.7-0.7c-0.9,0.2-1.7,0.8-2.2,1.6c-1,1.4-1.2,3.4-0.6,5
	c0.6,1.5,1.9,2.7,3.3,3.7c1.4,0.9,2.8,1.7,4.1,2.8c0.4-0.8,1.1-1.4,1.9-1.9c0.8-0.5,1.6-0.8,2.3-1.3c2.2-1.5,3.7-4.1,3.5-6.7
	c0-0.6-0.1-1.2-0.5-1.7c-0.4-0.5-1-0.7-1.5-0.5c-0.3,0.1-0.5,0.3-0.7,0.5c-0.8,1-1.2,2.4-1.5,3.6c-0.1,0.2-0.4,1.8-0.7,1.7
	c-0.2,0-0.5-0.8-0.6-1c-0.2-0.3-0.4-0.7-0.6-1C426,30,425.5,29.3,425,28.6z"/>
<path class="st1" d="M149.3,81.1c-5.4,1.1-10.5,3.4-15.3,6c-4.9,2.5-9.7,5.3-15,7.3c-2.6,1-5.3,1.7-8,2.5c-2.7,0.7-5.4,1.4-8.1,1.9
	c-2.7,0.6-5.5,1.1-8.3,1.2l-4.2,0.2l-4.2,0.1c-5.6,0-11.1-0.3-16.7-1.1c-5.5-0.8-11-1.9-16.3-3.5c-10.7-3.2-20.8-8-30.1-13.9
	c9.8,5.2,19.9,9.5,30.5,12.4c10.6,2.8,21.6,4.2,32.5,4.1l4.1-0.1l4.1-0.2c2.7-0.1,5.4-0.6,8.1-1.1c5.4-1.1,10.8-2.3,15.9-4
	c5.1-1.8,10.1-4.3,15.1-6.7C138.6,84,143.8,81.8,149.3,81.1z"/>
<g>
	<image style="overflow:visible;" width="1920" height="2835" xlink:href="8122231.jpg"  transform="matrix(1 0 0 1 -7509 -7808)">
	</image>
</g>
</svg>
