<?xml version="1.0" encoding="utf-8"?>
<!-- Generator: Adobe Illustrator 23.0.1, SVG Export Plug-In . SVG Version: 6.00 Build 0)  -->
<svg version="1.1" id="Layer_1" xmlns="http://www.w3.org/2000/svg" xmlns:xlink="http://www.w3.org/1999/xlink" x="0px" y="0px"
	 viewBox="0 0 1356 381" style="enable-background:new 0 0 1356 381;" xml:space="preserve">
<style type="text/css">
	.st0{fill:#F7C04A;}
	.st1{fill:#539165;}
</style>
<g>
	<path d="M102.5,172.9c0,4.4,0,8.7,0,13.1c0,1.3,0.6,4.5,0,5.7c0,0-55.1,0-55.1,0V145H35v106.5h12.5v-48.6h55.1v48.6
		c0,0,12.5,0,12.5,0c0-15.7,0-31.4,0-47.1c0-7.9,0-15.7,0-23.6c0-3.3,0.2-6.6,0.2-9.9c0-3.4-0.1-6.4,1.5-9.6c0.2-0.4,0.4-0.7,0.6-1
		c2.2-3.5,5.8-6.2,9.9-7.1c3.7-0.8,7.5-0.3,11.2,0c6.7,0.6,13.6,0.5,20.2-1.1c6.6-1.6,12.8-5,17.2-10.1c4.4-5.2,6.7-12.2,5.3-18.9
		c-0.3-1.3-0.9-2.8-2.2-3.1c-1.6-0.4-2.9,1.3-3.8,2.8c-3.7,6.6-7.9,13.2-14.4,17c-5.7,3.3-12.6,3.9-19.1,3.3
		c-6.5-0.6-12.9-2.4-19.4-3.6c-4.1-0.8-8.4-1.4-12.4-0.4c-2.8,0.7-6.1,2.5-7.5,5.2c-1.1,2.1-0.1,3.9,0.1,6.1
		C103.3,157.7,102.5,165.5,102.5,172.9z"/>
	<path d="M202.4,216.2h-53.8c0.2,8.6,2.5,15.2,6.8,19.8c4.3,4.6,10.4,6.9,18.2,6.9c3.4,0,6.8-0.5,10.3-1.5c3.4-1,6.8-2.6,10.2-4.9
		l5.6,8.7c-4.3,2.8-8.6,4.8-12.9,6.1c-4.3,1.3-9,1.9-14.2,1.9c-11.5,0-20.4-3.4-26.9-10.2c-6.4-6.8-9.7-16.4-9.7-28.6
		c0-12.2,3.2-22.1,9.7-29.6c6.5-7.5,15-11.2,25.4-11.2c9.9,0,17.6,3.2,23.1,9.7c5.5,6.5,8.2,15.4,8.2,26.8V216.2z M189.9,206.2
		c0-7-1.8-12.5-5.1-16.4c-3.4-3.9-8-5.9-13.9-5.9c-5.8,0-10.7,2-14.7,6.1c-4,4-6.5,9.5-7.4,16.3H189.9z"/>
	<path d="M220.8,251.5V138.9H233v112.6H220.8z"/>
	<path d="M270.1,240.5h-0.3v46h-12.2v-111h12.2v13.4h0.3c3-5,6.7-8.8,11.1-11.4c4.4-2.5,9.4-3.8,15.2-3.8c9.8,0,17.5,3.4,22.9,10.2
		c5.5,6.8,8.2,15.9,8.2,27.4c0,12.7-3.1,22.9-9.3,30.6c-6.2,7.6-14.7,11.5-25.4,11.5c-4.9,0-9.3-1.1-13.1-3.2
		C276,247.9,272.8,244.7,270.1,240.5z M269.8,209.8v10.6c0,6.3,2,11.6,6.1,16c4.1,4.4,9.3,6.6,15.6,6.6c7.4,0,13.2-2.8,17.3-8.5
		c4.2-5.6,6.3-13.5,6.3-23.5c0-8.5-2-15.1-5.9-19.9c-3.9-4.8-9.2-7.2-15.9-7.2c-7.1,0-12.8,2.5-17.1,7.4
		C272,196.2,269.8,202.4,269.8,209.8z"/>
	<path d="M395,157.2c-2.5,0-4.6-0.8-6.2-2.5c-1.7-1.7-2.5-3.7-2.5-6.1c0-2.4,0.8-4.5,2.5-6.1c1.7-1.7,3.8-2.5,6.2-2.5
		c2.5,0,4.6,0.8,6.2,2.5c1.7,1.7,2.5,3.7,2.5,6.1c0,2.4-0.8,4.5-2.5,6.1C399.5,156.4,397.4,157.2,395,157.2z M400.9,251.5h-12.2v-76
		h12.2V251.5z"/>
	<path d="M418.4,245.7l5.8-9.4c3.3,2.2,6.6,3.8,9.7,4.9c3.2,1.1,6.6,1.7,10.2,1.7c5.2,0,9.1-1,11.8-2.9c2.7-1.9,4-4.8,4-8.7
		c0-3.1-1.2-5.8-3.6-7.9c-2.4-2.2-6.2-3.9-11.2-5.2c-9.5-2.4-16-5.5-19.5-9.2c-3.5-3.7-5.3-8.2-5.3-13.6c0-6.2,2.4-11.4,7.1-15.6
		c4.7-4.2,11.3-6.3,19.7-6.3c4.1,0,7.9,0.5,11.6,1.6c3.7,1,7.4,2.8,11.2,5.3l-5.4,9.2c-3.5-2.2-6.6-3.7-9.3-4.6
		c-2.7-0.9-5.5-1.3-8.4-1.3c-4.9,0-8.6,0.9-11.2,2.7c-2.6,1.8-3.9,4.4-3.9,7.8c0,3.4,1.3,6,4,7.7c2.6,1.7,6.9,3.4,12.8,4.9
		c7.7,2.1,13.5,5,17.3,8.7c3.8,3.7,5.8,8.6,5.8,14.7c0,7-2.5,12.6-7.5,16.7c-5,4.1-11.8,6.1-20.5,6.1c-4.7,0-9.1-0.6-13.4-1.9
		C426.1,250,422.1,248.2,418.4,245.7z"/>
	<path d="M585.6,251.5h-12.2v-11.9h-0.3c-2.6,4.6-5.9,8-9.7,10.2c-3.8,2.3-8.3,3.4-13.4,3.4c-7.1,0-12.9-2.1-17.3-6.2
		c-4.4-4.2-6.6-9.7-6.6-16.6c0-6.5,2.2-11.9,6.7-16.1c4.5-4.3,10.8-7,18.9-8.2l21.7-2.9v-1.7c0-6.4-1.5-10.9-4.5-13.6
		c-3-2.7-6.9-4-11.9-4c-4,0-7.8,0.7-11.4,2.2c-3.7,1.5-7.1,3.8-10.3,6.8l-7.1-7.4c4.3-4.1,8.8-7.1,13.6-9.1c4.8-1.9,10.1-2.9,16-2.9
		c9.2,0,16.1,2.4,20.8,7.1c4.7,4.7,7,11.8,7,21.3V251.5z M573.4,220.6V213l-18.3,2.5c-5.6,0.8-9.8,2.2-12.6,4.2
		c-2.8,2-4.2,5.2-4.2,9.6c0,4.6,1.3,8,4,10.4c2.6,2.4,5.9,3.6,9.7,3.6c6.6,0,11.8-2.2,15.7-6.5C571.5,232.6,573.4,227.2,573.4,220.6
		z"/>
	<path d="M704.2,246.9c-3.5,2.2-7,3.8-10.5,4.8c-3.5,1-7.4,1.5-11.5,1.5c-10.7,0-19.5-3.3-26.3-10c-6.9-6.6-10.3-16-10.3-28.2
		c0-12.4,3.5-22.4,10.4-30c6.9-7.6,16.4-11.4,28.5-11.4c3.9,0,7.6,0.5,11.2,1.4c3.5,0.9,7.1,2.5,10.7,4.6l-5.1,8.9
		c-2.8-1.6-5.6-2.7-8.3-3.5c-2.7-0.7-5.7-1.1-8.9-1.1c-8.4,0-14.8,2.8-19.2,8.4c-4.5,5.6-6.7,12.7-6.7,21.3c0,9.5,2.3,16.8,7,21.8
		c4.7,5,10.7,7.5,18.2,7.5c2.4,0,5-0.4,7.6-1.2c2.6-0.8,5.3-2,8-3.6L704.2,246.9z"/>
	<path d="M721,251.5V138.9h12.2v112.6H721z"/>
	<path d="M764.1,157.2c-2.5,0-4.6-0.8-6.2-2.5c-1.7-1.7-2.5-3.7-2.5-6.1c0-2.4,0.8-4.5,2.5-6.1c1.7-1.7,3.8-2.5,6.2-2.5
		c2.5,0,4.6,0.8,6.2,2.5c1.7,1.7,2.5,3.7,2.5,6.1c0,2.4-0.8,4.5-2.5,6.1C768.6,156.4,766.6,157.2,764.1,157.2z M770,251.5h-12.2v-76
		H770V251.5z"/>
	<path d="M848.1,246.9c-3.5,2.2-7,3.8-10.5,4.8c-3.5,1-7.4,1.5-11.5,1.5c-10.7,0-19.5-3.3-26.3-10c-6.9-6.6-10.3-16-10.3-28.2
		c0-12.4,3.5-22.4,10.4-30c6.9-7.6,16.4-11.4,28.5-11.4c3.9,0,7.6,0.5,11.2,1.4c3.5,0.9,7.1,2.5,10.7,4.6l-5.1,8.9
		c-2.8-1.6-5.6-2.7-8.3-3.5c-2.7-0.7-5.7-1.1-8.9-1.1c-8.4,0-14.8,2.8-19.2,8.4c-4.5,5.6-6.7,12.7-6.7,21.3c0,9.5,2.3,16.8,7,21.8
		c4.7,5,10.7,7.5,18.2,7.5c2.4,0,5-0.4,7.6-1.2c2.6-0.8,5.3-2,8-3.6L848.1,246.9z"/>
	<path d="M928,251.5H911l-33.6-36.5h-0.3v36.5h-12.2V138.9h12.2v71.4h0.3l31.9-34.8h16L890,212.1L928,251.5z"/>
	<path d="M1036,251.5h-12.2v-11.9h-0.3c-2.6,4.6-5.9,8-9.7,10.2c-3.8,2.3-8.3,3.4-13.4,3.4c-7.1,0-12.9-2.1-17.3-6.2
		c-4.4-4.2-6.6-9.7-6.6-16.6c0-6.5,2.2-11.9,6.7-16.1c4.5-4.3,10.8-7,18.9-8.2l21.7-2.9v-1.7c0-6.4-1.5-10.9-4.5-13.6
		c-3-2.7-6.9-4-11.9-4c-4,0-7.8,0.7-11.4,2.2c-3.7,1.5-7.1,3.8-10.3,6.8l-7.1-7.4c4.3-4.1,8.8-7.1,13.6-9.1c4.8-1.9,10.1-2.9,16-2.9
		c9.2,0,16.1,2.4,20.8,7.1c4.7,4.7,7,11.8,7,21.3V251.5z M1023.8,220.6V213l-18.3,2.5c-5.6,0.8-9.8,2.2-12.6,4.2
		c-2.8,2-4.2,5.2-4.2,9.6c0,4.6,1.3,8,4,10.4c2.6,2.4,5.9,3.6,9.7,3.6c6.6,0,11.8-2.2,15.7-6.5
		C1021.9,232.6,1023.8,227.2,1023.8,220.6z"/>
	<path d="M1155.3,175.4l-22.8,76h-12.6l-15.7-54.6c-0.4-1.4-0.7-2.6-0.8-3.5c-0.1-1-0.2-2.1-0.3-3.4h-0.3c-0.1,1.3-0.3,2.4-0.5,3.3
		c-0.2,0.9-0.6,2.1-1,3.6l-17,54.6H1072l-23-76h12.8l15.7,57.2c0.2,0.8,0.5,1.8,0.6,3c0.2,1.1,0.3,2.4,0.4,3.9h0.6
		c0.1-1.1,0.2-2.2,0.4-3.4c0.2-1.2,0.5-2.4,0.9-3.6l17.5-57h11.1l15.7,57.3c0.2,0.9,0.5,2,0.6,3.1c0.2,1.1,0.3,2.4,0.5,3.8h0.6
		c0-1,0.2-2.1,0.4-3.2c0.2-1.1,0.5-2.4,0.9-3.6l15.4-57.3H1155.3z"/>
	<path d="M1223.3,251.5h-12.2v-11.9h-0.3c-2.6,4.6-5.9,8-9.7,10.2c-3.8,2.3-8.3,3.4-13.4,3.4c-7.1,0-12.9-2.1-17.3-6.2
		c-4.4-4.2-6.6-9.7-6.6-16.6c0-6.5,2.2-11.9,6.7-16.1c4.5-4.3,10.8-7,18.9-8.2l21.7-2.9v-1.7c0-6.4-1.5-10.9-4.5-13.6
		c-3-2.7-6.9-4-11.9-4c-4,0-7.8,0.7-11.4,2.2c-3.7,1.5-7.1,3.8-10.3,6.8l-7.1-7.4c4.3-4.1,8.8-7.1,13.6-9.1c4.8-1.9,10.1-2.9,16-2.9
		c9.2,0,16.1,2.4,20.8,7.1c4.7,4.7,7,11.8,7,21.3V251.5z M1211.1,220.6V213l-18.3,2.5c-5.6,0.8-9.8,2.2-12.6,4.2
		c-2.8,2-4.2,5.2-4.2,9.6c0,4.6,1.3,8,4,10.4c2.6,2.4,5.9,3.6,9.7,3.6c6.6,0,11.8-2.2,15.7-6.5
		C1209.2,232.6,1211.1,227.2,1211.1,220.6z"/>
	<path d="M1307.3,175.4l-35.9,90.5c-2.8,7.1-6.4,12.5-10.6,16c-4.3,3.5-9.3,5.3-15,5.3c-1.5,0-2.8-0.1-4.1-0.3
		c-1.2-0.2-2.4-0.4-3.6-0.7l2.4-10.4c0.9,0.3,1.7,0.5,2.5,0.6c0.8,0.1,1.5,0.2,2.3,0.2c3.3,0,6-0.8,8.1-2.5c2.2-1.7,3.9-4.1,5.2-7.1
		l6.6-15.7l-29.7-75.9h13.5l20.6,58.5c0.1,0.3,0.3,1,0.6,2c0.3,1,0.6,2.3,1,3.8h0.4c0.1-0.6,0.3-1.4,0.6-2.3
		c0.2-0.9,0.5-2.1,0.9-3.3l21.6-58.7H1307.3z"/>
	<path d="M1329.7,252.8c-2.4,0-4.5-0.8-6.1-2.5c-1.7-1.6-2.5-3.6-2.5-6c0-2.4,0.8-4.4,2.5-6c1.7-1.6,3.7-2.5,6.1-2.5
		c2.4,0,4.5,0.8,6.1,2.5c1.7,1.6,2.5,3.6,2.5,6c0,2.4-0.8,4.4-2.5,6C1334.2,252,1332.1,252.8,1329.7,252.8z M1335.9,145l-1.3,76.5
		h-10l-1.3-76.5H1335.9z"/>
</g>
<g>
	<path d="M388.3,145.5c2.7,2.6,6.1,4.3,9.7,5.1c3.6,0.8,7.4,0.8,11.1,0.4c7.4-0.9,14.5-3.4,21.2-6.5c6.8-3,13.5-6.4,19.9-10.1
		c6.4-3.7,12.6-7.9,18.9-11.9c6.3-4.1,12.8-7.8,19.7-10.8c1.7-0.8,3.4-1.5,5.2-2.2c1.8-0.7,3.5-1.4,5.3-2l5.3-1.8l5.4-1.6
		c7.2-2.1,14.6-3.7,22.1-4.2c7.5-0.5,15.3,0.1,22.5,2.7l2.7,1.1c0.9,0.4,1.7,0.9,2.6,1.3c1.7,0.9,3.3,2,4.8,3
		c3.1,1.9,6.4,3.5,9.9,4.9c6.8,2.9,13.8,5.2,21,7.3c7.1,2,14.3,3.8,21.6,4.8c3.7,0.5,7.3,0.8,10.9,0.6c3.7-0.2,7.3-0.6,10.9-1.3
		c14.5-2.5,28.4-8.2,40.5-16.6c12.1-8.4,22.3-19.6,28.7-32.7c0.8-1.6,1.5-3.3,2.3-5c0.6-1.7,1.3-3.4,1.9-5.2c1.2-3.5,2-7,2.4-10.6
		c0.3-3.6,0.1-7.2-1-10.5c-1.1-3.3-3.2-6.2-5.9-8.3c-2.7-2.1-6.1-3.1-9.4-2.5c-3.3,0.6-6.5,2.4-9.4,4.5
		c-5.7,4.3-10.1,10.4-12.4,17.2c-2.3,6.8-2.4,14.3-0.3,21.2c1,3.4,2.6,6.7,4.6,9.7c1,1.5,2.1,2.9,3.3,4.3c1.2,1.3,2.5,2.6,3.9,3.7
		c2.8,2.3,6,4.1,9.3,5.4c3.3,1.4,6.9,2.4,10.4,3.2c7.2,1.5,14.6,2,22,2.3c14.8,0.6,29.7-0.2,44.6-0.7c7.5-0.2,14.9-0.4,22.4-0.3
		c7.5,0.1,15,0.5,22.4,1.7c7.4,1.2,14.8,3.2,21.5,6.7c3.3,1.7,6.5,3.8,9.4,6.3c2.8,2.5,5.3,5.3,7.5,8.4c4.3,6.2,6.9,13.3,8.8,20.5
		c1.9,7.2,3,14.6,4,22c-1.2-7.4-2.4-14.7-4.4-21.9c-2-7.1-4.8-14.2-9.1-20.2c-2.1-3-4.6-5.8-7.4-8.2c-2.8-2.4-6-4.4-9.3-6
		c-6.6-3.3-13.9-5.1-21.2-6.3c-7.3-1.1-14.8-1.4-22.2-1.5c-7.4-0.1-14.9,0.2-22.3,0.5c-14.9,0.6-29.8,1.5-44.8,1.1
		c-7.5-0.2-15-0.6-22.4-2.1c-3.7-0.7-7.4-1.8-10.9-3.3c-3.5-1.5-6.9-3.4-9.9-5.8c-1.5-1.2-2.9-2.5-4.2-3.9c-1.3-1.4-2.5-2.9-3.6-4.6
		c-2.2-3.2-3.8-6.7-5-10.4c-2.3-7.4-2.2-15.5,0.3-22.8c2.4-7.3,7.1-13.9,13.3-18.6c3.1-2.3,6.5-4.3,10.6-5.1c2-0.4,4.1-0.3,6.1,0.3
		c2,0.5,3.9,1.5,5.5,2.7c3.2,2.5,5.6,5.9,6.9,9.7c1.3,3.8,1.5,7.8,1.1,11.6c-0.4,3.9-1.3,7.6-2.5,11.2c-1.1,3.6-2.6,7.2-4.2,10.6
		C704,89.9,693.4,101.5,681,110c-12.5,8.6-26.8,14.4-41.7,16.9c-3.7,0.6-7.5,1.1-11.3,1.3c-3.8,0.2-7.7-0.1-11.4-0.6
		c-7.5-1.1-14.8-2.9-22-5c-7.2-2.1-14.3-4.5-21.2-7.5c-3.5-1.5-6.9-3.1-10.1-5.1c-1.7-1-3.1-2-4.7-2.9c-0.8-0.4-1.6-0.8-2.4-1.2
		l-2.5-1c-6.8-2.5-14.2-3.2-21.6-2.8c-7.3,0.5-14.6,1.9-21.7,4l-5.4,1.5l-5.3,1.7c-1.8,0.5-3.5,1.3-5.2,1.9
		c-1.7,0.6-3.4,1.4-5.1,2.1c-6.8,2.9-13.3,6.6-19.6,10.5c-6.3,4-12.6,8-19.1,11.7c-6.5,3.7-13.2,7-20.1,9.9c-6.8,3-14,5.5-21.5,6.3
		c-3.7,0.4-7.5,0.3-11.2-0.6C394.4,150,390.9,148.2,388.3,145.5z"/>
</g>
<g>
	<path d="M124.9,133.9c0.9-1.8,2.7-3.1,4.6-3.8c1.9-0.7,3.9-0.9,5.9-1c2-0.1,3.9,0,5.9,0c1.9,0,3.8,0,5.7-0.1
		c3.8-0.3,7.5-1,10.8-2.5c3.3-1.6,6.2-3.9,8.5-6.9c2.3-2.9,4.1-6.4,4.9-10.1c0.4-1.8,0.5-3.8-0.1-5.5c-0.6-1.7-1.9-3.2-3.5-3.9
		c-1.7-0.7-3.6-0.2-4.9,1c-1.4,1.2-2.5,2.7-3.4,4.4c-1.9,3.3-3.2,6.9-4,10.5l-2.4-0.7c0.8-2.6,0.9-5.4,0.5-8
		c-0.5-2.6-1.6-5.2-3.5-6.7c-1.8-1.5-4.4-1.7-6.7-0.8c-1.1,0.5-2.2,1.1-3.1,2c-0.9,0.8-1.6,2-2.1,3.1c-1,2.4-1.4,5.1-1.2,7.9
		c0.2,2.8,0.8,5.5,1.6,8.4c0.7,2.8,1.5,5.7,2,8.6c0.4,2.9,0.6,6-0.2,8.9c0,0.1-0.1,0.1-0.2,0.1c-0.1,0-0.1-0.1-0.1-0.2
		c0.3-2.9-0.1-5.8-0.9-8.5c-0.7-2.8-1.7-5.5-2.7-8.3c-1-2.8-1.8-5.7-2.2-8.7c-0.3-3.1-0.2-6.3,1.1-9.3c0.6-1.5,1.5-2.9,2.7-4.2
		c1.2-1.2,2.6-2.2,4.2-2.8c1.6-0.6,3.3-0.9,5.1-0.7c1.7,0.2,3.5,1,4.8,2.1c2.6,2.3,3.8,5.5,4.3,8.6c0.5,3.1,0.2,6.3-0.9,9.3
		l-2.4-0.7c1-3.9,2.8-7.6,5-10.8c1.1-1.6,2.4-3.3,4.1-4.5c0.8-0.6,1.8-1.1,2.9-1.3c1.1-0.2,2.2-0.1,3.1,0.3c2,0.8,3.4,2.6,4.1,4.5
		c0.7,2,0.6,4,0.3,6c-0.6,3.9-2.1,7.7-4.3,11.1c-2.2,3.4-5.3,6.3-9,8.1c-1.9,0.9-3.8,1.5-5.8,1.9c-2,0.4-4,0.6-6,0.6
		c-2,0-4,0-5.9-0.2c-2-0.1-3.9-0.4-5.8-0.5c-1.9-0.1-3.8-0.1-5.6,0.3c-1.8,0.4-3.5,1.3-4.7,2.9c0,0.1-0.1,0.1-0.2,0
		C124.9,134.1,124.9,134,124.9,133.9z"/>
</g>
<path class="st0" d="M682.4,66.5c-0.2-5.5,0.7-11.2,3.5-16c2.8-4.8,7.8-8.5,13.3-8.8c1.1-0.1,2.3,0,3.4,0.3c3.5,1,5.8,4.6,6.4,8.2
	s-0.4,7.3-1.5,10.8c-2.4,7.4-5.7,14.4-9.9,21c-1.5,2.3-7.2,7.6-7.2,7.6s-4.5-7.2-5.6-10C683.4,75.3,682.6,70.9,682.4,66.5z"/>
<path class="st1" d="M139.6,113.5c0-3,0.4-6.1,2.2-8.5c0.5-0.7,1.3-1.4,2.2-1.6c1.2-0.2,2.4,0.6,3,1.6c0.6,1,0.9,2.3,1.1,3.5
	c0.7,4.3,1.4,8.6,2.1,13c0,0.2,0.1,0.4,0.2,0.6c0.3,0.2,0.7,0.1,1,0c3-1.3,5-4.1,6.6-7c1.6-2.8,3.1-5.8,5.5-8c1.2-1.1,2.9-1.9,4.2-1
	c1.3,0.9,1,2.8,0.5,4.3c-2.2,6.2-7.3,11.4-13.4,13.7c-2.2,0.8-4.5,1.3-6.7,1.8c-1.3,0.3-5.9,1.3-5.9,1.3s-1.6-4.6-1.9-6
	C139.9,118.5,139.6,116,139.6,113.5z"/>
<g>
	<path d="M890.3,178.7l74.1-78.4l0.9,1l-18.8,14.3c-6.3,4.7-12.5,9.6-19.1,13.9c-3.3,2.1-6.8,4.1-10.5,5.7c-0.9,0.4-1.8,0.8-2.8,1.2
		c-0.9,0.4-1.9,0.7-2.3,1.1c-0.2,0.2-0.2,0.3-0.2,0.4c0,0.1,0.2,0.5,0.5,0.8l1.8,2.3c4.9,6.2,9.8,12.3,15.3,17.7l-1.5,0.3
		c4.8-9.3,10.1-18.5,15.9-27.2c2.9-4.4,6-8.6,9.1-12.8c3.2-4.2,6.5-8.2,9.9-12.2c0,0,0.1,0,0.1,0c0,0,0,0.1,0,0.1
		c-3.2,4.1-6.4,8.3-9.4,12.6c-3,4.3-5.9,8.6-8.7,13c-5.6,8.8-10.7,17.9-15.3,27.3l-0.6,1.2l-1-0.9c-5.7-5.5-10.8-11.7-15.6-17.9
		l-1.8-2.3c-0.3-0.4-0.7-0.9-0.9-1.7c-0.1-0.4-0.1-0.9,0.1-1.3c0.1-0.4,0.4-0.7,0.7-1c1.1-0.9,2.1-1.1,3-1.5
		c0.9-0.3,1.8-0.7,2.7-1.1c3.5-1.6,7-3.4,10.3-5.5c6.6-4.1,12.8-9,19.2-13.6l19-14.1l0.9,1l-74.9,77.6c0,0-0.1,0-0.1,0
		C890.3,178.8,890.3,178.7,890.3,178.7z"/>
</g>
<path d="M815,261.8c0.1,6.2,1.8,12.3,4.9,17.7c3,5.4,7.3,10,12.1,13.8c9.7,7.6,21.9,11.9,34.2,12c12.3,0.4,24.6-2.3,36.4-6
	s23.4-8.2,35.3-12.1c5.9-2,11.9-3.8,17.9-5.5c6-1.6,12.1-3.2,18.2-4.4c12.2-2.5,24.7-4,37.1-3.8c6.2,0.2,12.5,0.6,18.6,1.7
	c6.2,1,12.2,2.5,18.2,4.2c6,1.8,11.9,3.8,17.7,6.1c5.8,2.3,11.5,4.7,17.1,7.7c5.5,2.9,10.8,6.4,15.6,10.4c4.8,4,9.2,8.7,12.6,13.9
	c1.8,2.6,3.3,5.4,4.6,8.2c1.3,2.9,2.4,5.8,3.2,8.9c1.5,6.2,2,12.6,0.5,18.9c-0.8,3.1-2.2,6.2-4.6,8.6c-1.2,1.2-2.7,2.2-4.4,2.6
	c-1.7,0.5-3.5,0.5-5.2-0.1c-1.7-0.5-3.1-1.5-4.3-2.7s-2.1-2.6-2.8-4.2c-0.7-1.5-1.1-3.2-1.1-4.9c-0.1-1.7,0.1-3.3,0.5-4.9
	c0.7-3.2,2.2-6.1,3.9-8.8c1.7-2.7,3.7-5.2,5.8-7.5c4.2-4.7,9.1-8.8,14.5-12.1c5.4-3.3,11.3-5.8,17.4-7.4c6.1-1.6,12.4-2.2,18.6-2.8
	c6.2-0.6,12.4-1.1,18.4-2.3c3-0.6,6-1.4,8.8-2.5c2.9-1.1,5.6-2.5,8.2-4.1c10.4-6.5,18.5-16.6,23.1-28c2.3-5.7,3.8-11.8,4.3-17.9
	c0.5-6.2,0-12.4-1.6-18.4l0.2-0.1c1.8,6,2.4,12.3,2.1,18.5c-0.4,6.2-1.7,12.4-4,18.3c-2.3,5.8-5.4,11.4-9.3,16.3
	c-3.9,4.9-8.6,9.3-13.9,12.6c-2.7,1.7-5.5,3.1-8.4,4.3c-2.9,1.2-6,2-9.1,2.7c-6.2,1.3-12.4,1.9-18.6,2.5c-6.2,0.7-12.3,1.3-18.3,2.8
	c-5.9,1.5-11.6,3.9-16.8,7.2c-5.2,3.2-10,7.2-14,11.7c-2,2.3-3.9,4.7-5.6,7.3c-1.6,2.6-3,5.3-3.7,8.1c-0.3,1.4-0.5,2.9-0.4,4.3
	c0,1.4,0.4,2.8,0.9,4.2c1.1,2.6,3.2,5,5.8,5.8c1.3,0.4,2.7,0.4,4,0.1c1.3-0.4,2.5-1.1,3.5-2.1c2-2,3.3-4.8,4.1-7.7
	c0.4-1.5,0.6-2.9,0.7-4.4c0-0.8,0.1-1.5,0.1-2.3v-2.3c-0.1-3-0.6-6.1-1.2-9c-0.7-3-1.7-5.9-3-8.7c-1.2-2.8-2.7-5.5-4.4-8.1
	c-3.3-5.2-7.5-9.7-12.2-13.8c-4.7-4-9.9-7.4-15.3-10.4s-11.1-5.5-16.9-7.8s-11.6-4.4-17.6-6.2c-5.9-1.8-12-3.3-18.1-4.3
	c-1.5-0.3-3.1-0.5-4.6-0.7l-4.6-0.4c-1.5-0.2-3.1-0.2-4.6-0.3c-1.5,0-3.1-0.2-4.6-0.2h-4.7c-1.6,0-3.1,0.1-4.6,0.2
	c-1.6,0-3.1,0.2-4.6,0.3c-1.5,0.2-3.1,0.2-4.6,0.5c-6.2,0.7-12.3,1.9-18.3,3.2c-6.1,1.3-12.1,2.9-18,4.7c-6,1.8-11.8,3.7-17.7,5.7
	c-5.9,2-11.7,4.1-17.6,6.2c-5.9,2.1-11.7,4.2-17.7,6c-11.9,3.6-24.4,6.3-37,5.8c-12.6-0.2-25.1-4.8-34.8-12.7
	c-4.9-3.9-9.1-8.8-12-14.3c-3-5.5-4.6-11.8-4.5-18L815,261.8z"/>
<path class="st1" d="M1107.4,339.6c-1.7,2.7-3.2,5.7-3.9,8.8c-0.6,3.2-0.2,6.7,1.7,9.3c0.9,1.2,2.3,2.2,3.7,1.8
	c0.6-0.2,1.1-0.6,1.5-1.1c1.2-1.4,1.6-3.3,1.9-5.1c0.9-4.9,1.2-10,1-15c-0.1-1.2-0.1-2.5-0.3-3.7c-0.2-1.3-0.4-1.9-1.4-1
	C1109.9,335,1108.6,337.8,1107.4,339.6z"/>
</svg>
