<?xml version="1.0" encoding="utf-8"?>
<!-- Generator: Adobe Illustrator 23.0.1, SVG Export Plug-In . SVG Version: 6.00 Build 0)  -->
<svg version="1.1" id="Layer_1" xmlns="http://www.w3.org/2000/svg" xmlns:xlink="http://www.w3.org/1999/xlink" x="0px" y="0px"
	 viewBox="0 0 1280 1024" style="enable-background:new 0 0 1280 1024;" xml:space="preserve">
<style type="text/css">
	.st0{opacity:0.54;fill:#F7C04A;enable-background:new    ;}
	.st1{opacity:0.86;fill:#539165;enable-background:new    ;}
	.st2{fill:#FFFFFF;}
</style>
<path class="st0" d="M214.8,301.7c-14.4,37.5-24.2,78.7-54.3,110.1c-26.2,27.4-65.5,39.4-106.7,38.3c-4.4-0.1-8.8-0.5-13.1-0.8
	c-32.9,2.2-66-2.8-99.1-6.4c-38.9-4.2-80.5-7.6-115.6-23.4c-15.2-6.8-28.9-16.7-36.4-29.9c-9.1-16.1-8-34.4-2.6-51.3
	c7.6-24.2,23.7-45.6,35.4-68.3c13.2-25.7,16.4-52.4,9.9-79.9c-11-46.5-43.3-87.2-51.1-134.3c-5.8-34.5-1.8-71.2,17.7-102.4
	c19.6-31.6,55.3-53.1,97-59.9c27.1-4.4,54.5-3.4,81,2.7c29.2,6.6,56.4,18,84.7,27c31.4,10.1,62.8,15.5,96.6,13
	c35.9-2.7,70.2-12.4,104.8-20.5c53.4-12.8,110.1-19.3,158.3,9.1c84,49.4,100,155.6,32.5,220.5c-18.8,18.1-42.6,30.4-69.5,38.4
	c-28.6,8.5-59.1,12.4-86.7,23.2C251.2,225.3,229.7,263,214.8,301.7z"/>
<path class="st1" d="M299.6-74.4c19,24,30.8,55.5,27.2,86.4c-1.7,14.4-6,28.5-13.6,40.9c-6.8,11-15.9,20.2-26.3,27.9
	c-21.4,16-46.8,25.4-70.5,37.1c-12.4,6.2-24.9,12.9-35.6,21.7c-11.4,9.4-20.6,21.1-27.6,34.1c-13.9,26-18.9,55.5-25.7,83.9
	c-6.8,28.2-15.6,56.6-34.5,79.2C77.8,355,56.9,366,34,371.3c-23.7,5.5-48.8,5.4-72.5,0.4c-22.5-4.7-44.8-14.2-61.6-30.3
	c-7.7-7.4-14-16.2-18.2-26.1c-5.2-12.4-6.4-25.6-5.9-38.9c0.6-16.9,4.6-33.1,11.3-48.6c7.1-16.3,16.7-31.2,25.9-46.3
	c18.9-31.1,36.9-63.4,44-99.6c3.6-18,4-36.3,2.8-54.6c-3.9-13.8-5.3-28-3-42.3c1-6,2.6-11.7,4.7-17.3c2.3-10.6,6.1-20.7,12.6-29.5
	c9.2-12.4,22.4-20.2,36.8-25c28.5-9.4,61.7-9.6,90.9-2.4c9.9,1.1,19.8,1.7,29.6,1c32-2.6,56.5-30.2,89.3-29.7
	C251.8-117.4,280.9-98,299.6-74.4z"/>
<path class="st2" d="M321.7-57.1c-0.8-4.9-1.9-9.7-3.4-14.4c-0.6-2-3.8-1.2-3.2,0.9c12.3,38.4-1.1,83.1-31.8,109.2
	c-18.1,15.4-41.4,22.5-64,28.3c-22.3,5.7-45,10.4-65.6,20.9c-9.6,4.9-18.7,11-26.3,18.7c-7.9,8-13.9,17.7-18.3,28.1
	c-9.5,22.6-11.2,47.4-13.5,71.6c-1.2,13.4-2.7,26.8-5.8,39.8c-2.6,10.6-6.4,20.9-11.4,30.5c-9.8,18.9-23.9,35.7-41,48.4
	C0,352.6-50.2,359.3-93.8,343.4c-5.5-2-10.8-4.4-15.9-7.1c-1.9-1-3.6,1.9-1.7,2.8c21.1,11,44.9,16.4,68.7,16
	c23.1-0.4,46.1-6.3,66.3-17.6c18.6-10.4,34.8-25.2,47.1-42.6c13.4-18.8,21.4-40.3,25-63.1c4.1-25.6,3.8-51.9,10-77.1
	c2.8-11.6,7-22.9,13.4-33c6.2-9.7,14.4-17.9,24-24.3c19.3-12.9,42.1-18.9,64.4-24.4c23.7-5.9,48.2-11.6,68.8-25.3
	c16.8-11.1,29.8-27.5,37.7-46.1C321.9-16.7,324.8-37.3,321.7-57.1z"/>
<path class="st2" d="M299.5-86.2c-0.8-4.9-1.9-9.7-3.4-14.4c-0.6-2-3.8-1.2-3.2,0.9c12.3,38.4-1.1,83.1-31.8,109.2
	c-18.1,15.4-41.4,22.5-64,28.3c-22.3,5.7-45,10.4-65.6,20.9c-9.6,4.9-18.7,11-26.3,18.7c-7.9,8-13.9,17.7-18.3,28.1
	c-9.5,22.6-11.2,47.4-13.5,71.6c-1.2,13.4-2.7,26.8-5.8,39.8c-2.6,10.6-6.4,20.9-11.4,30.5c-9.8,18.9-23.9,35.7-41,48.4
	c-37.3,27.9-87.5,34.6-131.1,18.6c-5.5-2-10.8-4.4-15.9-7.1c-1.9-1-3.6,1.9-1.7,2.8c21.1,11,44.9,16.4,68.7,16
	c23.1-0.4,46.1-6.3,66.3-17.6c18.6-10.4,34.8-25.2,47.1-42.6c13.4-18.8,21.4-40.3,25-63.1c4.1-25.6,3.8-51.9,10-77.1
	c2.8-11.6,7-22.9,13.4-33c6.2-9.7,14.4-17.9,24-24.3c19.3-12.9,42.1-18.9,64.4-24.4c23.7-5.9,48.2-11.6,68.8-25.3
	C271,7.6,284-8.8,291.9-27.3S302.7-66.3,299.5-86.2z"/>
<path class="st2" d="M276.9-104c-0.8-4.9-1.9-9.7-3.4-14.4c-0.6-2-3.8-1.2-3.2,0.9c12.3,38.4-1.1,83.1-31.8,109.2
	c-18.1,15.4-41.4,22.5-64,28.3c-22.3,5.7-45,10.4-65.6,20.9c-9.6,4.9-18.7,11-26.3,18.7c-7.9,8-13.9,17.7-18.3,28.1
	C54.7,110.2,53,135,50.7,159.1c-1.2,13.4-2.7,26.8-5.8,39.8c-2.6,10.6-6.4,20.9-11.4,30.5c-9.8,18.9-23.9,35.7-41,48.4
	c-37.3,27.9-87.5,34.6-131.1,18.6c-5.5-2-10.8-4.4-15.9-7.1c-1.9-1-3.6,1.9-1.7,2.8c21.1,11,44.9,16.4,68.7,16
	c23.1-0.4,46.1-6.3,66.3-17.6c18.6-10.4,34.8-25.2,47.1-42.6c13.4-18.8,21.4-40.3,25-63.1c4.1-25.6,3.8-51.9,10-77.1
	c2.8-11.6,7-22.9,13.4-33c6.2-9.7,14.4-17.9,24-24.3c19.3-12.9,42.1-18.9,64.4-24.4c23.7-5.9,48.2-11.6,68.8-25.3
	c16.8-11.1,29.8-27.5,37.7-46.1C277.1-63.5,280-84.1,276.9-104z"/>
<path class="st2" d="M254.8-133.1c-0.8-4.9-1.9-9.7-3.4-14.4c-0.6-2-3.8-1.2-3.2,0.9c12.3,38.4-1.1,83.1-31.8,109.2
	C198.3-22,175-14.9,152.4-9.1c-22.3,5.7-45,10.4-65.6,20.9c-9.6,4.9-18.7,11-26.3,18.7c-7.9,8-13.9,17.7-18.3,28.1
	C32.7,81.2,31,106,28.7,130.2C27.5,143.6,26,157,22.9,170c-2.6,10.6-6.4,20.9-11.4,30.5c-9.8,18.9-23.9,35.7-41,48.4
	c-37.3,27.9-87.5,34.6-131.1,18.6c-5.5-2-10.8-4.4-15.9-7.1c-1.9-1-3.6,1.9-1.7,2.8c21.1,11,44.9,16.4,68.7,16
	c23.1-0.4,46.1-6.3,66.3-17.6c18.6-10.4,34.8-25.2,47.1-42.6c13.4-18.8,21.4-40.3,25-63.1c4.1-25.6,3.8-51.9,10-77.1
	c2.8-11.6,7-22.9,13.4-33c6.2-9.7,14.4-17.9,24-24.3c19.2-12.8,42-18.8,64.3-24.3c23.7-5.9,48.2-11.6,68.8-25.3
	c16.8-11.1,29.8-27.5,37.7-46.1C255-92.6,257.9-113.2,254.8-133.1z"/>
</svg>
