<?xml version="1.0" encoding="utf-8"?>
<!-- Generator: Adobe Illustrator 23.0.1, SVG Export Plug-In . SVG Version: 6.00 Build 0)  -->
<svg version="1.1" id="Layer_1" xmlns="http://www.w3.org/2000/svg" xmlns:xlink="http://www.w3.org/1999/xlink" x="0px" y="0px"
	 viewBox="0 0 141.7 97.8" style="enable-background:new 0 0 141.7 97.8;" xml:space="preserve">
<style type="text/css">
	.st0{fill:#2D2D2D;stroke:#000000;stroke-width:0.5;stroke-miterlimit:10;}
	.st1{fill:#609966;}
	.st2{fill:#F2A89A;}
	.st3{stroke:#000000;stroke-width:0.25;stroke-miterlimit:10;}
	.st4{fill:none;stroke:#CCD6A6;stroke-width:2;stroke-linecap:round;stroke-miterlimit:10;}
	.st5{fill:none;stroke:#E7B10A;stroke-miterlimit:10;}
</style>
<g>
	<g>
		<path class="st0" d="M37.3,20.5c0.1-0.2,0.3-0.4,0.6-0.6c0.3-0.3,0.6-0.5,0.9-0.5c0.2,0,0.5,0,0.7,0.3c0.2,0.3,0.3,0.6,0.1,1l0,0
			c0.3-0.2,0.8-0.2,1.1,0.1c0.2,0.2,0.3,0.5,0.3,0.7c0,0.3-0.2,0.7-0.7,1.1c-0.2,0.2-0.4,0.4-0.5,0.5L37.3,20.5z M38.6,21.2l0.3-0.3
			c0.3-0.3,0.4-0.7,0.2-1c-0.3-0.3-0.6-0.2-1,0.1c-0.2,0.2-0.2,0.2-0.3,0.3L38.6,21.2z M39.8,22.5c0.1,0,0.2-0.1,0.3-0.3
			c0.3-0.3,0.5-0.8,0.2-1.1c-0.3-0.3-0.8-0.2-1.1,0.1l-0.3,0.3L39.8,22.5z"/>
		<path class="st0" d="M41.8,19.5c0.4,0.5,0.9,0.4,1.2,0.1c0.3-0.2,0.4-0.4,0.5-0.5l0.3,0.2c-0.1,0.2-0.2,0.4-0.6,0.7
			c-0.6,0.5-1.3,0.4-1.8-0.2s-0.5-1.3,0.1-1.8c0.6-0.5,1.3-0.1,1.6,0.3c0.1,0.1,0.1,0.1,0.1,0.2L41.8,19.5z M42.6,18.4
			c-0.2-0.2-0.6-0.5-1-0.2c-0.4,0.3-0.3,0.8-0.1,1L42.6,18.4z"/>
		<path class="st0" d="M46.1,17.7l-0.2-0.2l0,0c0,0.3-0.1,0.5-0.4,0.8c-0.4,0.3-0.8,0.2-1.1-0.2c-0.3-0.5-0.1-1.1,0.7-1.7l0,0
			c-0.1-0.2-0.4-0.5-0.8-0.2c-0.2,0.1-0.3,0.3-0.4,0.5l-0.3-0.2c0.1-0.2,0.3-0.5,0.5-0.7c0.6-0.5,1.1-0.1,1.4,0.3l0.5,0.8
			c0.1,0.2,0.3,0.3,0.4,0.5L46.1,17.7z M45.3,16.7c-0.4,0.3-0.8,0.7-0.5,1.1c0.2,0.3,0.4,0.3,0.6,0.1c0.3-0.2,0.3-0.5,0.3-0.7
			c0,0,0-0.1-0.1-0.1L45.3,16.7z"/>
		<path class="st0" d="M49.1,15c0.1,0.2,0.3,0.4,0.4,0.6l-0.3,0.2l-0.2-0.3l0,0c0,0.2-0.1,0.6-0.5,0.8c-0.3,0.2-0.9,0.3-1.3-0.5
			l-0.8-1.3l0.4-0.2l0.7,1.2c0.3,0.4,0.5,0.6,0.9,0.4c0.3-0.2,0.3-0.5,0.3-0.7c0-0.1,0-0.2-0.1-0.2l-0.8-1.3l0.4-0.2L49.1,15z"/>
		<path class="st0" d="M49.8,11.7l0.3,0.7l0.6-0.3l0.2,0.3l-0.6,0.3l0.6,1.2c0.1,0.3,0.3,0.4,0.5,0.3c0.1-0.1,0.2-0.1,0.2-0.2
			l0.2,0.3c-0.1,0.1-0.2,0.2-0.3,0.2c-0.2,0.1-0.4,0.1-0.5,0c-0.2-0.1-0.3-0.2-0.5-0.5l-0.6-1.2L49.6,13l-0.2-0.3l0.3-0.2L49.5,12
			L49.8,11.7z"/>
		<path class="st0" d="M52.2,11.4l1.1,1.2c0.1,0.1,0.3,0.3,0.4,0.4h0c0-0.2,0-0.4-0.1-0.5l-0.1-1.6l0.5-0.2l0.1,1.9
			c0,0.9,0,1.4-0.2,1.8c-0.1,0.3-0.3,0.4-0.4,0.5l-0.3-0.3c0.1-0.1,0.2-0.2,0.3-0.4c0.1-0.1,0.2-0.4,0.2-0.6c0,0,0-0.1,0-0.1
			c0,0,0,0-0.1-0.1l-1.8-1.8L52.2,11.4z"/>
		<path class="st0" d="M57.6,11.4c0.2,0.1,0.5,0.1,0.8,0c0.5-0.1,0.6-0.5,0.5-0.8c-0.1-0.3-0.3-0.4-0.8-0.5c-0.6,0-1-0.2-1.2-0.7
			c-0.2-0.5,0.2-1.1,0.8-1.3C58.1,8,58.4,8,58.6,8.1l0,0.4c-0.1,0-0.4-0.1-0.7,0c-0.5,0.1-0.5,0.5-0.5,0.7c0.1,0.3,0.3,0.4,0.9,0.5
			c0.6,0,1,0.2,1.2,0.7c0.2,0.5-0.1,1.1-0.9,1.3c-0.3,0.1-0.7,0.1-0.9,0L57.6,11.4z"/>
		<path class="st0" d="M63,9.2c0.2,0.9-0.3,1.5-0.9,1.6c-0.7,0.2-1.3-0.2-1.5-1c-0.2-0.8,0.3-1.4,0.9-1.6C62.2,8.1,62.8,8.5,63,9.2z
			 M61,9.7c0.1,0.5,0.5,0.9,1,0.8c0.4-0.1,0.7-0.6,0.5-1.1c-0.1-0.4-0.4-0.9-1-0.8C61.1,8.7,60.9,9.2,61,9.7z"/>
		<path class="st0" d="M64,6.6l0.5-0.1l0.6,3.7l-0.5,0.1L64,6.6z"/>
		<path class="st0" d="M68.6,9.1c0,0.3,0.1,0.5,0.1,0.7l-0.4,0l-0.1-0.4h0c-0.1,0.2-0.3,0.5-0.8,0.5c-0.4,0-0.9-0.1-1-1l-0.1-1.5
			l0.5,0l0.1,1.4c0.1,0.5,0.2,0.8,0.6,0.8c0.3,0,0.5-0.3,0.6-0.5c0-0.1,0-0.2,0-0.2L68,7.3l0.5,0L68.6,9.1z"/>
		<path class="st0" d="M70.6,6.4l0,0.7l0.7,0l0,0.4l-0.7,0l0,1.4c0,0.3,0.1,0.5,0.4,0.5c0.1,0,0.2,0,0.3,0l0,0.4
			c-0.1,0-0.2,0.1-0.4,0.1c-0.2,0-0.4-0.1-0.5-0.2c-0.1-0.1-0.2-0.4-0.2-0.7l0-1.4l-0.4,0l0-0.4l0.4,0l0-0.6L70.6,6.4z"/>
		<path class="st0" d="M73.2,6.4c0,0.2-0.1,0.3-0.3,0.3c-0.2,0-0.3-0.1-0.3-0.3c0-0.2,0.1-0.3,0.3-0.3C73.1,6.1,73.2,6.2,73.2,6.4z
			 M72.7,9.7l0-2.5l0.5,0l0,2.5L72.7,9.7z"/>
		<path class="st0" d="M77,8.6c-0.1,0.9-0.8,1.3-1.4,1.3c-0.7,0-1.2-0.6-1.1-1.4c0.1-0.9,0.7-1.3,1.4-1.3C76.6,7.2,77.1,7.8,77,8.6z
			 M75,8.5c0,0.6,0.3,1,0.7,1c0.4,0,0.8-0.4,0.8-0.9c0-0.4-0.1-1-0.7-1C75.3,7.5,75.1,8,75,8.5z"/>
		<path class="st0" d="M78.5,8.2c0-0.3,0.1-0.5,0.1-0.7L79,7.6L79,8h0c0.2-0.2,0.5-0.4,0.9-0.3c0.3,0,0.9,0.4,0.7,1.2l-0.2,1.5
			l-0.5-0.1l0.2-1.5c0.1-0.4,0-0.8-0.5-0.8c-0.3,0-0.6,0.1-0.7,0.4c0,0-0.1,0.1-0.1,0.2l-0.2,1.5L78.2,10L78.5,8.2z"/>
		<path class="st0" d="M86.1,11.7c-0.2,0-0.5,0-0.9-0.1c-1-0.3-1.5-1.1-1.2-2.2c0.3-1.1,1.2-1.6,2.3-1.3c0.4,0.1,0.7,0.3,0.8,0.4
			l-0.2,0.3c-0.1-0.1-0.4-0.3-0.7-0.3c-0.8-0.2-1.5,0.1-1.7,1c-0.2,0.8,0.1,1.5,0.9,1.7c0.3,0.1,0.6,0.1,0.8,0.1V11.7z"/>
		<path class="st0" d="M89.8,11.7c-0.3,0.9-1.1,1-1.7,0.8c-0.7-0.2-1-0.9-0.7-1.7c0.3-0.8,1-1.1,1.7-0.8
			C89.8,10.3,90.1,11,89.8,11.7z M87.9,11.1c-0.2,0.5,0,1,0.4,1.2c0.4,0.2,0.9-0.1,1.1-0.7c0.2-0.4,0.1-1-0.4-1.2
			S88.1,10.6,87.9,11.1z"/>
		<path class="st0" d="M91.4,11.8c0.1-0.2,0.2-0.4,0.3-0.6l0.4,0.2l-0.2,0.4l0,0c0.2-0.2,0.6-0.3,0.9-0.1c0.3,0.2,0.5,0.5,0.4,0.8h0
			c0.1-0.1,0.3-0.2,0.4-0.2c0.2,0,0.4,0,0.6,0.1c0.3,0.2,0.7,0.6,0.3,1.4l-0.7,1.3l-0.4-0.2l0.6-1.3c0.2-0.4,0.2-0.8-0.2-1
			c-0.2-0.1-0.5,0-0.7,0.1c-0.1,0-0.1,0.1-0.1,0.2l-0.7,1.4L92,14.1l0.7-1.4c0.2-0.4,0.2-0.7-0.2-0.9c-0.3-0.1-0.6,0-0.7,0.2
			c-0.1,0-0.1,0.1-0.1,0.2L91,13.7l-0.4-0.2L91.4,11.8z"/>
		<path class="st0" d="M96,14.3c0.2-0.3,0.3-0.5,0.4-0.7l0.3,0.2l-0.2,0.4l0,0c0.3-0.2,0.7-0.2,1,0c0.5,0.3,0.7,1,0.3,1.7
			c-0.5,0.8-1.2,0.9-1.7,0.6c-0.3-0.2-0.5-0.5-0.5-0.8l0,0L95,16.9l-0.4-0.2L96,14.3z M96,15.1c0,0.1-0.1,0.1-0.1,0.2
			c-0.1,0.3,0,0.7,0.3,0.8c0.4,0.3,0.9,0.1,1.2-0.4c0.3-0.4,0.3-1-0.2-1.2c-0.3-0.2-0.6-0.1-0.9,0.1c0,0-0.1,0.1-0.1,0.2L96,15.1z"
			/>
		<path class="st0" d="M99.4,18.6l0.2-0.3l0,0c-0.2,0.1-0.6,0.1-0.8-0.2c-0.4-0.3-0.4-0.8-0.2-1c0.4-0.5,1-0.5,1.8,0.1l0,0
			c0.1-0.2,0.3-0.5-0.1-0.8c-0.2-0.1-0.4-0.2-0.7-0.2l0.1-0.3c0.3,0,0.6,0.1,0.8,0.3c0.6,0.5,0.5,1,0.2,1.4l-0.6,0.8
			c-0.1,0.2-0.3,0.4-0.3,0.5L99.4,18.6z M100.1,17.5c-0.4-0.3-0.9-0.6-1.2-0.2c-0.2,0.2-0.1,0.5,0.1,0.6c0.3,0.2,0.6,0.2,0.8,0
			c0,0,0.1-0.1,0.1-0.1L100.1,17.5z"/>
		<path class="st0" d="M102.1,18.3c0.2-0.2,0.3-0.4,0.4-0.5l0.3,0.3l-0.3,0.3l0,0c0.3-0.1,0.6-0.1,0.9,0.2c0.3,0.2,0.6,0.7,0,1.4
			l-1,1.2l-0.3-0.3l0.9-1.1c0.3-0.3,0.4-0.7,0-1c-0.2-0.2-0.6-0.2-0.8,0c-0.1,0-0.1,0.1-0.2,0.1l-1,1.2l-0.3-0.3L102.1,18.3z"/>
		<path class="st0" d="M105.5,20.4l-0.7,1.5c-0.1,0.2-0.2,0.3-0.3,0.5l0,0c0.1-0.1,0.3-0.2,0.5-0.3l1.4-0.7l0.3,0.3l-1.8,0.8
			c-0.8,0.4-1.3,0.6-1.7,0.5c-0.3,0-0.5-0.1-0.6-0.2l0.2-0.4c0.1,0,0.3,0.1,0.4,0.1c0.2,0,0.4,0,0.6-0.1c0.1,0,0.1,0,0.1,0
			s0,0,0.1-0.1l1-2.3L105.5,20.4z"/>
	</g>
	<g>
		<g>
			<g>
				<path class="st1" d="M72.1,54.8c-0.1,0-0.3-0.1-0.4-0.2C57.5,41.4,71.1,20.9,71.7,20c0.1-0.2,0.3-0.2,0.5-0.2
					c0.2,0,0.4,0.1,0.5,0.2c0.1,0.2,14.4,21.1-0.1,34.7C72.4,54.8,72.3,54.8,72.1,54.8z M72.1,21.4c-2.3,3.7-11.7,20.7,0,32.1
					C83.9,42,74.4,25.1,72.1,21.4z"/>
				<path class="st1" d="M72.1,19.9c0.1,0,0.3,0.1,0.4,0.2c0.1,0.2,14.3,21-0.1,34.5c-0.1,0.1-0.2,0.1-0.3,0.1s-0.2,0-0.3-0.1
					c-14.4-13.4-0.2-34.3-0.1-34.5C71.9,20,72,19.9,72.1,19.9 M72.1,53.7c12.1-11.7,2.1-29.3,0-32.6C70.1,24.4,60,42,72.1,53.7
					 M72.1,19.7c-0.2,0-0.4,0.1-0.6,0.3c-0.6,0.9-14.2,21.5,0.1,34.8c0.1,0.1,0.3,0.2,0.5,0.2c0.2,0,0.3-0.1,0.5-0.2
					c14.6-13.6,0.2-34.6,0.1-34.8C72.6,19.8,72.3,19.7,72.1,19.7L72.1,19.7z M72.1,53.3c-11.4-11.2-2.5-27.7,0-31.7
					C74.6,25.6,83.5,42.1,72.1,53.3L72.1,53.3z"/>
			</g>
		</g>
		<g>
			<g>
				<path class="st1" d="M72.1,68.9c-0.1,0-0.2,0-0.3-0.1c-8.9-5.1-8.8-14.7-8.8-14.7c0-0.1,0-0.2,0.1-0.3c1-1.7,2.2-2.7,3.7-2.8
					c0.1,0,0.2,0,0.4,0c2.2,0,4.2,1.8,4.9,2.5c0.8-0.8,2.8-2.5,4.9-2.5c0.1,0,0.3,0,0.4,0c1.5,0.1,2.7,1.1,3.7,2.8
					c0,0.1,0.1,0.2,0.1,0.2c0,0.4,0,9.7-8.8,14.8C72.3,68.8,72.2,68.9,72.1,68.9z M67.2,52.1c-0.1,0-0.2,0-0.3,0
					c-1.1,0.1-2,0.8-2.8,2.2c0,0.8,0.3,8.8,8,13.4c7.6-4.6,7.9-12.6,7.9-13.5c-0.8-1.3-1.7-2-2.8-2.1c-0.1,0-0.2,0-0.3,0
					c-2.1,0-4.3,2.3-4.5,2.6c-0.1,0.1-0.3,0.2-0.4,0.2s-0.3-0.1-0.4-0.2C71.7,54.6,69.4,52.1,67.2,52.1z"/>
				<path class="st1" d="M77,51.1c0.1,0,0.2,0,0.4,0c1.4,0.1,2.6,1.1,3.6,2.8c0,0.1,0.1,0.1,0.1,0.2c0,0.1,0.2,9.5-8.7,14.6
					c-0.1,0-0.2,0.1-0.2,0.1c-0.1,0-0.2,0-0.2-0.1C63,63.6,63.2,54.1,63.2,54c0-0.1,0-0.1,0.1-0.2c1-1.7,2.2-2.6,3.6-2.8
					c0.1,0,0.2,0,0.4,0c2.2,0,4.2,1.8,4.9,2.6C72.9,52.9,74.9,51.1,77,51.1 M72.1,54.7c-0.1,0-0.2,0-0.3-0.1c0,0-2.3-2.6-4.6-2.6
					c-0.1,0-0.2,0-0.3,0c-1.1,0.1-2.1,0.9-2.9,2.2c0,1,0.3,9,8.1,13.6c7.7-4.6,8.1-12.6,8.1-13.6c-0.8-1.4-1.8-2.1-2.9-2.2
					c-0.1,0-0.2,0-0.3,0c-2.3,0-4.6,2.6-4.6,2.6C72.4,54.7,72.2,54.7,72.1,54.7 M77,50.8L77,50.8c-2.1,0-4,1.6-4.9,2.5
					c-0.9-0.9-2.8-2.5-4.9-2.5c-0.1,0-0.2,0-0.4,0C65.3,51,64,52,63,53.7C63,53.8,63,53.9,63,54c0,0.1-0.1,9.7,8.8,14.8
					c0.1,0.1,0.2,0.1,0.3,0.1c0.1,0,0.2,0,0.3-0.1c8.8-5.1,8.9-14.5,8.8-14.9c0-0.1,0-0.2-0.1-0.3c-1-1.8-2.3-2.7-3.8-2.9
					C77.3,50.8,77.2,50.8,77,50.8L77,50.8z M72.1,55c0.2,0,0.4-0.1,0.5-0.2c0.4-0.4,2.4-2.5,4.4-2.5c0.1,0,0.2,0,0.3,0
					c1,0.1,1.9,0.8,2.6,2c0,1.2-0.5,8.8-7.8,13.3c-7.3-4.5-7.8-12.1-7.8-13.3c0.8-1.3,1.6-1.9,2.6-2c0.1,0,0.2,0,0.3,0
					c2.2,0,4.4,2.5,4.4,2.5C71.7,54.9,71.9,55,72.1,55L72.1,55z"/>
			</g>
		</g>
		<g>
			<g>
				<path class="st1" d="M65.9,42.4c-0.2,0-0.5-0.2-0.5-0.4c0-0.1-2-5-6.8-7.8c-0.1-0.1-0.2-0.2-0.3-0.3c-0.1-0.5-1-4.5,1.6-8.5
					c0.1-0.1,0.3-0.2,0.5-0.2c0,0,0,0,0,0c0.3,0,5.9,0.1,7.8,4c0,0,0,0.1,0,0.1c0,0.1,0,0.2,0,0.3c-1.5,4.3-2.1,8.4-1.7,12.2
					c0,0.3-0.2,0.5-0.4,0.6L65.9,42.4z M59.3,33.4c2.9,1.7,4.8,4.1,5.9,6c0-3.1,0.6-6.4,1.8-9.9c-1.5-2.7-5.5-3.1-6.4-3.2
					C58.7,29.4,59.2,32.7,59.3,33.4z"/>
				<path class="st1" d="M60.3,25.3c0.2,0,5.8,0.1,7.7,3.9c0,0,0,0.1,0,0.1c0,0.1,0,0.2,0,0.2c-1.5,4.4-2.1,8.5-1.7,12.2
					c0,0.2-0.1,0.4-0.3,0.5c0,0-0.1,0-0.1,0c-0.2,0-0.3-0.1-0.4-0.3c0,0-2-5-6.9-7.9c-0.1-0.1-0.2-0.2-0.2-0.3
					c0-0.2-1.1-4.3,1.6-8.4C60,25.4,60.2,25.3,60.3,25.3 M65.3,39.8c0-3.2,0.6-6.7,1.8-10.3c-1.5-2.9-5.6-3.3-6.6-3.3
					c-2,3.2-1.5,6.5-1.4,7.3C62.3,35.4,64.3,38,65.3,39.8 M60.3,25.1L60.3,25.1L60.3,25.1c-0.2,0-0.4,0.1-0.6,0.3
					c-2.6,4-1.7,8.1-1.6,8.6c0,0.2,0.2,0.3,0.3,0.4c4.8,2.8,6.8,7.7,6.8,7.7c0.1,0.3,0.4,0.5,0.6,0.5c0,0,0.1,0,0.1,0
					c0.3-0.1,0.6-0.4,0.5-0.7c-0.4-3.7,0.2-7.8,1.7-12.1c0-0.1,0.1-0.2,0-0.3c0-0.1,0-0.1-0.1-0.2C66.3,25.1,60.6,25.1,60.3,25.1
					L60.3,25.1z M59.4,33.3c-0.1-0.8-0.5-3.9,1.3-6.9c1.1,0.1,4.8,0.5,6.2,3.1c-1.1,3.3-1.7,6.5-1.8,9.4
					C63.9,37.2,62.1,35,59.4,33.3L59.4,33.3z"/>
			</g>
		</g>
		<g>
			<g>
				<path class="st1" d="M50.6,69.1c-1.3,0-2.6-0.1-3.8-0.2c-0.3,0-0.5-0.2-0.5-0.4c-0.1-0.2,0-0.5,0.2-0.6c0,0,3.9-2.4,5.9-8.8
					c2.3-7.2,5.2-10.4,9.6-10.7c0.2,0,0.4,0,0.6,0c4.3,0,5.9,2.9,5.9,3c0.1,0.2,0.1,0.4,0,0.6c-0.1,0.1-0.3,0.2-0.4,0.2
					c0,0-0.1,0-0.1,0c-0.3-0.1-0.6-0.1-0.8-0.1c-1.2,0-2.2,0.7-3,2.2c0,0.6,0.2,3.9,2.1,7.4c0.1,0.1,0.1,0.3,0.1,0.4
					C63.7,68.1,55.4,69.1,50.6,69.1z M48.3,67.9c0.6,0,1.3,0.1,2.2,0.1c4.4,0,12.1-0.8,14.6-6c-2-3.8-2.1-7.2-2.1-7.9
					c0-0.1,0-0.2,0.1-0.3c1-1.7,2.2-2.7,3.7-2.8c-0.8-0.7-2.1-1.5-4.2-1.5c-0.2,0-0.4,0-0.5,0c-3.9,0.3-6.5,3.2-8.7,9.9
					C52,64,49.7,66.6,48.3,67.9z"/>
				<path class="st1" d="M62.7,48.5c4.1,0,5.8,2.8,5.8,2.9c0.1,0.2,0.1,0.3,0,0.5c-0.1,0.1-0.2,0.2-0.3,0.2c0,0-0.1,0-0.1,0
					c-0.3-0.1-0.6-0.1-0.8-0.1c-1.2,0-2.3,0.7-3.1,2.2c0,0.6,0.1,4,2.1,7.5c0.1,0.1,0.1,0.2,0,0.3c-2.6,6-10.7,6.9-15.5,6.9
					c-2.1,0-3.6-0.2-3.8-0.2c-0.2,0-0.3-0.2-0.4-0.3c0-0.2,0-0.4,0.2-0.5c0,0,3.9-2.5,5.9-8.8c2.3-7.1,5.1-10.3,9.5-10.6
					C62.3,48.5,62.5,48.5,62.7,48.5 M50.5,68.1c4.6,0,12.3-0.8,14.8-6.1c-2.2-4-2.1-7.7-2.1-7.9c0-0.1,0-0.1,0.1-0.2
					c1.2-2.1,2.7-2.8,3.9-2.8c-0.7-0.7-2.1-1.7-4.5-1.7c-0.2,0-0.4,0-0.6,0c-4,0.3-6.6,3.3-8.8,10c-1.5,4.8-4,7.4-5.4,8.6
					C48.6,68,49.5,68.1,50.5,68.1 M62.7,48.3c-0.2,0-0.4,0-0.6,0c-4.5,0.3-7.4,3.5-9.8,10.8c-2,6.2-5.8,8.7-5.8,8.7
					c-0.3,0.2-0.4,0.5-0.3,0.7c0.1,0.3,0.3,0.5,0.6,0.5c1.2,0.1,2.6,0.2,3.9,0.2c4.7,0,13.1-0.9,15.8-7.1c0.1-0.2,0-0.4-0.1-0.5
					c-1.8-3.3-2-6.6-2.1-7.3c0.8-1.4,1.8-2,2.9-2c0.2,0,0.5,0,0.8,0.1c0,0,0.1,0,0.2,0c0.2,0,0.4-0.1,0.5-0.3c0.2-0.2,0.2-0.5,0-0.7
					C68.7,51.3,67.1,48.3,62.7,48.3L62.7,48.3z M48.6,67.8c1.4-1.3,3.6-4,5-8.3c2.1-6.6,4.7-9.6,8.5-9.8c0.2,0,0.4,0,0.5,0
					c1.9,0,3.1,0.6,3.9,1.3c-1.1,0.2-2.4,0.8-3.5,2.8C63,53.8,63,53.9,63,54c0,0.7,0.1,4.1,2.1,7.9c-2.5,5.1-10.1,5.9-14.5,5.9
					C49.8,67.8,49.1,67.8,48.6,67.8L48.6,67.8z"/>
			</g>
		</g>
		<g>
			<g>
				<g>
					<path class="st1" d="M64.7,53.2c-0.1,0-0.3-0.1-0.4-0.2c-0.1-0.1-0.2-0.2-0.2-0.4c0-0.1,0.1-0.3,0.2-0.4l0.1-0.1
						c0.1-0.1,0.3-0.2,0.4-0.2c0.2,0,0.3,0.1,0.4,0.2c0.1,0.1,0.2,0.3,0.2,0.4c0,0.1-0.1,0.3-0.2,0.4L65.1,53l0,0
						C65,53.1,64.8,53.2,64.7,53.2z"/>
					<path class="st1" d="M64.7,52.1c0.1,0,0.2,0,0.3,0.1c0.1,0.1,0.1,0.2,0.1,0.3c0,0.1,0,0.2-0.1,0.3l-0.3-0.3l0.3,0.3
						c-0.1,0.1-0.2,0.1-0.3,0.1c-0.1,0-0.2,0-0.3-0.1c-0.1-0.1-0.1-0.2-0.1-0.3c0-0.1,0-0.2,0.1-0.3c0,0,0.1-0.1,0.1-0.1
						C64.5,52.2,64.6,52.1,64.7,52.1 M64.7,51.9c-0.2,0-0.4,0.1-0.5,0.2l-0.1,0.1c-0.1,0.1-0.2,0.3-0.2,0.5c0,0.2,0.1,0.4,0.2,0.5
						c0.1,0.1,0.3,0.2,0.5,0.2c0.1,0,0.3,0,0.4-0.1l0,0l0.2-0.2c0.1-0.1,0.2-0.3,0.2-0.5c0-0.2-0.1-0.3-0.2-0.5
						C65.1,52,64.9,51.9,64.7,51.9L64.7,51.9z"/>
				</g>
			</g>
			<g>
				<g>
					<path class="st1" d="M71.4,54.1c-0.1,0-0.3,0-0.4-0.1c-0.7-0.7-1.8-1.5-3-1.8c-0.2,0-0.3-0.1-0.4-0.3c0,0-1.4-2.4-5-2.4
						c-0.2,0-0.4,0-0.6,0c-1.4,0.1-2.7,0.6-3.8,1.4C58.3,51,58.2,51,58.1,51c-0.2,0-0.3-0.1-0.4-0.2c-2.2-2.3-3.7-5.4-4.4-8.9
						c-1.3-7.1-4.6-9.3-5-9.5c-0.2-0.1-0.3-0.4-0.3-0.6c0-0.2,0.2-0.4,0.5-0.5c0.9-0.1,1.8-0.2,2.6-0.2c10.7,0,14.9,9.4,15.3,10.4
						l0,0.1c0.5,4.4,2.3,8.2,5.4,11.4c0.2,0.2,0.2,0.6,0,0.8C71.7,54.1,71.6,54.1,71.4,54.1z M62.7,48.4c3.8,0,5.5,2.3,5.8,2.8
						c0.1,0,0.2,0,0.2,0.1c-1.9-2.7-3.1-5.9-3.4-9.3c-0.1-0.4-3.9-9.7-14.2-9.7c-0.4,0-0.8,0-1.2,0c1.3,1.2,3.4,4,4.4,9.4
						c0.6,3.1,1.9,5.8,3.7,8c1.2-0.8,2.5-1.2,4-1.3C62.3,48.4,62.5,48.4,62.7,48.4z"/>
					<path class="st1" d="M51.1,31.3c11.1,0,15.1,10.3,15.2,10.4c0,0,0,0.1,0,0.1c0.4,4.4,2.3,8.3,5.4,11.5c0.2,0.2,0.2,0.4,0,0.6
						C71.7,54,71.5,54,71.4,54s-0.2,0-0.3-0.1c-0.7-0.7-1.9-1.6-3.1-1.9c-0.1,0-0.2-0.1-0.3-0.2c-0.1-0.1-1.4-2.5-5.1-2.5
						c-0.2,0-0.4,0-0.6,0c-1.5,0.1-2.7,0.6-3.8,1.4c-0.1,0.1-0.2,0.1-0.3,0.1c-0.1,0-0.2,0-0.3-0.1c-2.2-2.3-3.7-5.4-4.3-8.8
						c-1.4-7.5-5-9.6-5.1-9.6c-0.2-0.1-0.3-0.3-0.2-0.4c0-0.2,0.2-0.3,0.4-0.4C49.4,31.4,50.3,31.3,51.1,31.3 M58.1,49.9
						c1.2-0.8,2.5-1.3,4-1.4c0.2,0,0.4,0,0.6,0c3.6,0,5.3,2.1,5.7,2.8c0.2,0.1,0.5,0.2,0.7,0.2c-2-2.8-3.3-6-3.6-9.5
						c-0.3-0.8-4.2-9.8-14.3-9.8c-0.5,0-1,0-1.5,0.1c1.3,1.1,3.5,3.9,4.6,9.5C54.8,44.9,56.2,47.7,58.1,49.9 M51.1,31.1L51.1,31.1
						c-0.9,0-1.8,0.1-2.7,0.2c-0.3,0-0.5,0.3-0.6,0.6c0,0.3,0.1,0.6,0.3,0.7c0.4,0.2,3.7,2.4,4.9,9.4c0.6,3.5,2.2,6.6,4.4,8.9
						c0.1,0.1,0.3,0.2,0.5,0.2c0.1,0,0.3,0,0.4-0.1c1.1-0.8,2.3-1.3,3.7-1.4c0.2,0,0.4,0,0.5,0c3.5,0,4.8,2.3,4.9,2.3
						c0.1,0.2,0.2,0.3,0.4,0.3c1.2,0.3,2.3,1.1,3,1.8c0.1,0.1,0.3,0.2,0.5,0.2c0.2,0,0.3-0.1,0.5-0.2c0.3-0.3,0.3-0.7,0-0.9
						c-3.1-3.2-4.9-7-5.4-11.3l0,0l0,0c0,0,0-0.1,0-0.1l-0.2,0.1l0.2-0.1C66.1,40.5,61.8,31.1,51.1,31.1L51.1,31.1z M50.2,32.5
						c0.3,0,0.6,0,0.9,0c10,0,13.8,8.9,14.1,9.6c0.3,3.1,1.3,5.9,2.9,8.4c-0.8-0.9-2.5-2.2-5.4-2.2c-0.2,0-0.4,0-0.6,0
						c-1.5,0.1-2.8,0.5-3.9,1.3c-1.8-2.1-3.1-4.8-3.6-7.8C53.5,36.6,51.6,33.8,50.2,32.5L50.2,32.5z"/>
				</g>
			</g>
			<g>
				<g>
					<path class="st1" d="M63.6,53.1l0.2-0.2c0.1-0.1,0.3-0.2,0.4-0.2c0.1,0,0.2,0,0.3,0.1c0.1,0.1,0.2,0.3,0.2,0.4
						c0,0.1,0,0.2-0.1,0.3l-0.1,0.2L63.6,53.1z"/>
					<path class="st1" d="M64.2,52.8c0.1,0,0.2,0,0.3,0.1c0.1,0.1,0.2,0.2,0.2,0.3c0,0.1,0,0.2-0.1,0.3l-0.1,0.1l-0.7-0.5l0.1-0.1
						C63.9,52.8,64.1,52.8,64.2,52.8 M64.2,52.5c-0.2,0-0.4,0.1-0.5,0.3l-0.1,0.1l-0.2,0.2l0.2,0.1l0.7,0.5l0.2,0.1l0.1-0.2l0.1-0.1
						c0.1-0.1,0.1-0.3,0.1-0.4c0-0.2-0.1-0.4-0.3-0.5C64.5,52.6,64.3,52.5,64.2,52.5L64.2,52.5z"/>
				</g>
			</g>
			<g>
				<g>
					<path class="st1" d="M65.4,52.6l-0.3-0.3l-0.3-0.5l0.1-0.1c0.1-0.1,0.2-0.1,0.3-0.1c0.2,0,0.3,0.1,0.4,0.2
						c0.1,0.1,0.1,0.3,0.1,0.4c0,0.1-0.1,0.3-0.2,0.4L65.4,52.6L65.4,52.6z"/>
					<path class="st1" d="M65.2,51.7c0.1,0,0.3,0.1,0.3,0.2c0.1,0.2,0.1,0.4-0.1,0.6l0,0l0,0l-0.1-0.1l0,0l-0.3-0.3L65,51.8
						C65,51.8,65.1,51.7,65.2,51.7 M65.2,51.5c-0.2,0-0.3,0-0.4,0.1l-0.2,0.1l0.1,0.2l0.3,0.4l0.3,0.3l0,0l0,0l0,0l0.2,0.2l0.2-0.1
						c0.1-0.1,0.2-0.3,0.3-0.4c0-0.2,0-0.3-0.1-0.5C65.7,51.6,65.5,51.5,65.2,51.5L65.2,51.5z"/>
				</g>
			</g>
			<g>
				<g>
					<path class="st1" d="M65.8,52.4c-0.2,0-0.4-0.1-0.5-0.3c0-0.1-0.1-0.2-0.1-0.2c0-0.2,0.1-0.4,0.3-0.5l0.1-0.1
						c0.1,0,0.1,0,0.2,0c0.2,0,0.4,0.1,0.5,0.3c0,0.1,0.1,0.1,0.1,0.2c0,0.2-0.1,0.4-0.3,0.5C65.9,52.4,65.8,52.4,65.8,52.4z"/>
					<path class="st1" d="M65.9,51.4c0.2,0,0.3,0.1,0.4,0.2c0,0.1,0,0.1,0,0.2c0,0.2-0.1,0.3-0.3,0.4l-0.1,0c-0.1,0-0.1,0-0.2,0
						c-0.2,0-0.3-0.1-0.4-0.2c0-0.1,0-0.1,0-0.2c0-0.2,0.1-0.3,0.2-0.4l0.1-0.1C65.8,51.4,65.8,51.4,65.9,51.4 M65.9,51.1
						c-0.1,0-0.2,0-0.3,0.1l-0.1,0c-0.2,0.1-0.4,0.4-0.4,0.6c0,0.1,0,0.2,0.1,0.3c0.1,0.2,0.4,0.4,0.6,0.4c0.1,0,0.2,0,0.3-0.1
						l0.1,0c0.2-0.1,0.4-0.3,0.4-0.6c0-0.1,0-0.2-0.1-0.3C66.4,51.3,66.1,51.1,65.9,51.1L65.9,51.1z"/>
				</g>
			</g>
			<g>
				<g>
					<path class="st1" d="M66.5,52.2c-0.3,0-0.5-0.2-0.6-0.4c0,0,0-0.1,0-0.1c0-0.3,0.2-0.5,0.4-0.5l0.1,0l0.2,0.5l0.1,0.6l-0.1,0
						L66.5,52.2L66.5,52.2C66.5,52.2,66.5,52.2,66.5,52.2z"/>
					<path class="st1" d="M66.3,51.2l0.2,0.4l0.1,0.4c0,0,0,0,0,0c0,0,0,0,0,0c0,0,0,0-0.1,0c-0.2,0-0.4-0.1-0.4-0.3
						c0,0,0-0.1,0-0.1C66,51.4,66.1,51.2,66.3,51.2 M66.5,50.9l-0.2,0c-0.3,0.1-0.5,0.3-0.5,0.6c0,0,0,0.1,0,0.2
						c0.1,0.3,0.3,0.5,0.7,0.5h0l0,0l0,0h0c0,0,0.1,0,0.1,0l0.2-0.1l0-0.2l-0.1-0.4l-0.2-0.4L66.5,50.9L66.5,50.9z"/>
				</g>
			</g>
			<g>
				<g>
					<path class="st1" d="M67.6,52.1c-0.3,0-0.5-0.3-0.5-0.6c0-0.3,0.2-0.6,0.5-0.6l0.1,0l0.1,0.1l0,0.4l-0.1,0.6L67.6,52.1z"/>
					<path class="st1" d="M67.5,51.1C67.5,51.1,67.6,51.1,67.5,51.1l0.1,0.4L67.6,52c-0.2,0-0.4-0.2-0.4-0.4c0,0,0,0,0,0
						C67.2,51.3,67.3,51.1,67.5,51.1 M67.5,50.8c-0.3,0-0.6,0.3-0.6,0.6l0,0v0.1c0,0.3,0.3,0.6,0.6,0.7l0.3,0l0-0.3l0.1-0.4l0,0l0,0
						l0-0.4l0-0.2l-0.2,0C67.6,50.8,67.6,50.8,67.5,50.8L67.5,50.8z"/>
				</g>
			</g>
			<g>
				<g>
					<path class="st1" d="M67,52.1c-0.3,0-0.6-0.2-0.6-0.5c0-0.3,0.2-0.6,0.5-0.6l0.1,0l0,0.1l0,0l0.1,0.4l0,0.6L67,52.1z"/>
					<path class="st1" d="M66.9,51.1l0.1,0.4l0,0.4c0,0,0,0,0,0c-0.2,0-0.4-0.2-0.5-0.4c0,0,0,0,0,0C66.6,51.3,66.7,51.1,66.9,51.1
						l0,0.4L66.9,51.1 M67.1,50.8l-0.2,0c-0.3,0-0.6,0.3-0.6,0.7v0l0,0.1c0,0.4,0.3,0.6,0.7,0.6h0.1l0.1-0.1l0.1-0.1l0-0.1l0-0.4
						L67.2,51l0,0L67.1,50.8L67.1,50.8z"/>
				</g>
			</g>
		</g>
		<g>
			<g>
				<path class="st1" d="M78.4,42.4c0,0-0.1,0-0.1,0c-0.3-0.1-0.4-0.3-0.4-0.6c0.4-3.7-0.2-7.8-1.7-12.2c0-0.1,0-0.2,0-0.3
					c0-0.1,0-0.1,0.1-0.2c1.9-4,7.6-4,7.8-4c0.2,0,0.4,0.1,0.5,0.2c2.7,4.2,1.6,8.4,1.6,8.5c0,0.1-0.1,0.3-0.3,0.3
					c-4.8,2.8-6.8,7.6-6.8,7.8C78.8,42.3,78.6,42.4,78.4,42.4z M77.2,29.5c1.2,3.5,1.8,6.8,1.8,9.9c1.1-1.8,3-4.2,5.9-6
					c0.1-0.8,0.6-4-1.3-7.1C82.4,26.4,78.7,26.8,77.2,29.5z"/>
				<path class="st1" d="M83.9,25.3c0.2,0,0.3,0.1,0.4,0.2c2.6,4,1.6,8.2,1.6,8.4c0,0.1-0.1,0.2-0.2,0.3C80.8,37,78.8,42,78.8,42
					c-0.1,0.2-0.2,0.3-0.4,0.3c0,0-0.1,0-0.1,0c-0.2-0.1-0.3-0.3-0.3-0.5c0.4-3.7-0.2-7.8-1.7-12.2c0-0.1,0-0.1,0-0.2
					c0,0,0-0.1,0-0.1C78.1,25.4,83.7,25.3,83.9,25.3 M78.9,39.8c1-1.8,3-4.5,6.2-6.3c0.2-0.8,0.6-4.1-1.4-7.3
					c-1,0.1-5.1,0.4-6.6,3.3C78.3,33.1,78.9,36.6,78.9,39.8 M83.9,25.1L83.9,25.1c-0.3,0-6,0-7.9,4.1c0,0.1,0,0.1-0.1,0.2
					c0,0.1,0,0.2,0,0.4c1.5,4.3,2.1,8.4,1.7,12.1c0,0.3,0.2,0.7,0.5,0.7c0,0,0.1,0,0.2,0c0.3,0,0.6-0.2,0.6-0.5c0.1-0.2,2-5,6.8-7.7
					c0.2-0.1,0.3-0.2,0.3-0.4c0,0,1.2-4.3-1.6-8.6C84.3,25.1,84.1,25.1,83.9,25.1L83.9,25.1L83.9,25.1z M77.3,29.5
					c1.4-2.5,4.9-3,6.2-3.1c1.8,3,1.4,6.1,1.3,6.9c-2.7,1.6-4.5,3.8-5.7,5.6C79.1,36,78.5,32.8,77.3,29.5L77.3,29.5z"/>
			</g>
		</g>
		<g>
			<g>
				<path class="st1" d="M93.6,69.1c-4.7,0-13-0.9-15.6-6.9c0-0.1-0.1-0.4,0-0.5c2-3.6,2.1-7.1,2.1-7.5c-0.8-1.4-1.8-2.1-3-2.1
					c-0.3,0-0.5,0-0.8,0.1c0,0-0.1,0-0.1,0c-0.2,0-0.3-0.1-0.4-0.2c-0.1-0.2-0.1-0.4,0-0.6c0.1-0.1,1.7-3,5.9-3c0.2,0,0.4,0,0.7,0
					c4.5,0.3,7.4,3.5,9.6,10.7c2,6.3,5.8,8.7,5.9,8.8c0.2,0.1,0.3,0.4,0.3,0.6s-0.2,0.4-0.5,0.4C95.9,69,94.5,69.1,93.6,69.1z
					 M79.1,61.9c2.4,5.2,10.2,6,14.6,6l0,0c0.8,0,1.5,0,2.3-0.1c-1.4-1.3-3.7-3.9-5.2-8.5c-2.1-6.7-4.7-9.7-8.7-9.9
					c-0.2,0-0.4,0-0.5,0c-2.1,0-3.4,0.8-4.2,1.5c1.5,0.1,2.7,1.1,3.7,2.8c0,0.1,0.1,0.2,0.1,0.2C81.2,54.1,81.3,57.8,79.1,61.9z"/>
				<path class="st1" d="M81.5,48.5c0.2,0,0.4,0,0.6,0c4.4,0.3,7.3,3.5,9.5,10.6c2,6.4,5.9,8.8,5.9,8.8c0.1,0.1,0.2,0.3,0.2,0.5
					s-0.2,0.3-0.4,0.3c-0.2,0-1.7,0.2-3.9,0.2c-4.9,0-12.9-0.9-15.5-6.8c0-0.1,0-0.3,0-0.4c2-3.5,2.1-6.9,2.1-7.5
					c-0.9-1.5-1.9-2.2-3.1-2.2c-0.3,0-0.6,0-0.9,0.1c0,0-0.1,0-0.1,0c-0.1,0-0.3-0.1-0.3-0.2c-0.1-0.1-0.1-0.3,0-0.5
					C75.8,51.3,77.4,48.5,81.5,48.5 M93.7,68.1c1,0,1.9,0,2.6-0.1c-1.3-1.2-3.8-3.8-5.4-8.6c-2.2-6.7-4.8-9.7-8.8-10
					c-0.2,0-0.4,0-0.6,0c-2.4,0-3.8,1-4.5,1.7c1.3,0,2.7,0.6,3.9,2.8c0,0.1,0,0.1,0.1,0.2c0,0.2,0.1,3.9-2.1,7.9
					C81.4,67.2,89,68.1,93.7,68.1 M81.5,48.3L81.5,48.3c-4.3,0-5.9,2.9-6,3c-0.1,0.2-0.1,0.5,0,0.7c0.1,0.2,0.3,0.3,0.5,0.3
					c0.1,0,0.1,0,0.2,0c0.3-0.1,0.5-0.1,0.8-0.1c1.1,0,2.1,0.7,2.9,2c0,0.6-0.1,3.9-2.1,7.3c-0.1,0.2-0.1,0.4,0,0.6l0,0l0,0
					c2.6,6.1,11,7,15.7,7c0.9,0,2.3,0,3.8-0.2l0.1,0c0.3,0,0.5-0.2,0.6-0.5c0.1-0.3-0.1-0.6-0.3-0.7c-0.1,0-3.8-2.5-5.8-8.7
					c-2.3-7.2-5.2-10.5-9.8-10.8C82,48.3,81.7,48.3,81.5,48.3L81.5,48.3z M77.7,50.9c0.8-0.6,2-1.3,3.9-1.3c0.2,0,0.4,0,0.5,0
					c3.9,0.3,6.4,3.2,8.5,9.8c1.4,4.4,3.6,7,5,8.3c-0.6,0-1.3,0-2,0c-4.4,0-12-0.8-14.4-5.9c2.2-4.1,2.1-7.9,2.1-7.9
					c0-0.1,0-0.2-0.1-0.3C80.1,51.7,78.7,51,77.7,50.9L77.7,50.9z"/>
			</g>
		</g>
		<g>
			<g>
				<path class="st1" d="M72.8,54.1c-0.2,0-0.3-0.1-0.4-0.2c-0.2-0.2-0.2-0.6,0-0.8c3.1-3.2,4.9-7,5.4-11.4c0,0,0,0,0-0.1
					c0.2-0.4,4.4-10.5,15.3-10.5c0.9,0,1.8,0.1,2.7,0.2c0.2,0,0.4,0.2,0.5,0.5c0,0.2-0.1,0.5-0.3,0.6c0,0-3.6,2-5,9.5
					c-0.6,3.5-2.1,6.5-4.4,8.9C86.5,51,86.4,51,86.2,51c-0.1,0-0.2,0-0.3-0.1c-1.1-0.8-2.3-1.3-3.8-1.4c-0.2,0-0.4,0-0.6,0
					c-3.5,0-4.8,2.2-5,2.4c-0.1,0.1-0.2,0.2-0.3,0.3c-1.3,0.3-2.5,1.3-3,1.8C73.1,54.1,73,54.1,72.8,54.1z M93.1,32.3
					c-9.9,0-13.8,8.7-14.2,9.7c-0.3,3.4-1.5,6.5-3.4,9.2c0.1,0,0.2-0.1,0.3-0.1c0.4-0.6,2.1-2.8,5.8-2.8c0.2,0,0.4,0,0.6,0
					c1.5,0.1,2.8,0.5,4,1.3c1.9-2.1,3.2-4.9,3.7-8c1-5.4,3.1-8.2,4.4-9.4C93.9,32.3,93.5,32.3,93.1,32.3z"/>
				<path class="st1" d="M93.1,31.3c0.8,0,1.7,0.1,2.6,0.2c0.2,0,0.3,0.2,0.4,0.3c0,0.2-0.1,0.4-0.2,0.5c0,0-3.7,2.1-5.1,9.6
					c-0.6,3.4-2.1,6.5-4.3,8.8c-0.1,0.1-0.2,0.1-0.3,0.1c-0.1,0-0.2,0-0.3-0.1c-1.1-0.9-2.4-1.3-3.8-1.4c-0.2,0-0.4,0-0.6,0
					c-3.6,0-5,2.4-5.1,2.5c-0.1,0.1-0.2,0.2-0.3,0.2c-1.2,0.3-2.4,1.2-3.1,1.9C73,54,72.9,54,72.8,54c-0.1,0-0.2,0-0.3-0.1
					c-0.2-0.2-0.2-0.4,0-0.6c3.2-3.2,5-7.1,5.4-11.5c0,0,0-0.1,0-0.1C78,41.6,82.1,31.3,93.1,31.3 M75.2,51.5
					c0.2-0.1,0.5-0.2,0.7-0.2c0.4-0.6,2.1-2.8,5.7-2.8c0.2,0,0.4,0,0.6,0c1.5,0.1,2.8,0.5,4,1.4c2-2.2,3.3-5,3.9-8.1
					c1-5.7,3.3-8.4,4.6-9.5c-0.5,0-1-0.1-1.5-0.1c-10.1,0-14,9-14.3,9.8C78.4,45.5,77.2,48.7,75.2,51.5 M93.1,31.1
					c-11,0-15.2,10.1-15.4,10.5c0,0.1-0.1,0.2-0.1,0.2c-0.4,4.3-2.2,8.1-5.3,11.3c-0.3,0.3-0.3,0.7,0,0.9c0.1,0.1,0.3,0.2,0.5,0.2
					c0.2,0,0.3-0.1,0.4-0.1c0.6-0.6,1.7-1.5,3-1.8c0.2,0,0.3-0.2,0.4-0.3c0.1-0.2,1.5-2.4,4.9-2.4c0.2,0,0.4,0,0.5,0
					c1.4,0.1,2.6,0.5,3.7,1.4c0.1,0.1,0.3,0.1,0.4,0.1c0.2,0,0.4-0.1,0.5-0.2c2.2-2.4,3.8-5.4,4.4-8.9c1.3-7.4,4.9-9.4,4.9-9.4
					c0.2-0.1,0.4-0.4,0.3-0.7c0-0.3-0.3-0.5-0.6-0.6C94.9,31.1,94,31.1,93.1,31.1L93.1,31.1z M79,42c0.5-1.1,4.4-9.6,14.1-9.6
					c0.3,0,0.6,0,0.9,0c-1.3,1.3-3.3,4.1-4.2,9.3c-0.5,3-1.8,5.7-3.6,7.8c-1.2-0.8-2.5-1.2-3.9-1.3c-0.2,0-0.4,0-0.6,0
					c-2.9,0-4.5,1.3-5.4,2.2C77.7,47.9,78.7,45.1,79,42L79,42z"/>
			</g>
		</g>
		<g>
			<g>
				<g>
					<path class="st1" d="M60,50c-0.2,0-0.5-0.1-0.5-0.4c0-0.1,0-0.1,0-0.2c0-0.2,0.1-0.4,0.3-0.5c0.1,0,0.2,0,0.2,0
						c0.2,0,0.5,0.1,0.5,0.4c0,0.1,0,0.1,0,0.2c0,0.2-0.1,0.4-0.4,0.5C60.1,49.9,60,50,60,50z"/>
					<path class="st1" d="M60,49c0.2,0,0.4,0.1,0.4,0.3c0,0.1,0,0.1,0,0.1c0,0.2-0.1,0.3-0.3,0.4c-0.1,0-0.1,0-0.2,0
						c-0.2,0-0.4-0.1-0.4-0.3c0-0.1,0-0.1,0-0.2c0-0.2,0.1-0.3,0.3-0.4c0,0,0,0,0,0C59.9,49,59.9,49,60,49 M60,48.7
						c-0.1,0-0.1,0-0.2,0l-0.1,0l0,0c-0.3,0.1-0.4,0.3-0.4,0.6c0,0.1,0,0.2,0,0.3c0.1,0.3,0.3,0.4,0.6,0.4c0.1,0,0.2,0,0.2,0
						c0.3-0.1,0.4-0.3,0.4-0.6c0-0.1,0-0.1,0-0.2C60.5,48.9,60.2,48.7,60,48.7L60,48.7z"/>
				</g>
			</g>
			<g>
				<g>
					<path class="st1" d="M58.6,49.4l0.1-0.1c0.1,0,0.2-0.1,0.3-0.1c0.2,0,0.4,0.1,0.5,0.3c0,0.1,0.1,0.1,0.1,0.3
						c0,0.2-0.1,0.4-0.3,0.5l-0.1,0.1L58.6,49.4z"/>
					<path class="st1" d="M58.9,49.4c0.2,0,0.3,0.1,0.4,0.2c0,0.1,0,0.1,0,0.2c0,0.2-0.1,0.3-0.2,0.4l-0.4-0.8
						C58.8,49.4,58.9,49.4,58.9,49.4 M58.9,49.2L58.9,49.2c-0.1,0-0.2,0-0.3,0.1l-0.2,0.1l0.1,0.2l0.4,0.8l0.1,0.2l0.2-0.1
						c0.2-0.1,0.4-0.3,0.4-0.6c0-0.1,0-0.2-0.1-0.3C59.5,49.3,59.2,49.2,58.9,49.2L58.9,49.2z"/>
				</g>
			</g>
			<g>
				<g>
					<path class="st1" d="M52.7,55.2c-4.5,0-7-4.8-8.5-8.4c-2-4.8-4.5-5.1-4.5-5.1c-0.2,0-0.5-0.2-0.5-0.5c0-0.2,0.1-0.5,0.3-0.6
						c1.3-0.6,2.8-0.9,4.4-0.9c5.6,0,10.8,3.6,10.8,3.7c0.1,0.1,0.2,0.2,0.2,0.3c0.7,2.4,2,4.6,3.6,6.3c0.1,0.1,0.2,0.3,0.2,0.4
						c0,0.2-0.1,0.3-0.2,0.4c-1.1,0.8-2,2-2.9,3.6c-0.1,0.1-0.2,0.2-0.3,0.3L55,54.8C54.2,55.1,53.4,55.2,52.7,55.2z M41.3,41.3
						c1.1,0.7,2.6,2.1,3.9,5.2c2.2,5.2,4.6,7.7,7.5,7.7h0c0.6,0,1.3-0.1,2-0.3c0.8-1.4,1.6-2.5,2.6-3.4c-1.5-1.7-2.7-3.8-3.4-6.1
						C53,43.8,48.4,41,43.8,41C42.9,41,42.1,41.1,41.3,41.3z"/>
					<path class="st1" d="M43.8,40c5.4,0,10.5,3.4,10.8,3.6c0.1,0.1,0.1,0.1,0.2,0.2c0.7,2.4,2,4.6,3.6,6.3c0.1,0.1,0.1,0.2,0.1,0.3
						s-0.1,0.2-0.2,0.3c-1.1,0.8-2,2-2.9,3.6c0,0.1-0.1,0.2-0.2,0.2L55,54.7c-0.8,0.2-1.6,0.4-2.3,0.4c-4.3,0-6.8-4.6-8.4-8.3
						c-2.1-4.9-4.6-5.2-4.6-5.2c-0.2,0-0.4-0.2-0.4-0.4c0-0.2,0.1-0.4,0.3-0.5C40.9,40.2,42.4,40,43.8,40 M52.7,54.2
						c0.6,0,1.3-0.1,2-0.4l0,0c0.8-1.5,1.7-2.6,2.7-3.5c-1.5-1.7-2.7-3.8-3.4-6.2c-0.9-0.6-5.5-3.4-10.2-3.4c-0.9,0-1.9,0.1-2.8,0.4
						c1.1,0.6,2.7,2,4.1,5.3C47.3,51.7,49.7,54.2,52.7,54.2 M43.8,39.7L43.8,39.7c-1.6,0-3.1,0.3-4.4,0.9C39.1,40.7,39,41,39,41.3
						c0,0.3,0.3,0.5,0.6,0.6c0,0,2.4,0.3,4.4,5c1.5,3.6,4.1,8.4,8.6,8.4c0.7,0,1.5-0.1,2.4-0.4l0.2-0.1c0.1,0,0.3-0.2,0.4-0.3
						c0.8-1.6,1.8-2.7,2.8-3.6c0.2-0.1,0.3-0.3,0.3-0.5c0-0.2-0.1-0.4-0.2-0.5c-1.6-1.7-2.8-3.8-3.6-6.2c0-0.1-0.1-0.3-0.3-0.4
						C54.7,43.4,49.4,39.7,43.8,39.7L43.8,39.7z M41.6,41.3c0.7-0.2,1.4-0.2,2.2-0.2c4.5,0,9,2.6,10,3.3c0.7,2.3,1.9,4.3,3.3,6
						c-0.9,0.8-1.8,1.9-2.5,3.3c-0.7,0.2-1.3,0.3-1.9,0.3c-2.8,0-5.2-2.4-7.4-7.6C44.1,43.5,42.7,42.1,41.6,41.3L41.6,41.3z"/>
				</g>
			</g>
		</g>
		<g>
			<g>
				<path class="st1" d="M91.6,55.2c-0.8,0-1.5-0.1-2.3-0.4l-0.1,0c-0.1,0-0.3-0.2-0.4-0.3c-0.9-1.6-1.8-2.8-2.9-3.6
					c-0.1-0.1-0.2-0.2-0.2-0.4c0-0.2,0-0.3,0.2-0.4c1.6-1.7,2.8-3.9,3.6-6.3c0-0.1,0.1-0.2,0.1-0.2c0,0,0.1-0.1,0.1-0.1
					c0,0,5.2-3.6,10.8-3.6c1.6,0,3,0.3,4.4,0.9c0.2,0.1,0.4,0.3,0.3,0.6c0,0.2-0.2,0.4-0.5,0.5c0,0-2.5,0.3-4.5,5.1
					C98.6,50.4,96.1,55.2,91.6,55.2z M89.7,53.8c0.7,0.2,1.4,0.3,2,0.3c2.9,0,5.3-2.4,7.5-7.7c1.3-3.1,2.8-4.5,3.9-5.2
					c-0.8-0.2-1.6-0.3-2.5-0.3c-4.7,0-9.3,2.8-10.1,3.4c-0.7,2.3-1.8,4.4-3.3,6.1C88,51.2,88.9,52.3,89.7,53.8z"/>
				<path class="st1" d="M100.5,40c1.4,0,2.9,0.2,4.3,0.9c0.2,0.1,0.3,0.3,0.3,0.5c0,0.2-0.2,0.3-0.4,0.4c0,0-2.6,0.3-4.6,5.2
					c-1.6,3.7-4.1,8.3-8.4,8.3c-0.7,0-1.5-0.1-2.3-0.4l-0.1,0c-0.1,0-0.3-0.1-0.3-0.2c-0.9-1.6-1.8-2.8-2.9-3.6
					c-0.1-0.1-0.2-0.2-0.2-0.3c0-0.1,0-0.2,0.1-0.3c1.6-1.7,2.9-3.9,3.6-6.3c0-0.1,0.1-0.1,0.1-0.2c0,0,0.1-0.1,0.1-0.1
					C90,43.4,95.1,40,100.5,40 M89.6,53.9L89.6,53.9c0.7,0.2,1.4,0.3,2,0.3c3,0,5.4-2.5,7.6-7.8c1.4-3.3,3-4.7,4.1-5.3
					c-0.9-0.3-1.9-0.4-2.8-0.4c-4.8,0-9.4,2.9-10.2,3.4c-0.7,2.3-1.9,4.5-3.4,6.2C87.9,51.3,88.8,52.4,89.6,53.9 M89.5,54.1
					L89.5,54.1l-0.1,0.2L89.5,54.1 M100.5,39.7L100.5,39.7c-5.6,0-10.8,3.6-10.8,3.7c0,0-0.1,0.1-0.1,0.1c-0.1,0.1-0.1,0.2-0.2,0.3
					c-0.7,2.4-2,4.6-3.6,6.2c-0.1,0.1-0.2,0.3-0.2,0.5c0,0.2,0.1,0.4,0.3,0.5c1,0.8,2,1.9,2.8,3.5c0.1,0.2,0.4,0.3,0.4,0.3l0.1,0
					c0.8,0.3,1.6,0.4,2.4,0.4c4.5,0,7.1-4.8,8.6-8.4c2-4.7,4.4-5,4.4-5c0.3,0,0.6-0.3,0.6-0.6c0-0.3-0.1-0.6-0.4-0.7
					C103.6,40,102.1,39.7,100.5,39.7L100.5,39.7z M90.5,44.4c1-0.7,5.5-3.3,10-3.3c0.8,0,1.5,0.1,2.2,0.2c-1.1,0.7-2.5,2.2-3.7,5.1
					c-2.2,5.2-4.5,7.6-7.4,7.6c-0.6,0-1.2-0.1-1.9-0.3c-0.8-1.4-1.6-2.4-2.5-3.3C88.7,48.7,89.8,46.6,90.5,44.4L90.5,44.4z"/>
			</g>
		</g>
		<g>
			<g>
				<path class="st1" d="M71.8,68.6c-8.5-9.7-3.6-16.7-3.4-17l0.1-0.1l0.1,0.1l0.6,0.4l-0.1,0.1c-0.2,0.3-4.9,6.6,3.3,16l0.1,0.1
					L71.8,68.6L71.8,68.6z"/>
				<path class="st1" d="M68.6,51.7L69,52c-0.2,0.3-5,6.7,3.3,16.1l-0.4,0.4C63.3,58.7,68.5,51.7,68.6,51.7 M68.5,51.3l-0.2,0.2
					l0.2,0.1l-0.2-0.1c-0.2,0.3-5.2,7.4,3.4,17.1l0.2,0.2l0.2-0.2l0.4-0.4l0.2-0.2l-0.2-0.2c-8.2-9.3-3.5-15.5-3.3-15.8l0.2-0.2
					l-0.2-0.2l-0.4-0.3L68.5,51.3L68.5,51.3z"/>
			</g>
		</g>
		<g>
			<g>
				<path class="st1" d="M60.9,49.4c-3-1.8-4.1-5.4-5.1-8.7c-0.7-2.1-1.3-4-2.2-5.2c-2.5-3.1-5-3.2-5-3.2l-0.1,0l0-0.8h0.1
					c0,0,2.9,0,5.7,3.5c1.1,1.4,1.7,3.5,2.4,5.5c1,3.2,2.1,6.6,4.8,8.2l0.1,0.1L61,49.5L60.9,49.4z"/>
				<path class="st1" d="M48.5,31.7c0.1,0,2.9,0.1,5.6,3.5c1.1,1.3,1.7,3.3,2.3,5.5c1,3.3,2.1,6.6,4.8,8.3L61,49.3
					c-2.9-1.7-4.1-5.4-5.1-8.6c-0.7-2.1-1.3-4-2.3-5.3c-2.5-3.1-5.1-3.2-5.1-3.2L48.5,31.7 M48.5,31.4h-0.2l0,0.2l0,0.6l0,0.3h0.3
					c0,0,2.5,0.1,4.9,3.1c1,1.2,1.6,3.1,2.2,5.1l0,0.1c1,3.3,2.2,6.9,5.2,8.7l0.2,0.1l0.1-0.2l0.3-0.5l0.1-0.2l-0.2-0.1
					c-2.7-1.6-3.7-4.9-4.7-8.1c-0.6-2-1.3-4.2-2.4-5.6C51.5,31.4,48.6,31.4,48.5,31.4L48.5,31.4z"/>
			</g>
		</g>
		<g>
			<g>
				<path class="st1" d="M55,52.4c-6.1,0-11-6.6-11.5-7.3L43.4,45l0.1-0.1l0.6-0.4l0.1,0.1c0.5,0.7,5.2,7,10.9,7
					c0.5,0,1-0.1,1.5-0.2l0.1,0l0.2,0.8l-0.1,0C56.1,52.4,55.5,52.4,55,52.4z"/>
				<path class="st1" d="M44,44.7c0.1,0.1,5,7,11,7c0.5,0,1-0.1,1.6-0.2l0.1,0.6c-0.6,0.1-1.2,0.2-1.7,0.2c-6.3,0-11.2-7-11.4-7.3
					L44,44.7 M44.1,44.3l-0.2,0.1l-0.5,0.3l-0.2,0.1l0.1,0.2c0.9,1.2,5.6,7.4,11.6,7.4c0.6,0,1.1-0.1,1.8-0.2l0.3,0l-0.1-0.3
					l-0.1-0.6l-0.1-0.2l-0.2,0.1c-0.5,0.1-1,0.2-1.5,0.2c-5.6,0-10.3-6.2-10.8-6.9L44.1,44.3L44.1,44.3z"/>
			</g>
		</g>
		<g>
			<g>
				<path class="st1" d="M46.7,68.7l0-0.8h0.1c0.1,0,14-0.2,17.5-8.4l0-0.1l0.8,0.3l0,0.1c-1.5,3.6-5.2,6.3-10.5,7.8
					c-4,1.1-7.6,1.2-7.7,1.2H46.7z"/>
				<path class="st1" d="M64.4,59.5l0.5,0.2c-1.5,3.6-5.1,6.2-10.5,7.7c-4,1.1-7.6,1.2-7.6,1.2l0-0.6C47,68,61,67.7,64.4,59.5
					 M64.3,59.2l-0.1,0.2c-3.4,8.1-17.2,8.4-17.4,8.4l-0.3,0l0,0.3l0,0.6l0,0.2h0.2c0,0,3.7-0.1,7.7-1.2c5.4-1.5,9.1-4.2,10.6-7.8
					l0.1-0.2l-0.2-0.1l-0.5-0.2L64.3,59.2L64.3,59.2z"/>
			</g>
		</g>
		<g>
			<g>
				<path class="st1" d="M71.6,68.1L71.6,68.1c8.1-9.2,3.9-15.4,3.4-16L74.9,52l0.6-0.5l0.1,0.1c0.2,0.3,5.2,7.3-3.4,17l-0.1,0.1
					L71.6,68.1z"/>
				<path class="st1" d="M75.6,51.7c0.1,0.1,5.3,7-3.4,16.8l-0.4-0.4c8.3-9.4,3.5-15.8,3.3-16.1L75.6,51.7 M75.6,51.3l-0.2,0.2
					L75,51.8L74.8,52l0.1,0.2c0.5,0.7,4.6,6.8-3.3,15.8l-0.2,0.2l0.2,0.2l0.4,0.4l0.2,0.2l0.2-0.2c8.6-9.7,3.6-16.9,3.4-17.1
					L75.6,51.3L75.6,51.3z"/>
			</g>
		</g>
		<g>
			<g>
				<path class="st1" d="M82.8,48.8l0.1-0.1c2.7-1.6,3.7-4.9,4.7-8.2c0.6-2.1,1.3-4.2,2.4-5.5c2.5-3.1,5.1-3.5,5.6-3.5l0.1,0l0,0.1
					l0,0.7l-0.1,0c0,0-2.6,0.1-5,3.2c-1,1.2-1.6,3.2-2.2,5.2c-1,3.2-2.1,6.9-5.1,8.7l-0.1,0.1L82.8,48.8z"/>
				<path class="st1" d="M95.7,31.6l0,0.6c0,0-2.6,0.1-5.1,3.2c-1,1.3-1.6,3.2-2.3,5.3c-1,3.2-2.1,6.9-5.1,8.6l-0.3-0.5
					c2.7-1.6,3.8-5,4.8-8.3c0.7-2.1,1.3-4.1,2.3-5.5C92.8,31.7,95.5,31.7,95.7,31.6 M95.9,31.4l-0.3,0l0,0.2l0-0.2
					c-0.5,0-3.2,0.4-5.7,3.5c-1.1,1.4-1.8,3.5-2.4,5.6c-1,3.2-2.1,6.6-4.7,8.1l-0.2,0.1l0.1,0.2l0.3,0.5l0.1,0.2l0.2-0.1
					c3-1.8,4.2-5.5,5.2-8.7c0.6-2,1.2-4,2.2-5.2c2.4-3,4.9-3.1,4.9-3.1l0.2,0l0-0.2l0-0.6L95.9,31.4L95.9,31.4z"/>
			</g>
		</g>
		<g>
			<g>
				<path class="st1" d="M89.2,52.4c-0.6,0-1.2-0.1-1.7-0.2l-0.1,0l0.2-0.8l0.1,0c0.5,0.1,1,0.2,1.5,0.2c6,0,10.8-6.9,10.9-7
					l0.1-0.1l0.7,0.5l-0.1,0.1C99.9,46.3,95.2,52.4,89.2,52.4z"/>
				<path class="st1" d="M100.2,44.7l0.5,0.3c-0.2,0.3-5.2,7.3-11.4,7.3c-0.6,0-1.1-0.1-1.7-0.2l0.1-0.6c0.5,0.1,1,0.2,1.6,0.2
					C95.2,51.7,100.1,44.7,100.2,44.7 M100.1,44.3l-0.1,0.2c-0.1,0.1-4.9,6.9-10.8,6.9c-0.5,0-1-0.1-1.5-0.2l-0.2-0.1l-0.1,0.2
					l-0.1,0.6l-0.1,0.2l0.2,0.1c0.6,0.1,1.2,0.2,1.8,0.2c6,0,10.7-6.2,11.6-7.4l0.1-0.2l-0.2-0.2l-0.5-0.3L100.1,44.3L100.1,44.3z"
					/>
			</g>
		</g>
		<g>
			<g>
				<path class="st1" d="M97.3,68.7c0,0-3.6,0-7.7-1.2c-5.4-1.5-9-4.2-10.5-7.8l0-0.1l0.8-0.3l0,0.1c3.5,8.2,17.3,8.4,17.5,8.4h0.1
					l0,0.8H97.3z"/>
				<path class="st1" d="M79.8,59.5c3.5,8.3,17.4,8.5,17.6,8.5l0,0.6c0,0-3.6-0.1-7.6-1.2c-5.3-1.5-8.9-4.1-10.5-7.7L79.8,59.5
					 M79.9,59.2l-0.2,0.1l-0.5,0.2l-0.2,0.1l0.1,0.2c1.5,3.6,5.2,6.4,10.6,7.8c4.1,1.1,7.7,1.2,7.7,1.2h0.2l0-0.2l0-0.6l0-0.3
					l-0.3,0c-0.1,0-13.9-0.3-17.4-8.4L79.9,59.2L79.9,59.2z"/>
			</g>
		</g>
	</g>
	<g>
		<circle class="st2" cx="20.7" cy="86.1" r="0.7"/>
		<circle class="st2" cx="123.6" cy="86.1" r="0.7"/>
	</g>
	<g>
		<path class="st3" d="M40,84L40,84c0,0-0.1,0.1-0.2,0.3l-0.1,0l0,0c-0.1,0.2-0.2,0.3-0.3,0.3l-0.2,0l0,0c-0.1,0-0.1,0.1-0.2,0.2
			c-0.1,0.1-0.1,0.2-0.2,0.2c0,0-0.1,0-0.2,0c0,0.1-0.2,0.2-0.3,0.2l-0.4,0.3c0,0-0.1,0.1-0.1,0.1c0,0-0.1,0.1-0.2,0.1
			c-0.1,0-0.1,0.1-0.2,0.1c-0.1,0.1-0.1,0.1-0.2,0.1l-0.2,0c-0.2,0.2-0.3,0.3-0.5,0.3c-0.2,0.1-0.3,0.1-0.4,0.1l-0.2,0.1l-0.3,0.2
			c-0.1,0.1-0.2,0.1-0.3,0.1c-0.1,0-0.3,0-0.4-0.1c-0.1,0.1-0.1,0.1-0.2,0.2l0,0c0,0,0,0-0.1,0s-0.1,0-0.1,0c0,0,0,0-0.1,0
			c0,0-0.1,0-0.1,0c0,0-0.1,0-0.3-0.1c0,0-0.1,0.1-0.1,0.1c-0.1,0-0.3-0.1-0.4-0.2l-0.1,0.1c0,0-0.1,0-0.1-0.1
			c-0.1-0.1-0.1-0.2-0.1-0.3c0-0.2,0.3-0.7,1.2-1.4c0.8-0.7,1.3-1.1,1.5-1.3l0.1-0.1c0,0,0.1-0.1,0.1-0.1c0,0,0,0,0.1,0l0,0
			c0.1,0,0.1-0.1,0.1-0.1s0.1-0.1,0.2-0.2l0.1,0l0.9-0.7c0,0,0.2-0.1,0.4-0.3s0.4-0.2,0.5-0.3s0.2-0.1,0.4-0.2l0.1-0.1
			c0.1-0.1,0.2-0.1,0.2-0.1c0.4-0.1,0.6,0.1,0.7,0.5l-0.1,0.3c0,0.2-0.2,0.3-0.3,0.3c0,0-0.1,0-0.1,0s0,0-0.1,0l-0.4,0.1l-0.2,0
			c0,0-0.1,0-0.2,0.1l-0.1,0c0,0-0.1,0.1-0.2,0.2l-0.2,0.1c-0.2,0.1-0.5,0.3-0.9,0.5c-0.4,0.3-0.6,0.4-0.7,0.4
			C36.1,83.9,36,84,36,84c-0.1,0.1-0.2,0.2-0.4,0.3c-0.7,0.5-1,0.8-1,1c0,0.1,0.4,0.1,1.1,0c0.3-0.1,0.5-0.1,0.6-0.2l0.9-0.3
			l0.1-0.1l0.2,0c0.1,0,0.1-0.1,0.2-0.1c0.1-0.1,0.2-0.1,0.3-0.1c0.1,0,0.2-0.1,0.2-0.1s0.1-0.1,0.2-0.1c0,0,0.1,0,0.1-0.1
			s0.1-0.1,0.3-0.1c0.1-0.1,0.2-0.1,0.3-0.2l0.1-0.1c0,0,0.1-0.1,0.1-0.1l0.1,0c0,0,0.1-0.1,0.1-0.1l0.3-0.3l0.1,0
			c0.1,0,0.2-0.1,0.3-0.3c0.1-0.1,0.1-0.1,0.2-0.1c0.2-0.1,0.3-0.3,0.5-0.5l0.2-0.2c0.1-0.2,0.2-0.3,0.3-0.4c0,0,0,0,0,0l0.1,0
			l0-0.1c0,0,0,0,0-0.1l0,0c0,0,0-0.1,0-0.1s0.1-0.1,0.1-0.1L41.4,81c0,0,0-0.1,0-0.1c0-0.1-0.1-0.2-0.2-0.3l0-0.1l0-0.1
			c-0.1,0-0.1,0-0.2,0c-0.1-0.1-0.2-0.2-0.5-0.3c-0.3-0.1-0.6-0.1-1.1-0.1l-0.7,0l-0.3,0.1c-0.1,0-0.1,0-0.3,0s-0.2,0-0.2,0
			c0,0-0.1,0-0.2,0c-0.1,0.1-0.2,0.1-0.3,0.1l-0.2,0l-0.2,0.1c-0.5,0.1-0.7,0.1-0.8-0.1c-0.1-0.4,0.1-0.8,0.6-1.1
			c0.1,0,0.1-0.1,0.2-0.1l0.6-0.3c0,0,0.1-0.1,0.2-0.1s0.2-0.1,0.3-0.2l0.1-0.1l0.1,0c0-0.1,0.1-0.1,0.3-0.2s0.3-0.3,0.6-0.5
			c0.3-0.3,0.4-0.4,0.5-0.5c0,0,0.1-0.1,0.1-0.1s0.1-0.1,0-0.3c0-0.1-0.1-0.2-0.2-0.2l-0.1-0.1c0,0,0,0-0.1,0c0,0-0.1,0-0.1,0
			c0,0-0.3,0-0.8,0h-0.5l-0.2,0.1l-0.2,0l-0.4,0.2l-0.2-0.1c0,0,0,0,0,0c0,0,0,0-0.1,0.1s-0.1,0.1-0.1,0.1c-0.1,0-0.2,0-0.3,0l0,0
			c-0.1,0-0.1,0.1-0.1,0.1c0,0,0.1,0.1,0.2,0.3l0,0.2l0,0.2c0,0,0,0.1-0.1,0.2v0.1c0,0.1-0.1,0.3-0.1,0.5c-0.1,0.3-0.1,0.4-0.1,0.5
			L36,79.5l0,0.2c-0.1,0.3-0.1,0.6-0.2,0.7c0,0.1-0.1,0.2-0.1,0.3c0,0.1,0,0.2-0.1,0.3l-0.2,1c0,0-0.1,0.1-0.1,0.2
			c0,0.2-0.1,0.3-0.1,0.5c0,0.2,0,0.3-0.1,0.5l0,0.2c0,0,0,0.1,0,0.2c0,0.1,0,0.2-0.1,0.2c0,0.1,0,0.1-0.1,0.1
			c-0.2,0-0.3-0.1-0.5-0.3c-0.2-0.2-0.3-0.3-0.3-0.3C34.1,83.1,34,83,34,82.9c0-0.1,0-0.3,0.1-0.5c0.1-0.2,0.1-0.4,0.1-0.4
			s0-0.2,0.1-0.3s0.1-0.2,0.1-0.2c0-0.1,0-0.1,0-0.1c0.1-0.1,0.1-0.2,0.1-0.3s0-0.2,0.2-0.3c0,0,0-0.1,0-0.1c0,0,0-0.1,0.1-0.2
			c0.1-0.1,0.1-0.2,0.1-0.2s0-0.1,0-0.2l0.1,0c0-0.1,0-0.1,0-0.2c0-0.1,0-0.1,0.1-0.1c0-0.2,0-0.4,0.1-0.4s0.1-0.1,0.2-0.2
			c-0.1,0-0.1-0.1-0.1-0.1c0-0.1,0-0.2,0.1-0.3c0,0,0-0.1-0.1-0.1s0,0,0-0.1l0.1-0.5c0-0.2,0.1-0.3,0.2-0.4h0l-0.1-0.2
			c0-0.1,0.1-0.2,0.2-0.3c0-0.1,0.1-0.1,0-0.2l0,0l-0.1,0l-0.4,0.1c-0.1,0-0.2,0.1-0.4,0.2l-0.1,0l0,0c0,0-0.1,0-0.1,0.1l-0.1,0.1
			c0,0-0.1,0-0.1,0c-0.2,0-0.3,0.1-0.4,0.1s-0.2,0.1-0.3,0.1c0,0-0.1,0.1-0.2,0.1l-0.1,0c0,0,0,0-0.1,0.1s-0.1,0.1-0.3,0.1
			c-0.1,0-0.1,0-0.1,0c0,0-5.9,5.7-10.8,7.8c-4.3,1.8-10.3,1.8-10.3,1.2c0-0.4,6-0.2,10.3-1.9c5-2.1,10.8-7.5,10.9-7.7
			c0.7-0.2,0.8-0.4,1.1-0.5l0,0l0.2,0l0.2-0.1c0.1-0.1,0.2-0.1,0.3-0.1c0.1,0,0.1,0,0.1,0c0,0,0,0,0.1,0c0,0,0.1-0.1,0.1-0.1
			c0.1-0.1,0.2-0.1,0.4-0.2c0.2-0.1,0.3-0.1,0.4-0.2l0,0l0.2,0l0.4-0.2l0.6-0.1l0.3-0.1l0.2,0l0.5-0.1l0.8,0c0.3,0,0.6,0.1,0.9,0.2
			s0.5,0.2,0.7,0.3c0.1,0.1,0.2,0.2,0.2,0.4c0.1,0.4-0.1,0.8-0.6,1.3c-0.5,0.5-0.9,0.8-1.2,0.9c-0.4,0.2-0.5,0.3-0.5,0.4
			c0,0,0.1,0.1,0.3,0.1s0.4,0,0.4,0c0.1,0,0.1,0,0.2,0s0.2,0,0.3,0.1s0.3,0.1,0.4,0.1c0.7,0.1,1.1,0.3,1.3,0.6c0,0,0.1,0,0.1,0
			c0.1,0,0.2,0.1,0.3,0.4c0.1,0,0.2,0.1,0.3,0.4l0,0.1c0,0.1,0.1,0.1,0.1,0.2c0.1,0.4,0.1,0.7,0,0.8c0,0,0,0.1,0,0.2
			c0,0.1-0.1,0.2-0.3,0.5s-0.3,0.4-0.4,0.4c0,0-0.1,0.1-0.1,0.2L41.2,83c-0.1,0.1-0.1,0.1-0.2,0.2c0,0,0,0.1-0.1,0.1
			c0,0-0.1,0.1-0.1,0.1s-0.1,0.1-0.1,0.1c0,0,0,0-0.1,0h0C40.5,83.8,40.3,84,40,84z"/>
		<path class="st3" d="M49,82.2l0.1-0.1c0.1,0,0.1-0.1,0.1-0.1s0.1-0.2,0.2-0.2c0.1-0.1,0.2-0.2,0.2-0.3c0.1-0.2,0.2-0.2,0.2-0.3
			c0,0,0.1,0,0.1,0.1s0.1,0.1,0.1,0.1c0,0.2,0,0.4-0.1,0.6v0.2l0,0.1c-0.1,0.1-0.1,0.1-0.1,0.2c0,0.1-0.1,0.1-0.2,0.2l-0.1,0.1
			c-0.1,0.1-0.2,0.1-0.2,0.2c0,0.1-0.1,0.2-0.2,0.2s-0.2,0.1-0.2,0.2c0,0-0.1,0.1-0.2,0.1v0.1c0,0.1-0.1,0.1-0.2,0.2
			c-0.1,0.1-0.2,0.1-0.3,0.1S48.3,84,48.2,84c-0.1,0-0.2,0-0.3,0c-0.1,0-0.2,0-0.3,0c0,0-0.1-0.1-0.1-0.1s0-0.1-0.1-0.1
			c-0.1-0.1-0.1-0.1-0.1-0.3l0-0.2c0,0,0-0.1,0-0.1s0-0.1-0.1-0.1c0,0,0,0,0-0.1s0,0,0-0.1c0,0,0-0.1,0-0.1s0-0.1,0-0.1l0-0.4
			c0,0,0-0.1,0,0c0,0-0.1,0-0.1,0.1c0,0.1-0.1,0.1-0.2,0.1c0,0-0.1,0.1-0.1,0.2c0,0.1-0.1,0.1-0.1,0.2l0,0.1c0,0,0,0.1-0.1,0.1
			s-0.1,0.1-0.1,0.1l-0.1,0.1l-0.2,0c0,0,0,0.1-0.1,0.2c0,0.1-0.1,0.2-0.2,0.2l-0.5,0.6c-0.1,0.1-0.2,0.1-0.3,0.2l0,0.1
			c-0.4,0.4-0.7,0.6-0.9,0.6c-0.2,0-0.3,0-0.5,0c-0.2-0.1-0.3-0.1-0.4-0.3l-0.1-0.3C43,84.7,43,84.6,43,84.4c0-0.1,0-0.1,0-0.1
			l0-0.1L42.9,84c0-0.1,0-0.1,0.1-0.1l0-0.2c0,0,0-0.1,0.1-0.3c0.1-0.2,0.1-0.3,0.2-0.3l0.1-0.1c0-0.1,0-0.1,0.1-0.2
			c0.1-0.1,0.1-0.2,0.2-0.3c0-0.1,0.1-0.2,0.2-0.3l0.2-0.3c0.2-0.2,0.3-0.4,0.6-0.6c0,0,0.1-0.1,0.2-0.2c0.1-0.1,0.2-0.2,0.3-0.3
			c0.1-0.1,0.2-0.2,0.4-0.2c0.1-0.1,0.2-0.1,0.3-0.2l0.1,0c0,0,0.2-0.1,0.4-0.3l0,0c0,0,0.1,0,0.2,0h0l0.1-0.1c0,0,0,0,0.1,0
			c0.3-0.1,0.6,0.2,0.7,0.6c0,0.1,0.1,0.1,0.1,0.1c0.1,0,0.1-0.1,0.2-0.3c0.1-0.2,0.3-0.4,0.6-0.4c0.2,0,0.4,0.1,0.4,0.4
			c0.1,0.4,0,0.7-0.3,1.1c0,0.1,0,0.1,0,0.2L48.2,82v0c0,0,0,0.1,0,0.2s0,0.1,0,0.2l0,0.2v0.2c0,0.1,0,0.2,0.1,0.2
			c0.2-0.1,0.3-0.2,0.3-0.3c0.1-0.1,0.1-0.2,0.1-0.2l0.1-0.1C48.9,82.4,49,82.3,49,82.2z M46.2,82.7c0-0.1,0.1-0.2,0.2-0.3
			c0.1-0.1,0.2-0.2,0.2-0.2c0.1-0.1,0.2-0.3,0.4-0.5c0.2-0.2,0.3-0.4,0.2-0.4c0,0,0,0,0,0h0l-0.1,0.1l-0.2,0l-0.2,0l-0.1,0l-0.1,0
			l-0.2,0c-0.1,0-0.2,0-0.2,0.1c-0.1,0.1-0.2,0.1-0.3,0.2c-0.2,0.1-0.3,0.2-0.5,0.3c-0.1,0.1-0.2,0.2-0.3,0.2c0,0.1-0.1,0.2-0.3,0.4
			c-0.1,0.1-0.2,0.2-0.2,0.3c-0.1,0.1-0.2,0.2-0.2,0.2l0,0.2c0,0.1-0.1,0.1-0.2,0.1c-0.1,0-0.1,0.1-0.1,0.2c0,0.1,0,0.2-0.1,0.3
			s-0.1,0.2-0.1,0.2c0,0.3,0.1,0.4,0.2,0.4c0,0,0.1-0.1,0.3-0.1c0.1-0.1,0.2-0.1,0.2-0.2c0,0,0.1-0.1,0.1-0.1l0.2-0.1
			c0,0,0,0,0.1-0.1s0,0,0.1-0.1c0,0,0.1-0.1,0.1-0.1c0.1-0.1,0.1-0.1,0.1-0.2c0.1-0.1,0.2-0.2,0.4-0.3l0.2-0.2
			c0.1-0.1,0.2-0.1,0.2-0.2C46.1,82.8,46.2,82.7,46.2,82.7z"/>
		<path class="st3" d="M51.1,80.1l0.1-0.2c0-0.1,0.1-0.1,0.1-0.2s0.1-0.2,0.1-0.4s0.1-0.4,0.1-0.5c0.1-0.1,0.2-0.2,0.3-0.2
			c0.1,0,0.2,0,0.3,0.1c0.2,0.1,0.3,0.3,0.5,0.7S53,80,53,80.1c0,0.1,0,0.2,0.1,0.3c0,0.1,0.1,0.2,0.1,0.2c0,0.1,0,0.2,0,0.2
			l0.1,0.3l-0.1,0.3l0,0.2c0,0.1-0.1,0.2-0.1,0.2c0,0,0,0.1,0,0.1c0.3-0.2,0.4-0.3,0.4-0.3c0-0.1,0.1-0.1,0.1-0.2
			c0,0,0.1-0.1,0.2-0.3l0.2-0.1c0-0.1,0.1-0.1,0.1-0.2s0.1-0.1,0.1-0.1s0.1-0.1,0.2-0.1c0.1-0.1,0.2-0.2,0.3-0.2l0.1-0.1
			c0.1-0.1,0.2-0.2,0.3-0.3c0.1-0.1,0.2-0.1,0.2-0.1c0,0,0.1,0,0.1,0.1c0.1,0.1,0.1,0.2,0.1,0.3c0,0.1,0,0.2-0.1,0.3
			c-0.1,0.1-0.2,0.2-0.2,0.2c0,0.1-0.1,0.1-0.3,0.2c0,0-0.1,0.1-0.2,0.4l-0.2,0.1l-0.1,0.1c0,0-0.1,0.1-0.2,0.1c0,0,0,0,0,0.1
			c0,0.1-0.1,0.1-0.2,0.1c-0.2,0.2-0.3,0.3-0.3,0.3l-0.2,0.1c0,0.1,0,0.2-0.1,0.2c-0.1,0.1-0.2,0.1-0.2,0.2c0,0,0,0-0.1,0.1l0,0
			c-0.1,0.1-0.2,0.2-0.3,0.2l-0.2,0.1l0,0.1c0,0-0.1,0.1-0.2,0.1c-0.1,0.1-0.2,0.1-0.3,0.2l-0.1,0.1c-0.2,0.1-0.3,0.2-0.3,0.2
			l-0.1,0c-0.1,0-0.2,0.1-0.3,0.2s-0.3,0.2-0.4,0.2c-0.3,0.1-0.5,0-0.7,0c-0.1-0.1-0.2-0.2-0.3-0.3s-0.2-0.2-0.3-0.3
			c-0.1-0.1-0.1-0.1-0.1-0.2s0-0.1,0.1-0.1c0-0.1,0.1-0.1,0.1-0.3s0.2-0.2,0.4-0.3c0,0,0,0,0.1-0.1c0.1,0,0.1-0.1,0.2-0.1
			c0.1,0,0.1,0,0.2,0.1c0,0,0,0,0,0l0.1,0c0.1,0,0.1,0.1,0.1,0.1c0.1,0,0.3-0.1,0.4-0.3l0,0l0.1,0c0,0,0-0.1,0.1-0.2l0.1-0.3
			l0.2-0.4l0-0.1c0,0,0-0.1,0-0.2l0-0.1c0-0.1,0-0.1,0.1-0.1c0.1,0,0.1-0.1,0.1-0.1l0-0.1c0-0.1-0.1-0.1-0.1-0.1l0.1-0.2l0-0.2
			l0-0.1c0-0.1,0-0.1,0-0.1v-0.2c0,0,0-0.1-0.1-0.2c0-0.1-0.1-0.1-0.1-0.1c0,0-0.1,0.1-0.3,0.3c-0.2,0.2-0.2,0.3-0.3,0.4
			c0,0.1-0.1,0.2-0.2,0.2c-0.1,0.1-0.2,0.2-0.2,0.2c0,0.1-0.1,0.1-0.1,0.2l-0.5,0.5l-0.5,0.5c0,0.1-0.1,0.1-0.1,0.1
			c-0.2,0-0.3-0.1-0.4-0.3c0-0.1,0-0.2,0.1-0.4c0,0,0.1-0.1,0.1-0.1c0,0,0,0,0,0s0,0,0,0l0.1,0h0c0.2-0.2,0.3-0.3,0.4-0.3
			c0.1,0,0.1-0.1,0.1-0.2l0.3-0.3c0.1-0.1,0.2-0.2,0.4-0.4C50.9,80.3,51,80.1,51.1,80.1z"/>
		<path class="st3" d="M55.6,80l0.2-0.2c0.1,0,0.2-0.1,0.2-0.2c0-0.1,0.1-0.3,0.2-0.4l0.1-0.2c0.1-0.1,0.3-0.2,0.7-0.4
			c0.1-0.1,0.2-0.1,0.2-0.2c0,0,0,0,0,0l0.1,0c0.1,0,0.2,0,0.3-0.1c0.1-0.1,0.2-0.1,0.3-0.1l0.3-0.1c0,0,0.1,0,0.1,0s0.2,0,0.3,0
			c0.1,0,0.2,0,0.4,0.1c0.1,0.1,0.2,0.2,0.2,0.3c0,0.2,0,0.4-0.2,0.6c-0.2,0.2-0.3,0.3-0.4,0.4c-0.1,0.1-0.2,0.2-0.2,0.2
			c0,0-0.1,0.1-0.1,0.1s-0.1,0.1-0.1,0.1c0,0,0,0,0,0s0,0,0,0c-0.1,0-0.2,0.1-0.3,0.4h-0.2c-0.1,0.1-0.1,0.2-0.2,0.2
			c0,0.1-0.1,0.1-0.2,0.1c-0.2,0.2-0.3,0.3-0.4,0.4c0,0,0,0-0.1,0c0,0.1,0,0.1,0,0.2c0,0.1,0,0.1-0.1,0.1l-0.1,0.1l-0.1,0l-0.2,0.2
			c-0.1,0-0.2,0.1-0.3,0.1c0,0.1,0,0.2,0,0.3c0,0.1,0,0.2,0,0.2c0,0.2,0.2,0.2,0.5,0.2l0.4-0.1c0.1,0,0.2-0.1,0.3-0.1
			s0.2-0.1,0.3-0.1c0,0,0.1,0,0.2-0.1l0.1,0c0-0.1,0.1-0.2,0.2-0.3s0.2-0.1,0.2-0.1l0.1-0.1c0-0.1,0-0.1,0.1-0.2l0.1-0.1
			c0-0.1,0.1-0.1,0.1-0.1l0.1,0l0,0c0-0.2,0.1-0.3,0.3-0.3s0.2-0.1,0.2-0.2c0-0.1,0.1-0.1,0.2-0.1c0.1,0,0.1-0.1,0.2-0.1
			s0.1-0.1,0.2-0.2s0.1-0.1,0.2-0.2c0,0,0-0.1,0.1-0.1c0,0,0,0,0.1,0.1c0,0.1,0,0.1,0,0.1s0,0,0,0c0,0,0-0.1,0-0.1l0-0.1
			c0-0.1,0-0.2,0.1-0.2l0.3-0.3c0-0.1,0-0.2,0.1-0.2s0.1-0.1,0.1-0.1s0-0.1,0.1-0.1c0.1,0,0.1,0,0.1,0.1l0,0.2l0.1,0.2
			c0,0,0,0.1-0.1,0.2c0,0.1-0.1,0.2-0.1,0.3c0,0.1,0,0.2-0.1,0.2l0,0c-0.1,0.1-0.2,0.2-0.2,0.2s-0.1,0.1-0.1,0.1l-0.2,0.4
			c0,0.1-0.1,0.1-0.1,0.2c0,0.1-0.1,0.1-0.1,0.1l-0.1-0.1c0,0,0,0,0,0c-0.1,0-0.1,0.1-0.1,0.1c0,0.1,0,0.1-0.1,0.2
			c-0.2,0.1-0.3,0.2-0.3,0.3l0,0l-0.2,0c-0.1,0-0.1,0.1-0.1,0.2c0,0.1-0.1,0.2-0.2,0.2s-0.2,0.1-0.3,0.1c0,0,0,0-0.1,0
			c0,0-0.1,0.1-0.2,0.2l-0.7,0.3c0,0-0.1,0.1-0.1,0.1L57,83.2c0,0-0.1,0-0.1-0.1s-0.1-0.1-0.1-0.1l-0.1,0.1
			c-0.1,0.1-0.2,0.1-0.3,0.1c-0.1,0-0.1,0-0.2,0c-0.1,0-0.1-0.1-0.2-0.1c-0.2,0-0.3-0.1-0.4-0.3l-0.1,0c0,0-0.1-0.2-0.3-0.6
			c0,0-0.1-0.1-0.2-0.1c-0.1,0-0.1-0.1-0.1-0.2c0-0.3,0-0.4,0.1-0.5s0.2-0.2,0.2-0.2l0.1-0.4c0,0,0-0.1,0.1-0.2l0.2-0.4
			C55.5,80.3,55.5,80.2,55.6,80z M57.3,79.3L57.3,79.3c-0.1,0.1-0.2,0.1-0.3,0.2s-0.2,0.2-0.3,0.3c-0.1,0.1-0.2,0.2-0.3,0.5
			s-0.1,0.4-0.1,0.4c0,0,0,0.1,0.1,0l0.3-0.2c0.1-0.1,0.2-0.1,0.3-0.2c0.1-0.1,0.2-0.2,0.4-0.3l0.1-0.1c0,0,0.1-0.1,0.1-0.1
			c0.1-0.1,0.2-0.1,0.2-0.2l0.1,0c0.1-0.2,0.2-0.3,0.3-0.3c0.1-0.1,0.1-0.1,0.1-0.1c0-0.1-0.1-0.1-0.2-0.1c0,0-0.1,0-0.2,0.1l-0.2,0
			c0,0-0.1,0-0.2,0.1L57.3,79.3z"/>
		<path class="st3" d="M73.9,79.9L73.9,79.9c0,0-0.1,0.1-0.2,0.2l-0.1,0l-0.1,0c-0.1,0.2-0.2,0.2-0.3,0.2l-0.2,0h0
			c-0.1,0-0.1,0.1-0.2,0.2c-0.1,0.1-0.1,0.1-0.2,0.2c0,0-0.1,0-0.2,0c-0.1,0.1-0.2,0.2-0.3,0.2l-0.4,0.3c-0.1,0-0.1,0.1-0.1,0.1
			c0,0-0.1,0-0.2,0.1c-0.1,0-0.2,0-0.2,0.1c-0.1,0.1-0.2,0.1-0.2,0.1l-0.2-0.1c-0.2,0.2-0.4,0.3-0.5,0.3c-0.2,0-0.3,0.1-0.4,0.1
			l-0.2,0l-0.4,0.1c-0.1,0-0.2,0.1-0.3,0.1c-0.1,0-0.3,0-0.4-0.1c-0.1,0.1-0.1,0.1-0.2,0.2l-0.1,0c0,0,0,0-0.1,0c0,0-0.1,0-0.1,0
			c0,0,0,0-0.1,0s-0.1,0-0.1,0s-0.1-0.1-0.3-0.2c0,0-0.1,0.1-0.1,0.1c-0.2,0-0.3-0.1-0.4-0.3L67,81.7c0,0-0.1-0.1-0.1-0.1
			c-0.1-0.1-0.1-0.2-0.1-0.3c0-0.2,0.4-0.6,1.3-1.3c0.9-0.6,1.4-1,1.7-1.1l0.1-0.1c0,0,0.1-0.1,0.1-0.1c0,0,0,0,0.1,0h0.1
			c0.1,0,0.1-0.1,0.1-0.1c0-0.1,0.1-0.1,0.2-0.1l0.1,0l0.9-0.6c0,0,0.2-0.1,0.4-0.2c0.3-0.1,0.4-0.2,0.5-0.3
			c0.1-0.1,0.3-0.1,0.4-0.2l0.1-0.1c0.1-0.1,0.2-0.1,0.2-0.1c0.4,0,0.6,0.2,0.6,0.5L73.6,78c-0.1,0.2-0.2,0.3-0.3,0.3
			c-0.1,0-0.1,0-0.1,0s-0.1,0-0.1,0l-0.4,0.1l-0.2-0.1c0,0-0.1,0-0.2,0.1l-0.1,0c0,0-0.1,0.1-0.2,0.1l-0.2,0.1
			c-0.2,0.1-0.6,0.2-1,0.4s-0.7,0.3-0.7,0.3c-0.1,0.1-0.2,0.1-0.3,0.2s-0.2,0.2-0.4,0.3c-0.7,0.4-1.1,0.7-1.1,0.9
			c0,0.1,0.4,0.2,1.1,0.1c0.3,0,0.5-0.1,0.6-0.1l0.9-0.3l0.1-0.1l0.2,0c0.1,0,0.2,0,0.2-0.1s0.2-0.1,0.3-0.1c0.1,0,0.2,0,0.2-0.1
			c0.1-0.1,0.1-0.1,0.2-0.1s0.1,0,0.1-0.1c0,0,0.1-0.1,0.3-0.1s0.2-0.1,0.3-0.2l0.1-0.1c0,0,0.1-0.1,0.2-0.1l0.1,0
			c0,0,0.1,0,0.2-0.1l0.4-0.3l0.1,0c0.1,0,0.2-0.1,0.3-0.3c0.1-0.1,0.2-0.1,0.3-0.1c0.2-0.1,0.3-0.3,0.5-0.5l0.2-0.2
			c0.1-0.1,0.2-0.2,0.3-0.3c0,0,0,0,0,0l0.1,0l0-0.1c0,0,0,0,0-0.1v0c0,0,0-0.1,0.1-0.1s0.1-0.1,0.1-0.1L75.6,77c0,0,0-0.1,0-0.1
			c0-0.1-0.1-0.2-0.2-0.3l0-0.1v-0.1c-0.1,0-0.1,0-0.2,0c-0.1-0.1-0.2-0.2-0.5-0.3c-0.3-0.1-0.6-0.2-1.1-0.2l-0.7-0.1l-0.3,0.1
			c-0.1,0-0.1,0-0.3,0c-0.1,0-0.2,0-0.2,0c-0.1,0-0.1,0-0.2,0c-0.2,0.1-0.3,0.1-0.3,0.1l-0.2,0l-0.2,0.1c-0.5,0-0.7,0-0.7-0.2
			c0-0.4,0.2-0.8,0.7-1c0.1,0,0.1-0.1,0.2-0.1l0.7-0.3c0.1,0,0.1-0.1,0.2-0.1c0.1-0.1,0.2-0.1,0.3-0.2l0.1-0.1l0.1,0
			c0-0.1,0.1-0.1,0.3-0.2s0.4-0.2,0.7-0.4c0.3-0.2,0.5-0.4,0.5-0.4c0,0,0.1-0.1,0.1-0.1c0.1,0,0.1-0.1,0.1-0.3
			c0-0.1-0.1-0.2-0.2-0.2L74,72.3c0,0,0,0-0.1-0.1s-0.1,0-0.1,0c-0.1,0-0.3,0-0.8-0.1l-0.5-0.1l-0.2,0.1h-0.2l-0.4,0.1l-0.2-0.1
			c0,0,0,0,0,0c0,0-0.1,0-0.1,0.1c0,0.1-0.1,0.1-0.1,0.1c-0.1,0-0.2,0-0.3,0h0c-0.1,0-0.1,0-0.1,0.1c0,0,0.1,0.2,0.2,0.3l0,0.2
			l0,0.2c0,0.1,0,0.1-0.1,0.2l0,0.1c0,0.1-0.1,0.3-0.2,0.5c-0.1,0.3-0.1,0.4-0.2,0.5L70.4,75l0,0.2c-0.1,0.3-0.2,0.6-0.2,0.7
			C70.1,76,70,76.1,70,76.2c0,0.1-0.1,0.2-0.1,0.3l-0.3,0.9c0,0-0.1,0.1-0.1,0.1c-0.1,0.2-0.1,0.3-0.1,0.5c0,0.2,0,0.3-0.1,0.5
			l0,0.2c0,0,0,0.1-0.1,0.2S69,79,69,79.1s-0.1,0.1-0.1,0.1c-0.2,0-0.3-0.1-0.5-0.3c-0.1-0.2-0.2-0.3-0.3-0.4
			c-0.1-0.1-0.2-0.2-0.2-0.3c0-0.1,0-0.3,0.1-0.5s0.2-0.3,0.2-0.4s0.1-0.2,0.1-0.2c0-0.1,0.1-0.2,0.1-0.2s0-0.1,0.1-0.1
			c0.1-0.1,0.1-0.2,0.1-0.3c0-0.1,0.1-0.2,0.2-0.3c0,0,0-0.1,0-0.1c0,0,0-0.1,0.1-0.2c0.1-0.1,0.1-0.1,0.1-0.2c0-0.1,0-0.1,0.1-0.2
			l0.1,0c0-0.1,0-0.1,0-0.2s0-0.1,0.1-0.1c0-0.2,0.1-0.3,0.1-0.4c0.1,0,0.1-0.1,0.2-0.2c-0.1-0.1-0.1-0.1-0.1-0.1
			c0-0.1,0.1-0.2,0.2-0.3c0,0,0-0.1-0.1-0.1c0,0,0,0,0-0.1l0.2-0.5c0.1-0.2,0.1-0.3,0.3-0.4h0L70,72.9c0-0.1,0.1-0.2,0.2-0.2
			c0.1-0.1,0.1-0.1,0.1-0.2h0l-0.1,0l-0.4,0.1c-0.1,0-0.2,0.1-0.4,0.2l-0.1,0h0c0,0-0.1,0-0.1,0.1L69,72.8c0,0-0.1,0-0.1,0
			c-0.2,0-0.3,0-0.4,0.1s-0.2,0.1-0.3,0.1c0,0-0.1,0.1-0.2,0.1l-0.1,0c0,0,0,0-0.1,0s-0.1,0.1-0.3,0.1c-0.1,0-0.1,0-0.1,0
			c0,0-0.1,0.1-0.2,0.2s-0.2,0.2-0.3,0.2c-0.1,0-0.1,0-0.2,0.1s-0.1,0.1-0.2,0.1l-0.1,0.2c0,0.1-0.1,0.2-0.2,0.2s-0.2,0.1-0.2,0.2
			c0,0-0.1,0.1-0.1,0.1c-0.1,0-0.2,0-0.2-0.1s-0.1-0.2-0.2-0.2c0-0.2,0-0.3,0.1-0.4c0.1-0.1,0.2-0.2,0.3-0.3
			c0.2-0.1,0.4-0.3,0.7-0.3s0.5-0.1,0.5-0.2c0,0,0,0,0,0l0.2,0c0,0,0.1,0,0.2-0.1c0.5-0.2,0.9-0.4,1.1-0.4h0H69l0.2-0.1
			c0.1-0.1,0.2-0.1,0.3-0.1c0.1,0,0.1,0,0.1,0c0,0,0.1,0,0.1,0c0,0,0.1,0,0.1-0.1c0.1-0.1,0.3-0.1,0.4-0.1s0.3-0.1,0.5-0.1h0.1h0.2
			l0.4-0.1h0.6l0.3-0.1h0.2l0.5-0.1l0.8,0.1c0.3,0,0.6,0.1,0.9,0.3c0.3,0.2,0.5,0.3,0.6,0.4c0.1,0.1,0.2,0.2,0.2,0.4
			c0,0.4-0.2,0.8-0.8,1.3c-0.5,0.4-1,0.7-1.3,0.8c-0.4,0.2-0.6,0.3-0.6,0.3c0,0,0.1,0.1,0.3,0.1c0.2,0,0.4,0,0.4,0.1
			c0.1,0,0.1,0,0.2,0.1c0.1,0,0.2,0,0.3,0.1c0.2,0.1,0.3,0.1,0.4,0.1c0.7,0.2,1.1,0.4,1.2,0.7c0,0,0.1,0,0.1,0s0.2,0.1,0.2,0.4
			c0.1,0,0.2,0.1,0.3,0.4l0,0.1c0,0.1,0.1,0.1,0.1,0.2c0,0.4,0,0.7-0.1,0.8c0,0,0,0.1,0,0.2s-0.1,0.2-0.3,0.5
			c-0.2,0.2-0.3,0.3-0.4,0.4c0,0-0.1,0.1-0.1,0.2L75.2,79c-0.1,0.1-0.1,0.1-0.2,0.1S75,79.2,75,79.2c0,0-0.1,0.1-0.1,0.1
			c0,0.1-0.1,0.1-0.2,0.1c0,0,0,0-0.1,0h0C74.4,79.7,74.1,79.9,73.9,79.9z"/>
		<path class="st3" d="M77.7,78.2l0.2-0.2c0.1,0,0.2-0.1,0.2-0.2s0.1-0.2,0.3-0.3l0.1-0.1c0.1-0.1,0.3-0.2,0.7-0.3
			c0.1-0.1,0.2-0.1,0.2-0.2c0,0,0,0,0,0l0.1,0c0.1,0,0.2,0,0.3-0.1s0.2-0.1,0.3-0.1l0.4,0c0,0,0.1,0,0.1,0.1c0.1,0,0.2,0.1,0.3,0.1
			c0.1,0,0.2,0.1,0.3,0.2c0.1,0.1,0.2,0.2,0.2,0.3c0,0.2-0.1,0.3-0.3,0.5c-0.2,0.2-0.3,0.3-0.4,0.3c-0.1,0.1-0.2,0.2-0.2,0.2
			c-0.1,0-0.1,0.1-0.2,0.1s-0.1,0.1-0.1,0.1c0,0,0,0-0.1,0c0,0,0,0-0.1,0c-0.1,0-0.2,0.1-0.3,0.3l-0.2,0c-0.1,0.1-0.2,0.1-0.2,0.2
			c0,0.1-0.1,0.1-0.2,0.1c-0.2,0.2-0.3,0.3-0.4,0.3c0,0-0.1,0-0.1,0c0,0.1-0.1,0.1-0.1,0.2c0,0.1,0,0.1-0.1,0.1l-0.1,0.1l-0.1,0
			L78.2,80c-0.1,0-0.2,0-0.3,0.1c0,0.1,0,0.2-0.1,0.3c0,0.1,0,0.2,0,0.2c0,0.2,0.2,0.2,0.4,0.2l0.4-0.1c0.1,0,0.2,0,0.3-0.1
			c0.1-0.1,0.2-0.1,0.3-0.1c0,0,0.1,0,0.2,0l0.1,0c0-0.1,0.1-0.2,0.2-0.2s0.2-0.1,0.3-0.1l0.1-0.1c0-0.1,0.1-0.1,0.1-0.1l0.1-0.1
			c0-0.1,0.1-0.1,0.1-0.1h0.1l0,0c0.1-0.2,0.2-0.2,0.3-0.3c0.1,0,0.2-0.1,0.2-0.1c0-0.1,0.1-0.1,0.2-0.1s0.1-0.1,0.2-0.1
			c0.1-0.1,0.1-0.1,0.2-0.2c0.1-0.1,0.1-0.1,0.2-0.1c0,0,0.1,0,0.1,0c0,0,0.1,0,0.1,0.1s0,0.1,0,0.1s0,0,0,0s0-0.1,0-0.1v-0.1
			c0-0.1,0-0.1,0.1-0.2l0.4-0.3c0-0.1,0-0.2,0.1-0.2c0.1,0,0.1,0,0.1-0.1c0,0,0.1,0,0.1,0c0.1,0,0.1,0,0.1,0.1l0,0.2l0,0.2
			c0,0,0,0.1-0.1,0.1s-0.1,0.2-0.1,0.3c0,0.1-0.1,0.2-0.1,0.2h-0.1c-0.1,0.1-0.2,0.2-0.2,0.2c-0.1,0-0.1,0.1-0.1,0.1l-0.3,0.3
			c-0.1,0.1-0.1,0.1-0.1,0.2c0,0.1-0.1,0.1-0.1,0.1l-0.1-0.1c0,0,0,0,0,0c-0.1,0-0.1,0-0.1,0.1s0,0.1-0.1,0.2
			c-0.2,0.1-0.3,0.2-0.3,0.2l-0.1,0h-0.2c-0.1,0-0.1,0.1-0.2,0.2s-0.1,0.2-0.2,0.2c-0.1,0-0.2,0.1-0.3,0.1c0,0,0,0-0.1,0
			s-0.1,0.1-0.2,0.1l-0.7,0.3c-0.1,0-0.1,0-0.1,0l-0.2,0c0,0-0.1,0-0.1-0.1c0,0-0.1-0.1-0.1-0.1l-0.2,0.1c-0.1,0-0.2,0.1-0.3,0.1
			c-0.1,0-0.1,0-0.2-0.1s-0.1-0.1-0.2-0.1c-0.2,0-0.3-0.1-0.3-0.4l-0.1,0c0,0-0.1-0.2-0.2-0.6c0,0-0.1-0.1-0.2-0.1
			c-0.1,0-0.1-0.1-0.1-0.2c0-0.3,0.1-0.4,0.2-0.5c0.1-0.1,0.2-0.2,0.2-0.2l0.1-0.4c0,0,0.1-0.1,0.1-0.2l0.2-0.4
			C77.6,78.4,77.7,78.3,77.7,78.2z M79.5,77.6L79.5,77.6c-0.1,0.1-0.2,0.1-0.3,0.2c-0.1,0.1-0.2,0.2-0.3,0.2
			c-0.1,0.1-0.2,0.2-0.3,0.4c-0.1,0.2-0.2,0.4-0.2,0.4s0,0.1,0.1,0.1l0.3-0.1c0.1-0.1,0.2-0.1,0.3-0.2c0.1-0.1,0.2-0.2,0.4-0.3
			l0.1-0.1c0,0,0.1-0.1,0.2-0.1c0.1-0.1,0.2-0.1,0.2-0.2l0.1,0c0.1-0.2,0.2-0.3,0.3-0.3s0.2-0.1,0.2-0.1c0-0.1-0.1-0.1-0.2-0.1
			c0,0-0.1,0-0.2,0.1h-0.2c0,0-0.1,0-0.2,0.1L79.5,77.6z"/>
		<path class="st3" d="M88.6,79.6l0.1-0.1c0.1,0,0.1,0,0.2-0.1c0-0.1,0.1-0.1,0.2-0.2s0.2-0.1,0.3-0.3c0.1-0.1,0.2-0.2,0.3-0.2
			c0,0,0.1,0,0.1,0.1s0.1,0.1,0.1,0.1c0,0.2-0.1,0.4-0.2,0.6l0,0.2l-0.1,0.1c-0.1,0-0.1,0.1-0.2,0.1s-0.1,0.1-0.2,0.2l-0.1,0.1
			c-0.1,0-0.2,0.1-0.3,0.2c-0.1,0.1-0.1,0.1-0.2,0.2c-0.1,0-0.2,0.1-0.3,0.2c-0.1,0-0.1,0.1-0.2,0.1l0,0.1c-0.1,0.1-0.2,0.1-0.3,0.1
			c-0.1,0-0.2,0.1-0.3,0.1s-0.1,0-0.1,0c-0.1,0-0.2,0-0.3-0.1c-0.1-0.1-0.2-0.1-0.3-0.1c0,0-0.1-0.1-0.1-0.1c0,0,0-0.1-0.1-0.2
			c-0.1-0.1-0.1-0.2-0.1-0.3l0-0.2c0,0,0-0.1,0-0.1c0,0,0-0.1,0-0.1c0,0,0,0,0-0.1c0,0,0,0,0-0.1c0,0,0-0.1,0-0.1s0-0.1,0-0.1
			l0.1-0.4c0,0,0-0.1,0-0.1s-0.1,0-0.1,0.1c-0.1,0.1-0.1,0.1-0.2,0.1c-0.1,0-0.1,0.1-0.1,0.2c-0.1,0.1-0.1,0.1-0.2,0.2l0,0.1
			c0,0-0.1,0.1-0.1,0.1s-0.1,0.1-0.2,0.1l-0.1,0.1l-0.2,0c0,0,0,0.1-0.1,0.1c-0.1,0.1-0.1,0.2-0.2,0.2l-0.7,0.5
			c-0.1,0-0.2,0.1-0.3,0.2l-0.1,0.1c-0.5,0.3-0.8,0.4-1,0.4c-0.2,0-0.3-0.1-0.5-0.2c-0.2-0.1-0.3-0.2-0.3-0.3l-0.1-0.3
			c-0.1-0.1-0.1-0.2-0.1-0.3c0-0.1,0-0.1,0-0.1v-0.1l0-0.3c0-0.1,0.1-0.1,0.2-0.1l0-0.2c0,0,0.1-0.1,0.2-0.3s0.2-0.2,0.2-0.3
			l0.1-0.1c0-0.1,0-0.1,0.1-0.2s0.2-0.2,0.2-0.2c0.1-0.1,0.2-0.2,0.3-0.3l0.3-0.2c0.2-0.2,0.4-0.3,0.7-0.4c0,0,0.1-0.1,0.2-0.2
			c0.1-0.1,0.2-0.2,0.4-0.2s0.3-0.1,0.4-0.2s0.2-0.1,0.3-0.1h0.1c0,0,0.2-0.1,0.5-0.2h0.1c0,0,0.1,0,0.2,0.1h0l0.1-0.1
			c0,0,0.1,0,0.1,0c0.3,0,0.5,0.3,0.6,0.8c0,0.1,0,0.2,0.1,0.2c0.1,0,0.1-0.1,0.3-0.3c0.1-0.2,0.3-0.3,0.7-0.3
			c0.2,0,0.4,0.2,0.3,0.5c0,0.4-0.2,0.7-0.5,1c0,0,0,0.1-0.1,0.2L88,79.3v0c0,0,0,0.1-0.1,0.1s-0.1,0.1-0.1,0.2l0,0.2l0,0.2
			c0,0.1,0,0.2,0.1,0.2c0.2,0,0.3-0.1,0.4-0.2c0.1-0.1,0.2-0.2,0.2-0.2l0.1,0C88.5,79.7,88.6,79.6,88.6,79.6z M85.8,79.5
			c0-0.1,0.1-0.2,0.2-0.3c0.1-0.1,0.2-0.1,0.2-0.2c0.1-0.1,0.3-0.2,0.5-0.4c0.2-0.2,0.3-0.3,0.3-0.4c0,0,0,0,0,0h0l-0.1,0l-0.2,0
			l-0.2,0l-0.1-0.1l-0.1,0l-0.2,0c-0.1,0-0.2,0-0.2,0.1c-0.1,0-0.2,0.1-0.4,0.1c-0.2,0-0.3,0.1-0.5,0.2s-0.3,0.2-0.3,0.2
			c0,0.1-0.2,0.2-0.4,0.3c-0.1,0-0.2,0.1-0.3,0.3c-0.2,0.1-0.2,0.2-0.2,0.2l-0.1,0.1c-0.1,0-0.1,0.1-0.2,0.1s-0.1,0.1-0.1,0.2
			c0,0.1-0.1,0.2-0.1,0.3c-0.1,0.1-0.1,0.1-0.1,0.2c0,0.3,0,0.4,0.2,0.4c0,0,0.1,0,0.3-0.1c0.2-0.1,0.2-0.1,0.3-0.1
			c0,0,0.1,0,0.1-0.1l0.2-0.1c0,0,0.1,0,0.1,0c0,0,0.1,0,0.1-0.1s0.1-0.1,0.2-0.1c0.1,0,0.1-0.1,0.2-0.1c0.1-0.1,0.3-0.1,0.5-0.2
			l0.2-0.1c0.1-0.1,0.2-0.1,0.2-0.1C85.7,79.6,85.8,79.5,85.8,79.5z"/>
		<path class="st3" d="M90.4,78.4l0.1,0.1c0-0.1,0.1-0.2,0.2-0.2l0.1,0c0.1,0,0.1-0.1,0.2-0.2l0.2-0.1c0,0,0.1,0,0.1,0
			c0,0,0.1,0,0.1-0.1c0,0,0.1-0.1,0.3-0.2h0c0,0,0.1,0,0.1-0.1c0.1-0.1,0.1-0.1,0.2-0.1l0.3-0.1c0.1,0,0.1,0,0.2,0
			c0.1,0,0.2,0.1,0.3,0.3c0.2,0.2,0.3,0.5,0.2,0.7c0,0.1-0.1,0.2-0.2,0.2l-0.1,0l0,0.2l-0.2,0.3c-0.1,0.1-0.1,0.1-0.2,0.1
			c-0.1,0.1-0.1,0.1-0.1,0.2h-0.1l-0.1,0.1l0,0.2c-0.1,0.1-0.2,0.2-0.3,0.4s-0.2,0.4-0.2,0.4c0,0.1,0,0.2,0.1,0.2c0,0,0.1,0,0.1,0
			s0.1-0.1,0.2-0.1c0.1,0,0.1-0.1,0.1-0.1s0.1-0.1,0.2-0.1c0.1,0,0.2-0.1,0.3-0.2s0.2-0.1,0.2-0.2c0,0,0.1-0.1,0.1-0.1
			s0.1-0.1,0.1-0.1c0,0,0.1,0,0.2,0c0-0.1,0-0.1,0.1-0.1l0.2-0.1l0.5-0.4l0.1-0.1c0.1,0,0.2,0,0.2,0c0.1-0.2,0.2-0.3,0.3-0.3
			c0,0,0,0,0.1,0c0.1-0.1,0.1-0.2,0.2-0.2s0.1-0.1,0.2-0.2l0.2-0.1c0.1,0,0.1-0.1,0.1-0.1c0.3-0.2,0.5-0.4,0.6-0.4
			c0.1,0,0.2,0,0.3,0c0.2,0,0.3,0.1,0.4,0.2c0.1,0.1,0.2,0.2,0.3,0.3c0.1,0.1,0.2,0.2,0.1,0.4c0,0.2-0.2,0.5-0.5,0.9
			c-0.2,0.5-0.3,0.8-0.3,0.9S96,80.8,96,80.8c-0.1,0-0.1,0-0.1,0.1v0c0,0.1,0,0.2,0.1,0.2c0,0,0.1,0,0.2-0.1
			c0.1-0.1,0.2-0.1,0.4-0.2l0.1,0c0.2-0.2,0.3-0.3,0.4-0.4c0.1,0,0.1-0.1,0.2-0.1c0.1-0.1,0.1-0.1,0.2-0.1s0.1,0,0.2,0
			c0-0.1,0.2-0.3,0.4-0.4c0.2-0.2,0.4-0.2,0.4-0.2c0.1,0,0.1,0.1,0.1,0.1c0,0.1,0.1,0.2,0.1,0.2c0,0,0.1,0.1,0.1,0.1l0,0.2
			c0,0.1-0.1,0.1-0.1,0.1c-0.1,0.1-0.1,0.2-0.2,0.2l-0.2,0c0,0-0.1,0.1-0.1,0.1c0,0,0,0,0,0c-0.1,0-0.1,0.1-0.3,0.2
			c-0.1,0.1-0.2,0.2-0.3,0.3l0,0.1c-0.1,0-0.1,0.1-0.1,0.1L97,81.4c-0.1,0-0.1-0.1-0.1-0.1c0,0,0,0-0.1,0.1s-0.1,0.1-0.2,0.2
			c-0.1,0.1-0.2,0.1-0.3,0.2l-0.2,0.1l-0.2,0c0,0-0.1,0-0.1,0.1l-0.2,0.2c-0.1,0.1-0.2,0.1-0.4,0.1c0,0-0.1,0-0.1-0.1
			s-0.1-0.1-0.1-0.2c0-0.1-0.1-0.2-0.3-0.4s-0.2-0.3-0.2-0.4l0.1-0.3v-0.2c0,0,0-0.1,0.1-0.2c0.1-0.1,0.1-0.1,0.1-0.1l0-0.3
			c0,0,0,0,0-0.1l0.1-0.2c0-0.1,0-0.1,0-0.2l0.1-0.3c-0.1,0-0.2,0.1-0.3,0.3c-0.1,0.1-0.2,0.2-0.3,0.2c-0.1,0.2-0.2,0.3-0.3,0.3
			c0,0,0,0-0.1,0.1l-0.1,0.1l-0.1,0l-0.1,0.2c-0.1,0.1-0.2,0.1-0.3,0.2s-0.1,0.1-0.2,0.2l-0.2,0.1l-0.1,0c0,0.2-0.1,0.3-0.3,0.3
			l-0.1,0.1l-0.2,0c-0.1,0.2-0.2,0.3-0.3,0.3c-0.1,0-0.2,0.1-0.4,0.2s-0.3,0.2-0.4,0.2c-0.5-0.1-0.8-0.4-1.1-1c0,0,0-0.1-0.1-0.1
			c0-0.1-0.1-0.2,0-0.3c0-0.2,0.1-0.4,0.1-0.4c0.1-0.1,0.2-0.2,0.3-0.4c0.1-0.2,0.2-0.3,0.2-0.3c0,0,0-0.1,0-0.1
			c0.1-0.1,0.2-0.2,0.2-0.2c0,0,0,0,0,0c0,0-0.1,0-0.1,0L91,79c-0.1,0-0.1,0-0.1,0.1c0,0-0.1,0.1-0.1,0.1c-0.1,0-0.1,0.1-0.1,0.1h0
			c0,0-0.1-0.1-0.1-0.1c0,0.1-0.1,0.1-0.1,0.2l-0.1,0c-0.1,0.1-0.2,0.2-0.3,0.2c0,0-0.1,0-0.2-0.1c-0.1-0.1-0.1-0.1-0.1-0.1l0.1-0.3
			l0-0.2c0,0,0,0,0.1-0.1c0,0,0.1-0.1,0.2-0.2C90.2,78.5,90.3,78.4,90.4,78.4z"/>
		<path class="st3" d="M101.4,75.6l0.1,0l0.1-0.1h0l0.1,0.1h0c0.1,0,0.3,0,0.4,0c0.1,0,0.2-0.1,0.3-0.1s0.1,0,0.1,0s0,0,0,0l0.1,0
			c0,0,0.1-0.1,0.2-0.2s0.2-0.3,0.3-0.3c0.1-0.1,0.2-0.2,0.3-0.4c0,0,0.1-0.1,0.1-0.1c0-0.1,0.1-0.1,0.1-0.1c0.1,0,0.2,0,0.2-0.1
			c0.2-0.2,0.3-0.2,0.5-0.2c0.1,0,0.2,0.2,0.2,0.4l0,0.3c0,0,0,0-0.1,0.1s-0.1,0.1-0.1,0.2s0,0.1,0,0.2c0,0,0,0.1,0,0.1
			c0,0,0,0.1,0.1,0.1c0,0,0.1,0,0.2,0l0.1,0c0.1,0,0.1,0.1,0.1,0.1c0,0,0.1,0,0.3,0c0.2,0,0.3-0.1,0.3,0c0,0,0.1,0,0.2,0l0.1,0
			l0.1,0c0,0,0.1,0,0.2-0.1s0.2,0,0.4,0l0.1,0l0,0c0.2,0,0.3,0.1,0.2,0.3c0,0,0,0.1-0.1,0.2c-0.1,0.1-0.1,0.2-0.2,0.3l-0.5,0.4
			c-0.2,0.1-0.3,0.2-0.4,0.2c0,0-0.1-0.1-0.2-0.3c0,0,0,0,0,0c-0.1,0-0.1,0-0.2,0c-0.1,0-0.1,0-0.2,0c0,0-0.2,0-0.5,0.1h-0.2
			c0,0-0.1,0-0.2,0l-0.4,0c-0.2,0.1-0.3,0.2-0.4,0.3c0,0,0,0-0.1,0.1l-0.5,0.6c-0.1,0-0.2,0.1-0.3,0.2l0,0c-0.1,0-0.1,0-0.2,0.1
			s-0.1,0.1-0.2,0.1l-0.2,0.2c-0.1,0.1-0.2,0.1-0.2,0.2s-0.1,0.2-0.2,0.3c-0.1,0.1-0.1,0.2-0.1,0.2c0,0,0,0,0,0.1l0,0.1
			c-0.1,0.1-0.1,0.1-0.1,0.2l0,0.1c-0.1,0.3-0.2,0.4-0.2,0.4c0,0,0,0,0,0.1l0,0.1c0,0.1-0.1,0.3-0.2,0.4l0,0.1l-0.1,0.4
			c0,0.1,0,0.1,0,0.3c0,0,0,0,0,0c0,0.2,0,0.3,0.2,0.6c0.1,0.2,0.2,0.5,0.1,0.9c0,0,0,0.1-0.1,0.1c0,0.1-0.1,0.1-0.1,0.2
			s-0.1,0.1-0.2,0.2c-0.1,0.1-0.2,0.1-0.2,0.1c-0.3-0.1-0.5-0.3-0.6-0.8s-0.1-0.7-0.1-0.9l0.1-0.3l0-0.2l0.2-0.7v-0.2l0.3-0.7l0-0.3
			c0,0,0.1-0.1,0.1-0.1c0,0,0,0,0,0c0,0-0.1,0-0.2,0.1s-0.2,0.1-0.2,0.2l-0.1,0.1c0,0,0,0-0.1,0c0,0-0.1,0.1-0.3,0.3
			c-0.1,0-0.2,0.1-0.3,0.2C99.3,80,99.2,80.1,99,80l0,0c-0.1,0.2-0.1,0.2-0.3,0.2l0,0c-0.1,0.2-0.2,0.3-0.3,0.2
			c-0.1,0.2-0.2,0.3-0.5,0.3c0,0.1-0.1,0.1-0.2,0.1c-0.1,0-0.1,0.1-0.2,0.1s-0.1,0-0.1,0c-0.1,0-0.1-0.1-0.1-0.3c0,0,0-0.1,0.1-0.1
			s0.1-0.1,0.1-0.1c0,0,0-0.1-0.1-0.1c0-0.2,0.1-0.3,0.2-0.3c0.1,0,0.2-0.1,0.2-0.2c0-0.1,0.1-0.1,0.2-0.1c0.1,0,0.1,0,0.1-0.1
			c0,0,0.1-0.1,0.3-0.2c0.2-0.1,0.3-0.2,0.4-0.3s0.1-0.1,0.2-0.1l0,0c0-0.1,0.1-0.2,0.2-0.2l0.1,0l0-0.1l0.1,0l0.1,0l0.1,0
			c0-0.1,0.1-0.2,0.3-0.3s0.4-0.2,0.8-0.5c0.4-0.3,0.6-0.5,0.7-0.6c0.1-0.1,0.2-0.2,0.3-0.4s0.2-0.3,0.3-0.4c0,0,0-0.1,0-0.1
			l-0.4,0.1c0,0-0.1-0.1-0.2-0.1c-0.1,0-0.2,0.1-0.2,0.1c-0.1,0-0.1,0.1-0.1,0.1l-0.1,0l-0.4,0c-0.3,0-0.6,0-0.8,0.1l-0.4,0l-0.1,0
			c0,0-0.1,0-0.2,0.1l-0.2-0.1c-0.2,0.1-0.3,0.1-0.4,0.1c0,0,0,0-0.1,0l-0.9,0.1c-0.1,0-0.2,0.1-0.5,0.3l-0.1,0
			c-0.1,0-0.1-0.1-0.2-0.2s-0.1-0.3-0.1-0.4c0.1-0.6,0.6-0.8,1.6-0.7l0.4-0.1h0l0.1,0.1l0,0c0,0,0.1,0,0.2,0s0.3-0.1,0.5-0.1l0.4,0
			l0.1,0c0.1,0,0.1,0,0.2,0c0.1,0,0.2-0.1,0.3,0s0.3,0,0.3,0l0.1,0c0,0,0.1,0,0.2,0s0.2,0,0.3,0C101.3,75.5,101.4,75.6,101.4,75.6z"
			/>
		<path class="st3" d="M109,82.9L109,82.9l0,0.2l0,0c0,0,0,0.1-0.1,0.2c-0.1,0.1-0.2,0.2-0.2,0.3l-0.1,0.1c0,0.1-0.1,0.1-0.1,0.2
			c-0.1,0-0.1,0.1-0.2,0.2s-0.2,0.3-0.2,0.4l-0.3,0.4c0,0,0,0,0,0c0,0,0,0,0.1,0c0,0,0.1,0,0.1,0c0,0,0,0,0.1,0c0,0,0,0,0.1,0
			c0,0,0.1,0,0.1,0c0.1,0,0.2,0,0.3,0h0.3c0.1,0,0.2,0,0.4,0.1l0.3,0c0.1,0,5.3,0.8,10-0.7c5.3-1.7,10.1-5.6,10.1-5.5
			c0,0.3-4.7,4.3-9.9,5.9c-5,1.6-10.5,0.8-10.5,0.8l0,0c0,0-0.1,0-0.1-0.1l0,0l-0.3,0l-0.3-0.1l-0.2,0.1c-0.1,0-0.2,0-0.3,0
			c-0.1,0-0.2,0-0.3,0c-0.1,0-0.1,0-0.1,0.1c0,0.2-0.2,0.3-0.3,0.4c-0.1,0.1-0.1,0.1-0.1,0.2s-0.1,0.1-0.1,0.2
			c-0.1,0.1-0.2,0.1-0.3,0.3l-0.1,0.1c0,0-0.1,0.1-0.1,0.1c0,0,0,0,0,0.1l0,0.1c0,0.2-0.2,0.3-0.4,0.4l0,0.1c0,0-0.1,0.1-0.2,0.2
			l0,0.2c0,0-0.1,0.1-0.1,0.1c-0.1,0.1-0.2,0.1-0.2,0.2c-0.1,0.1-0.2,0.1-0.3,0.2l0,0.1l0,0.1c0,0,0,0,0,0c0,0-0.1,0.1-0.2,0.1
			c0,0.1-0.1,0.2-0.2,0.2l-0.4,0.4c-0.1,0.1-0.1,0.1-0.1,0.2l-0.1,0.1c-0.1,0-0.1,0.1-0.2,0.1c0,0.1-0.1,0.1-0.3,0.3
			c-0.2,0.1-0.3,0.2-0.3,0.2c0,0.1,0,0.1,0,0.1c0,0.1-0.1,0.1-0.2,0.2c-0.1,0-0.2,0-0.2,0v0.2c0,0,0,0.1-0.1,0.1s-0.1,0-0.2,0
			l-0.1,0v0.2c0,0.1-0.1,0.1-0.1,0.1c-0.1,0-0.1,0.1-0.3,0.1c-0.1,0.1-0.2,0.1-0.3,0.1l-0.1,0l-0.3,0c-0.1-0.1-0.2-0.2-0.4-0.4
			s-0.3-0.4-0.3-0.5c0-0.1,0-0.3,0.1-0.6c0,0,0-0.1,0.1-0.1l0-0.1l0-0.2c0,0,0.1-0.1,0.2-0.3s0.2-0.3,0.2-0.3c0,0,0.1-0.1,0.3-0.3
			c0.1-0.2,0.2-0.3,0.3-0.3l1-0.9c0-0.1,0-0.1,0.1-0.1l0.1,0c0,0,0.1,0,0.1,0c0,0,0.1-0.1,0.1-0.1c0-0.1,0.1-0.2,0.2-0.2
			s0.2-0.1,0.3-0.2c0.1-0.1,0.1-0.1,0.2-0.2l0-0.1c0,0,0.1,0,0.2,0s0.1-0.1,0.2-0.1l0.3-0.2c0,0,0.1,0,0.2-0.1
			c0.1,0,0.2-0.1,0.2-0.1l0.1,0l0.1,0l0,0c0.1-0.1,0.2-0.2,0.3-0.2c0.1,0,0.1,0,0.2,0c0-0.2,0.2-0.2,0.3-0.2c0,0,0.1,0,0.1,0
			l0.2-0.1c0,0,0.1-0.1,0.2-0.3v0l0.1,0.1l0,0l0-0.2c0,0,0.1-0.1,0.2-0.2s0.1-0.2,0.2-0.2s0.1,0,0.1-0.1l0-0.1l0-0.1l0.1-0.1l0-0.1
			l0,0c0,0,0.1-0.1,0.2-0.3c0,0,0.1,0,0.1,0l0.6-1c0,0,0.1-0.1,0.1-0.2l0.1-0.1c0.1-0.2,0.2-0.3,0.2-0.3c0,0,0,0,0,0
			c0,0-0.1,0-0.2,0.1c-0.1,0.1-0.2,0.1-0.2,0.1l-0.1-0.1l0,0c0,0-0.1,0-0.2,0.1c-0.1,0-0.1,0.1-0.1,0.1l-0.1,0
			c-0.1,0.1-0.1,0.1-0.2,0.1l-0.2,0.1h0l-0.1-0.1c0,0,0,0,0,0c0,0-0.1,0.1-0.2,0.2l-0.3,0.1c-0.1,0-0.1,0-0.1,0
			c-0.1,0-0.1,0-0.2,0.1c-0.1,0.1-0.2,0.1-0.2,0.1c-0.1,0-0.2,0.1-0.3,0l-0.6,0.2c-0.1,0-0.1,0-0.1,0.1c-0.1,0-0.2,0-0.4,0.1
			l-0.2-0.1c-0.1,0-0.1,0-0.2,0.1s-0.1,0.1-0.2,0.1l-0.1,0l-0.1,0h-0.3c-0.1,0-0.2-0.1-0.3-0.3s-0.2-0.3-0.2-0.4l0-0.4
			c0,0,0,0,0.1-0.1s0.1-0.1,0.1-0.1c0,0,0,0,0-0.1l0-0.1c0.1-0.2,0.2-0.4,0.4-0.6l0,0c0,0,0,0,0,0c-0.1,0-0.2,0-0.2,0.1
			c-0.1,0.1-0.2,0.2-0.2,0.2s-0.1,0.1-0.2,0.1s-0.1,0-0.1,0c0,0-0.1-0.1-0.1-0.1c0,0,0-0.1,0-0.1s-0.1-0.1-0.1-0.2
			c-0.1-0.1-0.1-0.1,0-0.2c0-0.1,0.1-0.1,0.3-0.2l0.1-0.1c0.3-0.2,0.5-0.3,0.6-0.3l0.1-0.1c0.1,0,0.2-0.1,0.3-0.2s0.3-0.1,0.3-0.2
			l0.5-0.3c0.2-0.1,0.4-0.1,0.6-0.1c0.2,0,0.2,0.2,0.2,0.4c-0.1,0.2-0.1,0.4-0.2,0.5c-0.1,0.1-0.2,0.2-0.2,0.3
			c0,0.1-0.2,0.2-0.3,0.3c-0.2,0.1-0.3,0.2-0.3,0.3c-0.1,0.1-0.1,0.2-0.3,0.3s-0.2,0.2-0.2,0.3c0,0.1,0,0.1,0.1,0.1
			c0.1,0,0.2,0,0.4-0.1l0.1,0c0.1,0,0.1,0,0.2,0l0.2,0c0.1-0.1,0.1-0.1,0.2-0.1l0.2-0.1c0.1,0,0.2,0,0.3-0.1c0.1,0,0.2-0.1,0.3-0.1
			s0.1-0.1,0.2-0.1c0.1,0,0.1-0.1,0.2-0.1c0.1,0,0.4,0,0.7-0.2c0.3-0.1,0.6-0.2,0.8-0.3s0.4-0.2,0.5-0.2c0,0,0.1,0,0.2-0.1
			c0.1,0,0.2-0.1,0.3-0.1c0.1-0.1,0.3-0.1,0.4,0c0.1,0,0.3,0.1,0.4,0.3c0.1,0.1,0.2,0.3,0.1,0.4l-0.1,0.4c-0.1,0.3-0.2,0.4-0.4,0.6
			c-0.1,0.2-0.2,0.3-0.2,0.4l0,0.2C109.2,82.8,109.1,82.9,109,82.9z M103.6,88.3l0.1-0.1c0,0,0.1-0.1,0.1-0.1
			c0.1-0.2,0.2-0.4,0.3-0.4c0-0.1,0.1-0.2,0.1-0.2l0.1-0.1l0.4-0.5c0.1-0.1,0.1-0.1,0.2-0.2c0.1-0.1,0.1-0.1,0.1-0.2
			c0-0.1,0.1-0.2,0.4-0.4l0-0.1c0-0.1,0-0.1,0-0.1c0,0-0.1,0.1-0.2,0.1l-0.6,0.3c0,0-0.1,0.1-0.3,0.2l-0.2,0.1
			c-0.1,0.1-0.2,0.1-0.2,0.1s-0.1,0.1-0.2,0.2c-0.1,0.1-0.2,0.2-0.2,0.2l0,0c0,0,0,0-0.1-0.1c0,0-0.1,0-0.1,0.1v0.2
			c0,0,0,0.1-0.1,0.1c-0.1,0-0.1,0.1-0.2,0.1c0,0.1-0.1,0.1-0.1,0.1c0,0-0.1,0.1-0.3,0.3l-0.2,0.1c-0.1,0.3-0.3,0.6-0.5,0.7
			c-0.1,0.1-0.1,0.2-0.2,0.2c-0.1,0.1-0.1,0.1-0.1,0.1c-0.1,0.2-0.2,0.3-0.3,0.3c0,0,0,0,0,0c0,0,0,0.1,0.1,0.1l0,0
			c-0.1,0.2-0.2,0.3-0.2,0.4c0,0,0,0,0,0l0.3-0.1c0.2,0,0.3-0.1,0.4-0.2l0.2-0.2c0,0,0.1,0,0.1,0c0.1-0.1,0.1-0.2,0.2-0.2
			c0.1,0,0.1-0.1,0.1-0.1c0-0.1,0.2-0.2,0.4-0.5C103.4,88.5,103.6,88.3,103.6,88.3z"/>
	</g>
	<path class="st4" d="M33.4,74.1c-0.3-0.4-0.5-0.9-0.8-1.4c-3.2-6.1-5-13.1-5-20.5c0-8.2,2.2-15.8,6.1-22.4"/>
	<path class="st4" d="M109.8,29.5c4,6.6,6.2,14.4,6.2,22.7c0,6.9-1.6,13.4-4.4,19.2c-0.5,0.9-0.9,1.9-1.5,2.8"/>
	<path class="st5" d="M39.2,70.3"/>
</g>
</svg>
