<?xml version="1.0" encoding="utf-8"?>
<!-- Generator: Adobe Illustrator 23.0.1, SVG Export Plug-In . SVG Version: 6.00 Build 0)  -->
<svg version="1.1" id="Layer_1" xmlns="http://www.w3.org/2000/svg" xmlns:xlink="http://www.w3.org/1999/xlink" x="0px" y="0px"
	 viewBox="0 0 1288 406" style="enable-background:new 0 0 1288 406;" xml:space="preserve">
<style type="text/css">
	.st0{fill:#F7C04A;}
	.st1{fill:#539165;}
</style>
<g>
	<path d="M34.1,294.7L5.9,193.3h8.1c6.8,24.3,22.2,80.4,24.5,92.3h0.1c1.9-9.4,18.6-65.5,25.7-92.3h8.7
		c6.7,24.8,22.9,84.4,24.5,92.2c0,0,0.1,0,0.1,0c5.9-26.4,15.3-52.2,23-78.1c11.1-37.7,15.7-74.3,34.3-110c6.6-12.7,14.2-25,23.4-36
		c17.7-21,40.8-36.6,64-51.3c5.5,28.7-13.2,56.5-34.4,76.6S161.6,124.1,148,150c-14.6,27.8-20.1,59.1-29.2,88.9
		c-1.3,4.2-14.3,55.9-17.1,55.9c0,0-9,0-9,0c-6.7-23.9-22.5-82.6-24.2-91.3h-0.1c-2.6,13.2-18.3,66.1-25.5,91.3H34.1z"/>
	<path d="M143.5,259.4c0.1,18.7,9.6,30.3,23.5,30.3c13.6,0,18.3-7.7,20.9-13.6h7.4c-3,9.6-10.7,20.4-28.6,20.4
		c-22,0-30.6-19-30.6-37.4c0-20.7,10.3-38.6,31.5-38.6c22.3,0,29.4,19.3,29.4,32.9c0,2,0,4.1-0.1,5.9H143.5z M189.4,253
		c-0.1-14.3-8-25.7-22.2-25.7c-14.9,0-21.7,10.4-23.3,25.7H189.4z"/>
	<path d="M265.1,259.6l-12.9,35.1h-8l37.2-101.5h9.3l38.8,101.5H321l-13.2-35.1H265.1z M305.2,252.4c-11.3-30.1-17.1-44.6-19.1-51.5
		H286c-2.5,7.7-9,25.7-18.1,51.5H305.2z"/>
	<path d="M345.2,242c0-12.2-0.1-17.4-0.1-19.7h7.1c0.1,2.3,0.3,7,0.3,16.2c4.2-10.9,13.5-17.4,25.2-18v7.8
		c-15.1,1-25.2,11.4-25.2,28.7v37.7h-7.2V242z"/>
	<path d="M392.6,259.4c0.1,18.7,9.6,30.3,23.5,30.3c13.6,0,18.3-7.7,20.9-13.6h7.4c-3,9.6-10.7,20.4-28.6,20.4
		c-22,0-30.6-19-30.6-37.4c0-20.7,10.3-38.6,31.5-38.6c22.3,0,29.4,19.3,29.4,32.9c0,2,0,4.1-0.1,5.9H392.6z M438.6,253
		c-0.1-14.3-8-25.7-22.2-25.7c-14.9,0-21.7,10.4-23.3,25.7H438.6z"/>
	<path d="M503.8,193.3h7.8v44.2h60.9v-44.2h7.8v101.5h-7.8v-50h-60.9v50h-7.8V193.3z"/>
	<path d="M608,259.4c0.1,18.7,9.6,30.3,23.5,30.3c13.6,0,18.3-7.7,20.9-13.6h7.4c-3,9.6-10.7,20.4-28.6,20.4
		c-22,0-30.6-19-30.6-37.4c0-20.7,10.3-38.6,31.5-38.6c22.3,0,29.4,19.3,29.4,32.9c0,2,0,4.1-0.1,5.9H608z M653.9,253
		c-0.1-14.3-8-25.7-22.2-25.7c-14.9,0-21.7,10.4-23.3,25.7H653.9z"/>
	<path d="M679.2,242c0-12.2-0.1-17.4-0.1-19.7h7.1c0.1,2.3,0.3,7,0.3,16.2c4.2-10.9,13.5-17.4,25.2-18v7.8
		c-15.1,1-25.2,11.4-25.2,28.7v37.7h-7.2V242z"/>
	<path d="M726.5,259.4c0.1,18.7,9.6,30.3,23.5,30.3c13.6,0,18.3-7.7,20.9-13.6h7.4c-3,9.6-10.7,20.4-28.6,20.4
		c-22,0-30.6-19-30.6-37.4c0-20.7,10.3-38.6,31.5-38.6c22.3,0,29.4,19.3,29.4,32.9c0,2,0,4.1-0.1,5.9H726.5z M772.5,253
		c-0.1-14.3-8-25.7-22.2-25.7c-14.9,0-21.7,10.4-23.3,25.7H772.5z"/>
	<path d="M837.7,193.3h61.5v7.2h-53.6v38.3h50.3v7.2h-50.3v48.7h-7.8V193.3z"/>
	<path d="M973.9,258.3c0,20.1-11.2,38.1-32.8,38.1c-19.6,0-31.7-16.1-31.7-38c0-20.7,11.4-38,32.5-38
		C961.2,220.5,973.9,235.6,973.9,258.3z M917.1,258.5c0,17.2,9.3,31.2,24.6,31.2c15.7,0,24.5-12.9,24.5-31.2
		c0-17.1-8.7-31.2-24.8-31.2C924.9,227.3,917.1,241.1,917.1,258.5z"/>
	<path d="M991.9,242c0-12.2-0.1-17.4-0.1-19.7h7.1c0.1,2.3,0.3,7,0.3,16.2c4.2-10.9,13.5-17.4,25.2-18v7.8
		c-15.1,1-25.2,11.4-25.2,28.7v37.7h-7.2V242z"/>
	<path d="M1101.3,294.7v-38.1c0-0.9-0.3-1.9-0.6-2.3l-36.2-61h9.1c10.1,17.2,27.8,47.2,32.2,54.8c4.3-7.5,22.2-37.2,33-54.8h8.7
		l-37.8,61.6c-0.3,0.6-0.4,1.2-0.4,2.2v37.7H1101.3z"/>
	<path d="M1205.7,258.3c0,20.1-11.2,38.1-32.8,38.1c-19.6,0-31.7-16.1-31.7-38c0-20.7,11.5-38,32.5-38
		C1192.9,220.5,1205.7,235.6,1205.7,258.3z M1148.9,258.5c0,17.2,9.3,31.2,24.6,31.2c15.7,0,24.5-12.9,24.5-31.2
		c0-17.1-8.7-31.2-24.8-31.2C1156.7,227.3,1148.9,241.1,1148.9,258.5z"/>
	<path d="M1277.9,273.6c0,7.1,0.1,18.4,0.1,21.2h-7c-0.3-1.9-0.4-6.7-0.4-12.6c-3,8.6-10.4,14.3-23.3,14.3
		c-10.4,0-23.8-4.1-23.8-26.2v-48h7.1v46.2c0,10.6,3.3,20.9,17.7,20.9c16.2,0,22.3-9.1,22.3-29.9v-37.2h7.2V273.6z"/>
	<g>
		<path d="M100,291.6c0.1,6.2,1.8,12.3,4.9,17.7c3,5.4,7.3,10,12.1,13.8c9.7,7.6,21.9,11.9,34.2,12c12.3,0.4,24.6-2.3,36.4-6
			c11.8-3.7,23.4-8.2,35.3-12.1c5.9-2,11.9-3.8,17.9-5.5c6-1.6,12.1-3.2,18.2-4.4c12.2-2.5,24.7-4,37.1-3.8
			c6.2,0.2,12.5,0.6,18.6,1.7c6.2,1,12.2,2.5,18.2,4.2c6,1.8,11.9,3.8,17.7,6.1c5.8,2.3,11.5,4.7,17.1,7.7
			c5.5,2.9,10.8,6.4,15.6,10.4c4.8,4,9.2,8.7,12.6,13.9c1.8,2.6,3.3,5.4,4.6,8.2c1.3,2.9,2.4,5.8,3.2,8.9c1.5,6.2,2,12.6,0.5,18.9
			c-0.8,3.1-2.2,6.2-4.6,8.6c-1.2,1.2-2.7,2.2-4.4,2.6c-1.7,0.5-3.5,0.5-5.2-0.1c-1.7-0.5-3.1-1.5-4.3-2.7c-1.2-1.2-2.1-2.6-2.8-4.2
			c-0.7-1.5-1.1-3.2-1.1-4.9c-0.1-1.7,0.1-3.3,0.5-4.9c0.7-3.2,2.2-6.1,3.9-8.8c1.7-2.7,3.7-5.2,5.8-7.5c4.2-4.7,9.1-8.8,14.5-12.1
			c5.4-3.3,11.3-5.8,17.4-7.4c6.1-1.6,12.4-2.2,18.6-2.8c6.2-0.6,12.4-1.1,18.4-2.3c3-0.6,6-1.4,8.8-2.5c2.9-1.1,5.6-2.5,8.2-4.1
			c10.4-6.5,18.5-16.6,23.1-28c2.3-5.7,3.8-11.8,4.3-17.9c0.5-6.2,0-12.4-1.6-18.4l0.2-0.1c1.8,6,2.4,12.3,2.1,18.5
			c-0.4,6.2-1.7,12.4-4,18.3c-2.3,5.8-5.4,11.4-9.3,16.3c-3.9,4.9-8.6,9.3-13.9,12.6c-2.7,1.7-5.5,3.1-8.4,4.3c-2.9,1.2-6,2-9.1,2.7
			c-6.2,1.3-12.4,1.9-18.6,2.5c-6.2,0.7-12.3,1.3-18.3,2.8c-5.9,1.5-11.6,3.9-16.8,7.2c-5.2,3.2-10,7.2-14,11.7
			c-2,2.3-3.9,4.7-5.6,7.3c-1.6,2.6-3,5.3-3.7,8.1c-0.3,1.4-0.5,2.9-0.4,4.3c0,1.4,0.4,2.8,0.9,4.2c1.1,2.6,3.2,5,5.8,5.8
			c1.3,0.4,2.7,0.4,4,0.1c1.3-0.4,2.5-1.1,3.5-2.1c2-2,3.3-4.8,4.1-7.7c0.4-1.5,0.6-2.9,0.7-4.4c0-0.8,0.1-1.5,0.1-2.3l0-2.3
			c-0.1-3-0.6-6.1-1.2-9c-0.7-3-1.7-5.9-3-8.7c-1.2-2.8-2.7-5.5-4.4-8.1c-3.3-5.2-7.5-9.7-12.2-13.8c-4.7-4-9.9-7.4-15.3-10.4
			c-5.4-3-11.1-5.5-16.9-7.8c-5.8-2.3-11.6-4.4-17.6-6.2c-5.9-1.8-12-3.3-18.1-4.3c-1.5-0.3-3.1-0.5-4.6-0.7l-4.6-0.4
			c-1.5-0.2-3.1-0.2-4.6-0.3c-1.5,0-3.1-0.2-4.6-0.2l-4.7,0c-1.6,0-3.1,0.1-4.6,0.2c-1.6,0-3.1,0.2-4.6,0.3
			c-1.5,0.2-3.1,0.2-4.6,0.5c-6.2,0.7-12.3,1.9-18.3,3.2c-6.1,1.3-12.1,2.9-18,4.7c-6,1.8-11.8,3.7-17.7,5.7
			c-5.9,2-11.7,4.1-17.6,6.2c-5.9,2.1-11.7,4.2-17.7,6c-11.9,3.6-24.4,6.3-37,5.8c-12.6-0.2-25.1-4.8-34.8-12.7
			c-4.9-3.9-9.1-8.8-12-14.3c-3-5.5-4.6-11.8-4.5-18L100,291.6z"/>
		<path d="M685.6,237.7c1.7-4.1,4.6-7.5,8.1-10.1c3.5-2.6,7.5-4.5,11.7-5.7c8.4-2.5,17.2-2.6,25.8-3.5c17.2-1.7,34.2-6.1,50-13.2
			c15.8-7.1,30.4-16.9,42.5-29.2c12.1-12.3,21.6-27.2,27.6-43.3c6-16.1,8.6-33.6,6.8-50.7c-0.3-2.1-0.6-4.3-0.9-6.4
			c-0.4-2.1-0.9-4.2-1.6-6.1c-0.7-2-1.7-3.8-3.1-5.2c-1.4-1.5-3.2-2.5-5.1-2.8c-3.9-0.7-8.2,1-11,3.8c-2.9,2.9-4.5,7-5.1,11.1
			c-0.3,2.1-0.5,4.2-0.4,6.3c0,1.1,0.1,2.1,0.2,3.2c0.1,1.1,0.1,2.1,0.3,3.2l0.4,3.2c0.2,1.1,0.4,2.1,0.7,3.1
			c0.4,2.1,1.1,4.1,1.7,6.2c0.3,1,0.7,2,1.1,3l0.6,1.5c0.2,0.5,0.4,1,0.7,1.5l1.3,2.9l1.5,2.8l0.8,1.4l0.9,1.4l1.7,2.7l1.9,2.6
			l0.9,1.3l1,1.3l2,2.5l2.2,2.4l1.1,1.2l1.1,1.1l2.3,2.3l2.4,2.1l1.2,1.1l1.3,1l2.5,2l2.6,1.9c1.7,1.3,3.6,2.4,5.4,3.5l2.8,1.6
			c0.9,0.5,1.9,1.1,2.8,1.5l2.9,1.5l2.9,1.4c1.9,0.9,3.9,1.7,5.9,2.5c16,6.3,33.1,9.5,50.3,11.3c8.6,1,17.2,1.5,25.8,2
			c4.3,0.1,8.6,0.4,13,0.4l6.5,0.1l6.5,0c2.2,0,4.3,0,6.5-0.1l6.5-0.2c4.3-0.2,8.6-0.3,12.9-0.6c8.6-0.5,17.2-1.3,25.8-2.2
			c17.2-2,34.2-4.9,51.1-8.8c8.4-1.9,16.8-4.1,25-6.7c4.1-1.3,8.1-2.8,12.1-4.4c4-1.6,7.9-3.4,11.6-5.5c3.8-2,7.4-4.3,10.9-6.8
			c1.8-1.2,3.4-2.6,5.1-3.9c1.6-1.4,3.2-2.8,4.7-4.3c3-3,5.8-6.3,8.2-9.8c2.4-3.5,4.6-7.2,6.2-11.1c1.7-3.9,3.1-7.9,3.9-12.1
			c0.8-4.2,1.1-8.4,0.9-12.6l-0.3-3.2c-0.1-1.1-0.4-2.1-0.5-3.1c-0.4-2.1-0.8-4.2-2.1-5.4c-0.6-0.6-1.4-1.1-2.3-1.3
			c-0.9-0.2-1.9-0.2-2.8,0c-1.9,0.3-3.9,1.2-5.6,2.4c-0.9,0.6-1.7,1.2-2.5,1.9c-0.8,0.7-1.6,1.4-2.4,2.1c-1.6,1.5-3.1,3-4.5,4.6
			c-2.9,3.2-5.5,6.6-7.9,10.1c-4.7,7.2-8.3,15.1-10.5,23.4l-1,3.7l-0.1-3.9c-0.5-14.3-8.6-28.3-21.1-35.8l0.2-0.3
			c12.7,7.3,21.3,21.2,22.1,36l-1.1-0.1c2.1-8.5,5.6-16.6,10.3-24c2.4-3.7,5-7.2,7.9-10.5c1.5-1.6,3-3.2,4.6-4.7
			c0.8-0.8,1.6-1.5,2.4-2.2c0.8-0.7,1.7-1.5,2.7-2.1c0.9-0.6,1.9-1.2,3-1.7c1-0.5,2.1-0.9,3.3-1.1c1.2-0.2,2.4-0.3,3.6,0
			c1.2,0.2,2.4,0.9,3.3,1.8c0.9,0.9,1.5,2.1,1.9,3.2c0.4,1.1,0.6,2.2,0.8,3.3c0.2,1.1,0.5,2.2,0.6,3.3l0.4,3.3
			c0.3,4.4,0,8.9-0.8,13.2c-0.8,4.4-2.2,8.6-3.9,12.6c-1.7,4.1-3.9,7.9-6.4,11.6c-2.5,3.7-5.3,7.1-8.4,10.2c-1.5,1.6-3.2,3-4.8,4.5
			c-1.7,1.4-3.4,2.8-5.2,4.1c-3.6,2.6-7.3,5-11.1,7c-7.7,4.2-15.9,7.5-24.2,10.2c-8.3,2.7-16.8,4.9-25.2,6.8
			c-33.9,7.8-68.7,11.8-103.5,11.8l-6.5,0l-6.5-0.2c-4.3-0.1-8.7-0.3-13-0.5c-8.7-0.5-17.3-1.2-26-2.2c-17.3-2-34.6-5.3-50.9-11.7
			c-2-0.9-4.1-1.6-6-2.6l-3-1.4l-2.9-1.5c-1-0.5-1.9-1-2.9-1.6L869,147c-1.8-1.2-3.7-2.3-5.5-3.6l-2.7-1.9l-2.6-2.1l-1.3-1l-1.2-1.1
			l-2.4-2.2l-2.3-2.3l-1.2-1.2l-1.1-1.2l-2.2-2.5l-2.1-2.6l-1-1.3l-1-1.3l-1.9-2.7l-1.7-2.8l-0.9-1.4l-0.8-1.5l-1.6-2.9l-1.4-3
			c-0.2-0.5-0.5-1-0.7-1.5l-0.6-1.5c-0.4-1-0.8-2.1-1.1-3.1c-0.6-2.1-1.3-4.2-1.7-6.4c-0.2-1.1-0.5-2.1-0.7-3.2l-0.4-3.3
			c-0.2-1.1-0.2-2.2-0.3-3.3c0-1.1-0.1-2.2-0.1-3.3c0-2.2,0.1-4.4,0.5-6.6c0.7-4.4,2.4-8.8,5.7-12.1c0.8-0.8,1.7-1.5,2.7-2.1
			c1-0.6,2-1.1,3.1-1.5c2.2-0.8,4.5-1.1,6.9-0.6c1.2,0.2,2.3,0.6,3.3,1.2c1,0.6,1.9,1.3,2.8,2.2c1.6,1.7,2.7,3.7,3.5,5.8
			c0.8,2.1,1.3,4.3,1.7,6.4c0.3,2.2,0.6,4.3,0.9,6.5c1.8,17.4-0.9,35.1-7.1,51.4c-6.2,16.3-15.8,31.3-28.1,43.6
			c-12.3,12.4-27,22.1-42.9,29.2c-15.9,7-33,11.4-50.3,13c-8.6,0.8-17.4,0.9-25.7,3.3c-4.1,1.2-8.1,3-11.6,5.6
			c-3.5,2.5-6.4,5.9-8.1,9.9L685.6,237.7z"/>
		<path d="M1104.6,72.7c-3.6,0.5-7,2-9.8,4.2c-2.9,2.2-5.1,5-6.8,8.2c-1.7,3.1-2.7,6.6-3.1,10.1c-0.3,3.5,0,7.1,1,10.6
			c1.8,6.9,5.5,13.2,10.2,18.6c4.7,5.4,10.4,9.9,16.3,14c5.9,4.2,12,8.1,18,12.2l9,6.1c3,2,6.1,4.3,8.2,7.4
			c2.2,3.1,3.4,6.8,3.8,10.4c0.4,3.7-0.1,7.5-1.3,11c-2.5,7-7.6,12.7-13.6,16.7c2.9-2.2,5.5-4.7,7.7-7.6c2.2-2.9,3.9-6.1,5-9.5
			c1.1-3.4,1.4-7,1-10.5c-0.4-3.5-1.7-6.9-3.8-9.7c-2.1-2.8-5-4.9-8-6.9l-9.1-6c-6-4-12.2-7.9-18.2-12.1
			c-5.9-4.2-11.7-8.9-16.5-14.4c-4.8-5.6-8.6-12.1-10.3-19.4c-0.9-3.6-1.1-7.4-0.7-11c0.4-3.7,1.6-7.3,3.5-10.5
			c1.9-3.2,4.3-6,7.3-8.1C1097.5,74.3,1101,73,1104.6,72.7z"/>
	</g>
	<path class="st0" d="M836.8,79.6c0-4.2,0.4-8.7,2.8-12.1c0.6-0.9,1.4-1.7,2.5-1.9c1.7-0.4,3.3,0.7,4.5,2c2.6,3.1,3.3,7.3,3.7,11.2
		c1.2,10.5,1.8,22.1-0.3,32.5c-0.3,1.4-1.4,8.9-1.4,8.9s-4.1-7.6-4.8-9c-2.1-4.7-3.8-9.5-5-14.5C837.6,91.2,836.9,85.4,836.8,79.6z"
		/>
	<path class="st1" d="M1101.8,119.2c-4-5-7.8-10.5-8.7-16.8c-0.4-2.9-0.2-5.9,0.3-8.8c0.5-3,1.3-6,2.8-8.6c1.5-2.6,3.9-4.9,6.7-5.8
		c3.6-1.2,7.7-0.3,10.9,1.8c3.2,2.1,5.6,5.1,7.7,8.4c6.1,9.4,9.4,20.4,11.6,31.4c0.5,2.7,1,5.5,2.3,7.9c3.1-5.7,4.8-12.1,7.3-18.1
		c4.2-10.1,10.8-19.1,17.8-27.6c2.5-3,5.1-6,8.4-8c0.8-0.5,1.8-1,2.7-0.7c1.3,0.3,1.9,1.8,2.2,3c0.9,4.1,0.1,8.4-0.8,12.5
		c-2.2,9.7-5.6,19.5-12.6,26.6c-2.4,2.4-5.1,4.5-7.8,6.5c-7.3,5.4-14.7,10.6-22.2,15.6c-1.2,0.8-4.2,3.6-5.6,3.6
		c-1.3,0-3.8-2.9-4.8-3.7c-3.2-2.8-6.3-5.7-9.3-8.7C1107.8,126.2,1104.7,122.8,1101.8,119.2z"/>
	<path class="st1" d="M392.4,369.6c-1.7,2.7-3.2,5.7-3.9,8.8c-0.6,3.2-0.2,6.7,1.7,9.3c0.9,1.2,2.3,2.2,3.7,1.8
		c0.6-0.2,1.1-0.6,1.5-1.1c1.2-1.4,1.6-3.3,1.9-5.1c0.9-4.9,1.2-10,1-15c-0.1-1.2-0.1-2.5-0.3-3.7c-0.2-1.3-0.4-1.9-1.4-1
		C394.9,365,393.6,367.8,392.4,369.6z"/>
</g>
</svg>
