<?xml version="1.0" encoding="utf-8"?>
<!-- Generator: Adobe Illustrator 23.0.1, SVG Export Plug-In . SVG Version: 6.00 Build 0)  -->
<svg version="1.1" id="Layer_1" xmlns="http://www.w3.org/2000/svg" xmlns:xlink="http://www.w3.org/1999/xlink" x="0px" y="0px"
	 viewBox="0 0 1366 768" style="enable-background:new 0 0 1366 768;" xml:space="preserve">
<style type="text/css">
	.st0{opacity:0.54;fill:none;stroke:#F7C04A;stroke-width:2;stroke-miterlimit:10;enable-background:new    ;}
	.st1{opacity:0.4;fill:#539165;enable-background:new    ;}
</style>
<path class="st0" d="M1378.6,48.2c-11.4,25.9-36.6,43.7-63.3,53.1s-55.3,11.6-83.5,14.6c-39.6,4.2-79.4,10.1-116.3,24.9
	s-71,39.6-90.7,74.1c-25,44-25.5,101-59,138.9c-47.6,53.9-134.5,42.5-199.2,73.7c-29.4,14.2-54.3,37.7-70.1,66.3
	c-23,41.7-29.8,96.6-70.2,121.8c-32.8,20.4-76.1,12.9-112,27c-40.3,15.9-64.8,55.8-91.3,90.2s-64.6,67.9-107.5,61.5"/>
<path class="st0" d="M1407.9,98c-15,34.2-54.9,49.1-91.4,56.8c-54.1,11.5-111.8,15.7-158.6,45.3c-84.7,53.6-105.2,171.3-181.1,236.7
	c-64.4,55.5-163,68.3-211.8,137.9c-19.1,27.2-28,60-41.9,90.1c-38,82.3-116.5,144.6-205.3,163"/>
<path class="st0" d="M1387.2,162.3c-10.7,24.4-34.5,40.6-59.1,50.7s-51,15.4-75.7,25.3c-59.2,23.6-107,74.4-126.9,135
	c-14.5,44.1-16.4,95.6-49.2,128.4c-20.4,20.4-49,29.5-74.9,42.2c-40,19.6-76.3,51-91.4,92.9c-11.7,32.4-9.9,68.4-21.3,100.9
	c-20.8,59-79.8,94.2-134.6,124.4"/>
<path class="st1" d="M1231.1,300.6c-11,10-21,21.3-28.3,34.3c-27.9,49.9-10.3,115.1-34.9,166.7c-14.1,29.5-40.5,51.2-67.8,69.2
	c-27.4,17.9-56.7,33.2-81.2,55c-14.8,13.1-27.9,29.1-32.8,48.2s0.4,41.7,16.5,53.2c6.1,4.4,13.5,6.9,20.8,8.4
	c30.9,6.3,64.7-6,84.5-30.5c14.1-17.6,21.3-40.6,38-55.7c18.2-16.5,46.6-20.4,68.6-9.5c17.4,8.6,32.8,26,52,23.2
	c9.3-1.4,17.3-7.5,23.7-14.4c17.6-19.1,26.2-47.6,17.8-72.2c-7.2-21-24.9-36.2-39.7-52.8s-27.8-38.4-22.2-59.9
	c6.4-24.7,33.3-36.9,52.4-54c31.7-28.5,42.7-74.1,41.6-116.7c-0.7-28.1-9.8-46-38.6-35.3C1275.5,267.5,1251.5,282,1231.1,300.6z"/>
</svg>
