<?xml version="1.0" encoding="utf-8"?>
<!-- Generator: Adobe Illustrator 23.0.1, SVG Export Plug-In . SVG Version: 6.00 Build 0)  -->
<svg version="1.1" id="Layer_1" xmlns="http://www.w3.org/2000/svg" xmlns:xlink="http://www.w3.org/1999/xlink" x="0px" y="0px"
	 viewBox="0 0 1366 768" style="enable-background:new 0 0 1366 768;" xml:space="preserve">
<style type="text/css">
	.st0{fill:none;stroke:#FFFFFF;stroke-width:4;stroke-miterlimit:10;enable-background:new    ;}
	.st1{opacity:0.4;fill:#539165;enable-background:new    ;}
	.st2{opacity:0.54;fill:#F7C04A;enable-background:new    ;}
</style>
<path class="st0" d="M1140,770.7c-46.3,7-87.6-27.9-116.4-63.8c-28.8-35.9-55.5-77.6-99.1-94c-38.8-14.6-85.4-6.4-121-27.6
	c-43.8-26.1-51.4-83.7-76.6-127.2c-17.3-29.9-44.2-54.3-76-69c-70-32.3-163.6-19.7-215.3-76c-36.4-39.5-37.3-99.3-64.6-145.3
	c-21.5-36.1-58.4-61.8-98.3-77.1s-82.8-21.2-125.6-25.3c-30.4-2.9-61.2-5-90.1-14.7S0.8,22.7-11.6-4.4"/>
<path class="st0" d="M922.1,807.3c-95.9-18.7-180.9-83.5-222.6-169.5c-15.2-31.5-25-65.8-45.8-94.2
	c-53.2-72.7-159.5-85.4-229.4-143.2c-82.3-68.1-105.2-191.4-197-247C176.6,122.6,114.4,118.6,56,107c-39.5-7.9-82.5-23.2-99-59"/>
<path class="st0" d="M667.6,845c-59.3-31.3-123.1-67.8-146-129.6c-12.5-34-10.9-71.8-23.7-105.7c-16.6-43.8-56-76.6-99.2-96.8
	c-28-13.1-58.9-22.4-81.1-43.7c-35.6-34.2-38.1-88.2-54-134.4c-21.9-63.5-73.8-116.3-137.8-140.7c-26.7-10.2-55.2-15.6-81.8-26
	s-52.4-27.3-64.1-52.8C-43,92.7-66,70.2-89,47.5"/>
<path class="st1" d="M144,290.6c28.3,38,34.2,87.9,54.8,130.7c18.8,39,50.4,71.8,88.6,92c21.2,11.3,44.3,18.6,66,28.8
	c21.8,10.1,43,23.4,56.5,43.2c22.6,33.1,17.6,82.2-11.2,110.1c-7.8,7.6-18.2,14.1-29.2,13.2c-15.8-1.3-26.7-17.1-30.4-32.5
	c-3.7-15.4-2.9-31.8-7.6-46.9c-7.3-23.1-28.3-41.4-52.3-45.2c-20.9-3.3-42.3,3.5-63.5,1.7c-19.1-1.6-36.9-10.3-53.5-20
	c-26.1-15.3-50.7-33.9-69.7-57.5s-32.1-52.5-33.7-82.8c-1.9-35.1,11.5-70.8,2.3-104.8c-4.2-15.7-13.5-29.7-25.7-40.3
	c-8.7-7.6-24.3-17.8-21.6-31.6c5.3-27.6,72.5-2.7,86.8,5C117.6,262.6,132.5,275.2,144,290.6z"/>
<path class="st2" d="M272,612.3c-6.4-2.4-13.5-1.4-20.2,0c-13.5,2.8-27.4,7.5-36.2,18.1c-11.1,13.6-10.5,34.5-0.6,48.9
	c9.9,14.4,27.6,22.4,45.1,22.8c15,0.4,31.7-5.5,37.8-19.3c3.5-8,3-17.4,0.1-25.6c-3-8.7-8-16.3-11.1-24.9
	C284.1,624,281,615.6,272,612.3z"/>
</svg>
