<?xml version="1.0" encoding="utf-8"?>
<!-- Generator: Adobe Illustrator 23.0.1, SVG Export Plug-In . SVG Version: 6.00 Build 0)  -->
<svg version="1.1" id="Layer_1" xmlns="http://www.w3.org/2000/svg" xmlns:xlink="http://www.w3.org/1999/xlink" x="0px" y="0px"
	 viewBox="0 0 1242 2208" style="enable-background:new 0 0 1242 2208;" xml:space="preserve">
<style type="text/css">
	.st0{opacity:0.51;clip-path:url(#SVGID_2_);fill:#F8F5E4;}
	.st1{opacity:0.51;clip-path:url(#SVGID_2_);fill:#F7C04A;}
	.st2{opacity:0.51;clip-path:url(#SVGID_2_);fill:#539165;}
</style>
<g>
	<defs>
		<rect id="SVGID_1_" y="1760" width="1242" height="448"/>
	</defs>
	<clipPath id="SVGID_2_">
		<use xlink:href="#SVGID_1_"  style="overflow:visible;"/>
	</clipPath>
	<path class="st0" d="M-48.8,1935.8c46.6-16.9,98.5,0.4,143.1,22.1c44.6,21.7,88.9,48.6,138.5,51.6c64,3.9,123.1-33,173.6-72.6
		c26.8-21.1,54.2-44.1,87.7-50.8c48.4-9.8,96.6,17,134.7,48.5c38.1,31.4,72.5,69.3,118,88.4c81.1,34.2,174.2,0.4,251.3-41.9
		c78.1-42.9,222.7,51,305.1,16.9s106.9-194.4,188.8-159.3c25,10.7,49.3,27.1,60.6,51.8c14.5,31.8,4.4,68.9-6,102.4
		c-21.3,69-45.3,142.1-100.9,188.1c-22.9,18.9-49.8,32-76.5,45c-69.8,33.8-141.1,68-217.8,79.3c-95.5,14.1-192-8-287.8-19.7
		c-137.6-16.8-277.8-11.9-413.9,14.5c-54.6,10.6-108.9,24.6-164.5,27.1c-68.5,3.1-137-11.6-201.4-35.2
		c-62.1-22.8-122.5-55.1-166.4-104.6C-154.8,2106.4-169.3,1979.5-48.8,1935.8z"/>
	<path class="st1" d="M28.6,2091.9c104.5,2.2,203.6,75.5,306.6,56.4c57.9-10.7,107.3-49.4,162-72.2c88.3-36.9,191.9-30.2,275.2,17.8
		c29.6,17,57.5,39.3,90.5,46.5c43,9.4,87.3-8.4,125.3-31.7c38-23.2,73.3-52.3,114.3-68.8c54-21.6,117.7-18.7,166.7,13.6
		c49,32.4,79.9,95.4,70.9,155.7c-11.6,77-80.6,130.2-150.1,156.4c-133.7,50.3-280.5,32-421.8,18.1c-148-14.5-299.3-23.2-443.7,14.2
		c-61.3,15.9-121.8,40.2-185,40.5c-83.3,0.5-160.4-42.1-220.9-100.1c-28.7-27.5-69.4-64.5-82.4-104.3c-14.2-43.5,20.6-74.6,51.7-97
		C-70.9,2107.7-21.3,2090.8,28.6,2091.9z"/>
	<path class="st2" d="M-105.8,2136.7c6-53.2,40.9-102.3,89.2-125.6c81.6-39.2,178.8-3.2,257.2,42c78.4,45.2,157,101.4,247.5,103.6
		c152.3,3.6,268.9-145.1,419.5-167.8c42.4-6.4,86.3-2.3,126.7,11.9c77.4,27.1,139.1,88.9,216.9,115c68.3,22.8,142.9,16.1,213.4,30.5
		c70.6,14.3,144.8,62.6,148.7,134.5c2,37.6-16.4,74.2-42.7,101.2c-26.3,27-59.8,45.7-93.7,62.1c-101.8,49.4-214.9,82.4-327.6,71.5
		c-68.5-6.7-134.4-29.2-201.9-42.7c-95.5-19-194.6-19.7-290.4-1.8c-123.3,23-242.3,76.4-367.7,73.8
		c-135.7-2.9-267.9-76.8-341.4-190.8c-73.5-114.1-86.2-265-32.8-389.7c7.1,29.8,12.9,61.8,5,91.4
		C-86.5,2081.4-103.9,2110-105.8,2136.7z"/>
</g>
</svg>
