<?xml version="1.0" encoding="utf-8"?>
<!-- Generator: Adobe Illustrator 23.0.1, SVG Export Plug-In . SVG Version: 6.00 Build 0)  -->
<svg version="1.1" id="Layer_1" xmlns="http://www.w3.org/2000/svg" xmlns:xlink="http://www.w3.org/1999/xlink" x="0px" y="0px"
	 viewBox="0 0 484 118" style="enable-background:new 0 0 484 118;" xml:space="preserve">
<style type="text/css">
	.st0{fill:#539165;enable-background:new    ;}
	.st1{fill:#F7C04A;enable-background:new    ;}
</style>
<path d="M9,44.9c2.3-0.5,5.6-0.7,8.7-0.7c4.9,0,8,0.9,10.2,2.9c1.8,1.6,2.8,4,2.8,6.7c0,4.7-2.9,7.7-6.6,9v0.2
	c2.7,0.9,4.3,3.5,5.2,7.1c4.1,17.4,18.6,29,36,32.6c13.4,2.8,27.2,1.2,40.7-1.1c17.3-2.9,34.3-6.9,51.5-10.1c16.3-3,34.3-5,48.4,3.8
	c0.8,0.5,1.7,1.2,2,2.1c0.4,1.5-1.1,3-2.7,3.2c-1.6,0.2-3.1-0.5-4.5-1.1c-17.7-7.5-37.9-5.8-56.7-1.6c-18.8,4.1-37.2,10.5-56.4,11.9
	s-40-3.2-52.8-17.6c-5.5-6.2-8-12.8-9.7-20.7c-1-4.9-2.9-6.7-7.1-6.9h-4.3v15.3H9V44.9z M13.5,61h4.7c4.9,0,8-2.7,8-6.7
	c0-4.6-3.3-6.5-8.1-6.6c-2.2,0-3.8,0.2-4.5,0.4V61z"/>
<path d="M39.7,67.9c0.1,6.2,4.1,8.8,8.7,8.8c3.3,0,5.3-0.6,7-1.3l0.8,3.3c-1.6,0.7-4.4,1.6-8.4,1.6c-7.8,0-12.4-5.1-12.4-12.8
	c0-7.6,4.5-13.7,11.9-13.7c8.3,0,10.5,7.3,10.5,11.9c0,0.9-0.1,1.7-0.2,2.1H39.7z M53.2,64.6c0.1-2.9-1.2-7.5-6.4-7.5
	c-4.7,0-6.7,4.3-7.1,7.5H53.2z"/>
<path d="M77.4,79.7L77,76.5h-0.2c-1.4,2-4.1,3.8-7.7,3.8c-5.1,0-7.7-3.6-7.7-7.3c0-6.1,5.4-9.5,15.2-9.4v-0.5c0-2.1-0.6-5.9-5.8-5.9
	c-2.4,0-4.8,0.7-6.6,1.9l-1-3c2.1-1.4,5.1-2.2,8.3-2.2c7.7,0,9.6,5.3,9.6,10.4v9.5c0,2.2,0.1,4.3,0.4,6.1H77.4z M76.7,66.8
	c-5-0.1-10.7,0.8-10.7,5.7c0,3,2,4.4,4.3,4.4c3.3,0,5.4-2.1,6.1-4.2c0.2-0.5,0.3-1,0.3-1.5V66.8z"/>
<path d="M110.4,42.6v30.6c0,2.2,0.1,4.8,0.2,6.5h-4.1l-0.2-4.4h-0.1c-1.4,2.8-4.5,5-8.6,5c-6.1,0-10.8-5.2-10.8-12.9
	c-0.1-8.4,5.2-13.6,11.4-13.6c3.9,0,6.5,1.8,7.6,3.9h0.1V42.6H110.4z M105.8,64.7c0-0.6-0.1-1.4-0.2-1.9c-0.7-2.9-3.2-5.3-6.6-5.3
	c-4.8,0-7.6,4.2-7.6,9.8c0,5.1,2.5,9.4,7.5,9.4c3.1,0,5.9-2,6.7-5.5c0.2-0.6,0.2-1.3,0.2-2V64.7z"/>
<path d="M119.8,54.4l5.5,15c0.6,1.7,1.2,3.7,1.6,5.2h0.1c0.5-1.5,1-3.5,1.6-5.3l5-14.9h4.9l-6.9,18c-3.3,8.7-5.5,13.1-8.7,15.8
	c-2.2,2-4.5,2.8-5.6,3l-1.2-3.9c1.2-0.4,2.7-1.1,4-2.2c1.3-1,2.8-2.8,3.9-5.1c0.2-0.5,0.4-0.8,0.4-1.1c0-0.3-0.1-0.6-0.3-1.2
	l-9.4-23.3H119.8z"/>
<path d="M158.5,48.3h-10.7v-3.9h26.1v3.9h-10.8v31.4h-4.6V48.3z"/>
<path d="M196.8,66.8c0,9.4-6.5,13.4-12.6,13.4c-6.9,0-12.1-5-12.1-13c0-8.5,5.5-13.4,12.6-13.4C191.9,53.8,196.8,59.1,196.8,66.8z
	 M176.8,67.1c0,5.5,3.2,9.7,7.7,9.7c4.4,0,7.7-4.1,7.7-9.8c0-4.3-2.1-9.7-7.6-9.7C179.1,57.3,176.8,62.3,176.8,67.1z"/>
<path d="M240.7,78.1c-2,0.7-6.1,1.9-10.8,1.9c-5.3,0-9.7-1.4-13.2-4.7c-3-2.9-4.9-7.6-4.9-13.1c0.1-10.5,7.3-18.2,19.1-18.2
	c4.1,0,7.3,0.9,8.8,1.6l-1.1,3.7c-1.9-0.8-4.2-1.5-7.8-1.5c-8.6,0-14.2,5.3-14.2,14.2c0,8.9,5.4,14.2,13.6,14.2c3,0,5-0.4,6.1-0.9
	V64.8h-7.2v-3.7h11.6V78.1z"/>
<path d="M250.3,67.9c0.1,6.2,4.1,8.8,8.7,8.8c3.3,0,5.3-0.6,7-1.3l0.8,3.3c-1.6,0.7-4.4,1.6-8.4,1.6c-7.8,0-12.4-5.1-12.4-12.8
	c0-7.6,4.5-13.7,11.9-13.7c8.3,0,10.5,7.3,10.5,11.9c0,0.9-0.1,1.7-0.2,2.1H250.3z M263.8,64.6c0.1-2.9-1.2-7.5-6.4-7.5
	c-4.7,0-6.7,4.3-7.1,7.5H263.8z"/>
<path d="M279.5,47.1v7.3h6.6v3.5h-6.6v13.7c0,3.1,0.9,4.9,3.5,4.9c1.2,0,2.1-0.2,2.7-0.3l0.2,3.5c-0.9,0.4-2.3,0.6-4.1,0.6
	c-2.1,0-3.9-0.7-5-1.9c-1.3-1.4-1.8-3.6-1.8-6.6V57.9h-3.9v-3.5h3.9v-6.1L279.5,47.1z"/>
<path d="M301.9,74.2c2,1.3,5,2.3,8.2,2.3c4.7,0,7.4-2.5,7.4-6c0-3.3-1.9-5.2-6.6-7c-5.8-2-9.3-5-9.3-10c0-5.5,4.5-9.6,11.4-9.6
	c3.6,0,6.2,0.8,7.8,1.7l-1.3,3.7c-1.2-0.6-3.5-1.7-6.7-1.7c-4.8,0-6.6,2.9-6.6,5.3c0,3.3,2.1,4.9,7,6.8c6,2.3,9,5.2,9,10.4
	c0,5.4-4,10.1-12.3,10.1c-3.4,0-7.1-1-9-2.2L301.9,74.2z"/>
<path d="M333.6,47.1v7.3h6.6v3.5h-6.6v13.7c0,3.1,0.9,4.9,3.5,4.9c1.2,0,2.1-0.2,2.7-0.3l0.2,3.5c-0.9,0.4-2.3,0.6-4.1,0.6
	c-2.1,0-3.9-0.7-5-1.9c-1.3-1.4-1.8-3.6-1.8-6.6V57.9h-3.9v-3.5h3.9v-6.1L333.6,47.1z"/>
<path d="M359.3,79.7l-0.4-3.2h-0.2c-1.4,2-4.1,3.8-7.7,3.8c-5.1,0-7.7-3.6-7.7-7.3c0-6.1,5.4-9.5,15.2-9.4v-0.5
	c0-2.1-0.6-5.9-5.8-5.9c-2.4,0-4.8,0.7-6.6,1.9l-1-3c2.1-1.4,5.1-2.2,8.3-2.2c7.7,0,9.6,5.3,9.6,10.4v9.5c0,2.2,0.1,4.3,0.4,6.1
	H359.3z M358.7,66.8c-5-0.1-10.7,0.8-10.7,5.7c0,3,2,4.4,4.3,4.4c3.3,0,5.4-2.1,6.1-4.2c0.2-0.5,0.3-1,0.3-1.5V66.8z"/>
<path d="M370.5,62.3c0-3-0.1-5.5-0.2-7.9h4l0.2,5h0.2c1.2-3.4,3.9-5.5,7-5.5c0.5,0,0.9,0.1,1.3,0.2v4.3c-0.5-0.1-0.9-0.2-1.6-0.2
	c-3.2,0-5.5,2.5-6.2,5.9c-0.1,0.6-0.2,1.4-0.2,2.1v13.5h-4.6V62.3z"/>
<path d="M394.4,47.1v7.3h6.6v3.5h-6.6v13.7c0,3.1,0.9,4.9,3.5,4.9c1.2,0,2.1-0.2,2.7-0.3l0.2,3.5c-0.9,0.4-2.3,0.6-4.1,0.6
	c-2.1,0-3.9-0.7-5-1.9c-1.3-1.4-1.8-3.6-1.8-6.6V57.9H386v-3.5h3.9v-6.1L394.4,47.1z"/>
<path d="M408.4,67.9c0.1,6.2,4.1,8.8,8.7,8.8c3.3,0,5.3-0.6,7-1.3l0.8,3.3c-1.6,0.7-4.4,1.6-8.4,1.6c-7.8,0-12.4-5.1-12.4-12.8
	c0-7.6,4.5-13.7,11.9-13.7c8.3,0,10.5,7.3,10.5,11.9c0,0.9-0.1,1.7-0.2,2.1H408.4z M421.9,64.6c0.1-2.9-1.2-7.5-6.4-7.5
	c-4.7,0-6.7,4.3-7.1,7.5H421.9z"/>
<path d="M454,42.6v30.6c0,2.2,0.1,4.8,0.2,6.5H450l-0.2-4.4h-0.1c-1.4,2.8-4.5,5-8.6,5c-6.1,0-10.8-5.2-10.8-12.9
	c-0.1-8.4,5.2-13.6,11.4-13.6c3.9,0,6.5,1.8,7.6,3.9h0.1V42.6H454z M449.4,64.7c0-0.6-0.1-1.4-0.2-1.9c-0.7-2.9-3.2-5.3-6.6-5.3
	c-4.8,0-7.6,4.2-7.6,9.8c0,5.1,2.5,9.4,7.5,9.4c3.1,0,5.9-2,6.7-5.5c0.2-0.6,0.2-1.3,0.2-2V64.7z"/>
<path d="M465.1,69.7l-0.1-1.4c-0.3-2.8,0.6-5.9,3.2-9c2.4-2.8,3.7-4.8,3.7-7.2c0-2.7-1.7-4.4-5-4.5c-1.9,0-4,0.6-5.3,1.6l-1.3-3.3
	c1.7-1.3,4.7-2.1,7.5-2.1c6,0,8.7,3.7,8.7,7.7c0,3.6-2,6.1-4.5,9.1c-2.3,2.7-3.1,5-3,7.7l0.1,1.4H465.1z M464,77
	c0-1.9,1.3-3.3,3.1-3.3c1.8,0,3.1,1.4,3.1,3.3c0,1.8-1.2,3.2-3.1,3.2C465.2,80.3,464,78.9,464,77z"/>
<path d="M183.5,56.9c-0.6-0.1-1.2,0-1.8,0.2c-0.6,0.2-1.1,0.6-1.5,1c-0.8,0.9-1.4,2.1-1.5,3.3c0,0.6,0.1,1.2,0.3,1.7
	c0.2,0.5,0.7,1,1.1,1.3c1,0.7,2.2,0.9,3.4,0.7c1.2-0.2,2.3-0.7,3-1.6c0.4-0.4,0.6-1,0.7-1.5c0.1-0.6,0.1-1.1,0-1.7
	c-0.5-2.2-2.6-4.2-4.9-4l-0.1-1.2c3.9-0.5,7.7-1,11.5-1.8c3.8-0.8,7.5-1.9,10.9-3.7c3.4-1.7,6.4-4.2,8.7-7.1c2.3-3,3.8-6.6,3.9-10.3
	l0-1.1l1.1,0.3c6.2,1.5,12.5,2.5,18.8,3.2c6.3,0.7,12.7,1.2,19.1,1.7c6.4,0.5,12.8,1,19.1,1.4c6.4,0.4,12.8,0.7,19.2,1
	c6.4,0.2,12.8,0.4,19.2,0.5c6.4,0.1,12.8,0.1,19.2,0.1c6.4,0,12.8-0.1,19.2-0.2c6.4-0.1,12.8-0.1,19.1-0.5c6.3-0.4,12.7-1.1,18.7-3
	c6-1.9,11.6-4.8,16.6-8.6c2.5-1.9,4.9-4,7-6.3c1.1-1.1,2-2.3,2.7-3.6c0.7-1.3,1.2-2.7,1.3-4.1c0.1-1.4-0.4-2.6-1.4-3.4
	c-1-0.8-2.3-1-3.7-0.7c-2.8,0.6-5.3,2.7-7.3,5c-2,2.3-3.5,5.1-4.1,8c-0.3,1.5-0.4,3-0.2,4.5c0.2,1.5,0.7,2.9,1.4,4.2
	c0.7,1.3,1.7,2.5,2.8,3.5c1.1,0.9,2.5,1.7,3.9,2c2.9,0.7,6,0,9-0.9c3-0.9,6.1-2.1,9.4-2.4c1.7-0.2,3.4,0.1,4.9,0.6
	c1.6,0.6,3,1.5,4.2,2.7c2.3,2.3,3.8,5.4,4.4,8.6c0.7,3.2,0.8,6.4,0.9,9.6l-0.2,0c-0.2-3.2-0.4-6.4-1.3-9.5c-0.8-3.1-2.3-6-4.5-8.1
	c-1.1-1.1-2.4-1.9-3.9-2.4c-1.5-0.4-3-0.6-4.5-0.4c-3.1,0.3-6,1.6-9.1,2.6c-1.5,0.5-3.1,1-4.7,1.3c-1.6,0.3-3.4,0.3-5.1-0.1
	c-1.7-0.4-3.3-1.2-4.6-2.3c-1.3-1.1-2.4-2.4-3.3-3.9c-0.8-1.5-1.4-3.1-1.7-4.8c-0.3-1.7-0.2-3.4,0.1-5.1c0.6-3.3,2.3-6.4,4.4-9
	c1.1-1.3,2.3-2.4,3.7-3.4c1.4-1,2.9-1.8,4.7-2.2c0.9-0.2,1.8-0.3,2.8-0.1c0.9,0.2,1.9,0.6,2.6,1.2c0.8,0.6,1.4,1.4,1.7,2.3
	c0.4,0.9,0.4,1.9,0.4,2.8c-0.1,1.8-0.7,3.5-1.5,5c-0.8,1.5-1.8,2.9-3,4.1c-2.2,2.4-4.6,4.6-7.3,6.5c-5.2,3.9-11.1,6.9-17.3,8.8
	c-6.2,1.9-12.7,2.7-19.2,3c-6.4,0.3-12.8,0.2-19.2,0.2c-6.4,0-12.8-0.1-19.2-0.2c-6.4-0.1-12.8-0.3-19.2-0.5
	c-6.4-0.2-12.8-0.4-19.2-0.7c-6.4-0.2-12.8-0.5-19.2-0.8c-6.4-0.3-12.8-0.6-19.2-0.9c-6.4-0.4-12.8-0.7-19.2-1.3
	c-6.4-0.6-12.8-1.6-19.1-3.1l1.1-0.8c-0.1,4.1-1.8,8.1-4.3,11.2c-2.5,3.2-5.7,5.7-9.3,7.5c-3.6,1.8-7.4,2.9-11.3,3.7
	c-3.9,0.7-7.8,1.1-11.7,1.5l-0.1-1.2c0.7,0,1.4,0.1,2.1,0.4c0.7,0.3,1.3,0.6,1.8,1.1c1,0.9,1.8,2.2,2.1,3.6c0.1,0.7,0.1,1.4,0,2.1
	c-0.2,0.7-0.5,1.4-1,1.9c-0.9,1.1-2.3,1.7-3.6,1.8c-1.3,0.1-2.8-0.1-3.9-1c-0.5-0.4-1-1-1.3-1.6c-0.3-0.6-0.4-1.3-0.3-2
	c0.1-1.3,0.8-2.6,1.7-3.5c0.5-0.4,1-0.8,1.7-1c0.6-0.2,1.3-0.3,1.9-0.1L183.5,56.9z"/>
<path class="st0" d="M407.8,13.3c0.7-0.8,1.5-1.5,2.3-2c0.9-0.5,1.9-0.8,3-0.7c1,0.1,2,0.8,2.4,1.7c0.6,1.3,0,2.8-0.7,4
	c-1.5,2.5-3.6,4.5-5.8,6.3c-1.4,1.1-2.8,2.1-4.2,3.1c-0.5,0.4-1.2,1.2-1.9,1.2c-0.6,0-0.9-0.6-0.9-1.2c0-1.4,0.5-3.1,1-4.4
	c0.5-1.4,1.1-2.8,1.8-4.1C405.7,15.9,406.7,14.6,407.8,13.3z"/>
<path class="st1" d="M45.5,88.2c5.1,4.5,11.5,7.5,18,9.1c6.6,1.7,13.4,2,20.2,1.7c6.8-0.4,13.5-1.4,20.2-2.6
	c6.7-1.2,13.4-2.6,20-4.3c13.3-3.2,26.5-7,40.2-8.5c6.8-0.7,13.8-0.9,20.6-0.1c6.8,0.8,13.6,2.5,19.8,5.4c-6.4-2.5-13.1-4-19.9-4.4
	c-6.8-0.5-13.6-0.2-20.3,0.7c-6.7,0.9-13.4,2.2-20.1,3.8c-6.6,1.6-13.2,3.4-19.9,5c-6.7,1.6-13.4,3-20.2,4.2
	c-6.8,1.1-13.6,2.1-20.5,2.3c-6.9,0.2-13.9-0.3-20.5-2.2C56.7,96.4,50.3,93.1,45.5,88.2z"/>
</svg>
