<?xml version="1.0" encoding="utf-8"?>
<!-- Generator: Adobe Illustrator 23.0.1, SVG Export Plug-In . SVG Version: 6.00 Build 0)  -->
<svg version="1.1" id="Layer_1" xmlns="http://www.w3.org/2000/svg" xmlns:xlink="http://www.w3.org/1999/xlink" x="0px" y="0px"
	 viewBox="0 0 804.2 804.2" style="enable-background:new 0 0 804.2 804.2;" xml:space="preserve">
<style type="text/css">
	.st0{fill:#5C4941;}
	.st1{fill:#D5F3C3;}
	.st2{opacity:0.3;}
	.st3{fill:#B2CEBA;}
	.st4{fill:#B98383;}
	.st5{fill:#C39595;}
	.st6{fill:#F7C04A;}
	.st7{fill:#91B99C;}
	.st8{fill:#A7C7B0;}
	.st9{fill:#BFD6C6;}
	.st10{fill:#DABDBD;}
	.st11{fill:#ADA4A0;}
	.st12{opacity:0.3;fill:#FFFFFF;}
	.st13{fill:#9B4E4E;}
	.st14{fill:#539165;}
	.st15{fill:#AF7070;}
	.st16{fill:#BD8A8A;}
	.st17{fill:#A05757;}
	.st18{fill:#933F3F;}
	.st19{fill:#A66161;}
	.st20{fill:#B0CCB8;}
	.st21{fill:#CEF0B9;}
	.st22{fill:#B67D7D;}
	.st23{fill:#A55F5F;}
	.st24{opacity:0.2;}
	.st25{fill:#B77F7F;}
	.st26{fill:#FFFFFF;}
	.st27{fill:#CCC7C4;}
	.st28{fill:#AA6868;}
</style>
<g>
	<g>
		<g>
			<g>
				<g>
					<path class="st19" d="M383.4,242l2.7,0c0,0,0.1-6.9,0.1-6.9l-2.7-0.1L383.4,242z"/>
				</g>
				<g>
					<polygon class="st19" points="383.5,252.4 386.2,252.3 386.1,245.4 383.4,245.4 					"/>
				</g>
				<g>
					<path class="st19" d="M384.3,262.8l2.7-0.3c0,0-0.2-1.7-0.3-3.4c-0.1-1.7-0.2-3.5-0.2-3.5l-2.7,0.2c0,0,0.1,1.8,0.2,3.5
						C384.1,261.1,384.3,262.8,384.3,262.8z"/>
				</g>
				<g>
					<path class="st19" d="M385.7,273.1l2.6-0.4c0,0-0.3-1.7-0.5-3.4c-0.3-1.7-0.4-3.4-0.4-3.4l-2.7,0.3c0,0,0.1,1.7,0.4,3.5
						C385.4,271.4,385.7,273.1,385.7,273.1z"/>
				</g>
				<g>
					<polygon class="st19" points="387.7,283.4 390.3,282.7 388.8,276 386.2,276.5 					"/>
				</g>
				<g>
					<path class="st19" d="M390.5,293.4l2.6-0.9c-0.1,0-1.9-6.6-1.9-6.6l-2.6,0.7C388.5,286.7,390.3,293.5,390.5,293.4z"/>
				</g>
				<g>
					<path class="st19" d="M394.2,303.2l2.5-1.1c0,0-0.7-1.6-1.4-3.1c-0.7-1.6-1.2-3.2-1.2-3.2l-2.5,0.9c0,0,0.6,1.7,1.2,3.3
						C393.5,301.6,394.2,303.2,394.2,303.2z"/>
				</g>
			</g>
			<g>
				<g>
					<polygon class="st19" points="399,312.5 401.3,311.1 398,305.1 395.6,306.4 					"/>
				</g>
				<g>
					<path class="st19" d="M404.9,321.2l2.1-1.7c-0.1,0.1-3.9-5.5-3.9-5.5l-2.3,1.5c0,0,1,1.5,2,2.9
						C403.7,319.9,404.9,321.2,404.9,321.2z"/>
				</g>
				<g>
					<path class="st19" d="M412,328.9l1.8-2c0,0-1.2-1.2-2.4-2.4c-1.3-1.1-2.3-2.5-2.3-2.5l-2,1.8c0,0,1,1.4,2.3,2.6
						C410.7,327.6,412,328.9,412,328.9z"/>
				</g>
				<g>
					<polygon class="st19" points="420.1,335.5 421.6,333.3 416.2,329.1 414.5,331.2 					"/>
				</g>
				<g>
					<path class="st19" d="M429.1,340.7l1.2-2.5c0,0-1.6-0.6-3-1.5c-1.5-0.9-2.9-1.7-2.9-1.7l-1.4,2.3c0,0,1.5,0.9,3,1.8
						C427.5,340.1,429.1,340.7,429.1,340.7z"/>
				</g>
				<g>
					<path class="st19" d="M438.7,344.7l0.8-2.6c0,0-1.6-0.5-3.2-1c-1.6-0.6-3.1-1.4-3.1-1.4l-1.1,2.5c0,0,1.6,0.8,3.2,1.4
						C437.1,344.1,438.7,344.7,438.7,344.7z"/>
				</g>
				<g>
					<path class="st19" d="M448.7,347.4l0.6-2.7c0,0-6.7-1.4-6.6-1.6l-0.7,2.6C441.9,345.9,448.7,347.4,448.7,347.4z"/>
				</g>
			</g>
			<g>
				<g>
					<polygon class="st19" points="458.8,349.6 459.2,346.9 452.6,345.4 452,348.1 					"/>
				</g>
				<g>
					<polygon class="st19" points="469,350.8 469.3,348.1 462.5,347.4 462.1,350.1 					"/>
				</g>
				<g>
					<path class="st19" d="M479.3,351.5l0.1-2.7c0,0-1.7,0-3.4,0c-1.7,0-3.4-0.3-3.4-0.3l-0.2,2.7c0,0,1.7,0.3,3.4,0.3
						C477.5,351.5,479.3,351.5,479.3,351.5z"/>
				</g>
				<g>
					<path class="st19" d="M489.6,351.3l-0.2-2.7c0,0-0.4,0.1-1,0.1c-0.6,0-1.5,0-2.3,0c-1.7,0-3.4,0-3.4,0l0,2.7
						C482.7,351.5,489.6,351.6,489.6,351.3z"/>
				</g>
				<g>
					<polygon class="st19" points="499.9,350 499.4,347.4 492.7,348.2 493,350.9 					"/>
				</g>
				<g>
					<polygon class="st19" points="510,347.8 509.3,345.1 502.7,346.7 503.2,349.4 					"/>
				</g>
				<g>
					<polygon class="st19" points="519.8,344.7 518.9,342.1 512.5,344.3 513.2,346.9 					"/>
				</g>
			</g>
			<g>
				<g>
					<polygon class="st19" points="529.4,340.9 528.3,338.4 522.1,341 523,343.6 					"/>
				</g>
				<g>
					<polygon class="st19" points="538.8,336.7 537.6,334.2 531.4,337.1 532.5,339.6 					"/>
				</g>
				<g>
					<polygon class="st19" points="548,332.2 546.8,329.7 540.6,332.8 541.8,335.2 					"/>
				</g>
				<g>
					<polygon class="st19" points="557.2,327.8 556.1,325.3 549.8,328.2 551,330.7 					"/>
				</g>
				<g>
					<path class="st19" d="M566.5,323.7l-1-2.5c0,0-1.6,0.7-3.2,1.3c-1.6,0.6-3.1,1.4-3.1,1.4l1.1,2.5c0,0,1.5-0.8,3.1-1.4
						C564.9,324.3,566.5,323.7,566.5,323.7z"/>
				</g>
				<g>
					<path class="st19" d="M575.9,320.1l-0.8-2.6c0,0-1.6,0.5-3.3,1.1c-1.6,0.5-3.2,1.3-3.2,1.3l1,2.5c0,0,1.6-0.7,3.2-1.2
						C574.3,320.6,575.9,320.1,575.9,320.1z"/>
				</g>
				<g>
					<path class="st19" d="M585.6,317.3l-0.6-2.7c0,0-1.7,0.4-3.4,0.7c-1.6,0.5-3.3,1.1-3.3,1.1l0.8,2.6c0,0,1.6-0.5,3.2-1
						C584,317.7,585.6,317.3,585.6,317.3z"/>
				</g>
			</g>
			<g>
				<g>
					<path class="st19" d="M595.5,315.4l-0.4-2.7c0,0-0.4,0-1.1,0.1c-0.7,0.1-1.5,0.1-2.4,0.4c-1.7,0.4-3.4,0.7-3.4,0.7l0.5,2.7
						c0,0,1.7-0.4,3.3-0.7c0.8-0.2,1.7-0.3,2.3-0.4C595.1,315.5,595.5,315.4,595.5,315.4z"/>
				</g>
				<g>
					<path class="st19" d="M605.5,314.5l-0.1-2.7c0,0-1.7,0.1-3.5,0.3c-1.7,0.2-3.5,0.3-3.5,0.3l0.3,2.7c0,0,1.7-0.2,3.4-0.3
						C603.9,314.6,605.5,314.5,605.5,314.5z"/>
				</g>
				<g>
					<polygon class="st19" points="615.6,314.8 615.8,312.1 608.9,311.9 608.9,314.6 					"/>
				</g>
				<g>
					<polygon class="st19" points="625.6,315.9 626,313.3 619.2,312.3 618.9,315 					"/>
				</g>
				<g>
					<polygon class="st19" points="635.8,317.4 636.1,314.7 629.4,313.7 628.9,316.4 					"/>
				</g>
				<g>
					<path class="st19" d="M646.3,317.6l-0.5-2.7c0,0-0.4,0.1-1,0.1c-0.6,0.1-1.4,0.1-2.3,0.1c-1.6,0-3.3,0-3.3,0l-0.1,2.7
						c0,0,1.8,0,3.6,0.1c0.9,0,1.8,0,2.4-0.1C645.9,317.7,646.3,317.6,646.3,317.6z"/>
				</g>
				<g>
					<path class="st19" d="M656.5,314.8l-1.2-2.5c0,0-0.4,0.2-0.9,0.4c-0.6,0.2-1.3,0.6-2.1,0.8c-1.6,0.4-3.2,0.9-3.2,0.9l0.7,2.7
						c0,0,1.7-0.5,3.4-1c0.9-0.2,1.7-0.6,2.3-0.9C656.1,315,656.5,314.8,656.5,314.8z"/>
				</g>
			</g>
			<g>
				<g>
					<path class="st19" d="M665.2,308.9l-1.8-2.1c0,0-1.3,1.1-2.5,2.2c-1.4,0.9-2.8,1.8-2.8,1.8l1.4,2.4c0,0,1.5-1,3-2
						C663.9,310.1,665.2,308.9,665.2,308.9z"/>
				</g>
				<g>
					<path class="st19" d="M671.7,300.4l-2.3-1.5c0.1,0.1-3.6,5.6-3.8,5.5l2,1.9C667.8,306.4,671.8,300.5,671.7,300.4z"/>
				</g>
				<g>
					<path class="st19" d="M675.7,290.5l-2.6-0.8c0.2,0.1-2.1,6.3-2.3,6.3l2.4,1.3C673.4,297.4,675.9,290.6,675.7,290.5z"/>
				</g>
				<g>
					<path class="st19" d="M677.6,280.1l-2.7-0.2c0.2,0-0.9,6.7-0.9,6.7l2.6,0.6c0,0,0.3-1.8,0.6-3.5
						C677.6,281.9,677.6,280.1,677.6,280.1z"/>
				</g>
				<g>
					<path class="st19" d="M677.7,269.6l-2.7,0.2c0,0,0.2,1.7,0.2,3.4c0,1.7,0,3.4,0,3.4l2.7,0.1c0,0,0-1.8,0-3.6
						C677.9,271.3,677.7,269.6,677.7,269.6z"/>
				</g>
				<g>
					<path class="st19" d="M676,259.1l-2.6,0.7c0,0,0.5,1.6,0.7,3.3c0.3,1.7,0.6,3.4,0.6,3.4l2.7-0.4c0,0-0.3-1.7-0.6-3.5
						C676.5,260.8,676,259.1,676,259.1z"/>
				</g>
				<g>
					<path class="st19" d="M672.6,249.1l-2.5,1.1c0,0,0.8,1.5,1.3,3.1c0.5,1.6,1.1,3.2,1.1,3.2l2.6-0.8c0,0-0.6-1.7-1.1-3.4
						C673.3,250.7,672.6,249.1,672.6,249.1z"/>
				</g>
			</g>
			<g>
				<g>
					<path class="st19" d="M667.4,239.9l-2.2,1.6c0,0,1,1.3,1.8,2.8c0.8,1.5,1.7,3,1.7,3l2.4-1.3c0,0-0.9-1.6-1.7-3.1
						C668.5,241.3,667.4,239.9,667.4,239.9z"/>
				</g>
				<g>
					<path class="st19" d="M660.5,231.9l-1.8,2c0,0,1.3,1.1,2.4,2.3c1.1,1.3,2.2,2.5,2.2,2.5l2.1-1.7c0,0-1.1-1.4-2.3-2.7
						C661.8,233.1,660.5,231.9,660.5,231.9z"/>
				</g>
				<g>
					<path class="st19" d="M651.9,225.8l-1.3,2.4c0,0,1.5,0.8,2.9,1.7c1.3,1,2.7,2,2.7,2l1.6-2.2c0,0-1.4-1-2.9-2.1
						C653.5,226.6,651.9,225.8,651.9,225.8z"/>
				</g>
				<g>
					<path class="st19" d="M642.1,221.9l-0.7,2.6c0,0,1.6,0.3,3.2,0.9c1.5,0.6,3.1,1.2,3.1,1.2l1.1-2.5c0,0-1.7-0.7-3.3-1.3
						C643.8,222.3,642.1,221.9,642.1,221.9z"/>
				</g>
				<g>
					<path class="st19" d="M631.7,220.5l-0.1,2.7c0-0.2,6.6,0.6,6.6,0.6l0.5-2.7C638.7,221.2,631.7,220.2,631.7,220.5z"/>
				</g>
				<g>
					<path class="st19" d="M621.3,221.2l0.4,2.7c0,0,1.7-0.2,3.3-0.4c0.8-0.1,1.7-0.2,2.3-0.3c0.6,0,1,0,1,0l-0.1-2.7
						C628.3,220.3,621.3,221.2,621.3,221.2z"/>
				</g>
				<g>
					<polygon class="st19" points="611.2,223.4 611.9,226 618.5,224.5 617.9,221.8 					"/>
				</g>
			</g>
			<g>
				<g>
					<path class="st19" d="M601.3,225.5l0.4,2.7c0,0,1.7-0.3,3.4-0.6c1.7-0.4,3.4-0.8,3.4-0.8l-0.6-2.7c0,0-1.6,0.4-3.3,0.8
						C603,225.2,601.3,225.5,601.3,225.5z"/>
				</g>
				<g>
					<path class="st19" d="M591.3,226.7l0.2,2.7c0,0,6.9-0.5,6.9-0.7l-0.3-2.7C598.1,226.2,591.3,226.7,591.3,226.7z"/>
				</g>
				<g>
					<polygon class="st19" points="581.3,226.7 581.1,229.5 588.1,229.6 588,226.8 					"/>
				</g>
				<g>
					<path class="st19" d="M571.4,225.3l-0.6,2.7c0,0,1.7,0.4,3.4,0.7c1.7,0.2,3.5,0.4,3.5,0.4l0.3-2.7c0,0-1.7-0.2-3.3-0.4
						C573.1,225.6,571.4,225.3,571.4,225.3z"/>
				</g>
				<g>
					<path class="st19" d="M561.9,222.3l-1,2.5c-0.1,0.2,6.6,2.3,6.6,2.3l0.7-2.6C568.2,224.5,561.8,222.6,561.9,222.3z"/>
				</g>
				<g>
					<path class="st19" d="M553,217.8l-1.4,2.3c0,0,6.1,3.6,6.2,3.4l1.2-2.5C558.8,221.2,553,217.8,553,217.8z"/>
				</g>
				<g>
					<path class="st19" d="M545.1,211.7l-1.8,2c0,0,1.3,1.2,2.6,2.4c1.4,1,2.8,2.1,2.8,2.1l1.6-2.2c0,0-1.4-1-2.7-2
						C546.4,212.8,545.1,211.7,545.1,211.7z"/>
				</g>
			</g>
		</g>
		<g>
			<g>
				<g>
					<polygon class="st0" points="381.9,407.8 380.2,405.5 386,401 387.8,403.3 					"/>
				</g>
				<g>
					<polygon class="st0" points="372.9,414.2 371.3,411.8 377.3,407.6 379,410 					"/>
				</g>
				<g>
					<polygon class="st0" points="363.8,420.4 362.2,417.9 368.3,413.9 369.9,416.3 					"/>
				</g>
				<g>
					<polygon class="st0" points="354.4,426.2 352.9,423.7 359.2,419.9 360.7,422.3 					"/>
				</g>
				<g>
					<path class="st0" d="M344.9,431.8l-1.4-2.6c0,0,1.6-0.9,3.2-1.8c1.6-0.9,3.2-1.9,3.2-1.9l1.4,2.5c0,0-1.6,0.9-3.2,1.9
						C346.5,430.9,344.9,431.8,344.9,431.8z"/>
				</g>
				<g>
					<polygon class="st0" points="335.1,437 333.8,434.4 340.3,431 341.7,433.5 					"/>
				</g>
				<g>
					<path class="st0" d="M325.2,441.9l-1.2-2.7c0,0,1.7-0.8,3.3-1.6c1.6-0.8,3.3-1.6,3.3-1.6l1.3,2.6c0,0-1.7,0.8-3.3,1.6
						C326.9,441.1,325.2,441.9,325.2,441.9z"/>
				</g>
			</g>
			<g>
				<g>
					<polygon class="st0" points="315.2,446.3 314.1,443.6 320.8,440.7 322,443.4 					"/>
				</g>
				<g>
					<polygon class="st0" points="304.9,450.4 303.9,447.6 310.7,445 311.8,447.7 					"/>
				</g>
				<g>
					<path class="st0" d="M294.4,453.9l-0.8-2.8c0,0,1.8-0.5,3.5-1.1c1.7-0.6,3.5-1.2,3.5-1.2l0.9,2.8c0,0-1.8,0.6-3.5,1.2
						C296.2,453.4,294.4,453.9,294.4,453.9z"/>
				</g>
				<g>
					<path class="st0" d="M283.7,456.7l-0.6-2.9c0,0,1.8-0.4,3.5-0.8c1.8-0.4,3.5-1,3.5-1l0.8,2.8c0,0-1.8,0.6-3.6,1
						C285.5,456.3,283.7,456.7,283.7,456.7z"/>
				</g>
				<g>
					<polygon class="st0" points="272.9,458.9 272.5,456 279.6,454.7 280.2,457.6 					"/>
				</g>
				<g>
					<path class="st0" d="M261.9,460.1l-0.2-2.9c0,0.2,7.2-0.7,7.2-0.7l0.4,2.9C269.3,459.4,261.9,460.3,261.9,460.1z"/>
				</g>
				<g>
					<path class="st0" d="M250.8,460.3l0.1-2.9c0,0,1.8,0,3.6,0.1c1.8,0,3.6-0.1,3.6-0.1l0.1,2.9c0,0-1.9,0.1-3.7,0.1
						C252.7,460.4,250.8,460.3,250.8,460.3z"/>
				</g>
			</g>
			<g>
				<g>
					<polygon class="st0" points="239.7,459.4 240.2,456.5 247.4,457.3 247.2,460.2 					"/>
				</g>
				<g>
					<path class="st0" d="M228.9,456.9l0.8-2.8c-0.1,0.2,7,1.7,7,1.7l-0.5,2.9c0,0-1.8-0.4-3.7-0.8
						C230.6,457.6,228.9,456.9,228.9,456.9z"/>
				</g>
				<g>
					<path class="st0" d="M218.4,452.9l1.2-2.7c0,0,1.7,0.7,3.3,1.5c1.6,0.8,3.4,1.3,3.4,1.3l-0.9,2.8c0,0-1.8-0.4-3.5-1.3
						C220.1,453.7,218.4,452.9,218.4,452.9z"/>
				</g>
				<g>
					<polygon class="st0" points="208.6,447.5 210.2,445.1 216.4,448.7 215.1,451.3 					"/>
				</g>
				<g>
					<path class="st0" d="M199.8,440.6l1.9-2.2c0,0,1.2,1.4,2.7,2.4c1.4,1.1,2.9,2.2,2.9,2.2l-1.7,2.4c0,0-1.5-1.1-3-2.3
						C201.1,442,199.8,440.6,199.8,440.6z"/>
				</g>
				<g>
					<path class="st0" d="M192.1,432.5l2.2-1.9c0,0,1.2,1.4,2.3,2.8c1.2,1.3,2.6,2.6,2.6,2.6l-2,2.1c0,0-1.4-1.3-2.7-2.7
						C193.3,433.9,192.1,432.5,192.1,432.5z"/>
				</g>
				<g>
					<path class="st0" d="M185.4,423.5l2.4-1.7c0,0,4.1,6.1,4.3,6l-2.3,1.8C189.5,429.8,185.4,423.5,185.4,423.5z"/>
				</g>
			</g>
			<g>
				<g>
					<polygon class="st0" points="179.1,414.3 181.6,412.8 185.7,418.9 183.3,420.5 					"/>
				</g>
				<g>
					<polygon class="st0" points="173.7,404.6 176.3,403.2 179.7,409.7 177.3,411.2 					"/>
				</g>
				<g>
					<path class="st0" d="M168.9,394.5l2.6-1.2c0,0,0.7,1.7,1.4,3.4c0.7,1.7,1.6,3.3,1.6,3.3l-2.6,1.3c0,0-1-1.6-1.7-3.3
						C169.6,396.2,168.9,394.5,168.9,394.5z"/>
				</g>
				<g>
					<path class="st0" d="M164.9,384l2.7-0.9c0,0,0.1,0.4,0.3,1.1c0.3,0.6,0.6,1.5,0.9,2.3c0.7,1.7,1.4,3.4,1.4,3.4l-2.7,1.1
						C167.5,391.1,164.6,384.1,164.9,384z"/>
				</g>
				<g>
					<polygon class="st0" points="161.9,373.2 164.7,372.6 166.7,379.7 163.9,380.5 					"/>
				</g>
				<g>
					<polygon class="st0" points="160,362.2 162.9,361.8 164.1,369 161.2,369.6 					"/>
				</g>
				<g>
					<polygon class="st0" points="159.1,351 161.9,350.8 162.4,358.2 159.5,358.5 					"/>
				</g>
			</g>
			<g>
				<g>
					<polygon class="st0" points="158.9,339.8 161.7,339.8 161.7,347.2 158.8,347.3 					"/>
				</g>
				<g>
					<polygon class="st0" points="159.2,328.7 162.1,328.8 161.8,336.2 158.9,336.1 					"/>
				</g>
				<g>
					<polygon class="st0" points="159.8,317.6 162.7,317.8 162.2,325.2 159.4,325 					"/>
				</g>
				<g>
					<polygon class="st0" points="160.4,306.5 163.3,306.6 162.9,314.1 160,313.9 					"/>
				</g>
				<g>
					<path class="st0" d="M160.7,295.5h2.9c0,0,0,1.9,0,3.8c0,1.9-0.1,3.7-0.1,3.7l-2.9-0.1c0,0,0.1-1.9,0.1-3.7
						C160.7,297.4,160.7,295.5,160.7,295.5z"/>
				</g>
				<g>
					<path class="st0" d="M160.3,284.5l2.9-0.2c0,0,0.2,1.9,0.3,3.8c0.1,1.9,0.1,3.7,0.1,3.7l-2.9,0.1c0,0,0.1-1.8-0.1-3.7
						C160.4,286.4,160.3,284.5,160.3,284.5z"/>
				</g>
				<g>
					<path class="st0" d="M159.1,273.7l2.9-0.5c0,0,0.3,1.8,0.7,3.7c0.1,1.9,0.3,3.8,0.3,3.8l-2.9,0.3c0,0-0.2-1.8-0.3-3.7
						C159.4,275.5,159.1,273.7,159.1,273.7z"/>
				</g>
			</g>
			<g>
				<g>
					<path class="st0" d="M156.9,262.9l2.8-0.7c0,0,0.1,0.5,0.3,1.1c0.2,0.7,0.5,1.6,0.6,2.5c0.3,1.9,0.7,3.7,0.7,3.7l-2.8,0.6
						c0,0-0.3-1.8-0.7-3.6c-0.1-0.9-0.4-1.8-0.6-2.5C157,263.4,156.9,262.9,156.9,262.9z"/>
				</g>
				<g>
					<path class="st0" d="M153.7,252.5l2.7-1c0,0,0.6,1.8,1.1,3.6c0.5,1.8,1.1,3.6,1.1,3.6l-2.8,0.8c0,0-0.5-1.8-1.1-3.5
						C154.3,254.2,153.7,252.5,153.7,252.5z"/>
				</g>
				<g>
					<polygon class="st0" points="149.3,242.5 151.9,241.2 154.9,248.1 152.2,249.2 					"/>
				</g>
				<g>
					<polygon class="st0" points="144.1,232.9 146.6,231.4 150.4,237.9 147.8,239.2 					"/>
				</g>
				<g>
					<polygon class="st0" points="138.5,223.3 141.1,221.9 144.7,228.2 142.3,229.8 					"/>
				</g>
				<g>
					<path class="st0" d="M134,212.7l2.8-0.6c0,0,0.1,0.4,0.3,1.1c0.1,0.7,0.4,1.5,0.8,2.3c0.7,1.7,1.4,3.3,1.4,3.3l-2.6,1.2
						c0,0-0.8-1.8-1.5-3.6c-0.4-0.9-0.7-1.8-0.9-2.5C134.2,213.2,134,212.7,134,212.7z"/>
				</g>
				<g>
					<path class="st0" d="M132.6,201.4l2.9,0.2c0,0,0,0.5,0,1.1c0,0.7-0.1,1.6,0.1,2.5c0.2,1.8,0.4,3.6,0.4,3.6l-2.9,0.4
						c0,0-0.2-1.9-0.5-3.8c-0.2-1-0.1-1.9-0.1-2.7C132.6,201.9,132.6,201.4,132.6,201.4z"/>
				</g>
			</g>
			<g>
				<g>
					<path class="st0" d="M134.9,190.2l2.8,1c0,0-0.6,1.7-1.1,3.4c-0.3,1.8-0.7,3.5-0.7,3.5l-2.9-0.4c0,0,0.4-1.9,0.7-3.8
						C134.3,192,134.9,190.2,134.9,190.2z"/>
				</g>
				<g>
					<path class="st0" d="M140.5,180.3l2.4,1.7c-0.1-0.1-4,5.9-3.8,6l-2.6-1.2C136.2,186.6,140.4,180.1,140.5,180.3z"/>
				</g>
				<g>
					<path class="st0" d="M148.6,172.2l1.8,2.3c-0.1-0.1-5.3,4.7-5.2,4.8l-2.2-1.9C142.8,177.3,148.5,172,148.6,172.2z"/>
				</g>
				<g>
					<path class="st0" d="M158,166l1.3,2.6c-0.1-0.1-6.2,3.7-6.2,3.7l-1.6-2.4c0,0,1.6-1,3.2-2C156.3,166.8,158,166,158,166z"/>
				</g>
				<g>
					<path class="st0" d="M168.4,161.7l0.9,2.8c0,0-1.7,0.5-3.4,1.2c-1.7,0.7-3.3,1.4-3.3,1.4l-1.2-2.7c0,0,1.7-0.7,3.5-1.4
						C166.5,162.2,168.4,161.7,168.4,161.7z"/>
				</g>
				<g>
					<path class="st0" d="M179.3,159.2l0.4,2.9c0,0-1.8,0.2-3.5,0.6c-1.8,0.4-3.5,0.8-3.5,0.8l-0.7-2.8c0,0,1.8-0.4,3.7-0.9
						C177.4,159.4,179.3,159.2,179.3,159.2z"/>
				</g>
				<g>
					<path class="st0" d="M190.4,158.5l-0.1,2.9c0,0-1.8-0.1-3.6,0c-1.8,0.1-3.6,0.2-3.6,0.2l-0.2-2.9c0,0,1.9-0.1,3.7-0.2
						C188.5,158.4,190.4,158.5,190.4,158.5z"/>
				</g>
			</g>
			<g>
				<g>
					<path class="st0" d="M201.5,160l-0.6,2.9c0,0-1.7-0.5-3.5-0.7c-1.8-0.2-3.6-0.5-3.6-0.5l0.3-2.9c0,0,1.9,0.2,3.7,0.5
						C199.7,159.5,201.5,160,201.5,160z"/>
				</g>
				<g>
					<path class="st0" d="M212.2,163.7l-1.3,2.6c0,0-1.6-0.8-3.3-1.5c-1.7-0.6-3.4-1.2-3.4-1.2l0.8-2.8c0,0,1.8,0.6,3.6,1.2
						C210.5,162.8,212.2,163.7,212.2,163.7z"/>
				</g>
				<g>
					<path class="st0" d="M221.7,169.8l-1.8,2.3c0,0-1.3-1.2-2.8-2.2c-1.5-1-3-1.9-3-1.9l1.4-2.5c0,0,1.6,1,3.2,2
						C220.2,168.5,221.7,169.8,221.7,169.8z"/>
				</g>
				<g>
					<path class="st0" d="M229.4,178.1l-2.3,1.7c0,0-1-1.5-2.2-2.8c-1.2-1.3-2.5-2.6-2.5-2.6l2-2.1c0,0,1.3,1.4,2.6,2.8
						C228.4,176.5,229.4,178.1,229.4,178.1z"/>
				</g>
				<g>
					<path class="st0" d="M235.1,187.9l-2.6,1.2c0.2-0.1-3.3-6.4-3.3-6.4l2.4-1.6C231.6,181.1,235.3,187.8,235.1,187.9z"/>
				</g>
				<g>
					<path class="st0" d="M238.7,198.7l-2.8,0.7c0,0-0.5-1.7-1-3.5c-0.2-0.9-0.5-1.8-0.7-2.4c-0.3-0.6-0.4-1-0.4-1l2.7-1
						C236.7,191.3,238.7,198.7,238.7,198.7z"/>
				</g>
				<g>
					<polygon class="st0" points="240.6,209.7 237.7,210.1 236.6,202.9 239.4,202.3 					"/>
				</g>
			</g>
			<g>
				<g>
					<path class="st0" d="M242.6,220.5l-2.8,0.7c0,0-0.4-1.8-0.9-3.7c-0.3-1.9-0.6-3.7-0.6-3.7l2.8-0.5c0,0,0.3,1.8,0.6,3.6
						C242.2,218.7,242.6,220.5,242.6,220.5z"/>
				</g>
				<g>
					<path class="st0" d="M245.5,231l-2.7,0.9c0,0-2.3-7.2-2.2-7.2l2.8-0.8C243.2,224,245.5,231,245.5,231z"/>
				</g>
				<g>
					<polygon class="st0" points="249.5,241.1 246.9,242.4 244,235.5 246.7,234.4 					"/>
				</g>
				<g>
					<path class="st0" d="M255,250.5l-2.4,1.7c0,0-1.1-1.6-2.1-3.1c-0.9-1.7-1.8-3.3-1.8-3.3l2.5-1.4c0,0,0.9,1.6,1.7,3.2
						C254,249,255,250.5,255,250.5z"/>
				</g>
				<g>
					<path class="st0" d="M261.7,258.9l-2.1,2c-0.2,0.2-4.9-5.7-4.9-5.7l2.3-1.8C257,253.4,261.5,259,261.7,258.9z"/>
				</g>
				<g>
					<path class="st0" d="M269.8,265.9l-1.7,2.4c0,0-6-4.6-5.8-4.8l1.9-2.2C264.1,261.5,269.8,265.9,269.8,265.9z"/>
				</g>
				<g>
					<path class="st0" d="M279,271.4l-1.2,2.6c0,0-1.7-0.9-3.4-1.7c-1.6-1-3.2-2-3.2-2l1.5-2.5c0,0,1.5,1,3.1,1.9
						C277.4,270.6,279,271.4,279,271.4z"/>
				</g>
			</g>
			<g>
				<g>
					<path class="st0" d="M289,275.2l-0.8,2.8c0,0-1.8-0.4-3.6-1.1c-1.7-0.7-3.5-1.4-3.5-1.4l1.1-2.7c0,0,1.7,0.6,3.4,1.3
						C287.2,274.8,289,275.2,289,275.2z"/>
				</g>
				<g>
					<path class="st0" d="M299.5,277.6l-0.4,2.9c0,0.2-7.3-1.4-7.3-1.4l0.7-2.8C292.4,276.2,299.4,277.8,299.5,277.6z"/>
				</g>
				<g>
					<path class="st0" d="M310.2,278.6l-0.1,2.9c0,0-1.9-0.1-3.7-0.2c-1.9-0.1-3.7-0.3-3.7-0.3l0.3-2.9
						C303,278.2,310.2,278.6,310.2,278.6z"/>
				</g>
				<g>
					<path class="st0" d="M321,278.4l0.2,2.9c0,0-1.8,0.1-3.7,0.2c-1.9,0-3.7,0-3.7,0l0-2.9c0,0,1.8,0,3.6,0
						C319.2,278.5,321,278.4,321,278.4z"/>
				</g>
				<g>
					<path class="st0" d="M331.8,277.3l0.4,2.9c0,0-1.8,0.3-3.7,0.5c-1.8,0.2-3.7,0.4-3.7,0.4l-0.3-2.9c0,0,1.8-0.2,3.6-0.4
						C330,277.6,331.8,277.3,331.8,277.3z"/>
				</g>
				<g>
					<path class="st0" d="M342.4,275.3l0.6,2.9c0,0-1.8,0.4-3.6,0.8c-1.8,0.4-3.6,0.7-3.6,0.7l-0.5-2.9c0,0,1.8-0.3,3.6-0.7
						C340.6,275.7,342.4,275.3,342.4,275.3z"/>
				</g>
				<g>
					<path class="st0" d="M352.9,272.5l0.8,2.8c0,0-1.8,0.5-3.6,1c-1.8,0.5-3.6,1-3.6,1l-0.7-2.8c0,0,1.8-0.4,3.5-0.9
						C351.1,273,352.9,272.5,352.9,272.5z"/>
				</g>
			</g>
			<g>
				<g>
					<path class="st0" d="M363.2,268.9l1,2.7c0,0-1.7,0.6-3.5,1.3c-1.7,0.7-3.5,1.2-3.5,1.2l-0.9-2.8c0,0,1.7-0.5,3.4-1.2
						C361.4,269.6,363.2,268.9,363.2,268.9z"/>
				</g>
				<g>
					<path class="st0" d="M373.2,264.7l1.2,2.7c0,0-1.7,0.8-3.4,1.5c-1.7,0.7-3.4,1.4-3.4,1.4l-1.1-2.7c0,0,1.7-0.7,3.4-1.4
						C371.5,265.4,373.2,264.7,373.2,264.7z"/>
				</g>
				<g>
					<path class="st0" d="M382.7,259.7l1.5,2.5c0,0-1.6,0.9-3.3,1.8c-1.6,0.9-3.3,1.7-3.3,1.7l-1.3-2.6c0,0,1.6-0.8,3.2-1.7
						C381.2,260.5,382.7,259.7,382.7,259.7z"/>
				</g>
				<g>
					<path class="st0" d="M392,253.4l1.2,2.7l-0.8,0.6c-1.6,1.3-3.3,2.4-5,3.6l-1.5-2.5c1.8-1.2,3.6-2.4,5.3-3.8L392,253.4z"/>
				</g>
				<g>
					<path class="st0" d="M403,251l0.4,2.9c0,0-1.8,0.2-3.5,0.6c-1.7,0.3-3.5,0.7-3.5,0.7l-0.9-2.8c0,0,1.8-0.5,3.7-0.8
						C401.2,251.3,403.1,251,403,251z"/>
				</g>
				<g>
					<path class="st0" d="M414.2,250.3l0,2.9c0-0.1-7.2,0.3-7.2,0.3l-0.3-2.9C406.7,250.6,414.2,250.1,414.2,250.3z"/>
				</g>
				<g>
					<path class="st0" d="M425.3,250.9l-0.4,2.9c0,0-7.2-0.8-7.2-0.6l0.1-2.9C417.8,250.1,425.3,250.9,425.3,250.9z"/>
				</g>
			</g>
			<g>
				<g>
					<path class="st0" d="M436.2,253.2l-0.8,2.8c0,0-1.7-0.6-3.5-0.9c-1.8-0.3-3.5-0.7-3.5-0.7l0.5-2.9c0,0,1.8,0.4,3.7,0.7
						C434.4,252.6,436.2,253.2,436.2,253.2z"/>
				</g>
				<g>
					<path class="st0" d="M446.7,257l-1.2,2.7c0,0-6.6-2.9-6.7-2.7l0.9-2.8C439.8,254,446.7,257,446.7,257z"/>
				</g>
				<g>
					<polygon class="st0" points="456.6,262.4 455,264.8 448.7,261.2 450,258.6 					"/>
				</g>
				<g>
					<path class="st0" d="M465.4,269.3l-1.9,2.2c0.2-0.2-5.7-4.5-5.7-4.5l1.7-2.4C459.5,264.6,465.6,269,465.4,269.3z"/>
				</g>
				<g>
					<path class="st0" d="M473.2,277.3l-2.2,1.9c0,0-0.3-0.4-0.7-0.9c-0.4-0.6-1-1.3-1.7-1.9c-1.3-1.3-2.6-2.5-2.6-2.5l2-2.1
						c0,0,1.4,1.3,2.7,2.6c0.7,0.6,1.3,1.4,1.7,1.9C472.9,277,473.2,277.3,473.2,277.3z"/>
				</g>
				<g>
					<path class="st0" d="M479.9,286.3l-2.4,1.6c0,0-0.2-0.4-0.6-1c-0.3-0.6-0.8-1.4-1.4-2.1c-1.1-1.4-2.3-2.9-2.3-2.9l2.3-1.8
						c0,0,1.2,1.5,2.3,3c0.6,0.7,1.1,1.5,1.5,2.1C479.7,285.9,479.9,286.3,479.9,286.3z"/>
				</g>
				<g>
					<path class="st0" d="M485.7,295.9l-2.5,1.4c0.1-0.1-3.8-6.3-3.8-6.3l2.5-1.5C481.8,289.4,485.9,295.8,485.7,295.9z"/>
				</g>
			</g>
			<g>
				<g>
					<polygon class="st0" points="490.8,305.8 488.2,307.1 484.8,300.5 487.4,299.1 					"/>
				</g>
				<g>
					<polygon class="st0" points="495.4,315.9 492.7,317.1 489.7,310.3 492.3,309.1 					"/>
				</g>
				<g>
					<path class="st0" d="M499.5,326.3l-2.7,1c0,0-0.6-1.7-1.3-3.4c-0.7-1.7-1.4-3.4-1.4-3.4l2.7-1.1c0,0,0.7,1.7,1.4,3.5
						C498.9,324.5,499.5,326.3,499.5,326.3z"/>
				</g>
				<g>
					<path class="st0" d="M503.1,336.8l-2.8,0.9c0,0-0.5-1.8-1.1-3.5c-0.6-1.7-1.2-3.5-1.2-3.5l2.7-1c0,0,0.6,1.8,1.3,3.5
						C502.5,335,503.1,336.8,503.1,336.8z"/>
				</g>
				<g>
					<path class="st0" d="M506,347.4l-2.7,1.1c0,0-0.5-1.9-1-3.7c-0.5-1.8-1-3.6-1-3.6l2.8-0.8c0,0,0.5,1.8,1,3.6
						C505.6,345.7,506,347.4,506,347.4z"/>
				</g>
				<g>
					<polygon class="st0" points="508.3,357.8 505.9,359.7 504.2,352.2 506.8,350.8 					"/>
				</g>
				<g>
					<path class="st0" d="M511.3,368l-2.1,2.5c0,0-0.2-0.4-0.6-1c-0.3-0.6-0.6-1.6-0.9-2.4c-0.6-1.8-1-3.7-1-3.7l2.4-2.1
						c0,0,0.4,1.7,0.9,3.5c0.3,0.8,0.5,1.7,0.8,2.3C511.1,367.6,511.3,368,511.3,368z"/>
				</g>
			</g>
		</g>
		<g>
			<rect x="226.8" y="195" class="st1" width="363.4" height="441.6"/>
			<rect x="275" y="241" class="st20" width="265.1" height="349.6"/>
			<polygon class="st20" points="540.1,590.5 275,590.5 540.1,241 540.1,241 			"/>
			<path class="st21" d="M270.9,219.1c0,7.4-5.9,13.4-13.2,13.4c-7.3,0-13.2-6-13.2-13.4c0-7.4,5.9-13.4,13.2-13.4
				C264.9,205.8,270.9,211.8,270.9,219.1z"/>
			<g>
				<path class="st6" d="M273.6,222.4c0,7.3-5.8,13.2-13,13.2c-7.2,0-13-5.9-13-13.2s5.8-13.2,13-13.2
					C267.8,209.3,273.6,215.2,273.6,222.4z"/>
				<path class="st0" d="M263,214.2c0.9,2.2-0.9,4.9-3.8,6.1c-3,1.2-6.1,0.4-6.9-1.7c-0.9-2.2,0.9-4.9,3.8-6.1
					C259.1,211.3,262.2,212,263,214.2z"/>
			</g>
			<path class="st21" d="M343.1,219.1c0,7.4-5.9,13.4-13.2,13.4c-7.3,0-13.2-6-13.2-13.4c0-7.4,5.9-13.4,13.2-13.4
				C337.2,205.8,343.1,211.8,343.1,219.1z"/>
			<path class="st21" d="M421,219.1c0,7.4-5.9,13.4-13.2,13.4c-7.3,0-13.2-6-13.2-13.4c0-7.4,5.9-13.4,13.2-13.4
				C415.1,205.8,421,211.8,421,219.1z"/>
			<path class="st21" d="M495.9,219.1c0,7.4-5.9,13.4-13.2,13.4c-7.3,0-13.2-6-13.2-13.4c0-7.4,5.9-13.4,13.2-13.4
				C490,205.8,495.9,211.8,495.9,219.1z"/>
			<path class="st21" d="M351.8,612.9c0,7.4-5.9,13.4-13.2,13.4c-7.3,0-13.2-6-13.2-13.4c0-7.4,5.9-13.4,13.2-13.4
				C345.9,599.5,351.8,605.5,351.8,612.9z"/>
			<path class="st21" d="M265.2,611.5c0,7.4-5.9,13.4-13.2,13.4c-7.3,0-13.2-6-13.2-13.4c0-7.4,5.9-13.4,13.2-13.4
				C259.3,598.1,265.2,604.1,265.2,611.5z"/>
			<path class="st21" d="M424.9,613c0,7.4-5.9,13.4-13.2,13.4c-7.3,0-13.2-6-13.2-13.4c0-7.4,5.9-13.4,13.2-13.4
				C418.9,599.6,424.9,605.6,424.9,613z"/>
			<path class="st21" d="M502,611.5c0,7.4-5.9,13.4-13.2,13.4c-7.3,0-13.2-6-13.2-13.4c0-7.4,5.9-13.4,13.2-13.4
				C496.1,598.1,502,604.1,502,611.5z"/>
			<path class="st21" d="M579.8,610c0,7.4-5.9,13.4-13.2,13.4c-7.3,0-13.2-6-13.2-13.4c0-7.4,5.9-13.4,13.2-13.4
				C573.9,596.6,579.8,602.6,579.8,610z"/>
			<path class="st21" d="M572.8,219.1c0,7.4-5.9,13.4-13.2,13.4c-7.3,0-13.2-6-13.2-13.4c0-7.4,5.9-13.4,13.2-13.4
				C566.9,205.8,572.8,211.8,572.8,219.1z"/>
			<path class="st21" d="M251,299.5c-7.3,0-13.2-5.9-13.3-13.3c0-7.4,5.8-13.4,13.1-13.4c7.3,0,13.2,5.9,13.3,13.3
				C264.2,293.4,258.3,299.4,251,299.5z"/>
			<path class="st21" d="M251.4,366.5c-7.3,0-13.2-5.9-13.3-13.3c0-7.4,5.9-13.4,13.2-13.5c7.3,0,13.2,5.9,13.3,13.3
				C264.5,360.4,258.7,366.5,251.4,366.5z"/>
			<path class="st21" d="M251.7,426.8c-7.3,0-13.2-5.9-13.3-13.3c0-7.4,5.8-13.4,13.1-13.5c7.3,0,13.2,5.9,13.3,13.3
				C264.9,420.7,259,426.7,251.7,426.8z"/>
			<path class="st21" d="M252.1,487.6c-7.3,0-13.2-5.9-13.3-13.3c0-7.4,5.9-13.4,13.1-13.5c7.3,0,13.2,5.9,13.3,13.3
				C265.3,481.6,259.4,487.6,252.1,487.6z"/>
			<path class="st21" d="M565,295.7c-7.3,0-13.2-5.9-13.3-13.3c0-7.4,5.9-13.4,13.1-13.4c7.3,0,13.2,5.9,13.3,13.3
				C578.1,289.6,572.3,295.7,565,295.7z"/>
			<path class="st21" d="M565.3,362.7c-7.3,0-13.2-5.9-13.3-13.3c0-7.4,5.9-13.4,13.2-13.4c7.3,0,13.2,5.9,13.3,13.3
				C578.5,356.7,572.6,362.7,565.3,362.7z"/>
			<path class="st8" d="M565.7,423c-7.3,0-13.2-5.9-13.3-13.3c0-7.4,5.8-13.4,13.1-13.4c7.3,0,13.2,5.9,13.3,13.3
				C578.9,417,573,423,565.7,423z"/>
			<path class="st8" d="M566.1,483.9c-7.3,0-13.2-5.9-13.3-13.3c0-7.4,5.8-13.4,13.1-13.5c7.3,0,13.2,5.9,13.3,13.3
				C579.2,477.8,573.3,483.8,566.1,483.9z"/>
			<path class="st21" d="M252.1,549.7c-7.3,0-13.2-5.9-13.3-13.3c0-7.4,5.9-13.4,13.1-13.5c7.3,0,13.2,5.9,13.3,13.3
				C265.3,543.6,259.4,549.6,252.1,549.7z"/>
			<path class="st21" d="M566.1,545.9c-7.3,0-13.2-5.9-13.3-13.3c0-7.4,5.8-13.4,13.1-13.4c7.3,0,13.2,5.9,13.3,13.3
				C579.2,539.9,573.3,545.9,566.1,545.9z"/>
			<polygon class="st7" points="540.1,241 275,590.5 275,410.5 408.5,241 			"/>
			<polygon class="st7" points="540.1,414.2 407.6,590.5 540.1,590.5 			"/>
			<g>
				<path class="st6" d="M347.8,220.9c0,7.3-5.8,13.2-13,13.2c-7.2,0-13-5.9-13-13.2c0-7.3,5.8-13.2,13-13.2
					C342,207.7,347.8,213.6,347.8,220.9z"/>
				<path class="st0" d="M337.3,212.7c0.9,2.2-0.9,4.9-3.8,6.1c-3,1.2-6.1,0.4-6.9-1.7c-0.9-2.2,0.9-4.9,3.8-6.1
					C333.3,209.7,336.4,210.5,337.3,212.7z"/>
			</g>
			<g>
				<path class="st6" d="M425.1,220.9c0,7.3-5.8,13.2-13,13.2c-7.2,0-13-5.9-13-13.2c0-7.3,5.8-13.2,13-13.2
					C419.3,207.7,425.1,213.6,425.1,220.9z"/>
				<path class="st0" d="M414.6,212.7c0.9,2.2-0.8,4.9-3.8,6.1c-3,1.2-6.1,0.4-6.9-1.7c-0.9-2.2,0.8-4.9,3.8-6.1
					C410.6,209.7,413.7,210.5,414.6,212.7z"/>
			</g>
			<g>
				<path class="st6" d="M500.4,220.9c0,7.3-5.8,13.2-13,13.2c-7.2,0-13-5.9-13-13.2c0-7.3,5.8-13.2,13-13.2
					C494.6,207.7,500.4,213.6,500.4,220.9z"/>
				<path class="st0" d="M489.9,212.7c0.9,2.2-0.9,4.9-3.8,6.1c-3,1.2-6.1,0.4-6.9-1.7c-0.9-2.2,0.9-4.9,3.8-6.1
					C485.9,209.7,489,210.5,489.9,212.7z"/>
			</g>
			<g>
				<path class="st6" d="M577.9,220.9c0,7.3-5.8,13.2-13,13.2c-7.2,0-13-5.9-13-13.2c0-7.3,5.8-13.2,13-13.2
					C572.1,207.7,577.9,213.6,577.9,220.9z"/>
				<path class="st0" d="M567.4,212.7c0.9,2.2-0.9,4.9-3.8,6.1c-3,1.2-6.1,0.4-7-1.7c-0.9-2.2,0.8-4.9,3.8-6.1
					C563.4,209.7,566.5,210.5,567.4,212.7z"/>
			</g>
			<g>
				<path class="st6" d="M265,291c0,7.3-5.8,13.2-13,13.2c-7.2,0-13-5.9-13-13.2c0-7.3,5.8-13.2,13-13.2
					C259.2,277.8,265,283.7,265,291z"/>
				<path class="st0" d="M254.5,282.7c0.9,2.2-0.9,4.9-3.8,6.1c-3,1.2-6.1,0.5-6.9-1.7c-0.9-2.2,0.9-4.9,3.8-6.1
					C250.5,279.8,253.6,280.6,254.5,282.7z"/>
			</g>
			<g>
				<ellipse class="st6" cx="251.3" cy="357.4" rx="13" ry="13.2"/>
				<path class="st0" d="M253.7,349.2c0.9,2.2-0.8,4.9-3.8,6.1c-3,1.2-6.1,0.4-7-1.7c-0.9-2.2,0.9-4.9,3.8-6.1
					C249.8,346.2,252.9,347,253.7,349.2z"/>
			</g>
			<g>
				<path class="st6" d="M265,418.4c0,7.3-5.8,13.2-13,13.2c-7.2,0-13-5.9-13-13.2c0-7.3,5.8-13.2,13-13.2
					C259.2,405.2,265,411.1,265,418.4z"/>
				<path class="st0" d="M254.5,410.2c0.9,2.2-0.9,4.9-3.8,6.1c-3,1.2-6.1,0.4-6.9-1.7c-0.9-2.2,0.9-4.9,3.8-6.1
					C250.5,407.2,253.6,408,254.5,410.2z"/>
			</g>
			<g>
				<path class="st6" d="M266.6,478.4c0,7.3-5.8,13.2-13,13.2c-7.2,0-13-5.9-13-13.2c0-7.3,5.8-13.2,13-13.2
					C260.8,465.2,266.6,471.1,266.6,478.4z"/>
				<path class="st0" d="M256,470.1c0.9,2.2-0.9,4.9-3.8,6.1c-3,1.2-6.1,0.4-7-1.7c-0.9-2.2,0.9-4.9,3.8-6.1
					C252,467.2,255.1,468,256,470.1z"/>
			</g>
			<g>
				<path class="st6" d="M266.6,541.5c0,7.3-5.8,13.2-13,13.2c-7.2,0-13-5.9-13-13.2c0-7.3,5.8-13.2,13-13.2
					C260.8,528.3,266.6,534.2,266.6,541.5z"/>
				<path class="st0" d="M256,533.2c0.9,2.2-0.9,4.9-3.8,6.1c-3,1.2-6.1,0.4-7-1.7c-0.9-2.2,0.9-4.9,3.8-6.1
					C252,530.3,255.1,531,256,533.2z"/>
			</g>
			<g>
				<path class="st6" d="M269.2,608.4c0,7.3-5.8,13.2-13,13.2c-7.2,0-13-5.9-13-13.2c0-7.3,5.8-13.2,13-13.2
					C263.4,595.2,269.2,601.1,269.2,608.4z"/>
				<path class="st0" d="M258.7,600.2c0.9,2.2-0.9,4.9-3.8,6.1c-3,1.2-6.1,0.4-6.9-1.7c-0.9-2.2,0.8-4.9,3.8-6.1
					C254.7,597.2,257.8,598,258.7,600.2z"/>
			</g>
			<g>
				<path class="st6" d="M348.8,609.8c0,7.3-5.8,13.2-13,13.2c-7.2,0-13-5.9-13-13.2s5.8-13.2,13-13.2
					C343,596.7,348.8,602.6,348.8,609.8z"/>
				<path class="st0" d="M338.3,601.6c0.9,2.2-0.9,4.9-3.8,6.1c-3,1.2-6.1,0.4-7-1.7c-0.9-2.2,0.9-4.9,3.8-6.1
					C334.3,598.7,337.4,599.4,338.3,601.6z"/>
			</g>
			<g>
				<path class="st6" d="M421.9,609.8c0,7.3-5.8,13.2-13,13.2c-7.2,0-13-5.9-13-13.2c0-7.3,5.8-13.2,13-13.2
					C416.1,596.6,421.9,602.5,421.9,609.8z"/>
				<path class="st0" d="M411.3,601.5c0.9,2.2-0.9,4.9-3.8,6.1c-3,1.2-6.1,0.4-6.9-1.7c-0.9-2.2,0.9-4.9,3.8-6.1
					C407.3,598.6,410.5,599.4,411.3,601.5z"/>
			</g>
			<g>
				<path class="st6" d="M498,610c0,7.3-5.8,13.2-13,13.2c-7.2,0-13-5.9-13-13.2c0-7.3,5.8-13.2,13-13.2
					C492.2,596.8,498,602.7,498,610z"/>
				<path class="st0" d="M487.5,601.8c0.9,2.2-0.9,4.9-3.8,6.1c-3,1.2-6.1,0.4-6.9-1.7c-0.9-2.2,0.9-4.9,3.8-6.1
					C483.5,598.8,486.6,599.6,487.5,601.8z"/>
			</g>
			<g>
				<path class="st6" d="M574.8,608.5c0,7.3-5.8,13.2-13,13.2c-7.2,0-13-5.9-13-13.2c0-7.3,5.8-13.2,13-13.2
					C569,595.3,574.8,601.2,574.8,608.5z"/>
				<path class="st0" d="M564.3,600.2c0.9,2.2-0.9,4.9-3.8,6.1c-3,1.2-6.1,0.4-6.9-1.7c-0.9-2.2,0.9-4.9,3.8-6.1
					C560.3,597.3,563.4,598.1,564.3,600.2z"/>
			</g>
			<g>
				<path class="st6" d="M574.8,529.4c0,7.3-5.8,13.2-13,13.2c-7.2,0-13-5.9-13-13.2c0-7.3,5.8-13.2,13-13.2
					C569,516.2,574.8,522.1,574.8,529.4z"/>
				<path class="st0" d="M564.3,521.1c0.9,2.2-0.9,4.9-3.8,6.1c-3,1.2-6.1,0.4-6.9-1.7c-0.9-2.2,0.9-4.9,3.8-6.1
					C560.3,518.2,563.4,518.9,564.3,521.1z"/>
			</g>
			<g>
				<path class="st6" d="M574.8,467.6c0,7.3-5.8,13.2-13,13.2c-7.2,0-13-5.9-13-13.2c0-7.3,5.8-13.2,13-13.2
					C569,454.4,574.8,460.3,574.8,467.6z"/>
				<path class="st0" d="M564.3,459.3c0.9,2.2-0.9,4.9-3.8,6.1c-3,1.2-6.1,0.4-6.9-1.7c-0.9-2.2,0.9-4.9,3.8-6.1
					C560.3,456.4,563.4,457.2,564.3,459.3z"/>
			</g>
			<g>
				<path class="st6" d="M574.8,405.8c0,7.3-5.8,13.2-13,13.2c-7.2,0-13-5.9-13-13.2c0-7.3,5.8-13.2,13-13.2
					C569,392.6,574.8,398.5,574.8,405.8z"/>
				<path class="st0" d="M564.3,397.6c0.9,2.2-0.9,4.9-3.8,6.1c-3,1.2-6.1,0.4-6.9-1.7c-0.9-2.2,0.9-4.9,3.8-6.1
					C560.3,394.6,563.4,395.4,564.3,397.6z"/>
			</g>
			<g>
				<path class="st6" d="M574.8,346c0,7.3-5.8,13.2-13,13.2c-7.2,0-13-5.9-13-13.2c0-7.3,5.8-13.2,13-13.2
					C569,332.9,574.8,338.8,574.8,346z"/>
				<path class="st0" d="M564.3,337.8c0.9,2.2-0.9,4.9-3.8,6.1c-3,1.2-6.1,0.4-6.9-1.7c-0.9-2.2,0.9-4.9,3.8-6.1
					C560.3,334.9,563.4,335.6,564.3,337.8z"/>
			</g>
			<g>
				<path class="st6" d="M574.8,279.1c0,7.3-5.8,13.2-13,13.2c-7.2,0-13-5.9-13-13.2c0-7.3,5.8-13.2,13-13.2
					C569,265.9,574.8,271.8,574.8,279.1z"/>
				<path class="st0" d="M564.3,270.8c0.9,2.2-0.9,4.9-3.8,6.1c-3,1.2-6.1,0.5-6.9-1.7c-0.9-2.2,0.9-4.9,3.8-6.1
					C560.3,267.9,563.4,268.7,564.3,270.8z"/>
			</g>
		</g>
		<g>
			<path class="st6" d="M203.5,488.6c0,5.3-26.3,9.5-58.9,9.5c-32.5,0-58.9-4.3-58.9-9.5c0-5.3,26.3-9.5,58.9-9.5
				C177.2,479.1,203.5,483.3,203.5,488.6z"/>
			<path class="st6" d="M203.5,488.6c0-5.3-26.3-9.5-58.9-9.5c-32.5,0-58.9,4.3-58.9,9.5c0,0,0,0,0,0L203.5,488.6
				C203.5,488.6,203.5,488.6,203.5,488.6z"/>
			<g>
				<rect x="156.7" y="443.9" class="st4" width="25.4" height="128.8"/>
				<path class="st5" d="M200.9,442.8c0,2.6-2.1,4.7-4.6,4.7h-52.2c-2.5,0-4.6-2.1-4.6-4.7V440c0-2.6,2.1-4.7,4.6-4.7h52.2
					c2.5,0,4.6,2.1,4.6,4.7V442.8z"/>
				<path class="st5" d="M200.9,288.5c0,2.6-2.1,4.7-4.6,4.7h-54.6c-2.6,0-4.6-2.1-4.6-4.7v-9c0-2.6,2.1-4.7,4.6-4.7h54.6
					c2.5,0,4.6,2.1,4.6,4.7V288.5z"/>
				<path class="st4" d="M209,429.4c0,5.2-4.1,9.4-9.2,9.4H139c-5.1,0-9.2-4.2-9.2-9.4V288.3c0-5.2,4.1-9.4,9.2-9.4h60.8
					c5.1,0,9.2,4.2,9.2,9.4V429.4z"/>
				<g>
					<rect x="196.7" y="289" class="st22" width="17.3" height="2.1"/>
					<path class="st23" d="M218,290.1c0,1.7-1.3,3.1-3,3.1c-1.7,0-3-1.4-3-3.1c0-1.7,1.4-3.1,3-3.1C216.6,287,218,288.4,218,290.1z"
						/>
					<rect x="196.7" y="303.1" class="st22" width="17.3" height="2.1"/>
					<path class="st23" d="M218,304.1c0,1.7-1.3,3.1-3,3.1c-1.7,0-3-1.4-3-3.1c0-1.7,1.4-3.1,3-3.1C216.6,301,218,302.4,218,304.1z"
						/>
					<rect x="196.7" y="317.1" class="st22" width="17.3" height="2.1"/>
					<path class="st23" d="M218,318.1c0,1.7-1.3,3.1-3,3.1c-1.7,0-3-1.4-3-3.1c0-1.7,1.4-3.1,3-3.1C216.6,315.1,218,316.5,218,318.1
						z"/>
					<rect x="196.7" y="331.1" class="st22" width="17.3" height="2.1"/>
					<path class="st23" d="M218,332.2c0,1.7-1.3,3.1-3,3.1c-1.7,0-3-1.4-3-3.1c0-1.7,1.4-3.1,3-3.1C216.6,329.1,218,330.5,218,332.2
						z"/>
					<rect x="196.7" y="345.2" class="st22" width="17.3" height="2.1"/>
					<path class="st23" d="M218,346.2c0,1.7-1.3,3.1-3,3.1c-1.7,0-3-1.4-3-3.1c0-1.7,1.4-3.1,3-3.1C216.6,343.1,218,344.5,218,346.2
						z"/>
					<rect x="196.7" y="359.2" class="st22" width="17.3" height="2.1"/>
					<path class="st23" d="M218,360.2c0,1.7-1.3,3.1-3,3.1c-1.7,0-3-1.4-3-3.1c0-1.7,1.4-3.1,3-3.1C216.6,357.2,218,358.5,218,360.2
						z"/>
					<rect x="196.7" y="373.2" class="st22" width="17.3" height="2.1"/>
					<path class="st23" d="M218,374.3c0,1.7-1.3,3.1-3,3.1c-1.7,0-3-1.4-3-3.1c0-1.7,1.4-3.1,3-3.1C216.6,371.2,218,372.6,218,374.3
						z"/>
					<rect x="196.7" y="387.3" class="st22" width="17.3" height="2.1"/>
					<path class="st23" d="M218,388.3c0,1.7-1.3,3.1-3,3.1c-1.7,0-3-1.4-3-3.1c0-1.7,1.4-3.1,3-3.1C216.6,385.2,218,386.6,218,388.3
						z"/>
					<rect x="196.7" y="401.3" class="st22" width="17.3" height="2.1"/>
					<path class="st23" d="M218,402.3c0,1.7-1.3,3.1-3,3.1c-1.7,0-3-1.4-3-3.1c0-1.7,1.4-3.1,3-3.1C216.6,399.3,218,400.6,218,402.3
						z"/>
					<rect x="196.7" y="415.3" class="st22" width="17.3" height="2.1"/>
					<path class="st23" d="M218,416.4c0,1.7-1.3,3.1-3,3.1c-1.7,0-3-1.4-3-3.1c0-1.7,1.4-3.1,3-3.1C216.6,413.3,218,414.7,218,416.4
						z"/>
					<rect x="196.7" y="429.4" class="st22" width="17.3" height="2.1"/>
					<path class="st23" d="M218,430.4c0,1.7-1.3,3.1-3,3.1c-1.7,0-3-1.4-3-3.1c0-1.7,1.4-3.1,3-3.1C216.6,427.3,218,428.7,218,430.4
						z"/>
				</g>
				<rect x="122.2" y="289" class="st22" width="17.3" height="2.1"/>
				<path class="st23" d="M118.2,290.1c0,1.7,1.3,3.1,3,3.1c1.7,0,3-1.4,3-3.1c0-1.7-1.4-3.1-3-3.1
					C119.5,287,118.2,288.4,118.2,290.1z"/>
				<ellipse class="st23" cx="146.3" cy="290.1" rx="3" ry="3.1"/>
				<path class="st23" d="M166.4,290.1c0,1.7,1.3,3.1,3,3.1c1.7,0,3-1.4,3-3.1c0-1.7-1.4-3.1-3-3.1
					C167.7,287,166.4,288.4,166.4,290.1z"/>
				<path class="st23" d="M189.4,290.1c0,1.7,1.4,3.1,3,3.1c1.7,0,3-1.4,3-3.1c0-1.7-1.4-3.1-3-3.1
					C190.8,287,189.4,288.4,189.4,290.1z"/>
				<path class="st23" d="M143.3,308.8c0,1.7,1.4,3.1,3,3.1c1.7,0,3-1.4,3-3.1c0-1.7-1.4-3.1-3-3.1
					C144.6,305.7,143.3,307.1,143.3,308.8z"/>
				<path class="st23" d="M166.4,308.8c0,1.7,1.3,3.1,3,3.1c1.7,0,3-1.4,3-3.1c0-1.7-1.4-3.1-3-3.1
					C167.7,305.7,166.4,307.1,166.4,308.8z"/>
				<path class="st23" d="M189.4,308.8c0,1.7,1.4,3.1,3,3.1c1.7,0,3-1.4,3-3.1c0-1.7-1.4-3.1-3-3.1
					C190.8,305.7,189.4,307.1,189.4,308.8z"/>
				<path class="st23" d="M143.3,327.5c0,1.7,1.4,3.1,3,3.1c1.7,0,3-1.4,3-3.1c0-1.7-1.4-3.1-3-3.1
					C144.6,324.4,143.3,325.8,143.3,327.5z"/>
				<path class="st23" d="M166.4,327.5c0,1.7,1.3,3.1,3,3.1c1.7,0,3-1.4,3-3.1c0-1.7-1.4-3.1-3-3.1
					C167.7,324.4,166.4,325.8,166.4,327.5z"/>
				<path class="st23" d="M189.4,327.5c0,1.7,1.4,3.1,3,3.1c1.7,0,3-1.4,3-3.1c0-1.7-1.4-3.1-3-3.1
					C190.8,324.4,189.4,325.8,189.4,327.5z"/>
				<path class="st23" d="M143.3,346.2c0,1.7,1.4,3.1,3,3.1c1.7,0,3-1.4,3-3.1c0-1.7-1.4-3.1-3-3.1
					C144.6,343.1,143.3,344.5,143.3,346.2z"/>
				<path class="st23" d="M166.4,346.2c0,1.7,1.3,3.1,3,3.1c1.7,0,3-1.4,3-3.1c0-1.7-1.4-3.1-3-3.1
					C167.7,343.1,166.4,344.5,166.4,346.2z"/>
				<path class="st23" d="M189.4,346.2c0,1.7,1.4,3.1,3,3.1c1.7,0,3-1.4,3-3.1c0-1.7-1.4-3.1-3-3.1
					C190.8,343.1,189.4,344.5,189.4,346.2z"/>
				<path class="st23" d="M143.3,364.9c0,1.7,1.4,3.1,3,3.1c1.7,0,3-1.4,3-3.1c0-1.7-1.4-3.1-3-3.1
					C144.6,361.8,143.3,363.2,143.3,364.9z"/>
				<path class="st23" d="M166.4,364.9c0,1.7,1.3,3.1,3,3.1c1.7,0,3-1.4,3-3.1c0-1.7-1.4-3.1-3-3.1
					C167.7,361.8,166.4,363.2,166.4,364.9z"/>
				<path class="st23" d="M189.4,364.9c0,1.7,1.4,3.1,3,3.1c1.7,0,3-1.4,3-3.1c0-1.7-1.4-3.1-3-3.1
					C190.8,361.8,189.4,363.2,189.4,364.9z"/>
				<ellipse class="st23" cx="146.3" cy="383.6" rx="3" ry="3.1"/>
				<path class="st23" d="M166.4,383.6c0,1.7,1.3,3.1,3,3.1c1.7,0,3-1.4,3-3.1c0-1.7-1.4-3.1-3-3.1
					C167.7,380.6,166.4,381.9,166.4,383.6z"/>
				<path class="st23" d="M189.4,383.6c0,1.7,1.4,3.1,3,3.1c1.7,0,3-1.4,3-3.1c0-1.7-1.4-3.1-3-3.1
					C190.8,380.6,189.4,381.9,189.4,383.6z"/>
				<path class="st23" d="M143.3,402.3c0,1.7,1.4,3.1,3,3.1c1.7,0,3-1.4,3-3.1c0-1.7-1.4-3.1-3-3.1
					C144.6,399.3,143.3,400.6,143.3,402.3z"/>
				<path class="st23" d="M166.4,402.3c0,1.7,1.3,3.1,3,3.1c1.7,0,3-1.4,3-3.1c0-1.7-1.4-3.1-3-3.1
					C167.7,399.3,166.4,400.6,166.4,402.3z"/>
				<path class="st23" d="M189.4,402.3c0,1.7,1.4,3.1,3,3.1c1.7,0,3-1.4,3-3.1c0-1.7-1.4-3.1-3-3.1
					C190.8,399.3,189.4,400.6,189.4,402.3z"/>
				<path class="st23" d="M143.3,421c0,1.7,1.4,3.1,3,3.1c1.7,0,3-1.4,3-3.1c0-1.7-1.4-3.1-3-3.1C144.6,418,143.3,419.4,143.3,421z"
					/>
				<path class="st23" d="M166.4,421c0,1.7,1.3,3.1,3,3.1c1.7,0,3-1.4,3-3.1c0-1.7-1.4-3.1-3-3.1C167.7,418,166.4,419.4,166.4,421z"
					/>
				<path class="st23" d="M189.4,421c0,1.7,1.4,3.1,3,3.1c1.7,0,3-1.4,3-3.1c0-1.7-1.4-3.1-3-3.1C190.8,418,189.4,419.4,189.4,421z"
					/>
				<rect x="122.2" y="303.1" class="st22" width="17.3" height="2.1"/>
				<path class="st23" d="M118.2,304.1c0,1.7,1.3,3.1,3,3.1c1.7,0,3-1.4,3-3.1c0-1.7-1.4-3.1-3-3.1
					C119.5,301,118.2,302.4,118.2,304.1z"/>
				<rect x="122.2" y="317.1" class="st22" width="17.3" height="2.1"/>
				<path class="st23" d="M118.2,318.1c0,1.7,1.3,3.1,3,3.1c1.7,0,3-1.4,3-3.1c0-1.7-1.4-3.1-3-3.1
					C119.5,315.1,118.2,316.5,118.2,318.1z"/>
				<rect x="122.2" y="331.1" class="st22" width="17.3" height="2.1"/>
				<path class="st23" d="M118.2,332.2c0,1.7,1.3,3.1,3,3.1c1.7,0,3-1.4,3-3.1c0-1.7-1.4-3.1-3-3.1
					C119.5,329.1,118.2,330.5,118.2,332.2z"/>
				<rect x="122.2" y="345.2" class="st22" width="17.3" height="2.1"/>
				<path class="st23" d="M118.2,346.2c0,1.7,1.3,3.1,3,3.1c1.7,0,3-1.4,3-3.1c0-1.7-1.4-3.1-3-3.1
					C119.5,343.1,118.2,344.5,118.2,346.2z"/>
				<rect x="122.2" y="359.2" class="st22" width="17.3" height="2.1"/>
				<path class="st23" d="M118.2,360.2c0,1.7,1.3,3.1,3,3.1c1.7,0,3-1.4,3-3.1c0-1.7-1.4-3.1-3-3.1
					C119.5,357.2,118.2,358.5,118.2,360.2z"/>
				<rect x="122.2" y="373.2" class="st22" width="17.3" height="2.1"/>
				<path class="st23" d="M118.2,374.3c0,1.7,1.3,3.1,3,3.1c1.7,0,3-1.4,3-3.1c0-1.7-1.4-3.1-3-3.1
					C119.5,371.2,118.2,372.6,118.2,374.3z"/>
				<rect x="122.2" y="387.3" class="st22" width="17.3" height="2.1"/>
				<path class="st23" d="M118.2,388.3c0,1.7,1.3,3.1,3,3.1c1.7,0,3-1.4,3-3.1c0-1.7-1.4-3.1-3-3.1
					C119.5,385.2,118.2,386.6,118.2,388.3z"/>
				<rect x="122.2" y="401.3" class="st22" width="17.3" height="2.1"/>
				<path class="st23" d="M118.2,402.3c0,1.7,1.3,3.1,3,3.1c1.7,0,3-1.4,3-3.1c0-1.7-1.4-3.1-3-3.1
					C119.5,399.3,118.2,400.6,118.2,402.3z"/>
				<rect x="122.2" y="415.3" class="st22" width="17.3" height="2.1"/>
				<path class="st23" d="M118.2,416.4c0,1.7,1.3,3.1,3,3.1c1.7,0,3-1.4,3-3.1c0-1.7-1.4-3.1-3-3.1
					C119.5,413.3,118.2,414.7,118.2,416.4z"/>
				<rect x="122.2" y="429.4" class="st22" width="17.3" height="2.1"/>
				<path class="st23" d="M118.2,430.4c0,1.7,1.3,3.1,3,3.1c1.7,0,3-1.4,3-3.1c0-1.7-1.4-3.1-3-3.1
					C119.5,427.3,118.2,428.7,118.2,430.4z"/>
				<path class="st24" d="M199.8,438.8c5.1,0,9.2-4.2,9.2-9.4V288.3c0-2.2-0.8-4.3-2.1-5.9c-5.8,31.1-24.8,111.9-71.6,155.6
					c1.1,0.5,2.4,0.8,3.7,0.8H199.8z"/>
			</g>
			<g>
				<path class="st7" d="M72.2,325.3l0.9-0.3l39.4-12.9c1.4-0.4,1.9-2.4,1.3-4.4c-0.6-2-2.3-3.3-3.6-2.8l-39.4,12.9l-2.5-7.7
					l39.4-12.9c1.4-0.5,2-2.4,1.3-4.4c-0.6-2-2.3-3.3-3.6-2.8l-55,18c-1.4,0.4-2,2.4-1.3,4.4c0.1,0.3,0.4,1.2,0.5,1.5l81.2,254.4
					c0.9,2.8,3.1,4.5,5,3.9l11.2-3.7l-28.5-90.2c0-1.4,0.6-2.7,1.6-3l0.9-0.3l39.4-12.9c1.4-0.5,1.9-2.4,1.3-4.5
					c-0.6-2-2.3-3.3-3.6-2.8l-39.4,12.9l-2.5-7.7l39.4-12.9c1.4-0.5,1.9-2.4,1.3-4.4c-0.6-2-2.3-3.3-3.6-2.8l-39.4,12.9l-2.5-7.7
					l39.4-12.9c1.4-0.5,2-2.4,1.3-4.4c-0.6-2-2.3-3.3-3.6-2.8L109,437.6l-2.5-7.7l39.4-12.9c1.4-0.4,1.9-2.4,1.3-4.4
					c-0.6-2-2.3-3.3-3.6-2.8l-39.4,12.9l-2.5-7.7l39.4-12.9c1.4-0.4,1.9-2.4,1.3-4.4c-0.6-2-2.3-3.3-3.6-2.8l-39.4,12.9l-2.5-7.7
					l39.4-12.9c1.4-0.4,2-2.4,1.3-4.4c-0.6-2-2.3-3.3-3.6-2.8l-39.4,12.9l-2.5-7.7l39.4-12.9c1.4-0.4,2-2.4,1.3-4.5
					c-0.6-2-2.3-3.3-3.6-2.8l-39.4,12.9l-2.5-7.7l39.4-12.9c1.4-0.4,2-2.4,1.3-4.4c-0.6-2-2.3-3.3-3.6-2.8l-39.4,12.9l-2.5-7.7
					l39.4-12.9c1.4-0.4,1.9-2.4,1.3-4.4c-0.6-2-2.3-3.3-3.6-2.8l-39.4,12.9l-2.5-7.7l39.4-12.9c1.4-0.5,2-2.4,1.3-4.4
					c-0.6-2-2.3-3.3-3.6-2.8l-39.4,12.9l-0.9,0.3c-1.4,0.5-3.2-0.9-3.9-3C70.1,327.9,70.7,325.8,72.2,325.3z"/>
				<polygon class="st7" points="77.9,340 67.9,343.3 61.5,323.1 71.5,319.9 				"/>
			</g>
			<path class="st0" d="M144.7,498.1c-32.5,0-58.8-4.3-58.9-9.5v147.2H86c1.6,5,27.2,9,58.7,9c31.4,0,57-4,58.7-9h0.2V488.6
				C203.5,493.9,177.1,498.1,144.7,498.1z"/>
			<path class="st6" d="M203.3,635.8h0.2V520.4c-8.1,38.4-31.9,100.3-101.1,121.5c10.7,1.8,25.6,2.9,42.2,2.9
				C176.1,644.9,201.7,640.9,203.3,635.8z"/>
		</g>
		<g>
			<g>
				<path class="st0" d="M614.6,288.7c-4.7,0-8.4-3.8-8.4-8.4c0-4.6,3.8-8.4,8.4-8.4c4.7,0,8.5,3.8,8.5,8.4
					C623.1,285,619.3,288.7,614.6,288.7z M614.6,274.2c-3.4,0-6.1,2.7-6.1,6.1c0,3.4,2.7,6.1,6.1,6.1c3.4,0,6.1-2.7,6.1-6.1
					C620.8,277,618,274.2,614.6,274.2z"/>
			</g>
		</g>
		<g>
			<g>
				<g>
					<path class="st0" d="M201.9,224.8c1.1-1.4,1.6-6.2,3.4-6.2c1.7,0,2.1,5,3.4,6.2c1.2,1.3,6.3,1.6,6.1,3.4
						c-0.1,1.8-5.1,2-6.1,3.4c-1.1,1.4-1.6,6.3-3.4,6.2c-1.8-0.1-2-5.2-3.4-6.2c-1.4-1.1-6.3-1.6-6.2-3.4
						C195.9,226.4,200.8,226.2,201.9,224.8z"/>
				</g>
			</g>
		</g>
		<g>
			<g>
				<g>
					<path class="st7" d="M180,207.1c0.3,3-2,5.7-5,5.9c-3,0.3-5.6-2-5.9-5c-0.3-3,1.9-5.7,4.9-6C177.1,201.8,179.7,204.1,180,207.1
						z"/>
				</g>
			</g>
		</g>
		<g>
			<g>
				<g>
					<path class="st1" d="M644.1,351.4c0.3,3-2,5.7-4.9,5.9c-3,0.3-5.6-2-5.9-5c-0.3-3,1.9-5.7,4.9-6
						C641.2,346.1,643.9,348.3,644.1,351.4z"/>
				</g>
			</g>
		</g>
		<g>
			<g>
				<g>
					<path class="st0" d="M536.8,308.4c1.1-1.4,1.6-6.2,3.4-6.2c1.7,0,2.1,5,3.4,6.2c1.2,1.2,6.3,1.6,6.1,3.4
						c-0.1,1.8-5.1,2-6.1,3.4c-1.1,1.4-1.6,6.3-3.4,6.2c-1.8-0.1-2-5.2-3.4-6.2c-1.4-1.1-6.3-1.6-6.2-3.4
						C530.7,310.1,535.7,309.8,536.8,308.4z"/>
				</g>
			</g>
		</g>
		<g>
			<g>
				<g>
					<path class="st13" d="M623.9,402c0,0-1.7-6.9-12.3-5.8c-12.3,1.3-33.4,22.9-50.5,19.1c-17.1-3.8-21.4-15.8-25.2-23.5
						c-3.8-7.7-2.1-12.4-4.8-16.7c-2.6-4.2-7-0.9-3.5,12.8c1.7,6.5,6.5,39.7,26.2,48.3C579.8,447.4,629.5,418.2,623.9,402z"/>
				</g>
			</g>
			<g>
				<g>
					<g>
						<path class="st14" d="M603.2,356.4c0,0,3.2-7.7,10.7-5.7c21.2,5.7,54.6,26.2,47.4,57.7c-9.5,41.5,7,31.2,13.1,40.4
							c15.1,22.6-17.8,50.3-45.7,29.7c-15.5-11.5-7.1-45.9-11-54.1c-3.9-8.2-12-10.7-13-24.6c-1-13.9-3.3-31.3-4.6-34.9
							C599,361,600.4,357.4,603.2,356.4z"/>
					</g>
				</g>
			</g>
			<g>
				<g>
					<path class="st25" d="M585,490.2c-2.8,8.4-5.9,18.6-7.7,29.6c-11,67.9,27.2,72,31.5,45.1c3.8-23.4,42.2-85.8,11.6-106.5
						C610.5,451.8,591,456.5,585,490.2z"/>
				</g>
			</g>
			<g>
				<g>
					<path class="st13" d="M586.6,488.4c0,0,7.3-20.3-1.6-44.6c-4.3-11.6-11.1-13-1.3-26.6c11.3-15.7,19.2-25.5,28.8-20.7
						c23.2,11.6,14,18,15.8,29.7c1,6.8-1,27.2,12,41.7L586.6,488.4z"/>
				</g>
			</g>
			<g>
				<g>
					<path class="st0" d="M632.5,445.6c0,0-23.2,19.8-46.5,14.5c0,0-15-22.8-5.5-38c0,0,13.7,4.5,19.2-9.7c4.4-11.5,15-14.8,15-14.8
						s1.2,0,2.5,0.6c4.9,2.2,8.7,5.4,9.6,7.7C630.7,415.7,632.5,445.6,632.5,445.6z"/>
				</g>
			</g>
			<g>
				<g>
					<g>
						<path class="st18" d="M617.4,371.5c0,0-9.7,17.8-6.9,25.3c1.6,4.2-19.1,12.4-16.7,8c4.4-8.2,3.7-11.8-0.4-19L617.4,371.5z"/>
					</g>
				</g>
			</g>
			<g>
				<g>
					<g>
						<path class="st13" d="M601.7,356.5c-6.3,5.4-14.4,30.1-8.5,36c2.5,2.6,14,4.7,21.7-10.1c2.5-4.8,7.4-12.6,3.5-21.5
							C616.6,356.9,609.1,350.2,601.7,356.5z"/>
					</g>
				</g>
			</g>
			<g>
				<g>
					<g>
						<path class="st14" d="M597.2,357.3c-0.8,3.3-1,5.3,6.6,5c9.4-0.3,7.4,6.2,6.3,8.4c-3.2,6.5,8.3,0.6,4.4,8.3
							c-3.9,7.7,7-1.2,8-2.3c1-1.1,4.4-6.1-0.1-17.9C617.8,347,599.7,347,597.2,357.3z"/>
					</g>
				</g>
			</g>
			<g>
				<g>
					<path class="st13" d="M750,459.1c6.5,8.7,7.1,15.9,1.9,11.9c-5.2-4-5.9-3.8-7.4-2.4c-18.4,16.7-23.7,62.7-52.4,79.7l-12.5-34.2
						c3.9-3.1,7.2-6,9.4-8.5C705.4,486.5,743.5,450.4,750,459.1z"/>
				</g>
			</g>
			<g>
				<g>
					<path class="st13" d="M596.5,645.8c-19.9,0.1-15.9-6.6-9.4-7.3c6.5-0.7,6.9-1.4,7-3.3c2.2-24.9-25-62.1-15.5-94.4l32.2,16.2
						c-0.7,5-1.2,9.4-1.1,12.7C610.6,594.8,607.4,645.7,596.5,645.8z"/>
				</g>
			</g>
			<g>
				<g>
					<path class="st4" d="M612.6,471.3c0,0-7.7-0.3-23.2-4c0,0-13.6,53-15.1,64.5c-1.5,11.5,5.1,57.5,14.7,75.1
						c0,0,6.4,9.9,21.7,4.5c0,0-1.5-41.7,0.5-51.5c2-9.9,15-33.2,14.2-55.1C624.7,482.9,612.6,471.3,612.6,471.3z"/>
				</g>
			</g>
			<g>
				<g>
					<path class="st5" d="M632.1,453.8c0,0,0.8,1.5,24.2,30.8c0,0,12.7,25.2,22,24.5c12.7-0.9,14.7-17.9,37.9-31.2
						c0,0,13.3,1.2,14.9,10.8c0,0-14.8,51.9-43.6,61.9c0,0-13.5,4.9-34.7-2.5c-43.4-15.3-63.4-80.9-63.4-80.9
						S622.6,464.9,632.1,453.8z"/>
				</g>
			</g>
			<g>
				<g>
					<path class="st26" d="M673.6,529.5c0.6,0,1.2-0.1,1.8-0.1c22.2-3.7,47.8-47,48.8-48.9l-1.7-1.1c-0.3,0.4-26.1,44.3-47.4,47.9
						c-21,3.4-56.5-65-56.8-65.7l-1.8,1C617.9,465.3,651.1,529.5,673.6,529.5z"/>
				</g>
			</g>
			<g>
				<g>
					<path class="st14" d="M622.5,526.8c0,0-4.9,16.9-7.8,22.5c0,0,3.3-27.4,0-32.1L622.5,526.8z"/>
				</g>
			</g>
			<g>
				<path class="st0" d="M506.9,296.6l-0.9,0.3l-39.2,13.5c-1.4,0.5-3-0.8-3.7-2.8c-0.7-2-0.1-4,1.2-4.5l39.2-13.5l-2.6-7.7
					l-39.2,13.5c-1.3,0.5-3-0.8-3.7-2.8c-0.7-2-0.1-4,1.2-4.5l54.7-18.9c1.4-0.5,3,0.8,3.7,2.8c0.1,0.3,0.4,1.2,0.5,1.5l85.1,253.1
					c0.9,2.8,0.2,5.5-1.7,6.1l-11.1,3.8l-30.4-89.6c-0.8-1.2-2.1-1.8-3.1-1.4l-0.9,0.3l-39.2,13.5c-1.4,0.5-3-0.8-3.7-2.8
					c-0.7-2-0.1-4,1.2-4.5l39.2-13.5l-2.6-7.7l-39.2,13.5c-1.4,0.5-3-0.8-3.7-2.8c-0.7-2-0.1-4,1.2-4.5l39.2-13.5l-2.6-7.7
					l-39.2,13.5c-1.4,0.5-3-0.8-3.7-2.8c-0.7-2-0.1-4,1.3-4.5l39.2-13.5l-2.6-7.7l-39.2,13.5c-1.4,0.5-3-0.8-3.7-2.8
					c-0.7-2-0.1-4,1.3-4.5l39.2-13.5l-2.6-7.7l-39.2,13.5c-1.3,0.5-3-0.8-3.7-2.8c-0.7-2-0.1-4,1.3-4.5l39.2-13.5l-2.6-7.7
					L491.9,385c-1.4,0.5-3-0.8-3.7-2.8c-0.7-2-0.1-4,1.2-4.5l39.2-13.5l-2.6-7.7l-39.2,13.5c-1.4,0.5-3-0.8-3.7-2.8
					c-0.7-2-0.1-4,1.2-4.5l39.2-13.5l-2.6-7.7l-39.2,13.5c-1.4,0.5-3-0.8-3.7-2.8c-0.7-2-0.1-4,1.2-4.5l39.2-13.5l-2.6-7.7
					l-39.2,13.5c-1.4,0.5-3-0.8-3.7-2.8c-0.7-2-0.1-4,1.2-4.5l39.2-13.5l-2.6-7.7l-39.2,13.5c-1.4,0.5-3-0.8-3.7-2.8
					c-0.7-2-0.1-4,1.2-4.5l39.2-13.5l0.9-0.3c1.4-0.5,2-2.6,1.3-4.7C510.1,297.4,508.3,296.1,506.9,296.6z"/>
				<polygon class="st0" points="511,311.8 520.9,308.4 514.2,288.4 504.2,291.8 				"/>
			</g>
			<g>
				<g>
					<path class="st13" d="M624.8,403c0,0-4.8-5.2-13.5,0.9c-10.1,7.1-18.4,36.4-35.1,41.4c-16.8,5-26.2-3.4-33.3-8.2
						c-7-4.8-7.8-9.9-12.2-12.2c-4.3-2.4-6.5,2.6,3,12.9c4.6,4.9,24.6,31.7,46,29.5C607.8,464.3,637.5,414.4,624.8,403z"/>
				</g>
			</g>
		</g>
	</g>
	<g>
		<g>
			<path class="st4" d="M258.8,457.6c0.5,0.6,0.2,1.6-0.6,2.3l-43.8,38c-0.8,0.7-1.9,0.8-2.4,0.2l-16.7-19.8
				c-0.5-0.6-0.2-1.6,0.6-2.3l43.9-38c0.8-0.7,1.9-0.8,2.4-0.2L258.8,457.6z"/>
			<path class="st2" d="M259.1,457.9c0.3,0.4-0.1,1.2-0.9,2l-43.9,38c-0.8,0.7-1.7,1-2,0.6l-10.7-12.7c-0.3-0.4,0.1-1.2,0.9-2
				l43.9-38c0.8-0.7,1.7-1,2.1-0.6L259.1,457.9z"/>
			<path class="st7" d="M365.4,631.4L261.5,497.5l0.5-0.5c0,0,13.8-29.9-9.1-52.1l-29.3,25.4v0L200,490.8
				c18,26.4,49.4,17.2,49.4,17.2l1-0.9l41.3,43.8L365.4,631.4z"/>
			<path class="st2" d="M262.1,497.1c0,0,13.8-29.9-9.1-52.1l-6.4,5.5c7.3,8.6,18.3,26.6,7.1,48.2l111.7,132.7L261.5,497.5
				L262.1,497.1z"/>
		</g>
		<g>
			<path class="st0" d="M206.3,554.7c0,0,4.6,79.1,60.3,86.5c55.7,7.4,139.8,6.5,136.1-86.5H206.3z"/>
			<path class="st6" d="M402.7,554.7c0,16.6-44,30.1-98.2,30.1c-54.2,0-98.2-13.5-98.2-30.1c0-16.6,44-30.1,98.2-30.1
				C358.8,524.6,402.7,538.1,402.7,554.7z"/>
			<path class="st0" d="M391.8,554.7c0,13.8-39.7,25-88.6,25c-48.9,0-88.6-11.2-88.6-25c0-13.8,39.7-25,88.6-25
				C352.1,529.7,391.8,540.9,391.8,554.7z"/>
			<path class="st27" d="M303.2,579.7c42.2,0,77.4-8.3,86.4-19.4c-9-11.1-44.2-19.4-86.4-19.4c-42.2,0-77.4,8.3-86.4,19.4
				C225.7,571.4,261,579.7,303.2,579.7z"/>
			<path class="st2" d="M402,575.5c-17.5,23.4-84.2,70.2-166.8,50.6c8.1,7.7,18.3,13.4,31.4,15.2C317.9,648,393,647.8,402,575.5z"/>
		</g>
		<g>
			<g>
				<path class="st11" d="M324.5,502.6c0,0-14.5,5.9-14.8,15.6c-0.3,9.7-10,26.1-22.6,29.6c-12.6,3.6-46.7,11.1-35.2,14.4
					c14.5,4.2,38.4,4.9,60.2-2.6c21.8-7.5,4.4-11.7,4.9-22.2c0.5-10.6,9.7-14.6,14.1-14.3C335.4,523.3,324.5,502.6,324.5,502.6z"/>
				<g>
					<path class="st1" d="M331.8,525.6c-1.3,0.4-4.1-4.8-6.2-11.7c-2.1-6.9-2.7-12.8-1.4-13.2c1.3-0.4,4.1,4.8,6.2,11.7
						C332.5,519.2,333.1,525.2,331.8,525.6z"/>
					<path class="st28" d="M341,522.7c-1.3,0.4-4.1-4.8-6.2-11.7c-2.1-6.9-2.7-12.8-1.4-13.2c1.3-0.4,4.1,4.8,6.2,11.7
						C341.8,516.4,342.4,522.3,341,522.7z"/>
					<polygon class="st1" points="331.8,525.6 324.2,500.7 333.5,497.8 341,522.7 					"/>
				</g>
				<path class="st1" d="M350.1,533.1c-13.7,0.8-26.4-44.9-15.5-53.3c34-26,149.2-59.8,149.2-59.8l23.5,77.2
					C507.2,497.2,389.5,530.8,350.1,533.1z"/>
				<polygon class="st2" points="483.8,420.1 507.2,497.2 496.8,500.2 475.6,422.6 				"/>
				<path class="st11" d="M367.8,516.6c-7.7,1.3-16.3-31.1-9.2-34.3c29.4-13,70.6-27.1,94.8-34.5l13.4,43.9
					C443.9,498,392.2,512.4,367.8,516.6z"/>
				<path class="st27" d="M383.4,506c-5.4,0.9-11.5-21.9-6.5-24.1c20.7-9.2,49.7-19.1,66.7-24.3l9.4,30.9
					C437,492.9,400.6,503.1,383.4,506z"/>
				<path class="st2" d="M350.1,533.1c39.4-2.3,157.2-35.9,157.2-35.9l-0.3-1c-26.6,3.2-130.1,14-176.1-8.6
					C328.3,503.3,338.8,533.8,350.1,533.1z"/>
				<g>
					<g>
						<path class="st2" d="M478.1,424.6c-0.3,0.1-0.6-0.1-0.7-0.4l0,0c-0.1-0.3,0.1-0.6,0.4-0.7l4.9-1.5c0.3-0.1,0.6,0.1,0.7,0.4
							l0,0c0.1,0.3-0.1,0.6-0.4,0.7L478.1,424.6z"/>
						<path class="st2" d="M479,427.4c-0.3,0.1-0.6-0.1-0.7-0.4l0,0c-0.1-0.3,0.1-0.6,0.4-0.7l4.9-1.5c0.3-0.1,0.6,0.1,0.7,0.4l0,0
							c0.1,0.3-0.1,0.6-0.4,0.7L479,427.4z"/>
						<path class="st2" d="M479.8,430.2c-0.3,0.1-0.6-0.1-0.7-0.4l0,0c-0.1-0.3,0.1-0.6,0.4-0.7l4.9-1.5c0.3-0.1,0.6,0.1,0.7,0.4
							l0,0c0.1,0.3-0.1,0.6-0.4,0.7L479.8,430.2z"/>
						<path class="st2" d="M480.7,432.9c-0.3,0.1-0.6-0.1-0.7-0.3l0,0c-0.1-0.3,0.1-0.6,0.4-0.7l4.9-1.5c0.3-0.1,0.6,0.1,0.7,0.4
							l0,0c0.1,0.3-0.1,0.6-0.4,0.7L480.7,432.9z"/>
						<path class="st2" d="M481.5,435.7c-0.3,0.1-0.6-0.1-0.7-0.4l0,0c-0.1-0.3,0.1-0.6,0.4-0.7l4.9-1.5c0.3-0.1,0.6,0.1,0.7,0.4
							l0,0c0.1,0.3-0.1,0.6-0.4,0.7L481.5,435.7z"/>
						<path class="st2" d="M482.4,438.5c-0.3,0.1-0.6-0.1-0.7-0.4l0,0c-0.1-0.3,0.1-0.6,0.4-0.7l4.9-1.5c0.3-0.1,0.6,0.1,0.7,0.4
							l0,0c0.1,0.3-0.1,0.6-0.4,0.7L482.4,438.5z"/>
						<path class="st2" d="M483.2,441.3c-0.3,0.1-0.6-0.1-0.7-0.4l0,0c-0.1-0.3,0.1-0.6,0.4-0.7l4.8-1.5c0.3-0.1,0.6,0.1,0.7,0.4
							l0,0c0.1,0.3-0.1,0.6-0.4,0.7L483.2,441.3z"/>
						<path class="st2" d="M484.1,444.1c-0.3,0.1-0.6-0.1-0.7-0.4l0,0c-0.1-0.3,0.1-0.6,0.4-0.7l4.9-1.5c0.3-0.1,0.6,0.1,0.7,0.4
							l0,0c0.1,0.3-0.1,0.6-0.4,0.7L484.1,444.1z"/>
					</g>
					<g>
						<path class="st2" d="M484.9,446.8c-0.3,0.1-0.6-0.1-0.7-0.4l0,0c-0.1-0.3,0.1-0.6,0.4-0.7l4.9-1.5c0.3-0.1,0.6,0.1,0.7,0.4
							l0,0c0.1,0.3-0.1,0.6-0.4,0.7L484.9,446.8z"/>
						<path class="st2" d="M485.7,449.6c-0.3,0.1-0.6-0.1-0.7-0.3l0,0c-0.1-0.3,0.1-0.6,0.4-0.7l4.9-1.5c0.3-0.1,0.6,0.1,0.7,0.4
							l0,0c0.1,0.3-0.1,0.6-0.4,0.7L485.7,449.6z"/>
						<path class="st2" d="M486.6,452.4c-0.3,0.1-0.6-0.1-0.7-0.4l0,0c-0.1-0.3,0.1-0.6,0.4-0.7l4.9-1.5c0.3-0.1,0.6,0.1,0.7,0.4
							l0,0c0.1,0.3-0.1,0.6-0.4,0.7L486.6,452.4z"/>
						<path class="st2" d="M487.4,455.2c-0.3,0.1-0.6-0.1-0.7-0.4l0,0c-0.1-0.3,0.1-0.6,0.4-0.7l4.9-1.5c0.3-0.1,0.6,0.1,0.7,0.4
							l0,0c0.1,0.3-0.1,0.6-0.4,0.7L487.4,455.2z"/>
						<path class="st2" d="M488.3,457.9c-0.3,0.1-0.6-0.1-0.7-0.4l0,0c-0.1-0.3,0.1-0.6,0.4-0.7l4.9-1.5c0.3-0.1,0.6,0.1,0.7,0.4
							l0,0c0.1,0.3-0.1,0.6-0.4,0.7L488.3,457.9z"/>
						<path class="st2" d="M489.1,460.7c-0.3,0.1-0.6-0.1-0.7-0.4l0,0c-0.1-0.3,0.1-0.6,0.4-0.7l4.9-1.5c0.3-0.1,0.6,0.1,0.7,0.4
							l0,0c0.1,0.3-0.1,0.6-0.4,0.7L489.1,460.7z"/>
						<path class="st2" d="M490,463.5c-0.3,0.1-0.6-0.1-0.7-0.4l0,0c-0.1-0.3,0.1-0.6,0.4-0.7l4.9-1.5c0.3-0.1,0.6,0.1,0.7,0.4l0,0
							c0.1,0.3-0.1,0.6-0.4,0.7L490,463.5z"/>
						<path class="st2" d="M490.8,466.3c-0.3,0.1-0.6-0.1-0.7-0.4l0,0c-0.1-0.3,0.1-0.6,0.4-0.7l4.9-1.5c0.3-0.1,0.6,0.1,0.7,0.4
							l0,0c0.1,0.3-0.1,0.6-0.4,0.7L490.8,466.3z"/>
					</g>
					<path class="st2" d="M491.7,469c-0.3,0.1-0.6-0.1-0.7-0.4l0,0c-0.1-0.3,0.1-0.6,0.4-0.7l4.9-1.5c0.3-0.1,0.6,0.1,0.7,0.4l0,0
						c0.1,0.3-0.1,0.6-0.4,0.7L491.7,469z"/>
					<path class="st2" d="M492.5,471.8c-0.3,0.1-0.6-0.1-0.7-0.4l0,0c-0.1-0.3,0.1-0.6,0.4-0.7l4.8-1.5c0.3-0.1,0.6,0.1,0.7,0.4l0,0
						c0.1,0.3-0.1,0.6-0.4,0.7L492.5,471.8z"/>
					<path class="st2" d="M493.3,474.6c-0.3,0.1-0.6-0.1-0.7-0.4l0,0c-0.1-0.3,0.1-0.6,0.4-0.7l4.9-1.5c0.3-0.1,0.6,0.1,0.7,0.4l0,0
						c0.1,0.3-0.1,0.6-0.4,0.7L493.3,474.6z"/>
					<path class="st2" d="M494.2,477.4c-0.3,0.1-0.6-0.1-0.7-0.4l0,0c-0.1-0.3,0.1-0.6,0.4-0.7l4.9-1.5c0.3-0.1,0.6,0.1,0.7,0.4l0,0
						c0.1,0.3-0.1,0.6-0.4,0.7L494.2,477.4z"/>
					<path class="st2" d="M495,480.1c-0.3,0.1-0.6-0.1-0.7-0.4l0,0c-0.1-0.3,0.1-0.6,0.4-0.7l4.9-1.5c0.3-0.1,0.6,0.1,0.7,0.4l0,0
						c0.1,0.3-0.1,0.6-0.4,0.7L495,480.1z"/>
					<path class="st2" d="M495.9,482.9c-0.3,0.1-0.6-0.1-0.7-0.4l0,0c-0.1-0.3,0.1-0.6,0.4-0.7l4.9-1.5c0.3-0.1,0.6,0.1,0.7,0.4l0,0
						c0.1,0.3-0.1,0.6-0.4,0.7L495.9,482.9z"/>
					<path class="st2" d="M496.7,485.7c-0.3,0.1-0.6-0.1-0.7-0.4l0,0c-0.1-0.3,0.1-0.6,0.4-0.7l4.8-1.5c0.3-0.1,0.6,0.1,0.7,0.4l0,0
						c0.1,0.3-0.1,0.6-0.4,0.7L496.7,485.7z"/>
					<path class="st2" d="M497.6,488.5c-0.3,0.1-0.6-0.1-0.7-0.4l0,0c-0.1-0.3,0.1-0.6,0.4-0.7l4.9-1.5c0.3-0.1,0.6,0.1,0.7,0.4l0,0
						c0.1,0.3-0.1,0.6-0.4,0.7L497.6,488.5z"/>
					<path class="st2" d="M498.4,491.2c-0.3,0.1-0.6-0.1-0.7-0.4l0,0c-0.1-0.3,0.1-0.6,0.4-0.7l4.9-1.5c0.3-0.1,0.6,0.1,0.7,0.4l0,0
						c0.1,0.3-0.1,0.6-0.4,0.7L498.4,491.2z"/>
					<path class="st2" d="M499.3,494c-0.3,0.1-0.6-0.1-0.7-0.4l0,0c-0.1-0.3,0.1-0.6,0.4-0.7l4.9-1.5c0.3-0.1,0.6,0.1,0.7,0.4l0,0
						c0.1,0.3-0.1,0.6-0.4,0.7L499.3,494z"/>
					<path class="st2" d="M500.1,496.8c-0.3,0.1-0.6-0.1-0.7-0.4l0,0c-0.1-0.3,0.1-0.6,0.4-0.7l4.8-1.5c0.3-0.1,0.6,0.1,0.7,0.4l0,0
						c0.1,0.3-0.1,0.6-0.4,0.7L500.1,496.8z"/>
				</g>
			</g>
		</g>
	</g>
</g>
</svg>
