<?xml version="1.0" encoding="utf-8"?>
<!-- Generator: Adobe Illustrator 23.0.1, SVG Export Plug-In . SVG Version: 6.00 Build 0)  -->
<svg version="1.1" id="Layer_1" xmlns="http://www.w3.org/2000/svg" xmlns:xlink="http://www.w3.org/1999/xlink" x="0px" y="0px"
	 viewBox="0 0 804.2 804.2" style="enable-background:new 0 0 804.2 804.2;" xml:space="preserve">
<style type="text/css">
	.st0{fill:#5C4941;}
	.st1{fill:#D5F3C3;}
	.st2{opacity:0.3;}
	.st3{fill:#B2CEBA;}
	.st4{fill:#B98383;}
	.st5{fill:#C39595;}
	.st6{fill:#F7C04A;}
	.st7{fill:#91B99C;}
	.st8{fill:#A7C7B0;}
	.st9{fill:#BFD6C6;}
	.st10{fill:#DABDBD;}
	.st11{fill:#ADA4A0;}
	.st12{opacity:0.3;fill:#FFFFFF;}
	.st13{fill:#9B4E4E;}
	.st14{fill:#539165;}
	.st15{fill:#AF7070;}
	.st16{fill:#BD8A8A;}
	.st17{fill:#A05757;}
	.st18{fill:#933F3F;}
	.st19{fill:#A66161;}
	.st20{fill:#B0CCB8;}
	.st21{fill:#CEF0B9;}
	.st22{fill:#B67D7D;}
	.st23{fill:#A55F5F;}
	.st24{opacity:0.2;}
	.st25{fill:#B77F7F;}
	.st26{fill:#FFFFFF;}
	.st27{fill:#CCC7C4;}
	.st28{fill:#AA6868;}
</style>
<g>
	<g>
		<g>
			<g>
				<path class="st0" d="M209.7,625.1l0.1,3.5c0,0,2.3-0.1,4.6-0.3c2.3-0.2,4.6-0.4,4.6-0.4l-0.4-3.5c0,0-2.2,0.2-4.5,0.4
					C211.9,625,209.7,625.1,209.7,625.1z"/>
			</g>
			<g>
				<polygon class="st0" points="196.3,625.5 196.3,628.9 205.4,628.8 205.3,625.3 				"/>
			</g>
			<g>
				<polygon class="st0" points="182.8,625.1 182.7,628.6 191.8,628.9 191.9,625.4 				"/>
			</g>
			<g>
				<polygon class="st0" points="169.5,624 169.1,627.5 178.2,628.3 178.4,624.8 				"/>
			</g>
			<g>
				<path class="st0" d="M156.2,622.2l-0.6,3.4c0,0,2.2,0.4,4.5,0.8c2.3,0.3,4.5,0.7,4.5,0.7l0.5-3.4c0,0-2.2-0.3-4.5-0.7
					C158.4,622.6,156.2,622.2,156.2,622.2z"/>
			</g>
			<g>
				<path class="st0" d="M143.2,619.2l-0.9,3.4c0,0,2.2,0.7,4.4,1.1c2.2,0.5,4.5,1,4.5,1l0.7-3.4c0,0-2.2-0.5-4.4-1
					C145.3,619.9,143.2,619.2,143.2,619.2z"/>
			</g>
			<g>
				<path class="st0" d="M130.6,615l-1.3,3.2c0,0,2.1,0.9,4.3,1.6c2.2,0.8,4.4,1.5,4.4,1.5l1-3.3c0,0-2.1-0.7-4.2-1.4
					C132.6,615.9,130.6,615,130.6,615z"/>
			</g>
		</g>
		<g>
			<g>
				<path class="st0" d="M118.7,609.1l-1.8,3c0,0,1.9,1.3,4,2.3c2.1,1,4.1,2.1,4.1,2.1l1.5-3.2c0,0-2-1-4-2
					C120.6,610.4,118.7,609.1,118.7,609.1z"/>
			</g>
			<g>
				<path class="st0" d="M108.4,601.2l-2.4,2.5c0,0,1.7,1.6,3.4,3.2c1.9,1.4,3.7,2.8,3.7,2.8l2-2.8c0,0-1.8-1.3-3.5-2.6
					C110,602.6,108.4,601.2,108.4,601.2z"/>
			</g>
			<g>
				<path class="st0" d="M100.5,590.9l-3,1.7c0,0,1.3,2,2.5,4c1.3,2,2.9,3.7,2.9,3.7l2.7-2.2c0,0-1.5-1.6-2.7-3.4
					C101.6,592.8,100.5,590.9,100.5,590.9z"/>
			</g>
			<g>
				<path class="st0" d="M96,578.8l-3.4,0.7c-0.1,0,0.6,2.3,1.2,4.5c0.5,2.3,1.6,4.4,1.6,4.4l3.2-1.4c0,0-1-2-1.5-4.1
					C96.6,580.9,95.9,578.8,96,578.8z"/>
			</g>
			<g>
				<path class="st0" d="M95,565.8l-3.5-0.2c0,0,0,9.3,0.4,9.3l3.4-0.4C95.1,574.6,95,565.8,95,565.8z"/>
			</g>
			<g>
				<path class="st0" d="M96.9,552.7l-3.4-0.8c0,0-0.5,2.3-1,4.5c-0.4,2.3-0.6,4.6-0.6,4.6l3.5,0.4c0,0,0.1-2.2,0.5-4.4
					C96.5,554.9,96.9,552.7,96.9,552.7z"/>
			</g>
			<g>
				<polygon class="st0" points="100.6,540 97.3,538.8 94.6,547.6 97.9,548.5 				"/>
			</g>
		</g>
		<g>
			<g>
				<polygon class="st0" points="104.9,527.1 101.6,526 98.7,534.6 102,535.7 				"/>
			</g>
			<g>
				<path class="st0" d="M108.8,514.1l-3.4-0.9c0,0-0.6,2.2-1.2,4.4c-0.5,2.2-1.3,4.3-1.3,4.3l3.3,1c0,0,0.8-2.1,1.4-4.4
					C108.2,516.3,108.8,514.1,108.8,514.1z"/>
			</g>
			<g>
				<path class="st0" d="M112.3,500.9l-3.4-0.8c0,0-0.5,2.2-1.1,4.4c-0.6,2.2-1.2,4.3-1.2,4.3l3.4,0.9c0,0,0.6-2.2,1.2-4.4
					C111.7,503.1,112.3,500.9,112.3,500.9z"/>
			</g>
			<g>
				<polygon class="st0" points="114.8,487.5 111.4,487 109.7,495.8 113.1,496.5 				"/>
			</g>
			<g>
				<polygon class="st0" points="116.5,474 113,473.7 112.1,482.6 115.5,483.1 				"/>
			</g>
			<g>
				<polygon class="st0" points="117,460.3 113.6,460.3 113.4,469.3 116.9,469.5 				"/>
			</g>
			<g>
				<polygon class="st0" points="116.2,446.6 112.7,447 113.5,456 117,455.8 				"/>
			</g>
		</g>
		<g>
			<g>
				<polygon class="st0" points="113.8,433.1 110.4,433.9 112.1,442.7 115.6,442.2 				"/>
			</g>
			<g>
				<path class="st0" d="M109.6,420l-3.3,1.3c0.2-0.1,2.8,8.5,2.8,8.5l3.3-1C112.5,428.8,109.8,420,109.6,420z"/>
			</g>
			<g>
				<path class="st0" d="M103.9,407.6l-3.1,1.6c0,0,1,2,2,4c1,2,1.8,4.1,1.8,4.1l3.2-1.4c0,0-0.8-2.2-1.8-4.2
					C105,409.6,103.9,407.6,103.9,407.6z"/>
			</g>
			<g>
				<polygon class="st0" points="97.3,395.6 94.3,397.4 98.9,405.2 101.9,403.5 				"/>
			</g>
			<g>
				<polygon class="st0" points="90.1,384.2 87.1,386.1 92,393.7 95,391.8 				"/>
			</g>
			<g>
				<polygon class="st0" points="82.6,372.9 79.7,374.8 84.7,382.4 87.6,380.4 				"/>
			</g>
			<g>
				<polygon class="st0" points="75.3,361.5 72.4,363.4 77.3,371.1 80.2,369.2 				"/>
			</g>
		</g>
		<g>
			<g>
				<polygon class="st0" points="68.5,350 65.4,351.7 70,359.6 73,357.8 				"/>
			</g>
			<g>
				<path class="st0" d="M62.7,338.1l-3.2,1.3c-0.3,0.1,3.8,8.4,3.8,8.4l3.1-1.6C66.3,346.1,62.4,338.2,62.7,338.1z"/>
			</g>
			<g>
				<path class="st0" d="M59.1,325.4l-3.4,0.6c0,0,0.1,0.6,0.2,1.4c0.2,0.8,0.5,2,0.8,3.1c0.6,2.3,1.2,4.5,1.2,4.5l3.3-1.1
					c0,0-0.6-2.1-1.2-4.3c-0.3-1.1-0.5-2.1-0.7-2.9C59.2,326,59.1,325.4,59.1,325.4z"/>
			</g>
			<g>
				<path class="st0" d="M58.2,312.4l-3.5-0.2c0,0-0.2,2.3,0,4.7c0.1,2.3,0.3,4.6,0.3,4.6l3.4-0.4c0,0-0.2-2.2-0.2-4.4
					C58.1,314.6,58.2,312.4,58.2,312.4z"/>
			</g>
			<g>
				<path class="st0" d="M60.3,299.4l-3.4-0.9c0,0-0.1,0.6-0.4,1.4c-0.3,0.8-0.5,2-0.7,3.1c-0.4,2.3-0.8,4.6-0.8,4.6l3.5,0.4
					c0,0,0.4-2.2,0.7-4.3c0.2-1.1,0.4-2.2,0.7-2.9C60.1,300,60.3,299.4,60.3,299.4z"/>
			</g>
			<g>
				<path class="st0" d="M65.1,287.3l-3.1-1.6c0,0-1,2.1-2.1,4.2c-0.8,2.2-1.7,4.4-1.7,4.4l3.3,1.2c0,0,0.8-2,1.6-4.1
					C64.1,289.3,65.1,287.3,65.1,287.3z"/>
			</g>
			<g>
				<path class="st0" d="M72.5,276.4l-2.7-2.3c0,0-1.4,1.8-2.9,3.7c-1.5,1.8-2.6,3.9-2.6,3.9l3,1.8c0,0,1.1-1.9,2.5-3.7
					C71.1,278.2,72.5,276.4,72.5,276.4z"/>
			</g>
		</g>
		<g>
			<g>
				<path class="st0" d="M82,267.4l-2.1-2.8c-0.1-0.2-7.1,6-7,6.2l2.5,2.4C75.3,273.1,81.9,267.3,82,267.4z"/>
			</g>
			<g>
				<path class="st0" d="M93.2,260.6l-1.5-3.2c0,0-2.1,1-4.2,2.1c-2,1.2-4,2.4-4,2.4l1.9,2.9c0,0,1.9-1.2,3.7-2.3
					C91.2,261.6,93.2,260.6,93.2,260.6z"/>
			</g>
			<g>
				<path class="st0" d="M105.6,256.6l-0.7-3.4c-0.1-0.2-9,2.4-9,2.6l1.2,3.3C97.1,258.8,105.5,256.3,105.6,256.6z"/>
			</g>
			<g>
				<path class="st0" d="M118.6,255.8l0.3-3.5c0,0-2.4-0.3-4.7-0.1c-2.3,0.1-4.7,0.3-4.7,0.3l0.4,3.5c0,0,2.2-0.1,4.4-0.2
					C116.4,255.5,118.6,255.8,118.6,255.8z"/>
			</g>
			<g>
				<path class="st0" d="M131.3,258.4l1.2-3.3c0,0-2.3-0.7-4.5-1.4c-2.3-0.7-4.6-1-4.6-1l-0.6,3.4c0,0,2.2,0.2,4.3,0.9
					C129.2,257.8,131.3,258.4,131.3,258.4z"/>
			</g>
			<g>
				<path class="st0" d="M142.7,264.6l2-2.8c0.2-0.2-7.9-5-8.1-4.7l-1.5,3.2C135.3,259.9,142.9,264.4,142.7,264.6z"/>
			</g>
			<g>
				<path class="st0" d="M152.4,273.3l2.6-2.3c0.2-0.2-6.6-6.5-6.6-6.5l-2.2,2.7C146.2,267.2,152.6,273.2,152.4,273.3z"/>
			</g>
		</g>
		<g>
			<g>
				<path class="st0" d="M160.3,283.9l3-1.8c0,0-1.3-1.9-2.6-3.9c-1.3-1.9-2.7-3.8-2.7-3.8l-2.7,2.1c0,0,1.3,1.8,2.6,3.6
					C159.1,282.1,160.3,283.9,160.3,283.9z"/>
			</g>
			<g>
				<path class="st0" d="M166.3,295.7l3.2-1.4c0,0-0.9-2.1-1.9-4.2c-0.9-2.1-2.1-4.1-2.1-4.1l-3.1,1.7c0,0,1.2,1.9,2.1,3.9
					C165.4,293.7,166.3,295.7,166.3,295.7z"/>
			</g>
			<g>
				<polygon class="st0" points="171.8,308.2 175,306.7 171.3,298.4 168.1,299.8 				"/>
			</g>
			<g>
				<path class="st0" d="M178.4,320.2l3-1.8c-0.2,0.1-4.4-7.8-4.4-7.8l-3.1,1.6C173.9,312.2,178.2,320.3,178.4,320.2z"/>
			</g>
			<g>
				<path class="st0" d="M186.3,331.4l2.7-2.2c0,0-1.4-1.8-2.7-3.5c-1.4-1.8-2.5-3.7-2.5-3.7l-2.9,1.9c0,0,1.2,2,2.6,3.8
					C184.8,329.6,186.3,331.4,186.3,331.4z"/>
			</g>
			<g>
				<path class="st0" d="M195.6,341.6l2.4-2.6c-0.2,0.2-6.2-6.4-6.2-6.4l-2.6,2.3C189.1,334.9,195.4,341.8,195.6,341.6z"/>
			</g>
			<g>
				<path class="st0" d="M206.5,350l1.9-2.9c0,0-7.3-5-7.1-5.3l-2.2,2.7C198.8,344.7,206.5,350,206.5,350z"/>
			</g>
		</g>
		<g>
			<g>
				<path class="st0" d="M218.8,356.4l1.3-3.2c0,0-2-0.9-4.1-1.7c-2-1.1-3.9-2.1-3.9-2.1l-1.7,3c0,0,2,1.1,4.1,2.2
					C216.6,355.5,218.8,356.4,218.8,356.4z"/>
			</g>
			<g>
				<path class="st0" d="M232,360.3l0.7-3.4c0,0-2.2-0.4-4.3-1c-2.1-0.6-4.2-1.3-4.2-1.3l-1.1,3.3c0,0,2.2,0.7,4.4,1.4
					C229.7,359.9,232,360.3,232,360.3z"/>
			</g>
			<g>
				<path class="st0" d="M245.7,361.9l0.1-3.5c0,0.2-8.9-0.7-8.9-0.7l-0.5,3.5c0,0,2.3,0.2,4.6,0.5
					C243.4,361.9,245.7,361.9,245.7,361.9z"/>
			</g>
			<g>
				<path class="st0" d="M259.5,361.3l-0.4-3.5c0,0.2-8.9,0.7-8.9,0.7l0.1,3.5C250.3,361.9,259.5,361.5,259.5,361.3z"/>
			</g>
			<g>
				<path class="st0" d="M273,358.9l-0.8-3.4c0,0-2.2,0.5-4.4,0.9c-2.2,0.5-4.4,0.8-4.4,0.8l0.5,3.5c0,0,2.3-0.4,4.5-0.8
					C270.8,359.4,273,358.9,273,358.9z"/>
			</g>
			<g>
				<path class="st0" d="M286.1,355l-1.1-3.3c0,0-2.1,0.7-4.3,1.4c-2.1,0.7-4.3,1.3-4.3,1.3l0.9,3.4c0,0,2.3-0.6,4.4-1.3
					C283.9,355.7,286.1,355,286.1,355z"/>
			</g>
			<g>
				<path class="st0" d="M298.8,349.9l-1.4-3.2c0,0-2,0.9-4.1,1.8c-2.1,0.9-4.2,1.7-4.2,1.7l1.2,3.3c0,0,2.2-0.8,4.3-1.7
					C296.7,350.9,298.8,349.9,298.8,349.9z"/>
			</g>
		</g>
		<g>
			<g>
				<path class="st0" d="M311,343.8l-1.7-3.1c0,0-2,1.1-4,2.1c-2,1-4,2-4,2l1.5,3.1c0,0,2.1-1,4.1-2C309,344.9,311,343.8,311,343.8z
					"/>
			</g>
			<g>
				<path class="st0" d="M322.7,336.8l-1.9-2.9c0,0-1.9,1.2-3.8,2.4c-1.9,1.1-3.9,2.3-3.9,2.3l1.8,3c0,0,2-1.2,3.9-2.3
					C320.8,338.1,322.7,336.8,322.7,336.8z"/>
			</g>
			<g>
				<path class="st0" d="M333.9,329l-2.1-2.8c0,0-1.8,1.3-3.6,2.7c-1.8,1.3-3.7,2.6-3.7,2.6l2,2.9c0,0,1.9-1.3,3.8-2.6
					C332.1,330.4,333.9,329,333.9,329z"/>
			</g>
			<g>
				<path class="st0" d="M344.5,320.4l-2.3-2.6c0,0-1.7,1.5-3.4,3c-1.7,1.4-3.5,2.8-3.5,2.8l2.2,2.7c0,0,1.8-1.4,3.6-2.9
					C342.8,321.9,344.5,320.4,344.5,320.4z"/>
			</g>
			<g>
				<path class="st0" d="M354.1,310.7l-2.5-2.4c0,0-1.5,1.8-3.1,3.4c-1.5,1.6-3.2,3.2-3.2,3.2l2.4,2.5c0,0,1.7-1.6,3.3-3.3
					C352.7,312.4,354.1,310.7,354.1,310.7z"/>
			</g>
			<g>
				<path class="st0" d="M364,302.6l-1.7-3c-2.5,1.4-5.5,2.3-7.3,4.6l-0.4,0.5l2.3,2.7l0.4-0.5C358.9,304.7,361.7,304,364,302.6z"/>
			</g>
			<g>
				<path class="st0" d="M376.2,297.8l-1.1-3.3c0,0-2.2,0.6-4.4,1.5c-2.2,0.8-4.3,1.7-4.3,1.7l1.4,3.2c0,0,2.1-0.8,4.1-1.6
					C374,298.4,376.2,297.8,376.2,297.8z"/>
			</g>
		</g>
		<g>
			<g>
				<path class="st0" d="M389.1,294.5l-0.6-3.4c0-0.2-9,2-9,2l0.9,3.4C380.4,296.5,389,294.3,389.1,294.5z"/>
			</g>
			<g>
				<path class="st0" d="M402.2,293.1l-0.1-3.5c0,0-2.3,0.2-4.6,0.3c-2.3,0.2-4.6,0.4-4.6,0.4l0.4,3.5c0,0,2.2-0.3,4.4-0.4
					C400,293.3,402.2,293.1,402.2,293.1z"/>
			</g>
			<g>
				<path class="st0" d="M415.4,293.9l0.4-3.5c0,0-2.3-0.3-4.6-0.6c-2.3-0.1-4.6-0.1-4.6-0.1l-0.1,3.5c0,0,2.2,0.1,4.4,0.1
					C413.2,293.6,415.4,293.9,415.4,293.9z"/>
			</g>
			<g>
				<path class="st0" d="M428.3,296.6l1-3.3c0,0-8.9-2.5-9-2.2l-0.6,3.4C419.8,294.2,428.3,296.6,428.3,296.6z"/>
			</g>
			<g>
				<path class="st0" d="M440.7,301.3l1.5-3.1c0.1-0.1-2.1-0.9-4.3-1.8c-2.2-0.9-4.3-1.7-4.3-1.7l-1.2,3.3c0,0,2.1,0.8,4.1,1.7
					C438.6,300.4,440.7,301.2,440.7,301.3z"/>
			</g>
			<g>
				<path class="st0" d="M452.1,308l1.9-2.9c0.2-0.3-7.9-4.7-7.9-4.7l-1.7,3.1C444.5,303.4,452.3,307.7,452.1,308z"/>
			</g>
			<g>
				<path class="st0" d="M462.6,316.1l2.3-2.6c0,0-0.4-0.4-1.1-1c-0.6-0.6-1.5-1.4-2.4-2c-1.9-1.4-3.7-2.7-3.7-2.7l-2.1,2.8
					c0,0,1.8,1.3,3.6,2.6c0.9,0.6,1.8,1.4,2.4,2C462.2,315.7,462.6,316.1,462.6,316.1z"/>
			</g>
		</g>
		<g>
			<g>
				<polygon class="st0" points="472.4,325.3 474.8,322.9 468.2,316.6 465.8,319.1 				"/>
			</g>
			<g>
				<path class="st0" d="M482.8,334.6l1.7-3.1c-0.1,0.1-6.7-5.6-6.7-5.6l-2.3,2.7C475.6,328.6,482.7,334.7,482.8,334.6z"/>
			</g>
			<g>
				<path class="st0" d="M495,341.5l0.8-3.5c0,0-2-0.9-4-1.9c-1.9-1.1-3.8-2.2-3.8-2.2l-1.4,3.2c0,0,2,1.3,4.1,2.4
					C492.8,340.6,495,341.5,495,341.5z"/>
			</g>
			<g>
				<path class="st0" d="M508.6,343.9l-0.1-3.6c0,0-0.6,0-1.4,0.1c-0.8-0.1-1.9-0.1-3-0.2c-2.2-0.2-4.3-0.8-4.3-0.8l-0.5,3.6
					c0,0,2.3,0.6,4.6,0.8c1.2,0.1,2.4,0.1,3.2,0.2C508,343.9,508.6,343.9,508.6,343.9z"/>
			</g>
			<g>
				<path class="st0" d="M522,340.2l-1.1-3.4c0.1,0.2-8.1,3.4-8.2,2.9l0.4,3.6c0,0,2.3-0.4,4.5-1.3C519.9,341.2,522,340.2,522,340.2
					z"/>
			</g>
			<g>
				<path class="st0" d="M533.6,332.3l-1.9-2.9c0,0-1.7,1.4-3.4,2.7c-1.8,1.2-3.6,2.5-3.6,2.5l1.4,3.3c0,0,2-1.3,3.9-2.7
					C531.8,333.8,533.6,332.3,533.6,332.3z"/>
			</g>
			<g>
				<path class="st0" d="M543.8,322.9l-2.5-2.4c0,0-1.6,1.6-3.2,3.2c-1.6,1.5-3.2,3-3.2,3l2.2,2.7c0,0,1.7-1.6,3.4-3.2
					C542.2,324.5,543.8,322.9,543.8,322.9z"/>
			</g>
		</g>
		<g>
			<g>
				<polygon class="st0" points="553.2,313.1 550.7,310.7 544.4,317.3 546.9,319.7 				"/>
			</g>
			<g>
				<polygon class="st0" points="562.6,303.5 560.1,301 553.7,307.5 556.2,309.9 				"/>
			</g>
			<g>
				<path class="st0" d="M572.3,294.3l-2.3-2.6c0,0-1.7,1.5-3.4,3c-1.7,1.6-3.4,3.1-3.4,3.1l2.4,2.5c0,0,1.6-1.5,3.3-3.1
					C570.6,295.8,572.3,294.3,572.3,294.3z"/>
			</g>
			<g>
				<path class="st0" d="M582.9,286.2l-1.9-2.9c0,0-1.9,1.3-3.8,2.6c-1.8,1.4-3.7,2.8-3.7,2.8l2.2,2.7c0,0,1.8-1.4,3.6-2.7
					C581.1,287.5,582.9,286.2,582.9,286.2z"/>
			</g>
			<g>
				<path class="st0" d="M594.4,279.9l-1.4-3.2c0,0-2.2,0.9-4.2,2c-2.1,1-4.1,2.2-4.1,2.2l1.8,3c0,0,1.9-1.2,3.9-2.2
					C592.4,280.7,594.4,279.9,594.4,279.9z"/>
			</g>
			<g>
				<path class="st0" d="M607,275.5l-1-3.3c0,0-2.2,0.6-4.4,1.4c-2.2,0.7-4.3,1.5-4.3,1.5l1.2,3.3c0,0,2.1-0.7,4.2-1.4
					C604.8,276.1,607,275.5,607,275.5z"/>
			</g>
			<g>
				<path class="st0" d="M619.9,272.7l-0.5-3.4c0,0-2.3,0.4-4.5,0.8c-2.3,0.4-4.5,1-4.5,1l0.8,3.4c0,0,2.2-0.7,4.4-1
					C617.7,273.1,619.9,272.7,619.9,272.7z"/>
			</g>
		</g>
		<g>
			<g>
				<path class="st0" d="M633.1,271.8l0-3.5c0,0-2.3-0.2-4.6,0c-2.3,0.2-4.6,0.4-4.6,0.4l0.3,3.5c0,0,2.2-0.2,4.4-0.3
					C630.9,271.6,633.1,271.8,633.1,271.8z"/>
			</g>
			<g>
				<path class="st0" d="M646.2,273.1l0.7-3.4c0-0.3-9.2-1.3-9.2-1.3l-0.2,3.5C637.5,271.9,646.3,272.8,646.2,273.1z"/>
			</g>
			<g>
				<path class="st0" d="M658.8,276.9l1.3-3.2c0.1-0.2-8.8-3-8.8-3l-0.9,3.4C650.5,274,658.9,276.6,658.8,276.9z"/>
			</g>
			<g>
				<path class="st0" d="M670.3,283.1l2-2.9c0.1-0.2-8-4.8-8-4.8l-1.5,3.1C662.8,278.6,670.5,282.9,670.3,283.1z"/>
			</g>
			<g>
				<path class="st0" d="M680.4,291.6l2.5-2.4c0,0-1.5-1.8-3.4-3.2c-1.8-1.5-3.5-3-3.5-3l-2.2,2.7c0,0,1.7,1.4,3.4,2.9
					C678.9,289.9,680.4,291.6,680.4,291.6z"/>
			</g>
			<g>
				<path class="st0" d="M688.7,301.8l2.9-2c0,0-1.2-2-2.7-3.8c-1.5-1.8-2.9-3.6-2.9-3.6l-2.6,2.3c0,0,1.4,1.7,2.8,3.4
					C687.6,299.9,688.7,301.8,688.7,301.8z"/>
			</g>
			<g>
				<path class="st0" d="M695.3,313.2l3.2-1.5c0,0-1-2.1-2.1-4.1c-1.2-2-2.3-4-2.3-4l-3,1.8c0,0,1.1,1.9,2.2,3.9
					C694.4,311.2,695.3,313.2,695.3,313.2z"/>
			</g>
		</g>
		<g>
			<g>
				<path class="st0" d="M700.2,325.6l3.3-1c0,0-0.7-2.2-1.4-4.4c-0.8-2.2-1.7-4.3-1.7-4.3l-3.2,1.3c0,0,0.8,2.1,1.6,4.1
					C699.5,323.4,700.2,325.6,700.2,325.6z"/>
			</g>
			<g>
				<path class="st0" d="M703.3,338.5l3.4-0.6c0,0-0.3-2.3-0.9-4.5c-0.5-2.2-1.1-4.5-1.1-4.5l-3.4,0.9c0,0,0.5,2.2,1.1,4.3
					C703,336.3,703.3,338.5,703.3,338.5z"/>
			</g>
			<g>
				<path class="st0" d="M704.8,351.7l3.5-0.2c0,0,0-2.3-0.3-4.6c-0.3-2.3-0.5-4.6-0.5-4.6l-3.5,0.4c0,0,0.2,2.2,0.5,4.4
					C704.8,349.4,704.8,351.7,704.8,351.7z"/>
			</g>
			<g>
				<path class="st0" d="M704.6,365l3.5,0.3c0,0,0.3-2.3,0.2-4.6c0-2.3,0.1-4.6,0.1-4.6l-3.5,0c0,0,0,2.2-0.1,4.5
					C704.9,362.8,704.6,365,704.6,365z"/>
			</g>
			<g>
				<path class="st0" d="M702.9,378.1l3.4,0.7c0,0,0.5-2.2,0.8-4.5c0.3-2.3,0.7-4.6,0.7-4.6l-3.5-0.4c0,0-0.3,2.2-0.7,4.4
					C703.4,376,702.9,378.1,702.9,378.1z"/>
			</g>
			<g>
				<path class="st0" d="M699.4,391l3.3,1.1c0,0,0.8-2.2,1.3-4.4c0.6-2.2,1.2-4.4,1.2-4.4l-3.4-0.8c0,0-0.6,2.1-1.2,4.3
					C700.2,388.9,699.4,391,699.4,391z"/>
			</g>
			<g>
				<path class="st0" d="M694.3,403.2l3.1,1.5c0,0,1-2.1,1.9-4.2c1-2.1,1.8-4.2,1.8-4.2l-3.3-1.3c0,0-0.8,2.1-1.7,4.1
					C695.3,401.2,694.3,403.2,694.3,403.2z"/>
			</g>
		</g>
		<g>
			<g>
				<path class="st0" d="M687.6,414.6l2.9,2c0,0,5-7.7,4.9-7.8l-3-1.7C692.5,407.2,687.6,414.6,687.6,414.6z"/>
			</g>
			<g>
				<path class="st0" d="M679.3,425l2.6,2.3c0,0,1.6-1.7,3-3.4c1.4-1.8,2.8-3.7,2.8-3.7l-2.8-2.1c0,0-1.3,1.8-2.7,3.5
					C680.8,423.3,679.3,425,679.3,425z"/>
			</g>
			<g>
				<path class="st0" d="M669.9,434.5l2.4,2.5c0,0,6.7-6.3,6.5-6.4l-2.5-2.4C676.4,428.3,669.9,434.5,669.9,434.5z"/>
			</g>
			<g>
				<path class="st0" d="M659.8,443.3l2.2,2.7c0,0,1.8-1.5,3.5-2.9c1.8-1.4,3.5-3,3.5-3l-2.3-2.6c0,0-1.7,1.5-3.4,2.9
					C661.5,441.8,659.8,443.3,659.8,443.3z"/>
			</g>
			<g>
				<polygon class="st0" points="649.1,451.3 651.1,454.2 658.5,448.8 656.4,446.1 				"/>
			</g>
			<g>
				<polygon class="st0" points="637.9,458.6 639.7,461.6 647.5,456.8 645.5,453.9 				"/>
			</g>
			<g>
				<path class="st0" d="M626.2,465.3l1.7,3.1c0,0,2-1.1,4-2.2c2-1,4-2.3,4-2.3l-1.8-3c0,0-1.9,1.2-3.9,2.2
					C628.2,464.3,626.2,465.3,626.2,465.3z"/>
			</g>
		</g>
		<g>
			<g>
				<path class="st0" d="M614.3,471.3l1.5,3.2c0,0,2.1-0.9,4.2-1.9c2.1-1.1,4.1-2.1,4.1-2.1l-1.6-3.1c0,0-2,1-4,2.1
					C616.3,470.4,614.3,471.3,614.3,471.3z"/>
			</g>
			<g>
				<path class="st0" d="M602,476.8l1.3,3.2c0,0,2.1-0.8,4.2-1.8c2.1-0.9,4.2-1.9,4.2-1.9l-1.4-3.2c0,0-2.1,0.9-4.1,1.9
					C604.1,476,602,476.8,602,476.8z"/>
			</g>
			<g>
				<polygon class="st0" points="589.4,481.5 590.6,484.8 599.1,481.5 597.9,478.3 				"/>
			</g>
			<g>
				<polygon class="st0" points="576.6,485.5 577.6,488.8 586.3,486.2 585.2,482.9 				"/>
			</g>
			<g>
				<path class="st0" d="M563.6,488.9l0.8,3.4c0,0,2.2-0.5,4.4-1c2.2-0.4,4.4-1.2,4.4-1.2l-0.9-3.4c0,0-2.1,0.7-4.4,1.2
					C565.8,488.4,563.6,488.9,563.6,488.9z"/>
			</g>
			<g>
				<polygon class="st0" points="550.5,491.9 551.2,495.3 560.1,493.3 559.3,489.9 				"/>
			</g>
			<g>
				<polygon class="st0" points="537.3,494 537.8,497.5 546.8,496 546.2,492.6 				"/>
			</g>
		</g>
		<g>
			<g>
				<path class="st0" d="M523.9,495.7l0.4,3.5c0,0,9.1-0.8,9.1-0.9l-0.4-3.4C532.9,494.9,523.9,495.7,523.9,495.7z"/>
			</g>
			<g>
				<polygon class="st0" points="510.5,496.9 510.7,500.4 519.8,499.5 519.5,496.1 				"/>
			</g>
			<g>
				<polygon class="st0" points="497.1,497.3 497.2,500.7 506.3,500.5 506.1,497 				"/>
			</g>
			<g>
				<path class="st0" d="M483.7,497.3l-0.1,3.5c0,0,2.3,0.1,4.6,0.1c2.3,0,4.6-0.1,4.6-0.1l0-3.5c0,0-2.3,0.1-4.5,0.1
					C485.9,497.5,483.7,497.3,483.7,497.3z"/>
			</g>
			<g>
				<polygon class="st0" points="470.2,496.7 470,500.2 479.1,500.6 479.2,497.1 				"/>
			</g>
			<g>
				<path class="st0" d="M456.8,495.7l-0.3,3.5c0,0,2.3,0.3,4.5,0.5c2.3,0.3,4.5,0.4,4.5,0.4l0.2-3.5c0,0-2.2-0.1-4.5-0.4
					C459,495.9,456.8,495.7,456.8,495.7z"/>
			</g>
			<g>
				<polygon class="st0" points="443.4,494.2 443,497.7 452,498.7 452.4,495.2 				"/>
			</g>
		</g>
	</g>
	<g>
		<path class="st1" d="M533.9,683.9c0,5.6-4.5,10.2-10.2,10.2H409.5c-5.6,0-10.2-4.6-10.2-10.2v-58.6c0-5.6,4.6-10.2,10.2-10.2
			h114.3c5.6,0,10.2,4.6,10.2,10.2V683.9z"/>
		<rect x="399.3" y="642.3" class="st2" width="134.7" height="23.4"/>
		<path class="st1" d="M476.2,660.3h-20.9c-57.3,0-103.8-46.5-103.8-103.8V231.8H580v324.8C580,613.8,533.5,660.3,476.2,660.3
			L476.2,660.3z"/>
		<rect x="351.5" y="231.8" class="st2" width="228.5" height="25.5"/>
		<g>
			<g>
				<path class="st3" d="M362.6,251.5c0,0.8-0.7,1.5-1.5,1.5l0,0c-0.8,0-1.5-0.7-1.5-1.5v-14c0-0.8,0.7-1.5,1.5-1.5l0,0
					c0.8,0,1.5,0.7,1.5,1.5V251.5z"/>
				<path class="st3" d="M370.6,251.5c0,0.8-0.7,1.5-1.5,1.5l0,0c-0.9,0-1.5-0.7-1.5-1.5v-14c0-0.8,0.7-1.5,1.5-1.5l0,0
					c0.8,0,1.5,0.7,1.5,1.5V251.5z"/>
				<path class="st3" d="M378.6,251.5c0,0.8-0.7,1.5-1.5,1.5l0,0c-0.8,0-1.5-0.7-1.5-1.5v-14c0-0.8,0.7-1.5,1.5-1.5l0,0
					c0.9,0,1.5,0.7,1.5,1.5V251.5z"/>
				<path class="st3" d="M386.6,251.5c0,0.8-0.7,1.5-1.5,1.5l0,0c-0.8,0-1.5-0.7-1.5-1.5v-14c0-0.8,0.7-1.5,1.5-1.5l0,0
					c0.8,0,1.5,0.7,1.5,1.5V251.5z"/>
				<path class="st3" d="M394.6,251.5c0,0.8-0.7,1.5-1.5,1.5l0,0c-0.8,0-1.5-0.7-1.5-1.5v-14c0-0.8,0.7-1.5,1.5-1.5l0,0
					c0.8,0,1.5,0.7,1.5,1.5V251.5z"/>
				<path class="st3" d="M402.6,251.5c0,0.8-0.7,1.5-1.5,1.5l0,0c-0.8,0-1.5-0.7-1.5-1.5v-14c0-0.8,0.7-1.5,1.5-1.5l0,0
					c0.8,0,1.5,0.7,1.5,1.5V251.5z"/>
				<path class="st3" d="M410.6,251.5c0,0.8-0.7,1.5-1.5,1.5l0,0c-0.8,0-1.5-0.7-1.5-1.5v-14c0-0.8,0.7-1.5,1.5-1.5l0,0
					c0.8,0,1.5,0.7,1.5,1.5V251.5z"/>
				<path class="st3" d="M418.6,251.5c0,0.8-0.7,1.5-1.5,1.5l0,0c-0.8,0-1.5-0.7-1.5-1.5v-14c0-0.8,0.7-1.5,1.5-1.5l0,0
					c0.8,0,1.5,0.7,1.5,1.5V251.5z"/>
			</g>
			<g>
				<path class="st3" d="M426.6,251.5c0,0.8-0.7,1.5-1.5,1.5l0,0c-0.8,0-1.5-0.7-1.5-1.5v-14c0-0.8,0.6-1.5,1.5-1.5l0,0
					c0.8,0,1.5,0.7,1.5,1.5V251.5z"/>
				<path class="st3" d="M434.6,251.5c0,0.8-0.7,1.5-1.5,1.5l0,0c-0.9,0-1.5-0.7-1.5-1.5v-14c0-0.8,0.6-1.5,1.5-1.5l0,0
					c0.8,0,1.5,0.7,1.5,1.5V251.5z"/>
				<path class="st3" d="M442.6,251.5c0,0.8-0.7,1.5-1.5,1.5l0,0c-0.8,0-1.5-0.7-1.5-1.5v-14c0-0.8,0.7-1.5,1.5-1.5l0,0
					c0.8,0,1.5,0.7,1.5,1.5V251.5z"/>
				<path class="st3" d="M450.6,251.5c0,0.8-0.7,1.5-1.5,1.5l0,0c-0.8,0-1.5-0.7-1.5-1.5v-14c0-0.8,0.7-1.5,1.5-1.5l0,0
					c0.8,0,1.5,0.7,1.5,1.5V251.5z"/>
				<path class="st3" d="M458.6,251.5c0,0.8-0.7,1.5-1.5,1.5l0,0c-0.8,0-1.5-0.7-1.5-1.5v-14c0-0.8,0.7-1.5,1.5-1.5l0,0
					c0.8,0,1.5,0.7,1.5,1.5V251.5z"/>
				<path class="st3" d="M466.6,251.5c0,0.8-0.7,1.5-1.5,1.5l0,0c-0.8,0-1.5-0.7-1.5-1.5v-14c0-0.8,0.7-1.5,1.5-1.5l0,0
					c0.8,0,1.5,0.7,1.5,1.5V251.5z"/>
				<path class="st3" d="M474.6,251.5c0,0.8-0.7,1.5-1.5,1.5l0,0c-0.8,0-1.5-0.7-1.5-1.5v-14c0-0.8,0.7-1.5,1.5-1.5l0,0
					c0.8,0,1.5,0.7,1.5,1.5V251.5z"/>
				<path class="st3" d="M482.6,251.5c0,0.8-0.7,1.5-1.5,1.5l0,0c-0.8,0-1.5-0.7-1.5-1.5v-14c0-0.8,0.7-1.5,1.5-1.5l0,0
					c0.8,0,1.5,0.7,1.5,1.5V251.5z"/>
			</g>
			<path class="st3" d="M490.6,251.5c0,0.8-0.7,1.5-1.5,1.5l0,0c-0.9,0-1.5-0.7-1.5-1.5v-14c0-0.8,0.7-1.5,1.5-1.5l0,0
				c0.8,0,1.5,0.7,1.5,1.5V251.5z"/>
			<path class="st3" d="M498.6,251.5c0,0.8-0.7,1.5-1.5,1.5l0,0c-0.8,0-1.5-0.7-1.5-1.5v-14c0-0.8,0.7-1.5,1.5-1.5l0,0
				c0.8,0,1.5,0.7,1.5,1.5V251.5z"/>
			<path class="st3" d="M506.6,251.5c0,0.8-0.7,1.5-1.5,1.5l0,0c-0.8,0-1.5-0.7-1.5-1.5v-14c0-0.8,0.7-1.5,1.5-1.5l0,0
				c0.8,0,1.5,0.7,1.5,1.5V251.5z"/>
			<path class="st3" d="M514.6,251.5c0,0.8-0.7,1.5-1.5,1.5l0,0c-0.8,0-1.5-0.7-1.5-1.5v-14c0-0.8,0.7-1.5,1.5-1.5l0,0
				c0.8,0,1.5,0.7,1.5,1.5V251.5z"/>
			<path class="st3" d="M522.6,251.5c0,0.8-0.7,1.5-1.5,1.5l0,0c-0.8,0-1.5-0.7-1.5-1.5v-14c0-0.8,0.7-1.5,1.5-1.5l0,0
				c0.8,0,1.5,0.7,1.5,1.5V251.5z"/>
			<path class="st3" d="M530.6,251.5c0,0.8-0.6,1.5-1.5,1.5l0,0c-0.8,0-1.5-0.7-1.5-1.5v-14c0-0.8,0.7-1.5,1.5-1.5l0,0
				c0.9,0,1.5,0.7,1.5,1.5V251.5z"/>
			<path class="st3" d="M538.6,251.5c0,0.8-0.7,1.5-1.5,1.5l0,0c-0.8,0-1.5-0.7-1.5-1.5v-14c0-0.8,0.7-1.5,1.5-1.5l0,0
				c0.8,0,1.5,0.7,1.5,1.5V251.5z"/>
			<path class="st3" d="M546.6,251.5c0,0.8-0.7,1.5-1.5,1.5l0,0c-0.8,0-1.5-0.7-1.5-1.5v-14c0-0.8,0.7-1.5,1.5-1.5l0,0
				c0.8,0,1.5,0.7,1.5,1.5V251.5z"/>
			<path class="st3" d="M554.6,251.5c0,0.8-0.6,1.5-1.5,1.5l0,0c-0.8,0-1.5-0.7-1.5-1.5v-14c0-0.8,0.7-1.5,1.5-1.5l0,0
				c0.9,0,1.5,0.7,1.5,1.5V251.5z"/>
			<path class="st3" d="M562.6,251.5c0,0.8-0.7,1.5-1.5,1.5l0,0c-0.9,0-1.5-0.7-1.5-1.5v-14c0-0.8,0.7-1.5,1.5-1.5l0,0
				c0.8,0,1.5,0.7,1.5,1.5V251.5z"/>
			<path class="st3" d="M570.6,251.5c0,0.8-0.7,1.5-1.5,1.5l0,0c-0.8,0-1.5-0.7-1.5-1.5v-14c0-0.8,0.7-1.5,1.5-1.5l0,0
				c0.8,0,1.5,0.7,1.5,1.5V251.5z"/>
		</g>
		<rect x="407.6" y="291.2" class="st2" width="115" height="313.6"/>
		<path class="st2" d="M455.3,660.3h20.9c57.3,0,103.8-46.5,103.8-103.8v-177c-27.6,86.9-87.4,199.4-214.6,228.7
			C383.3,639.3,416.8,660.3,455.3,660.3z"/>
	</g>
	<g>
		<rect x="221.4" y="282.9" class="st4" width="64" height="62.3"/>
		<path class="st5" d="M306.8,359.1c0,8.3-6.7,15.1-15.1,15.1h-72.8c-8.3,0-15.1-6.7-15.1-15.1v-28c0-8.3,6.7-15.1,15.1-15.1h72.8
			c8.3,0,15.1,6.7,15.1,15.1V359.1z"/>
		<path class="st4" d="M323.7,398.7c0,8.3-6.7,15.1-15.1,15.1H201.3c-8.3,0-15-6.7-15-15.1v-49c0-8.3,6.7-15,15-15h107.3
			c8.3,0,15.1,6.7,15.1,15V398.7z"/>
		<g>
			<path class="st0" d="M330,696H179.9c-29.8,0-53.4-25.3-51.4-55.1l14.9-218.7c1.9-27,24.3-48,51.5-48h118.8
				c27,0,49.4,20.8,51.4,47.7l16.3,218.7C383.6,670.5,359.9,696,330,696L330,696z"/>
		</g>
		<g>
			<path class="st6" d="M303,628.2h-96.1c-19.1,0-34.2-16.2-33-35.3l9.6-140c1.2-17.3,15.6-30.8,32.9-30.8h76.1
				c17.3,0,31.6,13.3,32.9,30.6l10.4,140C337.4,611.9,322.2,628.2,303,628.2L303,628.2z"/>
		</g>
		<g>
			<path class="st5" d="M335.4,309.9l-6-0.2c0.4-10.9-0.9-18.1-3.9-21.3c-1.6-1.7-3.9-2.5-7.5-2.6c-54.8-1.3-124.7,0-125.4,0l-0.1-6
				c0.7,0,70.7-1.3,125.6,0c3.6,0.1,8.2,0.7,11.7,4.4C334.1,288.8,335.9,297,335.4,309.9z"/>
		</g>
		<path class="st2" d="M381.4,640.6l-16.3-218.7c-1.1-14.9-8.5-28-19.5-36.6c6.7,20.7,10.3,42.8,10.3,65.7
			c0,118.9-96.3,215.2-215.2,215.2c-2.5,0-5-0.1-7.5-0.2c8.1,17.6,25.9,29.9,46.8,29.9H330C359.9,696,383.6,670.5,381.4,640.6z"/>
		<rect x="186.3" y="360" class="st2" width="137.4" height="14.2"/>
		<rect x="203.8" y="328" class="st2" width="102.9" height="6.7"/>
	</g>
	<g>
		<path class="st7" d="M729.6,505.7l-195.3-0.6c-11,0-20,8.9-20,19.9l-0.1,20.2c-12.7,13.3-42.9,38.2-88.9,33.9
			c-61.2-5.7-180.2-62-177.7,21.2c-2.9,82.9,116.4,27.4,177.6,22.1c46-4,76.1,21.1,88.7,34.5l-0.1,17.9c0,11,8.9,20,19.9,20
			l195.3,0.6c11,0,20-8.9,20.1-19.9l0.5-149.8C749.6,514.8,740.7,505.8,729.6,505.7z"/>
		<path class="st8" d="M558,672.9c-8.4,0-15.3-6.9-15.2-15.3l0.3-114.7c0-8.5,6.9-15.3,15.4-15.2l149.6,0.5
			c8.4,0,15.3,6.9,15.2,15.3l-0.3,114.7c0,8.4-6.9,15.3-15.3,15.2L558,672.9z"/>
		<polygon class="st8" points="701.8,680.8 701.9,663.9 703.9,663.9 703.8,680.9 		"/>
		<path class="st8" d="M702.8,684.7c-1.7,0-3-1.3-3-3c0-1.6,1.3-3,3-3c1.6,0,3,1.3,3,3C705.8,683.4,704.4,684.8,702.8,684.7z"/>
		<polygon class="st8" points="688.3,680.8 688.3,663.9 690.3,663.9 690.3,680.8 		"/>
		<path class="st8" d="M689.3,684.7c-1.6,0-3-1.3-3-3c0-1.6,1.3-3,3-2.9c1.6,0,3,1.3,3,3C692.2,683.4,690.9,684.7,689.3,684.7z"/>
		<polygon class="st8" points="674.7,680.8 674.8,663.8 676.8,663.8 676.7,680.8 		"/>
		<path class="st8" d="M675.7,684.7c-1.7,0-3-1.3-3-3c0-1.6,1.3-2.9,3-2.9c1.6,0,3,1.3,2.9,3C678.7,683.4,677.3,684.7,675.7,684.7z"
			/>
		<polygon class="st8" points="661.2,680.7 661.2,663.8 663.3,663.8 663.2,680.7 		"/>
		<path class="st8" d="M662.2,684.6c-1.6,0-3-1.3-3-3c0-1.6,1.3-3,3-3c1.6,0,3,1.3,3,3C665.2,683.3,663.8,684.6,662.2,684.6z"/>
		<polygon class="st8" points="647.6,680.7 647.7,663.7 649.7,663.8 649.7,680.7 		"/>
		<path class="st8" d="M648.6,684.6c-1.7,0-3-1.3-3-3c0-1.6,1.3-3,3-3c1.6,0,3,1.3,2.9,3C651.6,683.3,650.3,684.6,648.6,684.6z"/>
		<polygon class="st8" points="634.1,680.6 634.1,663.7 636.2,663.7 636.1,680.6 		"/>
		<path class="st8" d="M635.1,684.5c-1.6,0-3-1.3-3-3c0-1.6,1.3-3,3-3c1.6,0,2.9,1.3,2.9,3C638,683.2,636.7,684.5,635.1,684.5z"/>
		<polygon class="st8" points="620.6,680.6 620.6,663.7 622.6,663.7 622.6,680.6 		"/>
		<path class="st8" d="M621.6,684.5c-1.6,0-3-1.3-3-3c0-1.6,1.3-2.9,3-2.9c1.6,0,3,1.3,3,3C624.5,683.2,623.2,684.5,621.6,684.5z"/>
		<polygon class="st8" points="607,680.5 607.1,663.6 609.1,663.6 609,680.5 		"/>
		<path class="st8" d="M608,684.4c-1.7,0-3-1.3-2.9-3c0-1.6,1.3-3,3-2.9c1.6,0,2.9,1.3,2.9,3C611,683.1,609.6,684.4,608,684.4z"/>
		<polygon class="st8" points="593.5,680.5 593.5,663.6 595.5,663.6 595.5,680.5 		"/>
		<path class="st8" d="M594.5,684.4c-1.6,0-3-1.3-2.9-3c0-1.6,1.3-3,3-3c1.6,0,3,1.3,3,3C597.4,683.1,596.1,684.4,594.5,684.4z"/>
		<polygon class="st8" points="579.9,680.5 580,663.5 582,663.5 582,680.5 		"/>
		<path class="st8" d="M580.9,684.4c-1.7,0-3-1.3-2.9-3c0-1.6,1.3-3,3-3c1.6,0,2.9,1.3,2.9,3C583.9,683,582.6,684.4,580.9,684.4z"/>
		<polygon class="st8" points="566.4,680.4 566.4,663.5 568.4,663.5 568.4,680.4 		"/>
		<path class="st8" d="M567.4,684.3c-1.6,0-3-1.3-3-3c0-1.6,1.4-3,3-2.9c1.6,0,3,1.3,3,3C570.3,683,569,684.3,567.4,684.3z"/>
		<polygon class="st8" points="548.9,680 557.9,665.6 559.6,666.7 550.6,681 		"/>
		<path class="st8" d="M547.7,683.8c-1.4-0.9-1.8-2.7-0.9-4.1c0.9-1.4,2.7-1.8,4.1-0.9c1.4,0.9,1.8,2.7,1,4.1
			C550.9,684.3,549,684.7,547.7,683.8z"/>
		<polygon class="st8" points="701.3,521.5 701.3,538.5 703.3,538.5 703.3,521.5 		"/>
		<path class="st8" d="M702.3,517.6c-1.6,0-3,1.3-3,3c0,1.6,1.3,3,3,3c1.6,0,3-1.3,3-2.9C705.3,519,703.9,517.6,702.3,517.6z"/>
		<polygon class="st8" points="687.7,521.5 687.7,538.4 689.7,538.4 689.8,521.5 		"/>
		<path class="st8" d="M688.8,517.6c-1.6,0-3,1.3-3,3c0,1.6,1.3,3,2.9,3c1.7,0,3-1.3,3-3C691.7,518.9,690.4,517.6,688.8,517.6z"/>
		<polygon class="st8" points="674.2,521.4 674.2,538.4 676.2,538.4 676.2,521.4 		"/>
		<path class="st8" d="M675.2,517.5c-1.7,0-3,1.3-3,3c0,1.6,1.3,3,2.9,3c1.6,0,3-1.3,3-3C678.2,518.9,676.9,517.5,675.2,517.5z"/>
		<polygon class="st8" points="660.7,521.4 660.6,538.3 662.6,538.3 662.7,521.4 		"/>
		<path class="st8" d="M661.7,517.5c-1.6,0-3,1.3-3,3c0,1.6,1.3,3,2.9,3c1.6,0,3-1.3,3-3C664.6,518.8,663.3,517.5,661.7,517.5z"/>
		
			<rect x="639.6" y="528.8" transform="matrix(3.272669e-03 -1 1 3.272669e-03 116.1678 1176.1913)" class="st8" width="16.9" height="2"/>
		<path class="st8" d="M648.1,517.5c-1.7,0-3,1.3-3,3c0,1.6,1.3,3,3,3c1.6,0,3-1.3,3-2.9C651.1,518.8,649.8,517.5,648.1,517.5z"/>
		<polygon class="st8" points="633.6,521.3 633.5,538.2 635.5,538.3 635.6,521.3 		"/>
		<path class="st8" d="M634.6,517.4c-1.7,0-3,1.3-3,3c0,1.6,1.3,3,2.9,3c1.7,0,3-1.3,3-2.9C637.6,518.7,636.2,517.4,634.6,517.4z"/>
		<polygon class="st8" points="620,521.3 620,538.2 622,538.2 622.1,521.3 		"/>
		<path class="st8" d="M621.1,517.4c-1.6,0-3,1.3-3,3c0,1.6,1.3,3,3,3c1.6,0,3-1.3,3-3C624,518.7,622.7,517.4,621.1,517.4z"/>
		<polygon class="st8" points="606.5,521.2 606.4,538.2 608.5,538.2 608.5,521.2 		"/>
		<path class="st8" d="M607.5,517.3c-1.6,0-2.9,1.3-3,3c0,1.6,1.3,3,2.9,3c1.6,0,3-1.3,3-2.9C610.5,518.7,609.2,517.3,607.5,517.3z"
			/>
		<polygon class="st8" points="592.9,521.2 592.9,538.1 594.9,538.1 595,521.2 		"/>
		<path class="st8" d="M594,517.3c-1.6,0-3,1.3-3,3c0,1.6,1.3,3,2.9,3c1.6,0,3-1.3,3-2.9C596.9,518.6,595.6,517.3,594,517.3z"/>
		<polygon class="st8" points="579.4,521.1 579.4,538.1 581.4,538.1 581.4,521.2 		"/>
		<path class="st8" d="M580.4,517.2c-1.6,0-3,1.3-3,3c0,1.6,1.3,3,3,3c1.6,0,3-1.3,3-2.9C583.4,518.6,582.1,517.3,580.4,517.2z"/>
		<polygon class="st8" points="565.9,521.1 565.8,538 567.8,538 567.9,521.1 		"/>
		<path class="st8" d="M566.9,517.2c-1.6,0-3,1.3-3,3c0,1.6,1.3,3,3,3c1.7,0,3-1.3,3-3C569.9,518.5,568.5,517.2,566.9,517.2z"/>
		<polygon class="st8" points="547.1,522.2 555.1,536.3 556.8,535.3 548.9,521.2 		"/>
		<path class="st8" d="M546.2,518.5c-1.4,0.8-2,2.6-1.2,3.9c0.8,1.4,2.6,1.8,4,1c1.4-0.8,1.9-2.6,1.2-3.9
			C549.3,518.1,547.6,517.7,546.2,518.5z"/>
		<g>
			<polygon class="st8" points="729.6,528.8 716.1,538.9 714.9,537.3 728.4,527.2 			"/>
			<path class="st8" d="M732.1,525.6c1,1.3,0.7,3.2-0.6,4.1c-1.3,1-3.2,0.7-4.1-0.6c-1-1.3-0.7-3.1,0.6-4.1
				C729.3,524,731.2,524.3,732.1,525.6z"/>
		</g>
		<g>
			<polygon class="st8" points="719.9,520.2 713.8,536 711.9,535.2 718,519.4 			"/>
			<path class="st8" d="M720.3,516.2c1.5,0.6,2.3,2.3,1.7,3.8c-0.6,1.5-2.3,2.3-3.8,1.7c-1.5-0.6-2.3-2.3-1.7-3.8
				C717.1,516.3,718.8,515.6,720.3,516.2z"/>
		</g>
		<polygon class="st8" points="730.2,546.5 713.2,546.3 713.3,544.3 730.2,544.5 		"/>
		<path class="st8" d="M734.1,545.5c0,1.6-1.4,3-3,2.9c-1.6,0-3-1.3-2.9-3c0-1.6,1.4-3,3-2.9C732.8,542.5,734.1,543.9,734.1,545.5z"
			/>
		<polygon class="st8" points="730,560 713.1,559.9 713.1,557.8 730,558 		"/>
		<path class="st8" d="M733.9,559.1c0,1.7-1.3,3-3,2.9c-1.6,0-2.9-1.4-2.9-3c0-1.6,1.3-3,3-2.9C732.6,556.1,733.9,557.4,733.9,559.1
			z"/>
		<polygon class="st8" points="729.9,573.6 712.9,573.4 713,571.4 729.9,571.6 		"/>
		<path class="st8" d="M733.8,572.6c0,1.6-1.3,2.9-3,2.9c-1.6,0-3-1.4-2.9-3c0-1.6,1.3-2.9,3-2.9C732.5,569.6,733.8,571,733.8,572.6
			z"/>
		<polygon class="st8" points="729.7,587.1 712.8,587 712.8,584.9 729.8,585.1 		"/>
		<path class="st8" d="M733.7,586.1c0,1.6-1.4,2.9-3,2.9c-1.6,0-3-1.4-2.9-3c0-1.6,1.3-2.9,3-2.9
			C732.3,583.2,733.7,584.5,733.7,586.1z"/>
		<polygon class="st8" points="729.6,600.7 712.7,600.5 712.7,598.5 729.6,598.6 		"/>
		<path class="st8" d="M733.5,599.7c0,1.6-1.3,2.9-3,2.9c-1.6,0-2.9-1.4-2.9-3c0-1.6,1.4-2.9,3-2.9
			C732.2,596.7,733.5,598.1,733.5,599.7z"/>
		
			<rect x="720" y="604.6" transform="matrix(1.059409e-02 -0.9999 0.9999 1.059409e-02 100.2883 1327.5718)" class="st8" width="2" height="16.9"/>
		<path class="st8" d="M733.4,613.2c0,1.6-1.3,3-3,2.9c-1.6,0-2.9-1.4-2.9-3c0-1.6,1.4-2.9,3-2.9
			C732.1,610.3,733.4,611.6,733.4,613.2z"/>
		<polygon class="st8" points="729.3,627.7 712.4,627.6 712.4,625.5 729.3,625.7 		"/>
		<path class="st8" d="M733.2,626.8c0,1.6-1.4,2.9-3,2.9c-1.6,0-2.9-1.3-2.9-3c0-1.6,1.4-2.9,3-2.9
			C731.9,623.8,733.2,625.1,733.2,626.8z"/>
		<polygon class="st8" points="729.2,641.3 712.2,641.1 712.3,639.1 729.2,639.3 		"/>
		<path class="st8" d="M733.1,640.3c0,1.6-1.3,2.9-3,2.9c-1.6,0-2.9-1.4-2.9-3c0-1.6,1.4-3,3-2.9
			C731.8,637.3,733.1,638.7,733.1,640.3z"/>
		<polygon class="st8" points="729,654.8 712.1,654.7 712.1,652.6 729,652.8 		"/>
		<path class="st8" d="M732.9,653.9c0,1.6-1.4,3-3,2.9c-1.6,0-2.9-1.4-2.9-3c0-1.6,1.4-2.9,3-2.9
			C731.7,650.9,732.9,652.2,732.9,653.9z"/>
		<polygon class="st8" points="728.4,669.9 713.4,661.9 714.4,660.1 729.3,668.1 		"/>
		<path class="st8" d="M732.3,670.9c-0.8,1.4-2.6,2-4,1.2c-1.4-0.8-2-2.6-1.2-4c0.8-1.5,2.6-2,4-1.2
			C732.5,667.7,733,669.4,732.3,670.9z"/>
		<polygon class="st8" points="719.1,679 708.1,666.1 709.7,664.8 720.7,677.7 		"/>
		<path class="st8" d="M722.4,681.3c-1.2,1-3.1,0.9-4.2-0.3c-1.1-1.2-0.9-3.1,0.3-4.2c1.2-1.1,3.1-0.9,4.2,0.3
			C723.8,678.4,723.7,680.3,722.4,681.3z"/>
		<polygon class="st8" points="536.5,534.1 553.4,534.2 553.4,532.2 536.5,532.1 		"/>
		<path class="st8" d="M532.6,533.1c0,1.6,1.3,3,3,3c1.6,0,3-1.3,3-3c0-1.6-1.3-3-3-3C533.9,530.1,532.6,531.5,532.6,533.1z"/>
		<polygon class="st8" points="536.4,547.7 553.4,547.7 553.4,545.7 536.5,545.6 		"/>
		<path class="st8" d="M532.6,546.6c0,1.6,1.3,3,3,3c1.6,0,3-1.3,3-3c0-1.6-1.3-3-2.9-3C533.9,543.7,532.6,545,532.6,546.6z"/>
		<polygon class="st8" points="536.4,561.2 553.4,561.3 553.4,559.2 536.4,559.2 		"/>
		<path class="st8" d="M532.5,560.2c0,1.6,1.3,3,3,3c1.6,0,3-1.3,3-3c0-1.6-1.3-3-2.9-3C533.8,557.2,532.5,558.5,532.5,560.2z"/>
		<polygon class="st8" points="536.4,574.7 553.3,574.8 553.3,572.8 536.4,572.7 		"/>
		<path class="st8" d="M532.5,573.7c0,1.6,1.3,3,2.9,3c1.7,0,3-1.3,3-2.9c0-1.6-1.3-3-3-3C533.8,570.8,532.5,572.1,532.5,573.7z"/>
		<polygon class="st8" points="536.3,588.3 553.2,588.4 553.3,586.3 536.3,586.3 		"/>
		<path class="st8" d="M532.4,587.3c0,1.6,1.3,3,3,3c1.6,0,2.9-1.3,3-2.9c0-1.6-1.3-3-2.9-3C533.7,584.3,532.4,585.6,532.4,587.3z"
			/>
		<polygon class="st8" points="536.2,601.8 553.2,601.9 553.2,599.9 536.3,599.8 		"/>
		<path class="st8" d="M532.4,600.8c0,1.6,1.3,3,3,3c1.6,0,2.9-1.3,3-2.9c0-1.6-1.3-3-3-3C533.7,597.8,532.4,599.2,532.4,600.8z"/>
		<polygon class="st8" points="536.2,615.4 553.1,615.4 553.1,613.4 536.2,613.3 		"/>
		<path class="st8" d="M532.3,614.3c0,1.6,1.3,3,3,3c1.6,0,3-1.3,3-3c0-1.6-1.3-3-3-3C533.7,611.4,532.3,612.7,532.3,614.3z"/>
		<polygon class="st8" points="536.1,628.9 553.1,629 553.1,626.9 536.2,626.9 		"/>
		<path class="st8" d="M532.3,627.9c0,1.6,1.3,3,3,3c1.6,0,3-1.3,3-2.9s-1.3-3-3-3C533.6,624.9,532.3,626.2,532.3,627.9z"/>
		<polygon class="st8" points="536.1,642.5 553,642.5 553,640.5 536.1,640.4 		"/>
		<path class="st8" d="M532.2,641.4c0,1.6,1.3,3,3,3c1.6,0,3-1.3,3-3c0-1.6-1.3-3-3-3C533.6,638.5,532.2,639.8,532.2,641.4z"/>
		<polygon class="st8" points="536.1,656 553,656.1 553,654 536.1,654 		"/>
		<path class="st8" d="M532.2,655c0,1.6,1.3,3,3,3c1.6,0,3-1.3,3-2.9c0-1.6-1.3-3-3-3C533.5,652,532.2,653.3,532.2,655z"/>
		<polygon class="st8" points="537.6,673 551.8,663.8 550.7,662.1 536.5,671.3 		"/>
		<path class="st8" d="M533.7,674.2c0.9,1.4,2.7,1.8,4.1,0.9c1.4-0.9,1.8-2.7,0.9-4.1c-0.9-1.4-2.7-1.8-4.1-0.9
			C533.2,671,532.8,672.9,533.7,674.2z"/>
		<path class="st9" d="M706.8,545.4c-2.1,0-3.8,1.7-3.8,3.8c0,2.1,1.7,3.8,3.8,3.8c2.1,0,3.8-1.7,3.8-3.8
			C710.6,547.1,708.9,545.4,706.8,545.4z"/>
		<path class="st9" d="M706.7,574.5c-2.1,0-3.8,1.7-3.8,3.8c0,2.1,1.7,3.8,3.8,3.8c2.1,0,3.8-1.7,3.8-3.8
			C710.5,576.2,708.8,574.5,706.7,574.5z"/>
		<path class="st9" d="M706.6,603.5c-2.1,0-3.8,1.7-3.8,3.8c0,2.1,1.7,3.8,3.8,3.8c2.1,0,3.8-1.7,3.8-3.8
			C710.4,605.2,708.7,603.5,706.6,603.5z"/>
		<path class="st9" d="M683.5,545.3c-2.1,0-3.8,1.7-3.8,3.8c0,2.1,1.7,3.8,3.8,3.8c2.1,0,3.8-1.7,3.8-3.8
			C687.4,547.1,685.6,545.4,683.5,545.3z"/>
		<path class="st9" d="M683.5,574.4c-2.1,0-3.8,1.7-3.8,3.8c0,2.1,1.7,3.8,3.8,3.8c2.1,0,3.8-1.7,3.8-3.8
			C687.2,576.1,685.6,574.4,683.5,574.4z"/>
		<path class="st9" d="M683.4,603.4c-2.1,0-3.8,1.7-3.8,3.8c0,2.1,1.7,3.8,3.8,3.8c2.1,0,3.8-1.7,3.8-3.8
			C687.2,605.1,685.5,603.4,683.4,603.4z"/>
		<path class="st9" d="M660.2,545.3c-2.1,0-3.8,1.7-3.8,3.8c0,2.1,1.7,3.8,3.8,3.8c2.1,0,3.8-1.7,3.8-3.8
			C664,547,662.3,545.3,660.2,545.3z"/>
		<path class="st9" d="M660.1,574.3c-2.1,0-3.8,1.7-3.8,3.8c0,2.1,1.7,3.8,3.8,3.8c2.1,0,3.8-1.7,3.8-3.8
			C663.9,576,662.2,574.3,660.1,574.3z"/>
		<path class="st9" d="M660,603.3c-2.1,0-3.8,1.7-3.8,3.8c0,2.1,1.7,3.8,3.8,3.8c2.1,0,3.8-1.7,3.8-3.8
			C663.8,605,662.1,603.3,660,603.3z"/>
		<path class="st9" d="M636.9,545.2c-2.1,0-3.8,1.7-3.8,3.8c0,2.1,1.7,3.8,3.8,3.8c2.1,0,3.8-1.7,3.8-3.8
			C640.8,546.9,639.1,545.2,636.9,545.2z"/>
		<path class="st9" d="M636.8,574.2c-2.1,0-3.8,1.7-3.8,3.8c0,2.1,1.7,3.8,3.8,3.8c2.1,0,3.8-1.7,3.8-3.8
			C640.6,576,639,574.2,636.8,574.2z"/>
		<path class="st9" d="M636.8,603.3c-2.1,0-3.8,1.7-3.8,3.8c0,2.1,1.7,3.8,3.8,3.8c2.1,0,3.8-1.7,3.8-3.8
			C640.6,605,638.9,603.3,636.8,603.3z"/>
		<path class="st9" d="M613.6,545.1c-2.1,0-3.8,1.7-3.8,3.8c0,2.1,1.7,3.8,3.8,3.8c2.1,0,3.8-1.7,3.8-3.8
			C617.4,546.8,615.7,545.1,613.6,545.1z"/>
		<path class="st9" d="M613.5,574.2c-2.1,0-3.8,1.7-3.8,3.8c0,2.1,1.7,3.8,3.8,3.8c2.1,0,3.8-1.7,3.8-3.8
			C617.3,575.9,615.6,574.2,613.5,574.2z"/>
		<path class="st9" d="M613.4,603.2c-2.1,0-3.8,1.7-3.8,3.8c0,2.1,1.7,3.8,3.8,3.8c2.1,0,3.8-1.7,3.8-3.8
			C617.2,604.9,615.5,603.2,613.4,603.2z"/>
		<path class="st9" d="M590.3,545.1c-2.1,0-3.8,1.7-3.8,3.8c0,2.1,1.7,3.8,3.8,3.8c2.1,0,3.8-1.7,3.8-3.8
			C594.2,546.8,592.4,545.1,590.3,545.1z"/>
		<path class="st9" d="M590.3,574.1c-2.1,0-3.8,1.7-3.8,3.8c0,2.1,1.7,3.8,3.8,3.8c2.1,0,3.8-1.7,3.8-3.8
			C594,575.8,592.4,574.1,590.3,574.1z"/>
		<path class="st9" d="M590.2,603.1c-2.1,0-3.8,1.7-3.8,3.8c0,2.1,1.7,3.8,3.8,3.8c2.1,0,3.8-1.7,3.8-3.8
			C594,604.8,592.3,603.1,590.2,603.1z"/>
		<path class="st9" d="M567,545c-2.1,0-3.8,1.7-3.8,3.8c0,2.1,1.7,3.8,3.8,3.8c2.1,0,3.8-1.7,3.8-3.8C570.8,546.7,569.1,545,567,545
			z"/>
		<path class="st9" d="M566.9,574c-2.1,0-3.8,1.7-3.8,3.8c0,2.1,1.7,3.8,3.8,3.8c2.1,0,3.8-1.7,3.8-3.8
			C570.7,575.7,569,574,566.9,574z"/>
		<path class="st9" d="M566.8,603c-2.1,0-3.8,1.7-3.8,3.8c0,2.1,1.7,3.8,3.8,3.8c2.1,0,3.8-1.7,3.8-3.8
			C570.6,604.8,568.9,603.1,566.8,603z"/>
		<path class="st9" d="M706.5,630.1c-2.1,0-3.8,1.7-3.8,3.8c0,2.1,1.7,3.8,3.8,3.8c2.1,0,3.8-1.7,3.8-3.8
			C710.3,631.8,708.6,630.1,706.5,630.1z"/>
		<path class="st9" d="M683.3,630c-2.1,0-3.8,1.7-3.8,3.8c0,2.1,1.7,3.8,3.8,3.8c2.1,0,3.8-1.7,3.8-3.8
			C687.1,631.7,685.4,630.1,683.3,630z"/>
		<path class="st9" d="M659.9,630c-2.1,0-3.8,1.7-3.8,3.8c0,2.1,1.7,3.8,3.8,3.8c2.1,0,3.8-1.7,3.8-3.8
			C663.7,631.7,662,630,659.9,630z"/>
		<path class="st9" d="M636.7,629.9c-2.1,0-3.8,1.7-3.8,3.8c0,2.1,1.7,3.8,3.8,3.8c2.1,0,3.8-1.7,3.8-3.8
			C640.5,631.6,638.8,629.9,636.7,629.9z"/>
		<path class="st9" d="M613.3,629.8c-2.1,0-3.8,1.7-3.8,3.8c0,2.1,1.7,3.8,3.8,3.8c2.1,0,3.8-1.7,3.8-3.8
			C617.1,631.5,615.4,629.8,613.3,629.8z"/>
		<path class="st9" d="M590.1,629.8c-2.1,0-3.8,1.7-3.8,3.8c0,2.1,1.7,3.8,3.8,3.8c2.1,0,3.8-1.7,3.8-3.8
			C593.9,631.5,592.2,629.8,590.1,629.8z"/>
		<path class="st9" d="M566.7,629.7c-2.1,0-3.8,1.7-3.8,3.8c0,2.1,1.7,3.8,3.8,3.8c2.1,0,3.8-1.7,3.8-3.8
			C570.5,631.4,568.8,629.7,566.7,629.7z"/>
		<path class="st9" d="M706.4,656.7c-2.1,0-3.8,1.7-3.8,3.8c0,2.1,1.7,3.8,3.8,3.8c2.1,0,3.8-1.7,3.8-3.8
			C710.2,658.5,708.5,656.8,706.4,656.7z"/>
		<path class="st9" d="M683.2,656.7c-2.1,0-3.8,1.7-3.8,3.8c0,2.1,1.7,3.8,3.8,3.8c2.1,0,3.8-1.7,3.8-3.8
			C687,658.4,685.3,656.7,683.2,656.7z"/>
		<path class="st9" d="M659.8,656.6c-2.1,0-3.8,1.7-3.8,3.8c0,2.1,1.7,3.8,3.8,3.8c2.1,0,3.8-1.7,3.8-3.8
			C663.6,658.3,661.9,656.6,659.8,656.6z"/>
		<path class="st9" d="M636.6,656.5c-2.1,0-3.8,1.7-3.8,3.8c0,2.1,1.7,3.8,3.8,3.8c2.1,0,3.8-1.7,3.8-3.8
			C640.4,658.2,638.7,656.5,636.6,656.5z"/>
		<path class="st9" d="M613.2,656.4c-2.1,0-3.8,1.7-3.8,3.8c0,2.1,1.7,3.8,3.8,3.8c2.1,0,3.8-1.7,3.8-3.8
			C617,658.2,615.3,656.5,613.2,656.4z"/>
		<path class="st9" d="M590,656.4c-2.1,0-3.8,1.7-3.8,3.8c0,2.1,1.7,3.8,3.8,3.8c2.1,0,3.8-1.7,3.8-3.8
			C593.8,658.1,592.1,656.4,590,656.4z"/>
		<path class="st9" d="M566.6,656.3c-2.1,0-3.8,1.7-3.8,3.8c0,2.1,1.7,3.8,3.8,3.8c2.1,0,3.8-1.7,3.8-3.8
			C570.4,658,568.7,656.3,566.6,656.3z"/>
		<path class="st2" d="M425.3,622.4c46-4,76.1,21.1,88.7,34.5c3.5-37.8-28.1-72.9-134.8-50c-72.5,15.5-112.9,6.6-131.4-0.7
			C250.8,680.4,365.6,627.5,425.3,622.4z"/>
	</g>
	<g>
		<g>
			<path class="st7" d="M631,404.9c-6.3,0-11.4-5-11.4-11.2c0-6.2,5.1-11.2,11.4-11.2c6.3,0,11.4,5,11.4,11.2
				C642.4,399.9,637.3,404.9,631,404.9z M631,385.6c-4.6,0-8.3,3.6-8.3,8.1c0,4.5,3.7,8.1,8.3,8.1c4.6,0,8.3-3.7,8.3-8.1
				C639.3,389.2,635.6,385.6,631,385.6z"/>
		</g>
	</g>
	<g>
		<g>
			<path class="st5" d="M132.8,399.6c-6.4,0-11.6-5.1-11.6-11.4s5.2-11.4,11.6-11.4c6.4,0,11.6,5.1,11.6,11.4
				S139.2,399.6,132.8,399.6z M132.8,380c-4.6,0-8.4,3.7-8.4,8.3c0,4.5,3.8,8.2,8.4,8.2c4.6,0,8.4-3.7,8.4-8.2
				C141.2,383.7,137.4,380,132.8,380z"/>
		</g>
	</g>
	<g>
		<g>
			<g>
				<path class="st0" d="M652.2,338.5c1.3-1.6,1.9-7.3,4-7.3c2.1,0,2.5,5.8,4,7.3c1.5,1.5,7.4,1.9,7.3,4c-0.1,2.1-6,2.3-7.3,4
					c-1.3,1.6-1.9,7.4-4,7.3c-2.1-0.1-2.4-6-4-7.3c-1.7-1.3-7.5-1.9-7.3-4C645.1,340.4,651,340.2,652.2,338.5z"/>
			</g>
		</g>
	</g>
	<g>
		<g>
			<g>
				<path class="st4" d="M626.2,317.8c0.3,3.5-2.3,6.7-5.9,7c-3.6,0.3-6.7-2.3-7-5.9c-0.3-3.5,2.3-6.7,5.9-7
					C622.8,311.6,625.9,314.2,626.2,317.8z"/>
			</g>
		</g>
	</g>
	<g>
		<g>
			<g>
				<path class="st0" d="M425.3,184.9c1.3-1.6,1.9-7.3,4-7.3c2.1,0,2.5,5.8,4,7.3c1.5,1.5,7.4,1.9,7.3,4c-0.1,2.1-6,2.3-7.3,4
					c-1.3,1.6-2,7.4-4,7.3c-2.1-0.1-2.3-6-4-7.3c-1.7-1.3-7.5-1.9-7.3-4C418.2,186.9,424.1,186.6,425.3,184.9z"/>
			</g>
		</g>
	</g>
	<g>
		<g>
			<g>
				<path class="st10" d="M465.7,334.3c0,0-2.3-20.8-6.9-15.2c-4.6,5.5-3.6,8.3,1,18.8L465.7,334.3z"/>
			</g>
			<g>
				<path class="st7" d="M542.8,398.1c2.8,2.7,7.7,12.8-0.6,15.4c-13.3,4.2-34.8,3.1-58-17.9C462.7,376,460,336.7,460,336.7
					s2.7-5.3,8-2.9c0,0,24,36.7,35.7,45C512.6,385.1,533.1,388.7,542.8,398.1z"/>
			</g>
		</g>
		<g>
			<path class="st0" d="M489.2,254.2c-7.9-8.4-6-20.3,11.7-44.6c16-22.1,28.5-95.6,12.3-102c-17.2-2.3-42.2,67.9-39.1,95
				c3.5,29.9-0.7,41.1-11.7,44.6c-21.5,6.9-28.2,26.1-28.2,26.1l-39.2,150.3l66.7,17.4L501,290.8C501,290.8,504.6,270.8,489.2,254.2
				z"/>
			<polygon class="st4" points="454.9,429.9 406.4,417.3 440.3,287 488.9,299.7 			"/>
			<g>
				<path class="st11" d="M468.4,380.4c-0.5,1.7-11.9,0.2-25.6-3.4c-13.7-3.6-24.4-7.8-24-9.5c0.4-1.7,11.9-0.2,25.5,3.4
					C458,374.5,468.8,378.7,468.4,380.4z"/>
				<path class="st11" d="M451.6,343c-13.7-3.6-24.4-7.8-23.9-9.5l-8.9,34l49.5,12.9l8.9-34C476.8,348.1,465.3,346.6,451.6,343z"/>
			</g>
			<path class="st12" d="M427.5,398.9c-0.6,2.4-3.3,3.8-6,3l0,0c-2.7-0.7-4.4-3.2-3.7-5.6l30-115.2c0.6-2.4,3.3-3.7,6-3.1l0,0
				c2.7,0.7,4.4,3.2,3.8,5.6L427.5,398.9z"/>
			<path class="st12" d="M474.9,185c13.3,1.2,29.1-18.2,36.2-45.3c3-11.3,3.9-22.1,3.2-31.4c-0.4-0.2-0.7-0.6-1-0.7
				C498.9,105.7,479.5,153.1,474.9,185z"/>
		</g>
		<g>
			<g>
				<g>
					<path class="st13" d="M419,535.5c2.5,23.2,12,54.2,11.2,69.9c-0.1,2.5-0.6,3.4-8.9,4.6c-8.4,1.2-1.3,7,12.5,8.7
						c13.9,1.8,15.8-65.1,13.5-96.9C445.3,494.1,416,508.5,419,535.5z"/>
				</g>
			</g>
		</g>
		<g>
			<g>
				<g>
					<path class="st13" d="M485.7,615.1c4.7,22.9,17.1,52.9,17.8,68.6c0.1,2.5-0.2,3.4-8.4,5.4c-8.2,2-0.7,7.1,13.3,7.6
						c14,0.5,9.6-66.3,4.2-97.8C508,571.4,480.2,588.5,485.7,615.1z"/>
				</g>
			</g>
		</g>
		<g>
			<path class="st4" d="M542.2,518c-0.4,7.4-2.7,16.9-7.8,32.6c-3.8,11.6-11.7,28.9-12.6,39.2c-3.5,37.8,1.6,42.1-4.1,74.9
				c-0.8,4.5-18.7,4-20.3,0.6c-16-34.5-15.1-73.9-14.9-94.1c0.1-8.9,0-14,3.6-33.5c0.3-1.6,0.6-3.2,0.9-5c1.1-5.7,2.4-12.5,4.1-20.7
				c0-0.1,0.1-0.2,0.1-0.3c1.9-9.2,5.8-18.6,7.7-22.8c0.6-1.4,1.1-2.3,1.1-2.3l11.6,2.6l9.4,2.2l2.6,0.5l14.4,3.3
				C540.8,504.2,542.7,509.8,542.2,518z"/>
		</g>
		<g>
			<path class="st14" d="M493.3,503.6c-0.9,2.8-1.7,5.7-2.3,8.6c-2.2,10.7-4.9,24.8-6.1,31.4c10,3.9,22.9,4.5,29.7-0.1
				c14.6-9.9,13.3-29.7,9.6-42L493.3,503.6z"/>
		</g>
		<g>
			<path class="st5" d="M528,519c-0.9,7.1-2,12.5-9.3,17.4c-6.5,4.5-20.3,1.6-31.7-3.5c-15.5-6.9-30.3-15.5-31-6.5
				c-2.4,30.1-6.3,57.9-6.3,57.9c-15.4,5.3-28.9-3.6-28.9-3.6s-16.6-91.3-2.6-111.9c10.4-15.4,35.5-3.6,50.9,5.7
				c7.5,4.7,12.8,8.7,12.8,8.7l38.3,1.2c0,0,1.7,3,3.6,7.8C526.3,499,529.3,509.3,528,519z"/>
		</g>
		<g>
			<path class="st14" d="M538,495.5l-14.4-3.3c-1.9-4.8-3.6-7.8-3.6-7.8l-38-1.2v12.6l-16-1.1c-0.8,5.4,10,12.6,25.2,17.2
				c12.1,3.7,26,6.5,36.9,7.1c5.9,0.4,10.9,0.2,14.2-1C542.7,509.8,540.8,504.2,538,495.5z"/>
		</g>
		<g>
			<path class="st7" d="M499.7,406.5c-11.3,6.8-22.3,25-33.6,87.4c-2.5,13.7,78.2,26,80,12.2c4.9-36.8,0.3-52.7-6.6-87.1
				C537.6,409.7,522.1,393.1,499.7,406.5z"/>
		</g>
		<g>
			<g>
				<path class="st13" d="M419.2,353.2c0,0-2.3-20.8-6.8-15.2c-4.6,5.5-3.6,8.4,1,18.8L419.2,353.2z"/>
			</g>
			<g>
				<path class="st7" d="M496.3,417c2.8,2.7,7.7,12.8-0.6,15.4c-13.3,4.2-34.8,3.1-58-17.9c-21.6-19.6-24.2-58.9-24.2-58.9
					s2.7-5.3,8-2.9c0,0,24,36.7,35.7,45C466.1,404,486.6,407.6,496.3,417z"/>
			</g>
		</g>
		<g>
			<path class="st14" d="M513,346.7c-8.8,0.2-20.4,6.2-22.3,23.3c-1.8,17-2.3,17.3-8.8,23c-16.6,14.6,17.9,25.1,3.8,38.8
				c-6.5,6.3-13.2,13.7-15.9,22.5c-0.8,2.6-1.7,6.1-0.9,8.8c1.2,4.2,5,9.5,8.1,12.6c3.2,3.2,7.8,5.5,12.4,4.9c3-0.4,5.6-2,8.5-2.8
				c3.1-0.8,6.5-0.7,9.6,0.4c2.8,1,3.8,3.4,5.9,5.3c2.2,2,4.8,3.5,7.6,4.4c4.7,1.4,9.9,1.1,14.3-1c2.6-1.3,5.1-3.2,6.2-5.8
				c2-4.9-0.6-10.4,0.8-15.4c1.5-5.4,3.5-9.9,7.5-14.1c4.9-5.1,6.9-10.4,6.4-17.6c-0.7-9.1,13.5-17.6-2.6-30.7
				c-5.3-4.3,7.1-23.3-6.3-28.7C533.9,369.3,547.1,346,513,346.7z"/>
		</g>
	</g>
</g>
</svg>
