<?xml version="1.0" encoding="utf-8"?>
<!-- Generator: Adobe Illustrator 23.0.1, SVG Export Plug-In . SVG Version: 6.00 Build 0)  -->
<svg version="1.1" id="Layer_1" xmlns="http://www.w3.org/2000/svg" xmlns:xlink="http://www.w3.org/1999/xlink" x="0px" y="0px"
	 viewBox="0 0 804.2 804.2" style="enable-background:new 0 0 804.2 804.2;" xml:space="preserve">
<style type="text/css">
	.st0{fill:#5C4941;}
	.st1{fill:#D5F3C3;}
	.st2{opacity:0.3;}
	.st3{fill:#B2CEBA;}
	.st4{fill:#B98383;}
	.st5{fill:#C39595;}
	.st6{fill:#F7C04A;}
	.st7{fill:#91B99C;}
	.st8{fill:#A7C7B0;}
	.st9{fill:#BFD6C6;}
	.st10{fill:#DABDBD;}
	.st11{fill:#ADA4A0;}
	.st12{opacity:0.3;fill:#FFFFFF;}
	.st13{fill:#9B4E4E;}
	.st14{fill:#539165;}
	.st15{fill:#AF7070;}
	.st16{fill:#BD8A8A;}
	.st17{fill:#A05757;}
	.st18{fill:#933F3F;}
	.st19{fill:#A66161;}
	.st20{fill:#B0CCB8;}
	.st21{fill:#CEF0B9;}
	.st22{fill:#B67D7D;}
	.st23{fill:#A55F5F;}
	.st24{opacity:0.2;}
	.st25{fill:#B77F7F;}
	.st26{fill:#FFFFFF;}
	.st27{fill:#CCC7C4;}
	.st28{fill:#AA6868;}
</style>
<g>
	<g>
		<g>
			<g>
				<polygon class="st7" points="381.9,332.1 384.5,332.3 385.2,324.8 382.6,324.5 				"/>
			</g>
			<g>
				<polygon class="st7" points="381.2,343.4 383.8,343.5 384.2,336 381.6,335.8 				"/>
			</g>
			<g>
				<path class="st7" d="M381.1,354.7l2.6,0c0,0-0.1-1.9,0-3.8c0-1.9,0.1-3.7,0.1-3.7l-2.6-0.1c0,0,0,1.9-0.1,3.8
					C381,352.8,381.1,354.7,381.1,354.7z"/>
			</g>
			<g>
				<path class="st7" d="M381.5,366.1l2.6-0.2c0,0-0.1-1.9-0.2-3.7c-0.1-1.9-0.1-3.7-0.1-3.7l-2.6,0.1c0,0,0,1.9,0.1,3.8
					C381.4,364.2,381.5,366.1,381.5,366.1z"/>
			</g>
			<g>
				<polygon class="st7" points="382.6,377.4 385.1,377 384.3,369.5 381.7,369.8 				"/>
			</g>
			<g>
				<path class="st7" d="M384.4,388.6l2.5-0.7c-0.1,0-1.3-7.3-1.3-7.3l-2.6,0.5C383.1,381.1,384.3,388.7,384.4,388.6z"/>
			</g>
			<g>
				<path class="st7" d="M387.2,399.6l2.5-1c0,0-0.5-1.8-1.1-3.5c-0.5-1.8-0.9-3.6-0.9-3.6l-2.5,0.8c0,0,0.4,1.9,0.9,3.7
					C386.7,397.8,387.2,399.6,387.2,399.6z"/>
			</g>
		</g>
		<g>
			<g>
				<polygon class="st7" points="391,410.2 393.4,408.9 390.7,402.1 388.3,403.1 				"/>
			</g>
			<g>
				<path class="st7" d="M396,420.1l2.2-1.6c-0.1,0.1-3.3-6.4-3.3-6.4l-2.3,1.4c0,0,0.8,1.7,1.6,3.4C395,418.6,396,420.1,396,420.1z
					"/>
			</g>
			<g>
				<path class="st7" d="M402.2,429.2l1.9-2c0,0-1.1-1.4-2.1-2.8c-1.1-1.3-2-3-2-3l-2.1,1.8c0,0,0.9,1.7,2,3.1
					C401.1,427.7,402.2,429.2,402.2,429.2z"/>
			</g>
			<g>
				<polygon class="st7" points="409.4,437.2 411.1,434.9 406.3,429.9 404.4,432 				"/>
			</g>
			<g>
				<path class="st7" d="M417.7,443.8l1.3-2.6c0,0-1.5-0.8-2.8-2c-1.3-1.1-2.6-2.2-2.6-2.2l-1.5,2.4c0,0,1.4,1.1,2.7,2.3
					C416.1,442.9,417.7,443.8,417.7,443.8z"/>
			</g>
			<g>
				<path class="st7" d="M426.6,449l1-2.7c0,0-1.5-0.7-3-1.4c-1.5-0.8-2.9-1.8-2.9-1.8l-1.3,2.6c0,0,1.4,1,3,1.8
					C425.1,448.2,426.6,449,426.6,449z"/>
			</g>
			<g>
				<path class="st7" d="M436,452.9l0.8-2.8c0,0-6.3-2.2-6.2-2.4l-0.9,2.8C429.6,450.7,436,452.9,436,452.9z"/>
			</g>
		</g>
		<g>
			<g>
				<polygon class="st7" points="445.5,456.3 446.2,453.4 439.9,451.2 439.1,454 				"/>
			</g>
			<g>
				<polygon class="st7" points="455.2,458.7 455.7,455.7 449.3,454.3 448.7,457.1 				"/>
			</g>
			<g>
				<path class="st7" d="M465.1,460.3l0.3-2.9c0,0-1.6-0.2-3.3-0.3c-1.6-0.2-3.2-0.6-3.2-0.6l-0.4,2.9c0,0,1.6,0.5,3.3,0.6
					C463.4,460.2,465.1,460.3,465.1,460.3z"/>
			</g>
			<g>
				<path class="st7" d="M475.1,461.2l0-3c0,0-0.4,0-1,0c-0.6-0.1-1.4-0.1-2.2-0.2c-1.6-0.2-3.3-0.3-3.3-0.3l-0.2,3
					C468.4,460.7,475.1,461.4,475.1,461.2z"/>
			</g>
			<g>
				<polygon class="st7" points="485.1,460.8 484.9,457.8 478.3,458.1 478.4,461 				"/>
			</g>
			<g>
				<polygon class="st7" points="495,459.3 494.5,456.4 488,457.4 488.3,460.4 				"/>
			</g>
			<g>
				<polygon class="st7" points="504.7,457 504.1,454 497.7,455.8 498.2,458.7 				"/>
			</g>
		</g>
		<g>
			<g>
				<polygon class="st7" points="514.3,453.8 513.5,450.9 507.2,453.2 507.9,456.1 				"/>
			</g>
			<g>
				<polygon class="st7" points="523.7,450.1 522.8,447.3 516.5,449.8 517.4,452.6 				"/>
			</g>
			<g>
				<polygon class="st7" points="532.9,446.1 532,443.3 525.8,446 526.7,448.8 				"/>
			</g>
			<g>
				<polygon class="st7" points="542.2,442.2 541.3,439.4 535,442 536,444.8 				"/>
			</g>
			<g>
				<path class="st7" d="M551.5,438.6l-0.8-2.8c0,0-1.6,0.6-3.2,1.1c-1.6,0.5-3.2,1.2-3.2,1.2l0.9,2.8c0,0,1.5-0.7,3.1-1.2
					C549.9,439.2,551.5,438.6,551.5,438.6z"/>
			</g>
			<g>
				<path class="st7" d="M560.9,435.7l-0.6-2.9c0,0-1.6,0.4-3.3,0.8c-1.6,0.4-3.2,1-3.2,1l0.7,2.9c0,0,1.6-0.6,3.2-1
					C559.3,436.1,560.9,435.7,560.9,435.7z"/>
			</g>
			<g>
				<path class="st7" d="M570.5,433.6l-0.4-2.9c0,0-1.7,0.2-3.3,0.5c-1.6,0.4-3.3,0.8-3.3,0.8l0.5,2.9c0,0,1.6-0.4,3.2-0.8
					C568.9,433.9,570.5,433.6,570.5,433.6z"/>
			</g>
		</g>
		<g>
			<g>
				<path class="st7" d="M580.2,432.6l-0.1-3c0,0-0.4,0-1,0c-0.6,0-1.5,0-2.3,0.2c-1.7,0.2-3.3,0.5-3.3,0.5l0.3,3
					c0,0,1.6-0.2,3.3-0.5c0.8-0.2,1.6-0.2,2.2-0.2C579.8,432.6,580.2,432.6,580.2,432.6z"/>
			</g>
			<g>
				<path class="st7" d="M589.9,432.6l0.2-3c0,0-1.7-0.1-3.3,0c-1.7,0-3.4,0-3.4,0l0,3c0,0,1.6,0,3.3,0
					C588.3,432.5,589.9,432.6,589.9,432.6z"/>
			</g>
			<g>
				<polygon class="st7" points="599.6,433.8 600,430.9 593.3,430 593.1,433 				"/>
			</g>
			<g>
				<polygon class="st7" points="609.1,436.1 609.7,433.2 603.2,431.4 602.8,434.4 				"/>
			</g>
			<g>
				<polygon class="st7" points="618.8,438.7 619.3,435.8 612.9,434.1 612.3,436.9 				"/>
			</g>
			<g>
				<path class="st7" d="M629,439.9l-0.2-3c0,0-0.4,0-1,0c-0.6,0.1-1.4,0-2.2-0.1c-1.6-0.2-3.2-0.4-3.2-0.4l-0.3,3
					c0,0,1.7,0.2,3.4,0.4c0.9,0.1,1.7,0.2,2.4,0.1C628.5,439.9,629,439.9,629,439.9z"/>
			</g>
			<g>
				<path class="st7" d="M639,437.9l-0.9-2.8c0,0-0.4,0.1-0.9,0.4c-0.6,0.2-1.3,0.5-2.1,0.7c-1.6,0.3-3.2,0.6-3.2,0.6l0.5,3
					c0,0,1.7-0.4,3.4-0.7c0.9-0.1,1.7-0.5,2.3-0.7C638.6,438.1,639,437.9,639,437.9z"/>
			</g>
		</g>
		<g>
			<g>
				<path class="st7" d="M647.9,432.3l-1.6-2.4c0,0-1.3,1.1-2.6,2.1c-1.4,0.9-2.8,1.7-2.8,1.7l1.2,2.7c0,0,1.5-0.9,3-1.8
					C646.5,433.4,647.9,432.3,647.9,432.3z"/>
			</g>
			<g>
				<path class="st7" d="M654.8,423.7l-2.1-1.8c0.1,0.1-4,5.7-4.1,5.5l1.8,2.3C650.6,429.9,655,423.8,654.8,423.7z"/>
			</g>
			<g>
				<path class="st7" d="M659.6,413.4l-2.4-1.1c0.1,0.1-2.6,6.7-2.7,6.6l2.2,1.6C656.8,420.6,659.7,413.5,659.6,413.4z"/>
			</g>
			<g>
				<path class="st7" d="M662.3,402.2l-2.6-0.5c0.2,0-1.5,7.2-1.5,7.2l2.5,0.9c0,0,0.4-1.9,0.9-3.8
					C662.1,404.2,662.3,402.2,662.3,402.2z"/>
			</g>
			<g>
				<path class="st7" d="M663.2,390.8l-2.6,0c0,0,0.1,1.9-0.1,3.7c-0.1,1.8-0.3,3.7-0.3,3.7l2.6,0.3c0,0,0.1-1.9,0.3-3.9
					C663.3,392.7,663.2,390.8,663.2,390.8z"/>
			</g>
			<g>
				<path class="st7" d="M662.4,379.3l-2.6,0.5c0,0,0.3,1.8,0.4,3.7c0.1,1.9,0.3,3.7,0.3,3.7l2.6-0.1c0,0-0.1-1.9-0.3-3.8
					C662.8,381.2,662.4,379.3,662.4,379.3z"/>
			</g>
			<g>
				<path class="st7" d="M660,368.1l-2.5,1c0,0,0.6,1.7,1,3.5c0.4,1.8,0.8,3.6,0.8,3.6l2.5-0.6c0,0-0.4-1.9-0.8-3.8
					C660.6,369.9,660,368.1,660,368.1z"/>
			</g>
		</g>
		<g>
			<g>
				<path class="st7" d="M655.8,357.6l-2.2,1.5c0,0,0.9,1.6,1.5,3.2c0.7,1.7,1.3,3.4,1.3,3.4l2.4-1.1c0,0-0.7-1.8-1.4-3.5
					C656.7,359.3,655.8,357.6,655.8,357.6z"/>
			</g>
			<g>
				<path class="st7" d="M649.8,348.3l-1.9,2c0,0,1.1,1.3,2.1,2.8c0.9,1.5,1.9,3,1.9,3l2.1-1.6c0,0-1-1.6-2-3.2
					C651,349.7,649.8,348.3,649.8,348.3z"/>
			</g>
			<g>
				<path class="st7" d="M642.1,340.7l-1.4,2.5c0,0,1.4,1,2.6,2.1c1.2,1.2,2.4,2.4,2.4,2.4l1.8-2.2c0,0-1.3-1.3-2.6-2.6
					C643.5,341.8,642.1,340.7,642.1,340.7z"/>
			</g>
			<g>
				<path class="st7" d="M632.9,335.6l-0.9,2.8c0,0,1.5,0.5,3,1.3c1.4,0.8,2.9,1.7,2.9,1.7l1.3-2.6c0,0-1.5-0.9-3.1-1.7
					C634.6,336.2,632.9,335.6,632.9,335.6z"/>
			</g>
			<g>
				<path class="st7" d="M623.1,333l-0.3,3c0-0.3,6.3,1.3,6.3,1.3l0.7-2.9C629.8,334.4,623.1,332.7,623.1,333z"/>
			</g>
			<g>
				<path class="st7" d="M613,332.7l0.2,3c0,0,1.6,0,3.2-0.1c0.8,0,1.6,0,2.2-0.1c0.6,0.1,1,0.1,1,0.1l0.1-3
					C619.8,332.4,613,332.7,613,332.7z"/>
			</g>
			<g>
				<polygon class="st7" points="603.1,334.2 603.5,337.1 610,336.1 609.7,333.1 				"/>
			</g>
		</g>
		<g>
			<g>
				<path class="st7" d="M593.4,335.5l0.2,3c0,0,1.7-0.1,3.4-0.2c1.7-0.3,3.3-0.5,3.3-0.5l-0.3-2.9c0,0-1.6,0.3-3.3,0.5
					C595,335.3,593.4,335.5,593.4,335.5z"/>
			</g>
			<g>
				<path class="st7" d="M583.6,335.8l-0.1,3c0,0,6.7,0.2,6.7,0l-0.1-3C590.2,335.9,583.6,335.8,583.6,335.8z"/>
			</g>
			<g>
				<polygon class="st7" points="574,334.9 573.6,337.8 580.3,338.6 580.5,335.6 				"/>
			</g>
			<g>
				<path class="st7" d="M564.6,332.3l-0.8,2.8c0,0,1.6,0.6,3.2,1.1c1.6,0.4,3.3,0.8,3.3,0.8l0.5-2.9c0,0-1.6-0.4-3.2-0.7
					C566.1,332.8,564.6,332.3,564.6,332.3z"/>
			</g>
			<g>
				<path class="st7" d="M555.6,328.2l-1.2,2.7c-0.1,0.2,6.2,3.1,6.2,3.1l0.9-2.8C561.5,331.2,555.6,328.4,555.6,328.2z"/>
			</g>
			<g>
				<path class="st7" d="M547.5,322.3l-1.6,2.4c0,0,5.5,4.5,5.6,4.3l1.3-2.6C552.8,326.6,547.5,322.3,547.5,322.3z"/>
			</g>
			<g>
				<path class="st7" d="M540.4,314.9l-1.9,2c0,0,1.2,1.4,2.3,2.8c1.3,1.3,2.6,2.6,2.6,2.6l1.7-2.3c0,0-1.2-1.2-2.4-2.4
					C541.5,316.3,540.4,314.9,540.4,314.9z"/>
			</g>
		</g>
	</g>
	<g>
		<g>
			<g>
				<polygon class="st8" points="279.4,554.8 278.3,551.9 284.8,548.7 286,551.6 				"/>
			</g>
			<g>
				<polygon class="st8" points="269.5,559.2 268.5,556.3 275.1,553.4 276.1,556.4 				"/>
			</g>
			<g>
				<path class="st8" d="M259.3,563l-0.8-3.1c0,0,1.7-0.5,3.4-1.2c1.7-0.6,3.3-1.3,3.3-1.3l0.9,3c0,0-1.7,0.7-3.4,1.3
					C261,562.5,259.3,563,259.3,563z"/>
			</g>
			<g>
				<path class="st8" d="M249,566.2l-0.6-3.1c0,0,1.7-0.5,3.4-0.9c1.7-0.5,3.4-1.1,3.4-1.1l0.8,3.1c0,0-1.7,0.6-3.5,1.1
					C250.7,565.7,249,566.2,249,566.2z"/>
			</g>
			<g>
				<polygon class="st8" points="238.5,568.5 238.1,565.4 245,563.9 245.6,567.1 				"/>
			</g>
			<g>
				<path class="st8" d="M227.9,569.9l-0.2-3.2c0,0.2,7-0.8,7-0.8l0.3,3.2C235,569,227.9,570.1,227.9,569.9z"/>
			</g>
			<g>
				<path class="st8" d="M217.1,570.1l0.1-3.2c0,0,1.8,0.1,3.5,0.1c1.8,0,3.5-0.1,3.5-0.1l0.1,3.2c0,0-1.8,0.2-3.6,0.1
					C218.9,570.1,217.1,570.1,217.1,570.1z"/>
			</g>
		</g>
		<g>
			<g>
				<polygon class="st8" points="206.4,569 206.8,565.9 213.8,566.8 213.6,570 				"/>
			</g>
			<g>
				<path class="st8" d="M195.9,566.3l0.8-3.1c-0.1,0.2,6.8,1.9,6.8,1.9l-0.5,3.1c0,0-1.8-0.4-3.5-0.8
					C197.6,567.1,195.9,566.3,195.9,566.3z"/>
			</g>
			<g>
				<path class="st8" d="M185.8,562l1.2-2.9c0,0,1.6,0.8,3.2,1.6c1.6,0.9,3.3,1.4,3.3,1.4l-0.9,3c0,0-1.8-0.5-3.4-1.4
					C187.5,562.9,185.8,562,185.8,562z"/>
			</g>
			<g>
				<polygon class="st8" points="176.3,556.1 177.9,553.5 183.9,557.5 182.6,560.3 				"/>
			</g>
			<g>
				<path class="st8" d="M167.8,548.5l1.8-2.4c0,0,1.2,1.5,2.7,2.6c1.4,1.2,2.8,2.4,2.8,2.4l-1.6,2.6c0,0-1.5-1.2-2.9-2.5
					C169,550.1,167.8,548.5,167.8,548.5z"/>
			</g>
			<g>
				<path class="st8" d="M160.3,539.7l2.1-2.1c0,0,1.1,1.5,2.3,3c1.2,1.5,2.5,2.8,2.5,2.8l-1.9,2.3c0,0-1.4-1.4-2.6-2.9
					C161.5,541.3,160.3,539.7,160.3,539.7z"/>
			</g>
			<g>
				<path class="st8" d="M153.8,530l2.3-1.9c0,0,4,6.7,4.1,6.5l-2.2,2C157.8,536.8,153.8,530,153.8,530z"/>
			</g>
		</g>
		<g>
			<g>
				<polygon class="st8" points="147.8,520 150.1,518.3 154.1,524.9 151.8,526.7 				"/>
			</g>
			<g>
				<polygon class="st8" points="142.5,509.3 145,507.8 148.4,514.9 146,516.5 				"/>
			</g>
			<g>
				<path class="st8" d="M137.9,498.3l2.6-1.3c0,0,0.6,1.9,1.3,3.7c0.7,1.9,1.6,3.6,1.6,3.6l-2.5,1.4c0,0-0.9-1.7-1.6-3.7
					C138.6,500.2,137.9,498.3,137.9,498.3z"/>
			</g>
			<g>
				<path class="st8" d="M134,486.9l2.7-1c0,0,0.1,0.5,0.3,1.2c0.2,0.7,0.6,1.6,0.9,2.6c0.7,1.9,1.3,3.7,1.3,3.7l-2.6,1.2
					C136.6,494.6,133.8,487,134,486.9z"/>
			</g>
			<g>
				<polygon class="st8" points="131.1,475.1 133.9,474.4 135.7,482.1 133,483 				"/>
			</g>
			<g>
				<polygon class="st8" points="129.3,463.1 132.1,462.6 133.2,470.6 130.5,471.2 				"/>
			</g>
			<g>
				<polygon class="st8" points="128.3,450.9 131.2,450.7 131.6,458.8 128.8,459.1 				"/>
			</g>
		</g>
		<g>
			<g>
				<polygon class="st8" points="128.2,438.7 130.9,438.7 130.9,446.8 128.1,446.9 				"/>
			</g>
			<g>
				<polygon class="st8" points="128.5,426.6 131.3,426.7 131,434.8 128.2,434.7 				"/>
			</g>
			<g>
				<polygon class="st8" points="129.1,414.5 131.9,414.7 131.5,422.8 128.7,422.6 				"/>
			</g>
			<g>
				<polygon class="st8" points="129.7,402.4 132.5,402.5 132.1,410.7 129.3,410.5 				"/>
			</g>
			<g>
				<path class="st8" d="M129.9,390.4h2.8c0,0,0,2,0,4.1c0,2-0.1,4.1-0.1,4.1l-2.8-0.1c0,0,0.1-2,0.1-4
					C129.9,392.4,129.9,390.4,129.9,390.4z"/>
			</g>
			<g>
				<path class="st8" d="M129.5,378.4l2.8-0.2c0,0,0.1,2,0.3,4.1c0.1,2,0.1,4.1,0.1,4.1l-2.8,0.1c0,0,0.1-2-0.1-4
					C129.7,380.4,129.5,378.4,129.5,378.4z"/>
			</g>
			<g>
				<path class="st8" d="M128.4,366.6l2.8-0.5c0,0,0.3,2,0.6,4c0.1,2,0.3,4.1,0.3,4.1l-2.8,0.3c0,0-0.2-2-0.3-4
					C128.7,368.5,128.4,366.6,128.4,366.6z"/>
			</g>
		</g>
		<g>
			<g>
				<path class="st8" d="M126.2,354.9l2.7-0.8c0,0,0.1,0.5,0.3,1.2c0.2,0.7,0.4,1.7,0.6,2.7c0.3,2,0.7,4,0.7,4l-2.7,0.6
					c0,0-0.3-2-0.6-3.9c-0.1-1-0.4-2-0.6-2.7C126.4,355.4,126.2,354.9,126.2,354.9z"/>
			</g>
			<g>
				<path class="st8" d="M123.2,343.5l2.6-1.1c0,0,0.6,1.9,1.1,3.9c0.5,2,1,3.9,1,3.9l-2.7,0.9c0,0-0.5-1.9-1-3.8
					C123.7,345.4,123.2,343.5,123.2,343.5z"/>
			</g>
			<g>
				<polygon class="st8" points="118.9,332.6 121.5,331.2 124.4,338.7 121.8,339.9 				"/>
			</g>
			<g>
				<polygon class="st8" points="113.9,322.1 116.3,320.5 120,327.6 117.5,329 				"/>
			</g>
			<g>
				<polygon class="st8" points="108.5,311.6 111,310.1 114.5,317 112.1,318.7 				"/>
			</g>
			<g>
				<path class="st8" d="M104.2,300.2l2.7-0.7c0,0,0.1,0.5,0.3,1.2c0.1,0.7,0.4,1.6,0.8,2.5c0.7,1.8,1.4,3.6,1.4,3.6l-2.6,1.3
					c0,0-0.7-1.9-1.5-3.9c-0.4-0.9-0.7-1.9-0.8-2.7C104.3,300.7,104.2,300.2,104.2,300.2z"/>
			</g>
			<g>
				<path class="st8" d="M102.8,287.8l2.8,0.2c0,0,0,0.5,0,1.2c0,0.7-0.1,1.7,0.1,2.7c0.2,1.9,0.4,3.9,0.4,3.9l-2.8,0.4
					c0,0-0.2-2.1-0.4-4.2c-0.2-1-0.1-2.1-0.1-2.9C102.8,288.3,102.8,287.8,102.8,287.8z"/>
			</g>
		</g>
		<g>
			<g>
				<path class="st8" d="M105,275.6l2.7,1.1c0,0-0.5,1.8-1.1,3.7c-0.3,1.9-0.6,3.8-0.6,3.8l-2.8-0.5c0,0,0.4-2.1,0.7-4.1
					C104.4,277.6,105,275.6,105,275.6z"/>
			</g>
			<g>
				<path class="st8" d="M110.4,264.7l2.3,1.8c-0.1-0.1-3.9,6.5-3.7,6.6l-2.6-1.3C106.3,271.7,110.3,264.6,110.4,264.7z"/>
			</g>
			<g>
				<path class="st8" d="M118.2,255.9l1.8,2.5c-0.1-0.1-5.2,5.2-5.1,5.3l-2.1-2.1C112.7,261.5,118.1,255.7,118.2,255.9z"/>
			</g>
			<g>
				<path class="st8" d="M127.4,249.2l1.3,2.8c-0.1-0.2-6,4-6,4l-1.6-2.6c0,0,1.6-1.1,3.1-2.2C125.7,250.1,127.4,249.2,127.4,249.2z
					"/>
			</g>
			<g>
				<path class="st8" d="M137.4,244.5l0.9,3.1c0,0-1.7,0.5-3.3,1.3c-1.6,0.8-3.2,1.5-3.2,1.5l-1.1-2.9c0,0,1.7-0.8,3.4-1.6
					C135.6,245,137.4,244.5,137.4,244.5z"/>
			</g>
			<g>
				<path class="st8" d="M147.9,241.8l0.4,3.1c0,0-1.7,0.2-3.4,0.6c-1.7,0.4-3.4,0.9-3.4,0.9l-0.7-3.1c0,0,1.8-0.5,3.5-0.9
					C146.1,242,147.9,241.8,147.9,241.8z"/>
			</g>
			<g>
				<path class="st8" d="M158.7,241.1l-0.1,3.2c0,0-1.7-0.2-3.5,0c-1.7,0.1-3.5,0.2-3.5,0.2l-0.2-3.2c0,0,1.8-0.1,3.6-0.2
					C156.9,240.9,158.7,241.1,158.7,241.1z"/>
			</g>
		</g>
		<g>
			<g>
				<path class="st8" d="M169.5,242.6l-0.6,3.1c0,0-1.7-0.5-3.4-0.8c-1.7-0.2-3.4-0.5-3.4-0.5l0.3-3.2c0,0,1.8,0.3,3.6,0.5
					C167.7,242.1,169.5,242.6,169.5,242.6z"/>
			</g>
			<g>
				<path class="st8" d="M179.7,246.7l-1.2,2.9c0,0-1.5-0.9-3.2-1.6c-1.6-0.6-3.3-1.3-3.3-1.3l0.8-3.1c0,0,1.7,0.7,3.5,1.3
					C178.1,245.7,179.7,246.7,179.7,246.7z"/>
			</g>
			<g>
				<path class="st8" d="M188.9,253.3l-1.8,2.5c0,0-1.3-1.3-2.7-2.4c-1.5-1-2.9-2.1-2.9-2.1l1.4-2.8c0,0,1.6,1.1,3.1,2.2
					C187.6,251.9,188.9,253.3,188.9,253.3z"/>
			</g>
			<g>
				<path class="st8" d="M196.5,262.4l-2.2,1.9c0,0-1-1.7-2.1-3.1c-1.2-1.4-2.4-2.8-2.4-2.8l2-2.3c0,0,1.3,1.5,2.5,3
					C195.4,260.6,196.5,262.4,196.5,262.4z"/>
			</g>
			<g>
				<path class="st8" d="M201.9,273.1l-2.6,1.3c0.2-0.1-3.2-7-3.2-7l2.4-1.7C198.5,265.7,202.2,273,201.9,273.1z"/>
			</g>
			<g>
				<path class="st8" d="M205.4,284.8l-2.7,0.7c0,0-0.5-1.9-1-3.8c-0.2-0.9-0.5-1.9-0.6-2.6c-0.2-0.7-0.4-1.2-0.4-1.2l2.6-1.1
					C203.5,276.8,205.4,284.8,205.4,284.8z"/>
			</g>
			<g>
				<polygon class="st8" points="207.3,296.9 204.5,297.3 203.3,289.4 206.1,288.8 				"/>
			</g>
		</g>
		<g>
			<g>
				<path class="st8" d="M209.2,308.6l-2.7,0.7c0,0-0.4-2-0.8-4c-0.3-2-0.6-4.1-0.6-4.1l2.8-0.5c0,0,0.3,2,0.6,4
					C208.8,306.7,209.2,308.6,209.2,308.6z"/>
			</g>
			<g>
				<path class="st8" d="M212,320.1l-2.6,1c0,0-2.3-7.8-2.1-7.9l2.7-0.8C209.8,312.5,212,320.1,212,320.1z"/>
			</g>
			<g>
				<polygon class="st8" points="215.9,331.1 213.4,332.5 210.5,324.9 213.1,323.8 				"/>
			</g>
			<g>
				<path class="st8" d="M221.2,341.3l-2.3,1.8c0,0-1-1.7-2-3.4c-0.9-1.8-1.8-3.6-1.8-3.6l2.5-1.5c0,0,0.8,1.7,1.7,3.5
					C220.2,339.6,221.2,341.3,221.2,341.3z"/>
			</g>
			<g>
				<path class="st8" d="M227.7,350.4l-2,2.2c-0.2,0.2-4.8-6.2-4.8-6.2l2.2-1.9C223.1,344.5,227.5,350.6,227.7,350.4z"/>
			</g>
			<g>
				<path class="st8" d="M235.5,358.1l-1.6,2.6c0,0-5.8-5-5.6-5.2l1.9-2.3C230,353.3,235.5,358.1,235.5,358.1z"/>
			</g>
			<g>
				<path class="st8" d="M244.4,364.1l-1.2,2.9c0,0-1.6-0.9-3.3-1.8c-1.6-1.1-3.1-2.2-3.1-2.2l1.5-2.7c0,0,1.5,1,3,2.1
					C242.9,363.2,244.4,364.1,244.4,364.1z"/>
			</g>
		</g>
	</g>
	<g>
		<path class="st15" d="M464.9,429.5v169.2c0,7.7,18.4,13.9,41.1,13.9c22.7,0,41.1-6.2,41.1-13.9V429.5H464.9z"/>
		<path class="st2" d="M547,598.7V429.5h-42v183c0.3,0,0.6,0,1,0C528.6,612.6,547,606.4,547,598.7z"/>
		<path class="st0" d="M428.5,256.9c-55.2,30.5,36.4,172.6,36.4,172.6c0,7.6,18.4,13.8,41.1,13.8c22.7,0,41.1-6.2,41.1-13.8
			l32.3-86.3C616.4,236.3,483.7,226.5,428.5,256.9z"/>
		<path class="st2" d="M464.9,429.5c0,7.6,18.4,13.8,41.1,13.8c22.7,0,41.1-6.2,41.1-13.8l21.4-57.2c-31.9,37.1-65.7,13-62.5-6.4
			c3.4-20.5-11.5-45.1-51.9-47.2c-31.1-1.6-40-25.6-42.4-36.6C402.8,333.2,464.9,429.5,464.9,429.5z"/>
		<path class="st2" d="M457.7,261.3c0,0-29.6,11.8-16.2,20.8c13.5,9,69.1,3.8,70.9,21.3c1.8,17.4,37.7,51.3,50.3,17.4
			C575.3,287,494.5,247,457.7,261.3z"/>
	</g>
	<g>
		<g>
			<path class="st16" d="M175.9,450c-5.2,0-9.4-4.7-9.4-10.6c0-5.8,4.2-10.6,9.4-10.6c5.2,0,9.4,4.8,9.4,10.6
				C185.4,445.3,181.1,450,175.9,450z M175.9,431.7c-3.8,0-6.8,3.4-6.8,7.7c0,4.2,3.1,7.7,6.8,7.7c3.8,0,6.8-3.4,6.8-7.7
				C182.8,435.2,179.7,431.7,175.9,431.7z"/>
		</g>
	</g>
	<g>
		<g>
			<path class="st3" d="M429.6,222.2c-5.1,0-9.3-4.7-9.3-10.4c0-5.7,4.2-10.4,9.3-10.4c5.1,0,9.3,4.7,9.3,10.4
				C438.9,217.5,434.8,222.2,429.6,222.2z M429.6,204.2c-3.7,0-6.7,3.4-6.7,7.6c0,4.2,3,7.6,6.7,7.6c3.7,0,6.7-3.4,6.7-7.6
				C436.4,207.6,433.4,204.2,429.6,204.2z"/>
		</g>
	</g>
	<g>
		<path class="st15" d="M373.2,304.1c0,12.9-9.5,23.3-21.2,23.3H228c-11.7,0-21.3-10.4-21.3-23.3v-95c0-12.9,9.5-23.3,21.3-23.3H352
			c11.7,0,21.2,10.4,21.2,23.3V304.1z"/>
		<path class="st15" d="M366.4,629.9c0,12.9-9.1,23.3-20.4,23.3H240.7c-11.3,0-20.4-10.4-20.4-23.3V288.5c0-12.9,9.1-23.3,20.4-23.3
			H346c11.3,0,20.4,10.4,20.4,23.3V629.9z"/>
		<path class="st2" d="M347.7,583.3c0,12.9-9.1,23.3-20.4,23.3h-69.6c-11.3,0-20.4-10.4-20.4-23.3V362.3c0-12.9,9.1-23.3,20.4-23.3
			h69.6c11.2,0,20.4,10.4,20.4,23.3V583.3z"/>
		<path class="st16" d="M328.2,400.1c0,7-4.9,12.6-11,12.6h-48.4c-6.1,0-11-5.6-11-12.6l0,0c0-7,4.9-12.6,11-12.6h48.4
			C323.3,387.5,328.2,393.1,328.2,400.1L328.2,400.1z"/>
		<path class="st16" d="M328.2,446.6c0,7-4.9,12.6-11,12.6h-48.4c-6.1,0-11-5.6-11-12.6l0,0c0-7,4.9-12.6,11-12.6h48.4
			C323.3,434,328.2,439.6,328.2,446.6L328.2,446.6z"/>
		<path class="st0" d="M211,254.3c0,1.2-0.9,2.3-2.1,2.3l0,0c-1.2,0-2.1-1-2.1-2.3V151.2c0-1.3,1-2.3,2.1-2.3l0,0
			c1.2,0,2.1,1,2.1,2.3V254.3z"/>
		<path class="st0" d="M224.6,254.3c0,1.2-0.9,2.3-2.1,2.3l0,0c-1.2,0-2.1-1-2.1-2.3V151.2c0-1.3,1-2.3,2.1-2.3l0,0
			c1.2,0,2.1,1,2.1,2.3V254.3z"/>
		<path class="st0" d="M238.2,254.3c0,1.2-0.9,2.3-2.1,2.3l0,0c-1.2,0-2.1-1-2.1-2.3V151.2c0-1.3,1-2.3,2.1-2.3l0,0
			c1.2,0,2.1,1,2.1,2.3V254.3z"/>
		<path class="st0" d="M251.8,254.3c0,1.2-0.9,2.3-2.1,2.3l0,0c-1.2,0-2.1-1-2.1-2.3V151.2c0-1.3,0.9-2.3,2.1-2.3l0,0
			c1.2,0,2.1,1,2.1,2.3V254.3z"/>
		<path class="st0" d="M265.4,254.3c0,1.2-0.9,2.3-2.1,2.3l0,0c-1.2,0-2.1-1-2.1-2.3V151.2c0-1.3,0.9-2.3,2.1-2.3l0,0
			c1.2,0,2.1,1,2.1,2.3V254.3z"/>
		<path class="st0" d="M279,254.3c0,1.2-1,2.3-2.1,2.3l0,0c-1.2,0-2.1-1-2.1-2.3V151.2c0-1.3,0.9-2.3,2.1-2.3l0,0
			c1.2,0,2.1,1,2.1,2.3V254.3z"/>
		<path class="st0" d="M292.5,254.3c0,1.2-1,2.3-2.1,2.3l0,0c-1.2,0-2.1-1-2.1-2.3V151.2c0-1.3,0.9-2.3,2.1-2.3l0,0
			c1.2,0,2.1,1,2.1,2.3V254.3z"/>
		<path class="st0" d="M306.1,254.3c0,1.2-1,2.3-2.1,2.3l0,0c-1.2,0-2.1-1-2.1-2.3V151.2c0-1.3,0.9-2.3,2.1-2.3l0,0
			c1.2,0,2.1,1,2.1,2.3V254.3z"/>
		<path class="st0" d="M319.7,254.3c0,1.2-1,2.3-2.1,2.3l0,0c-1.2,0-2.1-1-2.1-2.3V151.2c0-1.3,1-2.3,2.1-2.3l0,0
			c1.2,0,2.1,1,2.1,2.3V254.3z"/>
		<path class="st0" d="M333.3,254.3c0,1.2-1,2.3-2.1,2.3l0,0c-1.2,0-2.1-1-2.1-2.3V151.2c0-1.3,1-2.3,2.1-2.3l0,0
			c1.2,0,2.1,1,2.1,2.3V254.3z"/>
		<path class="st0" d="M346.9,254.3c0,1.2-0.9,2.3-2.1,2.3l0,0c-1.2,0-2.1-1-2.1-2.3V151.2c0-1.3,1-2.3,2.1-2.3l0,0
			c1.2,0,2.1,1,2.1,2.3V254.3z"/>
		<path class="st0" d="M360.5,254.3c0,1.2-1,2.3-2.1,2.3l0,0c-1.2,0-2.1-1-2.1-2.3V151.2c0-1.3,1-2.3,2.1-2.3l0,0
			c1.2,0,2.1,1,2.1,2.3V254.3z"/>
		<path class="st0" d="M374.1,254.3c0,1.2-1,2.3-2.1,2.3l0,0c-1.2,0-2.1-1-2.1-2.3V151.2c0-1.3,1-2.3,2.1-2.3l0,0
			c1.2,0,2.1,1,2.1,2.3V254.3z"/>
		<path class="st16" d="M390.2,344.8c0,12.8-9.1,23.3-20.4,23.3H215.3c-11.3,0-20.4-10.4-20.4-23.3V232.3c0-12.9,9.1-23.3,20.4-23.3
			h154.6c11.3,0,20.4,10.4,20.4,23.3V344.8z"/>
		<path class="st2" d="M369.8,368.1c11.3,0,20.4-10.4,20.4-23.3V232.3c0-11.4-7.2-20.9-16.7-22.9C344.7,248,281.3,324,202.8,363.1
			c3.5,3.1,7.7,5,12.5,5H369.8z"/>
	</g>
	<g>
		<path class="st1" d="M632.7,583.2l-0.1-69.2c14.1,2,24.8,11.1,24.8,22.1l0.1,94c0,12.5-13.9,22.7-31,22.7L306,653.8
			c-17.1,0.1-31-10.1-31-22.6l-0.1-94.1c0-11,10.6-20.1,24.8-22.3l0.1,69.2l29.4-0.1l-0.1-69.2l15.5-0.1l0.1,69.2l27.9-0.1l0-69.2
			l15.5-0.1l0,69.2l27.9-0.1l-0.1-69.2l15.5-0.1l0.1,69.2l27.9-0.1l-0.1-69.2l15.5,0l0.1,69.2l27.9-0.1l0-69.2l15.5-0.1l0,69.2
			l27.9-0.1l-0.1-69.2l15.5-0.1l0.1,69.2l27.9-0.1l-0.1-69.2l15.5,0l0.1,69.2L632.7,583.2z"/>
		<path class="st2" d="M626.6,652.9L306,653.8c-17.1,0.1-31-10.1-31-22.6v-8.8l382.6-1.1v8.8C657.6,642.6,643.7,652.8,626.6,652.9z"
			/>
	</g>
	<g>
		<g>
			<path class="st3" d="M139.3,299.2c-5.1,0-9.3-4.7-9.3-10.4s4.2-10.4,9.3-10.4c5.1,0,9.3,4.7,9.3,10.4S144.4,299.2,139.3,299.2z
				 M139.3,281.2c-3.7,0-6.7,3.4-6.7,7.6c0,4.2,3,7.6,6.7,7.6c3.7,0,6.7-3.4,6.7-7.6C146,284.6,143,281.2,139.3,281.2z"/>
		</g>
	</g>
	<g>
		<g>
			<g>
				<path class="st0" d="M618.5,287.3c1.1-1.5,1.6-6.8,3.3-6.8c1.7,0,2,5.4,3.2,6.8c1.2,1.4,6.1,1.8,5.9,3.7
					c-0.1,1.9-4.9,2.2-5.9,3.7c-1,1.5-1.6,6.9-3.2,6.8c-1.7-0.1-1.9-5.6-3.3-6.8c-1.3-1.2-6.1-1.8-6-3.7
					C612.7,289.1,617.5,288.9,618.5,287.3z"/>
			</g>
		</g>
	</g>
	<g>
		<g>
			<g>
				<path class="st16" d="M597.3,268.1c0.2,3.3-1.9,6.2-4.8,6.5c-2.9,0.3-5.4-2.2-5.7-5.5c-0.3-3.3,1.9-6.2,4.8-6.5
					C594.5,262.3,597.1,264.7,597.3,268.1z"/>
			</g>
		</g>
	</g>
	<g>
		<g>
			<g>
				<path class="st13" d="M603.3,409.5c0,0-19.4,7.2-37.8-42.9c-15.2-41.4-7-37.4-5.9-36.4c1.6,1.4,7.6,2.2,7.8,13.5
					c0.2,11.3,9.7,21.4,16.2,28.3c9.2,9.6,17.7,12.5,36.3,0.9C625.6,369.3,605.6,401.7,603.3,409.5z"/>
			</g>
		</g>
		<g>
			<g>
				<path class="st13" d="M655.7,377c0,0-4.2-28.3-21.8-15.4c-17.6,12.9-46.4,40.2-37.9,47C606,416.6,649.2,383.9,655.7,377z"/>
			</g>
		</g>
		<g>
			<g>
				<path class="st13" d="M684,369.6c-3.4-2.3-11.3-7.7-13.7-8.9c-11.7-5.5-38.5-10.8-42,10.7c-3,18.2,5.5,45.2-3.7,73.2
					c-0.5,1.6-17,32.7-14.4,74.7c2.3,36.4,14.1,93,15.7,123.6c0.1,2.1,0.4,2.5-6.4,4.3c-7.9,2.1-1.8,6.3,10.5,6.2
					c11.5-0.1,16.7-57.4,17.8-87.7c0.3-8.5-2.6-34.3,1.3-58.6c0.5,9.1,1.2,19.4,2.2,30.8c2.9,33.2,37.6,76.7,40.2,104.6
					c0.2,2.1,0,3-6.1,5.1c-6.1,2.2-0.2,6.2,10.4,5.9c10.5-0.3,4.1-58.1-1.4-85.1c-4.8-23.6-7.6-46-13.8-108.5c0,0,0.1,0,0.1,0
					c0,0,0,0-0.1,0c-0.1-0.6-0.1-1.1-0.2-1.7c-1.1-22-2.6-36.1,7-55.5c0.3-0.5,0.5-1.1,0.7-1.6C696.4,383.6,690,373.7,684,369.6z"/>
			</g>
		</g>
		<g>
			<g>
				<path class="st7" d="M621.5,451.9c21.1,17.6,48.1,12.2,59.5,9.4c3.1,31.4,10.5,76.1,12.6,92.3c-9.2,3.8-35.2,8.9-37.9,8.9
					c-7.7-33.8-7.7-35.8-8.2-44.9c-1.7,10.5,0,0,0.5,43c-3.3,2.6-27.1-0.9-34.1-6.9c-0.3-3.3-3.5-31.3-3.7-34.3
					C608.3,488.5,616.7,463.7,621.5,451.9z"/>
			</g>
		</g>
		<g>
			<g>
				<path class="st0" d="M636.5,646.6c0,0-9.2,4.6-14.8,0c0,0-10.3,1.8-3.9,4.9C624.3,654.6,636.9,657.3,636.5,646.6z"/>
			</g>
		</g>
		<g>
			<g>
				<path class="st0" d="M700.3,647.6c0,0-9.2,4.6-14.8,0c0,0-10.4,1.8-3.8,4.9C688.1,655.7,700.7,658.3,700.3,647.6z"/>
			</g>
		</g>
		<g>
			<g>
				<path class="st17" d="M621.5,451.9c0,0,20.7,16.8,59.5,9.4l0.7,6.9c0,0-38.4,14.3-63.5-9.5C618.2,458.8,618.9,456.1,621.5,451.9
					z"/>
			</g>
		</g>
		<g>
			<g>
				<path class="st0" d="M672.1,361.6c0,0-11.7,33.3-32.1,29.3c-6.1-1.2-11.2-11.1,6-34.9l-5.6,1c0,0-15.4,15.8-23,56.3
					c-6.3,33.6-10.6,66.8-10.6,66.8s28.8,19.2,80.3,4.6c0,0-5.2-53.3-3.8-66.6c0,0-16.4,0.7-16.2-23.8c0.2-20.2,10.9-28.8,10.9-28.8
					S672.7,362,672.1,361.6L672.1,361.6z"/>
			</g>
		</g>
		<g>
			<g>
				<path class="st18" d="M670.2,338.7c0,0-5.5,13.8,0.1,21.5c5.8,7.9-27,12.8-24.1,7c2.8-5.9,5.4-12.2,3.7-22.8L670.2,338.7z"/>
			</g>
		</g>
		<g>
			<g>
				<path class="st13" d="M659.1,313.5c-7.6,5.1-20.3,32.8-15.1,41c2.3,3.6,14.7,3.5,24.7-7.5c4.1-4.5,9.9-13.5,7.2-24.7
					C674.8,317.2,667.9,307.7,659.1,313.5z"/>
			</g>
		</g>
		<g>
			<g>
				<path class="st14" d="M652,315.4c-2.1,3.3-1.9,4.3,7.5,8.5c9.4,4.3,11.2,4,9.7,6.4c-4.5,7,2.7,7.4-2.7,15.7
					c-5.4,8.4,3.9,4.9,9-1.8c1-1.3,6.6-7.7,4.3-20.5C677,308.8,659.8,303.2,652,315.4z"/>
			</g>
		</g>
		<g>
			<g>
				<path class="st13" d="M676.6,451.1c0,0-8.8,21-53.3,1.8c-36.8-15.8-28.6-19.9-27.2-20.2c2-0.4,6.7-4.8,14,2.8
					c7.3,7.6,20.2,6.7,29.2,6c12.4-1,20.1-6,25.5-29.5C666.4,404.9,673.3,443.8,676.6,451.1z"/>
			</g>
		</g>
		<g>
			<g>
				<path class="st14" d="M683.8,485.7l1.2,8.8c0,0-31.1,8-54.6-5.9C630.4,488.5,661.9,492.3,683.8,485.7z"/>
			</g>
		</g>
		<g>
			<g>
				<path class="st13" d="M692,385.2c0,0-20.9-16-24.8,7.5c-3.9,23.5-6.4,66.1,3.9,63.7C683,453.7,691.9,395.4,692,385.2z"/>
			</g>
		</g>
	</g>
</g>
</svg>
