<?xml version="1.0" encoding="utf-8"?>
<!-- Generator: Adobe Illustrator 23.0.1, SVG Export Plug-In . SVG Version: 6.00 Build 0)  -->
<svg version="1.1" id="Layer_1" xmlns="http://www.w3.org/2000/svg" xmlns:xlink="http://www.w3.org/1999/xlink" x="0px" y="0px"
	 viewBox="0 0 1280 1024" style="enable-background:new 0 0 1280 1024;" xml:space="preserve">
<style type="text/css">
	.st0{opacity:0.54;fill:#F7C04A;enable-background:new    ;}
	.st1{opacity:0.86;fill:#539165;enable-background:new    ;}
	.st2{fill:#FFFFFF;}
</style>
<path class="st0" d="M987.1,747.7c13.3-37.9,21.8-79.4,51-111.7c25.3-28.2,64.3-41.4,105.5-41.5c4.4,0,8.8,0.2,13.1,0.4
	c32.8-3.2,66,0.8,99.2,3.4c39,3,80.7,5.2,116.3,19.9c15.4,6.3,29.4,15.8,37.3,28.8c9.5,15.8,9,34.1,4.2,51.2
	c-6.9,24.4-22.3,46.3-33.3,69.4c-12.4,26.1-14.8,52.9-7.5,80.1c12.4,46.1,45.9,85.8,55.1,132.7c6.8,34.3,4,71.1-14.6,102.9
	c-18.7,32.2-53.7,54.7-95.2,62.8c-27,5.2-54.3,5-81.1-0.2c-29.4-5.8-57-16.3-85.4-24.4c-31.7-9.2-63.3-13.6-97-10
	c-35.8,3.8-69.8,14.5-104.1,23.7c-53,14.4-109.5,22.6-158.5-4.3C706.7,1084,687.5,978.4,753,911.5c18.3-18.7,41.7-31.7,68.3-40.5
	c28.3-9.4,58.7-14.2,86-25.9C953,825.2,973.4,786.9,987.1,747.7z"/>
<path class="st1" d="M921.3,1210.9c-23.3-27.9-38.4-64.8-35.3-101.6c1.5-17.1,6-34.1,14.6-49.1c7.6-13.3,18.1-24.6,30-34.1
	c24.7-19.8,54.4-31.8,82-46.6c14.5-7.8,28.9-16.2,41.3-27.1c13.2-11.6,23.7-25.8,31.4-41.5c15.4-31.4,20.3-66.6,27.3-100.5
	c7-33.8,16.4-67.9,38-95.4c17.4-22.1,41.7-35.9,68.6-43c27.8-7.4,57.4-8.1,85.7-3.1c26.7,4.8,53.5,15.3,73.9,33.8
	c9.4,8.5,17.2,18.8,22.4,30.4c6.6,14.5,8.5,30.1,8.4,46c-0.1,20-4.2,39.5-11.7,58.1c-7.8,19.6-18.6,37.7-28.9,56
	c-21.3,37.6-41.4,76.7-48.4,119.9c-3.6,21.6-3.4,43.3-1.3,65c5.1,16.2,7.2,33.1,5.1,50.1c-0.9,7.1-2.6,14-5,20.7
	c-2.3,12.6-6.5,24.9-13.8,35.5c-10.4,15-25.7,24.8-42.6,31c-33.3,12.2-72.6,13.6-107.4,6.1c-11.7-0.9-23.5-1.4-35.1-0.1
	c-37.8,4.2-65.8,37.8-104.5,38.5C979.4,1260.3,944.3,1238.3,921.3,1210.9z"/>
<path class="st2" d="M894.6,1191.2c1.1,5.8,2.6,11.4,4.6,17c0.8,2.4,4.6,1.2,3.7-1.2c-15.9-45.2-1.7-98.8,33.6-130.8
	c20.9-18.9,48.1-28.2,74.6-35.9c26.1-7.6,52.8-14,76.8-27.1c11.2-6.1,21.8-13.7,30.5-23.1c9.1-9.8,15.8-21.5,20.6-34
	c10.5-27.2,11.6-56.7,13.3-85.5c1-15.9,2.2-31.9,5.5-47.5c2.7-12.7,6.8-25,12.4-36.7c10.9-22.8,27-43.2,46.7-59
	c43.1-34.5,102.2-44.2,154.3-26.8c6.5,2.2,12.9,4.8,19.1,7.8c2.3,1.1,4.1-2.3,1.9-3.4c-25.4-12.3-53.7-17.9-81.8-16.6
	c-27.3,1.3-54.3,9.2-77.8,23.3c-21.7,13.1-40.2,31.2-54.2,52.3c-15.1,22.9-23.9,48.7-27.3,75.8c-3.9,30.6-2.6,61.7-9.1,92
	c-3,13.8-7.5,27.4-14.7,39.6c-6.9,11.8-16.4,21.7-27.5,29.7c-22.3,16-49.1,24-75.2,31.3c-27.8,7.8-56.5,15.6-80.4,32.5
	c-19.5,13.8-34.3,33.8-42.9,56.1C892.9,1143.2,890.2,1167.7,894.6,1191.2z"/>
<path class="st2" d="M921.8,1225c1.1,5.8,2.6,11.4,4.6,17c0.8,2.4,4.6,1.2,3.7-1.2c-15.9-45.2-1.7-98.8,33.6-130.8
	c20.9-18.9,48.1-28.2,74.6-35.9c26.1-7.6,52.8-14,76.8-27.1c11.2-6.1,21.8-13.7,30.5-23.1c9.1-9.8,15.8-21.5,20.6-34
	c10.5-27.2,11.6-56.7,13.3-85.5c1-15.9,2.2-31.9,5.5-47.5c2.7-12.7,6.8-25,12.4-36.7c10.9-22.8,27-43.2,46.7-59
	c43.1-34.5,102.2-44.2,154.3-26.8c6.5,2.2,12.9,4.8,19.1,7.8c2.3,1.1,4.1-2.3,1.9-3.4c-25.4-12.3-53.7-17.9-81.8-16.6
	c-27.3,1.3-54.3,9.2-77.8,23.3c-21.7,13.1-40.2,31.2-54.2,52.3c-15.1,22.9-23.9,48.7-27.3,75.8c-3.9,30.6-2.6,61.7-9.1,92
	c-3,13.8-7.5,27.4-14.7,39.6c-6.9,11.8-16.4,21.7-27.5,29.7c-22.3,16-49.1,24-75.2,31.3c-27.8,7.8-56.5,15.6-80.4,32.5
	c-19.5,13.8-34.3,33.8-42.9,56.1C920.1,1176.9,917.4,1201.5,921.8,1225z"/>
<path class="st2" d="M949.3,1245.3c1.1,5.8,2.6,11.4,4.6,17c0.8,2.4,4.6,1.2,3.7-1.2c-15.9-45.2-1.7-98.8,33.6-130.8
	c20.9-18.9,48.1-28.2,74.6-35.9c26.1-7.6,52.8-14,76.8-27.1c11.2-6.1,21.8-13.7,30.5-23.1c9.1-9.8,15.8-21.5,20.6-34
	c10.5-27.2,11.6-56.7,13.3-85.5c1-15.9,2.2-31.9,5.5-47.5c2.7-12.7,6.8-25,12.4-36.7c10.9-22.8,27-43.2,46.7-59
	c43.1-34.5,102.2-44.2,154.3-26.8c6.5,2.2,12.9,4.8,19.1,7.8c2.3,1.1,4.1-2.3,1.9-3.4c-25.4-12.3-53.7-17.9-81.8-16.6
	c-27.3,1.3-54.3,9.2-77.8,23.3c-21.7,13.1-40.2,31.2-54.2,52.3c-15.1,22.9-23.9,48.7-27.3,75.8c-3.9,30.6-2.6,61.7-9.1,92
	c-3,13.8-7.5,27.4-14.7,39.6c-6.9,11.8-16.4,21.7-27.5,29.7c-22.3,16-49.1,24-75.2,31.3c-27.8,7.8-56.5,15.6-80.4,32.5
	c-19.5,13.8-34.3,33.8-42.9,56.1C947.5,1197.3,944.9,1221.8,949.3,1245.3z"/>
<path class="st2" d="M976.5,1279.1c1.1,5.8,2.6,11.4,4.6,17c0.8,2.4,4.6,1.2,3.7-1.2c-15.9-45.2-1.7-98.8,33.6-130.8
	c20.9-18.9,48.1-28.2,74.6-35.9c26.1-7.6,52.8-14,76.8-27.1c11.2-6.1,21.8-13.7,30.5-23.1c9.1-9.8,15.8-21.5,20.6-34
	c10.5-27.2,11.6-56.7,13.3-85.5c1-15.9,2.2-31.9,5.5-47.5c2.7-12.7,6.8-25,12.4-36.7c10.9-22.8,27-43.2,46.7-59
	c43.1-34.5,102.2-44.2,154.3-26.8c6.5,2.2,12.9,4.8,19.1,7.8c2.3,1.1,4.1-2.3,1.9-3.4c-25.4-12.3-53.7-17.9-81.8-16.6
	c-27.3,1.3-54.3,9.2-77.8,23.3c-21.7,13.1-40.2,31.2-54.2,52.3c-15.1,22.9-23.9,48.7-27.3,75.8c-3.9,30.6-2.6,61.7-9.1,92
	c-3,13.8-7.5,27.4-14.7,39.6c-6.9,11.8-16.4,21.7-27.5,29.7c-22.3,16-49.1,24-75.2,31.3c-27.8,7.8-56.5,15.6-80.4,32.5
	c-19.5,13.8-34.3,33.8-42.9,56.1C974.7,1231,972.1,1255.5,976.5,1279.1z"/>
</svg>
