<?xml version="1.0" encoding="utf-8"?>
<!-- Generator: Adobe Illustrator 23.0.1, SVG Export Plug-In . SVG Version: 6.00 Build 0)  -->
<svg version="1.1" id="Layer_1" xmlns="http://www.w3.org/2000/svg" xmlns:xlink="http://www.w3.org/1999/xlink" x="0px" y="0px"
	 viewBox="0 0 1366 768" style="enable-background:new 0 0 1366 768;" xml:space="preserve">
<style type="text/css">
	.st0{fill:none;stroke:#539165;stroke-width:2;stroke-miterlimit:10;enable-background:new    ;}
	.st1{fill:#539165;enable-background:new    ;}
	.st2{opacity:0.54;fill:#F7C04A;enable-background:new    ;}
</style>
<path class="st0" d="M-17.9,713.2c11.2-26,36.2-44,62.8-53.6s55.2-12.1,83.4-15.3c39.5-4.5,79.3-10.7,116.1-25.9
	s70.7-40.1,90.1-74.9c24.7-44.2,24.7-101.2,57.9-139.4c47.2-54.2,134.1-43.6,198.6-75.3c29.3-14.4,54-38.1,69.5-66.9
	c22.7-41.9,29-96.9,69.2-122.4c32.7-20.7,75.9-13.5,111.8-28c40.2-16.2,64.4-56.4,90.5-90.9s64.1-68.4,107-62.4"/>
<path class="st0" d="M-47.7,663.6c14.7-34.3,54.5-49.5,91-57.6c54-11.9,111.7-16.6,158.2-46.6c84.2-54.3,103.8-172.1,179.2-238.2
	c63.9-56,162.4-69.7,210.7-139.7c18.9-27.3,27.5-60.2,41.2-90.5C669.9,8.6,747.9-54.4,836.5-73.5"/>
<path class="st0" d="M-27.4,599.2c10.5-24.4,34.2-40.9,58.7-51.2s50.9-15.8,75.5-25.9c59-24.1,106.4-75.3,125.8-136
	c14.1-44.2,15.6-95.7,48.2-128.8c20.2-20.5,48.8-29.9,74.5-42.8c39.8-19.9,75.9-51.6,90.6-93.6c11.4-32.5,9.3-68.5,20.5-101.1
	c20.4-59.1,79.1-94.8,133.6-125.5"/>
<path class="st1" d="M732.3,399.9c-0.9,0.2-1.7,0.8-2.2,1.6c-1,1.4-1.2,3.4-0.6,5"/>
<path class="st2" d="M387.6,91.4c-3.7,6.7-8.8,12.5-14.3,17.8c-29,28-68.7,41.2-105.6,57.5s-74.6,39.1-89.7,76.5
	c-12.3,30.2-7.5,64.3-11.4,96.7c-6.6,55.7-40.6,107.5-89.1,135.7c-4.6,2.7-9.7,5.2-15,4.9c-10.5-0.7-16.8-11.9-20.1-21.9
	c-12.3-37.8-8.3-80.5,10.7-115.4c17.5-32.1,47-57.7,58.4-92.4c11.2-34.1,3.2-72.2,13.7-106.5c10.1-33.2,38.2-60.2,71.6-69.2
	c14.2-3.8,29.6-4.7,42.3-12.2c14.6-8.7,23.4-25.1,37.9-34c15-9.1,33.6-9,51.1-8.2c16.2,0.8,50.9-3.3,63.1,10.1
	C403.7,44.4,395.4,77.5,387.6,91.4z"/>
</svg>
