<?xml version="1.0" encoding="utf-8"?>
<!-- Generator: Adobe Illustrator 23.0.1, SVG Export Plug-In . SVG Version: 6.00 Build 0)  -->
<svg version="1.1" id="Layer_1" xmlns="http://www.w3.org/2000/svg" xmlns:xlink="http://www.w3.org/1999/xlink" x="0px" y="0px"
	 viewBox="0 0 85 65" style="enable-background:new 0 0 85 65;" xml:space="preserve">
<style type="text/css">
	.st0{fill:#FFFFFF;}
	.st1{fill:#F2A89A;}
	.st2{fill:#FFFFFF;stroke:#FFFFFF;stroke-width:0.25;stroke-linecap:round;stroke-linejoin:round;stroke-miterlimit:10;}
	.st3{fill:none;stroke:#FFFFFF;stroke-width:2;stroke-miterlimit:10;}
	.st4{fill:none;stroke:#E7B10A;stroke-miterlimit:10;}
</style>
<g>
	<g>
		<path class="st0" d="M21.4,15.3c0.1-0.1,0.2-0.3,0.4-0.4c0.2-0.2,0.4-0.3,0.6-0.3c0.1,0,0.3,0,0.4,0.2s0.2,0.4,0.1,0.6l0,0
			c0.2-0.1,0.5-0.1,0.7,0.1c0.1,0.1,0.2,0.3,0.2,0.4c0,0.2-0.1,0.4-0.4,0.7c-0.1,0.1-0.3,0.3-0.3,0.3L21.4,15.3z M22.2,15.8l0.2-0.2
			c0.2-0.2,0.3-0.4,0.1-0.6c-0.2-0.2-0.4-0.1-0.6,0.1c-0.1,0.1-0.1,0.1-0.2,0.2L22.2,15.8z M22.9,16.6c0.1,0,0.1-0.1,0.2-0.2
			c0.2-0.2,0.3-0.5,0.1-0.7s-0.5-0.1-0.7,0.1L22.4,16L22.9,16.6z"/>
		<path class="st0" d="M24.2,14.7c0.3,0.3,0.6,0.3,0.8,0.1c0.2-0.1,0.3-0.3,0.3-0.3l0.2,0.1c-0.1,0.1-0.1,0.3-0.4,0.4
			c-0.4,0.3-0.8,0.3-1.1-0.1c-0.3-0.4-0.3-0.8,0.1-1.1c0.4-0.3,0.8-0.1,1,0.2c0.1,0.1,0.1,0.1,0.1,0.1L24.2,14.7z M24.7,14
			c-0.1-0.1-0.4-0.3-0.6-0.1c-0.3,0.2-0.2,0.5-0.1,0.6L24.7,14z"/>
		<path class="st0" d="M26.9,13.6l-0.1-0.1l0,0c0,0.2-0.1,0.3-0.3,0.5c-0.3,0.2-0.5,0.1-0.7-0.1c-0.2-0.3-0.1-0.7,0.4-1.1l0,0
			c-0.1-0.1-0.3-0.3-0.5-0.1c-0.1,0.1-0.2,0.2-0.3,0.3l-0.2-0.1c0.1-0.1,0.2-0.3,0.3-0.4c0.4-0.3,0.7-0.1,0.9,0.2l0.3,0.5
			c0.1,0.1,0.2,0.2,0.3,0.3L26.9,13.6z M26.4,12.9c-0.3,0.2-0.5,0.4-0.3,0.7c0.1,0.2,0.3,0.2,0.4,0.1c0.2-0.1,0.2-0.3,0.2-0.4
			c0,0,0-0.1-0.1-0.1L26.4,12.9z"/>
		<path class="st0" d="M28.9,11.9c0.1,0.1,0.2,0.3,0.3,0.4l-0.2,0.1l-0.1-0.2l0,0c0,0.1-0.1,0.4-0.3,0.5c-0.2,0.1-0.6,0.2-0.8-0.3
			l-0.5-0.8l0.3-0.1l0.4,0.8c0.2,0.3,0.3,0.4,0.6,0.3c0.2-0.1,0.2-0.3,0.2-0.4c0-0.1,0-0.1-0.1-0.1L28,11.1l0.3-0.1L28.9,11.9z"/>
		<path class="st0" d="M29.3,9.8l0.2,0.4l0.4-0.2l0.1,0.2l-0.4,0.2l0.4,0.8c0.1,0.2,0.2,0.3,0.3,0.2c0.1-0.1,0.1-0.1,0.1-0.1
			l0.1,0.2c-0.1,0.1-0.1,0.1-0.2,0.1c-0.1,0.1-0.3,0.1-0.3,0c-0.1-0.1-0.2-0.1-0.3-0.3l-0.4-0.8l-0.2,0.1L29,10.4l0.2-0.1L29.1,10
			L29.3,9.8z"/>
		<path class="st0" d="M30.8,9.6l0.7,0.8c0.1,0.1,0.2,0.2,0.3,0.3l0,0c0-0.1,0-0.3-0.1-0.3l-0.1-1L32,9.2l0.1,1.2
			c0,0.6,0,0.9-0.1,1.1c-0.1,0.2-0.2,0.3-0.3,0.3l-0.2-0.2c0.1-0.1,0.1-0.1,0.2-0.3c0.1-0.1,0.1-0.3,0.1-0.4v-0.1c0,0,0,0-0.1-0.1
			l-1.1-1.1L30.8,9.6z"/>
		<path class="st0" d="M34.3,9.6c0.1,0.1,0.3,0.1,0.5,0c0.3-0.1,0.4-0.3,0.3-0.5c-0.1-0.2-0.2-0.3-0.5-0.3c-0.4,0-0.6-0.1-0.8-0.4
			c-0.1-0.3,0.1-0.7,0.5-0.8c0.3-0.1,0.4-0.1,0.6,0v0.3c-0.1,0-0.3-0.1-0.4,0c-0.3,0.1-0.3,0.3-0.3,0.4c0.1,0.2,0.2,0.3,0.6,0.3
			c0.4,0,0.6,0.1,0.8,0.4s-0.1,0.7-0.6,0.8c-0.2,0.1-0.4,0.1-0.6,0L34.3,9.6z"/>
		<path class="st0" d="M37.7,8.2c0.1,0.6-0.2,0.9-0.6,1c-0.4,0.1-0.8-0.1-1-0.6c-0.1-0.5,0.2-0.9,0.6-1C37.2,7.5,37.6,7.8,37.7,8.2z
			 M36.4,8.5c0.1,0.3,0.3,0.6,0.6,0.5c0.3-0.1,0.4-0.4,0.3-0.7c-0.1-0.3-0.3-0.6-0.6-0.5C36.5,7.9,36.4,8.2,36.4,8.5z"/>
		<path class="st0" d="M38.3,6.6l0.3-0.1L39,8.9l-0.3,0.1L38.3,6.6z"/>
		<path class="st0" d="M41.3,8.2c0,0.2,0.1,0.3,0.1,0.4h-0.3L41,8.3l0,0c-0.1,0.1-0.2,0.3-0.5,0.3c-0.3,0-0.6-0.1-0.6-0.6l-0.1-0.9
			h0.3L40.2,8c0.1,0.3,0.1,0.5,0.4,0.5c0.2,0,0.3-0.2,0.4-0.3c0-0.1,0-0.1,0-0.1l-0.1-1h0.3L41.3,8.2z"/>
		<path class="st0" d="M42.5,6.5v0.4H43v0.3h-0.4V8c0,0.2,0.1,0.3,0.3,0.3c0.1,0,0.1,0,0.2,0v0.3c-0.1,0-0.1,0.1-0.3,0.1
			c-0.1,0-0.3-0.1-0.3-0.1c-0.1-0.1-0.1-0.3-0.1-0.4V7.2H42V7h0.3V6.6L42.5,6.5z"/>
		<path class="st0" d="M44.2,6.5c0,0.1-0.1,0.2-0.2,0.2c-0.1,0-0.2-0.1-0.2-0.2c0-0.1,0.1-0.2,0.2-0.2S44.2,6.3,44.2,6.5z M43.9,8.5
			V7h0.3v1.6H43.9z"/>
		<path class="st0" d="M46.6,7.8c-0.1,0.6-0.5,0.8-0.9,0.8c-0.4,0-0.8-0.4-0.7-0.9C45.1,7.2,45.4,7,45.9,7C46.3,7,46.7,7.3,46.6,7.8
			z M45.3,7.8c0,0.4,0.2,0.6,0.4,0.6c0.3,0,0.5-0.3,0.5-0.6c0-0.3-0.1-0.6-0.4-0.6C45.5,7.2,45.4,7.5,45.3,7.8z"/>
		<path class="st0" d="M47.5,7.6c0-0.2,0.1-0.3,0.1-0.4l0.3,0.1v0.3l0,0c0.1-0.1,0.3-0.3,0.6-0.2c0.2,0,0.6,0.3,0.4,0.8L48.8,9
			l-0.3-0.1L48.6,8c0.1-0.3,0-0.5-0.3-0.5c-0.2,0-0.4,0.1-0.4,0.3c0,0-0.1,0.1-0.1,0.1l-0.1,0.9l-0.3-0.1L47.5,7.6z"/>
		<path class="st0" d="M52.4,9.8c-0.1,0-0.3,0-0.6-0.1c-0.6-0.2-1-0.7-0.8-1.4c0.2-0.7,0.8-1,1.5-0.8c0.3,0.1,0.4,0.2,0.5,0.3
			L52.9,8c-0.1-0.1-0.3-0.2-0.4-0.2c-0.5-0.1-1,0.1-1.1,0.6c-0.1,0.5,0.1,0.9,0.6,1.1c0.2,0.1,0.4,0.1,0.5,0.1L52.4,9.8L52.4,9.8z"
			/>
		<path class="st0" d="M54.7,9.8c-0.2,0.6-0.7,0.6-1.1,0.5c-0.4-0.1-0.6-0.6-0.4-1.1c0.2-0.5,0.6-0.7,1.1-0.5
			C54.7,8.9,54.9,9.4,54.7,9.8z M53.5,9.4c-0.1,0.3,0,0.6,0.3,0.8c0.3,0.1,0.6-0.1,0.7-0.4c0.1-0.3,0.1-0.6-0.3-0.8
			C53.9,8.9,53.6,9.1,53.5,9.4z"/>
		<path class="st0" d="M55.7,9.9c0.1-0.1,0.1-0.3,0.2-0.4l0.3,0.1l-0.1,0.3l0,0c0.1-0.1,0.4-0.2,0.6-0.1c0.2,0.1,0.3,0.3,0.3,0.5
			l0,0c0.1-0.1,0.2-0.1,0.3-0.1c0.1,0,0.3,0,0.4,0.1c0.2,0.1,0.4,0.4,0.2,0.9l-0.4,0.8L57,11.8l0.4-0.8c0.1-0.3,0.1-0.5-0.1-0.6
			c-0.1-0.1-0.3,0-0.4,0.1c-0.1,0-0.1,0.1-0.1,0.1l-0.4,0.9l-0.2-0.1l0.4-0.9c0.1-0.3,0.1-0.4-0.1-0.6c-0.2-0.1-0.4,0-0.4,0.1
			c-0.1,0-0.1,0.1-0.1,0.1l-0.4,0.9l-0.3-0.1L55.7,9.9z"/>
		<path class="st0" d="M58.7,11.4c0.1-0.2,0.2-0.3,0.3-0.4l0.2,0.1L59,11.4l0,0c0.2-0.1,0.4-0.1,0.6,0c0.3,0.2,0.4,0.6,0.2,1.1
			c-0.3,0.5-0.8,0.6-1.1,0.4c-0.2-0.1-0.3-0.3-0.3-0.5l0,0L58,13.1l-0.3-0.1L58.7,11.4z M58.7,11.9c0,0.1-0.1,0.1-0.1,0.1
			c-0.1,0.2,0,0.4,0.2,0.5c0.3,0.2,0.6,0.1,0.8-0.3c0.2-0.3,0.2-0.6-0.1-0.8c-0.2-0.1-0.4-0.1-0.6,0.1c0,0-0.1,0.1-0.1,0.1
			L58.7,11.9z"/>
		<path class="st0" d="M60.8,14.1L61,14l0,0c-0.1,0.1-0.4,0.1-0.5-0.1c-0.3-0.2-0.3-0.5-0.1-0.6c0.3-0.3,0.6-0.3,1.1,0.1l0,0
			c0.1-0.1,0.2-0.3-0.1-0.5c-0.1-0.1-0.3-0.1-0.4-0.1l0.1-0.2c0.2,0,0.4,0.1,0.5,0.2c0.4,0.3,0.3,0.6,0.1,0.9L61.3,14
			c-0.1,0.1-0.2,0.3-0.2,0.3L60.8,14.1z M61.3,13.4c-0.3-0.2-0.6-0.4-0.8-0.1c-0.1,0.1-0.1,0.3,0.1,0.4c0.2,0.1,0.4,0.1,0.5,0
			l0.1-0.1L61.3,13.4z"/>
		<path class="st0" d="M62.5,14c0.1-0.1,0.2-0.3,0.3-0.3l0.2,0.2L62.8,14l0,0c0.2-0.1,0.4-0.1,0.6,0.1c0.2,0.1,0.4,0.4,0,0.9
			l-0.6,0.8l-0.2-0.2l0.6-0.7c0.2-0.2,0.3-0.4,0-0.6c-0.1-0.1-0.4-0.1-0.5,0c-0.1,0-0.1,0.1-0.1,0.1l-0.6,0.8l-0.2-0.2L62.5,14z"/>
		<path class="st0" d="M64.7,15.3l-0.4,0.9c-0.1,0.1-0.1,0.2-0.2,0.3l0,0c0.1-0.1,0.2-0.1,0.3-0.2l0.9-0.4l0.2,0.2l-1.1,0.5
			c-0.5,0.3-0.8,0.4-1.1,0.3c-0.2,0-0.3-0.1-0.4-0.1l0.1-0.3c0.1,0,0.2,0.1,0.3,0.1c0.1,0,0.3,0,0.4-0.1c0.1,0,0.1,0,0.1,0
			s0,0,0.1-0.1l0.6-1.4L64.7,15.3z"/>
	</g>
	<g>
		<g>
			<g>
				<path class="st0" d="M43.5,36.9c-0.1,0-0.2-0.1-0.3-0.1c-9-8.3-0.4-21.2,0-21.8c0.1-0.1,0.2-0.1,0.3-0.1s0.3,0.1,0.3,0.1
					c0.1,0.1,9.2,13.3-0.1,21.8C43.7,36.9,43.6,36.9,43.5,36.9z M43.5,15.9c-1.5,2.3-7.4,13,0,20.2C51,28.9,44.9,18.2,43.5,15.9z"/>
				<path class="st0" d="M43.5,15c0.1,0,0.2,0.1,0.3,0.1c0.1,0.1,9.1,13.2-0.1,21.7c-0.1,0.1-0.1,0.1-0.2,0.1c-0.1,0-0.1,0-0.2-0.1
					c-9.2-8.4-0.1-21.6-0.1-21.7C43.3,15,43.4,15,43.5,15 M43.5,36.2c7.7-7.4,1.3-18.4,0-20.5C42.2,17.8,35.8,28.9,43.5,36.2
					 M43.5,14.8c-0.1,0-0.3,0.1-0.4,0.2c-0.4,0.6-9,13.5,0.1,21.9c0.1,0.1,0.2,0.1,0.3,0.1c0.1,0,0.2-0.1,0.3-0.1
					c9.3-8.6,0.1-21.8,0.1-21.9C43.8,14.9,43.6,14.8,43.5,14.8L43.5,14.8z M43.5,36c-7.2-7.1-1.6-17.4,0-20
					C45.1,18.5,50.7,28.9,43.5,36L43.5,36z"/>
			</g>
		</g>
		<g>
			<g>
				<path class="st0" d="M43.5,45.8c-0.1,0-0.1,0-0.2-0.1c-5.7-3.2-5.6-9.3-5.6-9.3c0-0.1,0-0.1,0.1-0.2c0.6-1.1,1.4-1.7,2.4-1.8
					c0.1,0,0.1,0,0.3,0c1.4,0,2.7,1.1,3.1,1.6c0.5-0.5,1.8-1.6,3.1-1.6c0.1,0,0.2,0,0.3,0c1,0.1,1.7,0.7,2.4,1.8
					c0,0.1,0.1,0.1,0.1,0.1c0,0.3,0,6.1-5.6,9.3C43.6,45.7,43.5,45.8,43.5,45.8z M40.4,35.2c-0.1,0-0.1,0-0.2,0
					c-0.7,0.1-1.3,0.5-1.8,1.4c0,0.5,0.2,5.5,5.1,8.4c4.8-2.9,5-7.9,5-8.5c-0.5-0.8-1.1-1.3-1.8-1.3c-0.1,0-0.1,0-0.2,0
					c-1.3,0-2.7,1.4-2.9,1.6c-0.1,0.1-0.2,0.1-0.3,0.1c-0.1,0-0.2-0.1-0.3-0.1C43.2,36.8,41.8,35.2,40.4,35.2z"/>
				<path class="st0" d="M46.6,34.6c0.1,0,0.1,0,0.3,0c0.9,0.1,1.7,0.7,2.3,1.8c0,0.1,0.1,0.1,0.1,0.1c0,0.1,0.1,6-5.5,9.2
					c-0.1,0-0.1,0.1-0.1,0.1c-0.1,0-0.1,0-0.1-0.1c-5.7-3.2-5.6-9.2-5.6-9.3c0-0.1,0-0.1,0.1-0.1c0.6-1.1,1.4-1.6,2.3-1.8
					c0.1,0,0.1,0,0.3,0c1.4,0,2.7,1.1,3.1,1.6C44,35.7,45.3,34.6,46.6,34.6 M43.5,36.9c-0.1,0-0.1,0-0.2-0.1c0,0-1.5-1.6-2.9-1.6
					c-0.1,0-0.1,0-0.2,0c-0.7,0.1-1.3,0.6-1.8,1.4c0,0.6,0.2,5.7,5.1,8.6c4.9-2.9,5.1-7.9,5.1-8.6c-0.5-0.9-1.1-1.3-1.8-1.4
					c-0.1,0-0.1,0-0.2,0c-1.5,0-2.9,1.6-2.9,1.6C43.7,36.9,43.5,36.9,43.5,36.9 M46.6,34.4L46.6,34.4c-1.3,0-2.5,1-3.1,1.6
					c-0.6-0.6-1.8-1.6-3.1-1.6c-0.1,0-0.1,0-0.3,0c-1,0.1-1.8,0.8-2.4,1.8c0,0.1,0,0.1,0,0.2c0,0.1-0.1,6.1,5.6,9.3
					c0.1,0.1,0.1,0.1,0.2,0.1c0.1,0,0.1,0,0.2-0.1c5.6-3.2,5.7-9.1,5.6-9.4c0-0.1,0-0.1-0.1-0.2c-0.6-1.1-1.5-1.7-2.4-1.8
					C46.8,34.4,46.7,34.4,46.6,34.4L46.6,34.4z M43.5,37.1c0.1,0,0.3-0.1,0.3-0.1c0.3-0.3,1.5-1.6,2.8-1.6c0.1,0,0.1,0,0.2,0
					c0.6,0.1,1.2,0.5,1.7,1.3c0,0.8-0.3,5.5-5,8.4c-4.6-2.8-5-7.6-5-8.4c0.5-0.8,1-1.2,1.7-1.3c0.1,0,0.1,0,0.2,0
					c1.4,0,2.8,1.6,2.8,1.6C43.2,37,43.3,37.1,43.5,37.1L43.5,37.1z"/>
			</g>
		</g>
		<g>
			<g>
				<path class="st0" d="M39.5,29.1c-0.1,0-0.3-0.1-0.3-0.3c0-0.1-1.3-3.1-4.3-4.9c-0.1-0.1-0.1-0.1-0.2-0.2c-0.1-0.3-0.6-2.8,1-5.4
					c0.1-0.1,0.2-0.1,0.3-0.1l0,0c0.2,0,3.8,0.1,5,2.5v0.1c0,0.1,0,0.1,0,0.2c-1,2.7-1.3,5.3-1.1,7.7c0,0.2-0.1,0.3-0.3,0.4
					L39.5,29.1z M35.3,23.5c1.8,1.1,3.1,2.6,3.8,3.8c0-2,0.4-4,1.1-6.2c-1-1.7-3.5-2-4.1-2C35,20.9,35.3,23,35.3,23.5z"/>
				<path class="st0" d="M36,18.4c0.1,0,3.7,0.1,4.9,2.5v0.1c0,0.1,0,0.1,0,0.1c-1,2.8-1.3,5.4-1.1,7.7c0,0.1-0.1,0.3-0.2,0.3h-0.1
					c-0.1,0-0.2-0.1-0.3-0.2c0,0-1.3-3.1-4.4-5c-0.1-0.1-0.1-0.1-0.1-0.2c0-0.1-0.7-2.7,1-5.3C35.8,18.4,35.9,18.4,36,18.4
					 M39.2,27.5c0-2,0.4-4.2,1.1-6.5c-1-1.8-3.6-2.1-4.2-2.1c-1.3,2-1,4.1-0.9,4.6C37.2,24.7,38.5,26.4,39.2,27.5 M36,18.2L36,18.2
					L36,18.2c-0.1,0-0.3,0.1-0.4,0.2c-1.7,2.5-1.1,5.1-1,5.4c0,0.1,0.1,0.2,0.2,0.3c3.1,1.8,4.3,4.8,4.3,4.8
					c0.1,0.2,0.3,0.3,0.4,0.3h0.1c0.2-0.1,0.4-0.3,0.3-0.4c-0.3-2.3,0.1-4.9,1.1-7.6c0-0.1,0.1-0.1,0-0.2c0-0.1,0-0.1-0.1-0.1
					C39.8,18.2,36.2,18.2,36,18.2L36,18.2z M35.4,23.4c-0.1-0.5-0.3-2.5,0.8-4.3c0.7,0.1,3.1,0.3,3.9,2c-0.7,2.1-1.1,4.1-1.1,5.9
					C38.3,25.9,37.1,24.5,35.4,23.4L35.4,23.4z"/>
			</g>
		</g>
		<g>
			<g>
				<path class="st0" d="M29.8,45.9c-0.8,0-1.7-0.1-2.4-0.1c-0.2,0-0.3-0.1-0.3-0.3c-0.1-0.1,0-0.3,0.1-0.4c0,0,2.5-1.5,3.8-5.5
					c1.5-4.5,3.3-6.5,6.1-6.7c0.1,0,0.3,0,0.4,0c2.7,0,3.8,1.8,3.8,1.9c0.1,0.1,0.1,0.3,0,0.4c-0.1,0.1-0.2,0.1-0.3,0.1h-0.1
					c-0.2-0.1-0.4-0.1-0.5-0.1c-0.8,0-1.4,0.4-1.9,1.4c0,0.4,0.1,2.5,1.3,4.7c0.1,0.1,0.1,0.2,0.1,0.3
					C38.1,45.3,32.9,45.9,29.8,45.9z M28.3,45.2c0.4,0,0.8,0.1,1.4,0.1c2.8,0,7.7-0.5,9.3-3.8c-1.3-2.4-1.3-4.5-1.3-5
					c0-0.1,0-0.1,0.1-0.2c0.6-1.1,1.4-1.7,2.4-1.8c-0.5-0.4-1.3-0.9-2.7-0.9c-0.1,0-0.3,0-0.3,0c-2.5,0.2-4.1,2-5.5,6.2
					C30.7,42.7,29.2,44.4,28.3,45.2z"/>
				<path class="st0" d="M37.5,33c2.6,0,3.7,1.8,3.7,1.8c0.1,0.1,0.1,0.2,0,0.3c-0.1,0.1-0.1,0.1-0.2,0.1h-0.1
					c-0.2-0.1-0.4-0.1-0.5-0.1c-0.8,0-1.5,0.4-2,1.4c0,0.4,0.1,2.5,1.3,4.7c0.1,0.1,0.1,0.1,0,0.2c-1.7,3.8-6.8,4.3-9.9,4.3
					c-1.3,0-2.3-0.1-2.4-0.1s-0.2-0.1-0.3-0.2c0-0.1,0-0.3,0.1-0.3c0,0,2.5-1.6,3.8-5.5c1.5-4.5,3.2-6.5,6-6.7
					C37.2,33,37.4,33,37.5,33 M29.7,45.3c2.9,0,7.8-0.5,9.4-3.8c-1.4-2.5-1.3-4.8-1.3-5c0-0.1,0-0.1,0.1-0.1
					c0.8-1.3,1.7-1.8,2.5-1.8c-0.4-0.4-1.3-1.1-2.9-1.1c-0.1,0-0.3,0-0.4,0c-2.5,0.2-4.2,2.1-5.6,6.3c-1,3-2.5,4.7-3.4,5.4
					C28.5,45.2,29.1,45.3,29.7,45.3 M37.5,32.8c-0.1,0-0.3,0-0.4,0c-2.9,0.2-4.7,2.2-6.2,6.8c-1.3,3.9-3.7,5.5-3.7,5.5
					c-0.2,0.1-0.3,0.3-0.2,0.4c0.1,0.2,0.2,0.3,0.4,0.3c0.8,0.1,1.7,0.1,2.5,0.1c3,0,8.3-0.6,10-4.5c0.1-0.1,0-0.3-0.1-0.3
					c-1.1-2.1-1.3-4.2-1.3-4.6c0.5-0.9,1.1-1.3,1.8-1.3c0.1,0,0.3,0,0.5,0.1c0,0,0.1,0,0.1,0c0.1,0,0.3-0.1,0.3-0.2
					c0.1-0.1,0.1-0.3,0-0.4C41.3,34.7,40.3,32.8,37.5,32.8L37.5,32.8z M28.5,45.1c0.9-0.8,2.3-2.5,3.2-5.2c1.3-4.2,3-6,5.4-6.2
					c0.1,0,0.3,0,0.3,0c1.2,0,2,0.4,2.5,0.8c-0.7,0.1-1.5,0.5-2.2,1.8c0,0,0,0.1,0,0.1c0,0.4,0.1,2.6,1.3,5
					c-1.6,3.2-6.4,3.7-9.2,3.7C29.3,45.1,28.9,45.1,28.5,45.1L28.5,45.1z"/>
			</g>
		</g>
		<g>
			<g>
				<g>
					<path class="st0" d="M38.8,35.9c-0.1,0-0.2-0.1-0.3-0.1s-0.1-0.1-0.1-0.3c0-0.1,0.1-0.2,0.1-0.3l0.1-0.1
						c0.1-0.1,0.2-0.1,0.3-0.1c0.1,0,0.2,0.1,0.3,0.1c0.1,0.1,0.1,0.2,0.1,0.3c0,0.1-0.1,0.2-0.1,0.3L39,35.8l0,0
						C39,35.9,38.8,35.9,38.8,35.9z"/>
					<path class="st0" d="M38.8,35.2c0.1,0,0.1,0,0.2,0.1s0.1,0.1,0.1,0.2s0,0.1-0.1,0.2l-0.2-0.2l0.2,0.2c-0.1,0.1-0.1,0.1-0.2,0.1
						c-0.1,0-0.1,0-0.2-0.1c-0.1-0.1-0.1-0.1-0.1-0.2s0-0.1,0.1-0.2l0.1-0.1C38.6,35.3,38.7,35.2,38.8,35.2 M38.8,35.1
						c-0.1,0-0.3,0.1-0.3,0.1l-0.1,0.1c-0.1,0.1-0.1,0.2-0.1,0.3s0.1,0.3,0.1,0.3c0.1,0.1,0.2,0.1,0.3,0.1c0.1,0,0.2,0,0.3-0.1l0,0
						l0.1-0.1c0.1-0.1,0.1-0.2,0.1-0.3c0-0.1-0.1-0.2-0.1-0.3C39,35.2,38.9,35.1,38.8,35.1L38.8,35.1z"/>
				</g>
			</g>
			<g>
				<g>
					<path class="st0" d="M43,36.5c-0.1,0-0.2,0-0.3-0.1c-0.4-0.4-1.1-0.9-1.9-1.1c-0.1,0-0.2-0.1-0.3-0.2c0,0-0.9-1.5-3.2-1.5
						c-0.1,0-0.3,0-0.4,0c-0.9,0.1-1.7,0.4-2.4,0.9c0.1,0.1,0,0.1-0.1,0.1c-0.1,0-0.2-0.1-0.3-0.1C32.9,33,32,31,31.5,28.8
						c-0.8-4.5-2.9-5.9-3.2-6c-0.1-0.1-0.2-0.3-0.2-0.4c0-0.1,0.1-0.3,0.3-0.3c0.6-0.1,1.1-0.1,1.7-0.1c6.8,0,9.5,5.9,9.7,6.5v0.1
						c0.3,2.8,1.5,5.2,3.4,7.2c0.1,0.1,0.1,0.4,0,0.5C43.2,36.5,43.2,36.5,43,36.5z M37.5,32.9c2.4,0,3.5,1.4,3.7,1.8
						c0.1,0,0.1,0,0.1,0.1c-1.2-1.7-2-3.7-2.2-5.9c-0.1-0.3-2.5-6.1-9-6.1c-0.3,0-0.5,0-0.8,0c0.8,0.8,2.2,2.5,2.8,5.9
						c0.4,2,1.2,3.7,2.4,5c0.8-0.5,1.6-0.8,2.5-0.8C37.2,32.9,37.4,32.9,37.5,32.9z"/>
					<path class="st0" d="M30.1,22.1c7.1,0,9.6,6.5,9.7,6.5v0.1c0.3,2.8,1.5,5.2,3.4,7.2c0.1,0.1,0.1,0.3,0,0.4
						c0,0.1-0.1,0.1-0.2,0.1c-0.1,0-0.1,0-0.2-0.1c-0.4-0.4-1.2-1-2-1.2c-0.1,0-0.1-0.1-0.2-0.1c-0.1-0.1-0.9-1.6-3.2-1.6
						c-0.1,0-0.3,0-0.4,0c-1,0.1-1.7,0.4-2.4,0.9c-0.1,0.1-0.1,0.1-0.2,0.1c-0.1,0-0.1,0-0.2-0.1c-1.4-1.4-2.4-3.4-2.7-5.5
						c-0.9-4.7-3.2-6-3.2-6c-0.1-0.1-0.2-0.2-0.1-0.3c0-0.1,0.1-0.2,0.3-0.3C29,22.2,29.6,22.1,30.1,22.1 M34.6,33.8
						c0.8-0.5,1.6-0.8,2.5-0.9c0.1,0,0.3,0,0.4,0c2.3,0,3.4,1.3,3.6,1.8c0.1,0.1,0.3,0.1,0.4,0.1c-1.3-1.8-2.1-3.8-2.3-6
						c-0.2-0.5-2.7-6.2-9.1-6.2c-0.3,0-0.6,0-1,0.1c0.8,0.7,2.2,2.5,2.9,6C32.5,30.7,33.4,32.5,34.6,33.8 M30.1,22L30.1,22
						c-0.6,0-1.1,0.1-1.7,0.1c-0.2,0-0.3,0.2-0.4,0.4c0,0.2,0.1,0.4,0.2,0.4c0.3,0.1,2.4,1.5,3.1,5.9c0.4,2.2,1.4,4.2,2.8,5.6
						c0.1,0.1,0.2,0.1,0.3,0.1c0.1,0,0.2,0,0.3-0.1c0.7-0.5,1.5-0.8,2.4-0.9c0.1,0,0.3,0,0.3,0c2.2,0,3.1,1.4,3.1,1.4
						c0.1,0.1,0.1,0.2,0.3,0.2c0.8,0.2,1.5,0.7,1.9,1.1c0.1,0.1,0.2,0.1,0.3,0.1s0.2-0.1,0.3-0.1c0.2-0.2,0.2-0.4,0-0.6
						c-2-2-3.1-4.4-3.4-7.1l0,0l0,0v-0.1l-0.1,0.1l0.1-0.1C39.7,27.9,36.9,22,30.1,22L30.1,22z M29.6,22.9c0.2,0,0.4,0,0.6,0
						c6.4,0,8.8,5.6,9,6c0.2,2,0.8,3.7,1.8,5.3c-0.5-0.6-1.6-1.4-3.4-1.4c-0.1,0-0.3,0-0.4,0c-1,0.1-1.8,0.3-2.5,0.8
						c-1.1-1.3-2-3-2.3-4.9C31.7,25.5,30.4,23.7,29.6,22.9L29.6,22.9z"/>
				</g>
			</g>
			<g>
				<g>
					<path class="st0" d="M38.1,35.9l0.1-0.1c0.1-0.1,0.2-0.1,0.3-0.1c0.1,0,0.1,0,0.2,0.1c0.1,0.1,0.1,0.2,0.1,0.3
						c0,0.1,0,0.1-0.1,0.2l-0.1,0.1L38.1,35.9z"/>
					<path class="st0" d="M38.5,35.7c0.1,0,0.1,0,0.2,0.1c0.1,0.1,0.1,0.1,0.1,0.2s0,0.1-0.1,0.2l-0.1,0.1l-0.4-0.3l0.1-0.1
						C38.3,35.7,38.4,35.7,38.5,35.7 M38.5,35.5c-0.1,0-0.3,0.1-0.3,0.2l-0.1,0.1l-0.1,0.1l0.1,0.1l0.4,0.3l0.1,0.1l0.1-0.1l0.1-0.1
						c0.1-0.1,0.1-0.2,0.1-0.3c0-0.1-0.1-0.3-0.2-0.3C38.6,35.5,38.5,35.5,38.5,35.5L38.5,35.5z"/>
				</g>
			</g>
			<g>
				<g>
					<path class="st0" d="M39.2,35.5L39,35.4L38.8,35l0.1-0.1c0.1-0.1,0.1-0.1,0.2-0.1c0.1,0,0.2,0.1,0.3,0.1
						c0.1,0.1,0.1,0.2,0.1,0.3S39.3,35.5,39.2,35.5L39.2,35.5L39.2,35.5z"/>
					<path class="st0" d="M39.1,35c0.1,0,0.2,0.1,0.2,0.1c0.1,0.1,0.1,0.3-0.1,0.4l0,0l0,0l-0.1-0.1l0,0L39,35.2V35
						C39,35,39,35,39.1,35 M39.1,34.9c-0.1,0-0.2,0-0.3,0.1L38.7,35l0.1,0.1l0.2,0.3l0.2,0.2l0,0l0,0l0,0l0.1,0.1l0.1-0.1
						c0.1-0.1,0.1-0.2,0.2-0.3c0-0.1,0-0.2-0.1-0.3C39.4,34.9,39.3,34.9,39.1,34.9L39.1,34.9z"/>
				</g>
			</g>
			<g>
				<g>
					<path class="st0" d="M39.5,35.4c-0.1,0-0.3-0.1-0.3-0.2c0-0.1-0.1-0.1-0.1-0.1c0-0.1,0.1-0.3,0.2-0.3l0.1-0.1
						c0.1,0,0.1,0,0.1,0c0.1,0,0.3,0.1,0.3,0.2c0,0.1,0.1,0.1,0.1,0.1c0,0.1-0.1,0.3-0.2,0.3C39.5,35.4,39.5,35.4,39.5,35.4z"/>
					<path class="st0" d="M39.5,34.8c0.1,0,0.2,0.1,0.3,0.1c0,0.1,0,0.1,0,0.1c0,0.1-0.1,0.2-0.2,0.3h-0.1c-0.1,0-0.1,0-0.1,0
						c-0.1,0-0.2-0.1-0.3-0.1c0-0.1,0-0.1,0-0.1c0-0.1,0.1-0.2,0.1-0.3l0.1-0.1C39.5,34.8,39.5,34.8,39.5,34.8 M39.5,34.6
						c-0.1,0-0.1,0-0.2,0.1h-0.1C39.2,34.7,39,34.9,39,35c0,0.1,0,0.1,0.1,0.2c0.1,0.1,0.3,0.3,0.4,0.3c0.1,0,0.1,0,0.2-0.1h0.1
						c0.1-0.1,0.3-0.2,0.3-0.4c0-0.1,0-0.1-0.1-0.2C39.9,34.7,39.7,34.6,39.5,34.6L39.5,34.6z"/>
				</g>
			</g>
			<g>
				<g>
					<path class="st0" d="M39.9,35.3c-0.2,0-0.3-0.1-0.4-0.3V35c0-0.2,0.1-0.3,0.3-0.3h0.1L40,35l0.1,0.4L39.9,35.3L39.9,35.3
						L39.9,35.3L39.9,35.3z"/>
					<path class="st0" d="M39.8,34.7l0.1,0.3l0.1,0.3l0,0l0,0c0,0,0,0-0.1,0c-0.1,0-0.3-0.1-0.3-0.2v-0.1
						C39.6,34.8,39.7,34.7,39.8,34.7 M39.9,34.5h-0.1c-0.2,0.1-0.3,0.2-0.3,0.4c0,0,0,0.1,0,0.1c0.1,0.2,0.2,0.3,0.4,0.3l0,0l0,0
						l0,0l0,0H40l0.1-0.1v-0.1L40,34.9l-0.1-0.3V34.5L39.9,34.5z"/>
				</g>
			</g>
			<g>
				<g>
					<path class="st0" d="M40.6,35.2c-0.2,0-0.3-0.2-0.3-0.4s0.1-0.4,0.3-0.4h0.1l0.1,0.1v0.3L40.6,35.2L40.6,35.2z"/>
					<path class="st0" d="M40.6,34.6C40.6,34.6,40.6,34.6,40.6,34.6l0.1,0.3v0.3c-0.1,0-0.3-0.1-0.3-0.3l0,0
						C40.4,34.7,40.4,34.6,40.6,34.6 M40.6,34.4c-0.2,0-0.4,0.2-0.4,0.4l0,0v0.1c0,0.2,0.2,0.4,0.4,0.4h0.2v-0.2l0.1-0.3l0,0l0,0
						v-0.3v-0.1h-0.1C40.6,34.4,40.6,34.4,40.6,34.4L40.6,34.4z"/>
				</g>
			</g>
			<g>
				<g>
					<path class="st0" d="M40.2,35.2c-0.2,0-0.4-0.1-0.4-0.3s0.1-0.4,0.3-0.4h0.1v0.1l0,0l0.1,0.3L40.2,35.2L40.2,35.2z"/>
					<path class="st0" d="M40.2,34.6l0.1,0.3v0.3l0,0c-0.1,0-0.3-0.1-0.3-0.3l0,0C40,34.7,40,34.6,40.2,34.6v0.3V34.6 M40.3,34.4
						h-0.1c-0.2,0-0.4,0.2-0.4,0.4l0,0v0.1c0,0.3,0.2,0.4,0.4,0.4h0.1l0.1-0.1l0.1-0.1v-0.1v-0.3l-0.1-0.3l0,0L40.3,34.4L40.3,34.4z
						"/>
				</g>
			</g>
		</g>
		<g>
			<g>
				<path class="st0" d="M47.5,29.1L47.5,29.1c-0.3-0.1-0.3-0.2-0.3-0.4c0.3-2.3-0.1-4.9-1.1-7.7c0-0.1,0-0.1,0-0.2
					c0-0.1,0-0.1,0.1-0.1c1.2-2.5,4.8-2.5,5-2.5c0.1,0,0.3,0.1,0.3,0.1c1.7,2.6,1,5.3,1,5.4c0,0.1-0.1,0.2-0.2,0.2
					c-3.1,1.8-4.3,4.8-4.3,4.9C47.7,29.1,47.6,29.1,47.5,29.1z M46.7,21c0.8,2.2,1.1,4.3,1.1,6.2c0.7-1.1,1.9-2.6,3.8-3.8
					c0.1-0.5,0.4-2.5-0.8-4.5C50,19.1,47.7,19.3,46.7,21z"/>
				<path class="st0" d="M51,18.4c0.1,0,0.2,0.1,0.3,0.1c1.7,2.5,1,5.2,1,5.3c0,0.1-0.1,0.1-0.1,0.2c-3.1,1.8-4.4,4.9-4.4,4.9
					c-0.1,0.1-0.1,0.2-0.3,0.2h-0.1c-0.1-0.1-0.2-0.2-0.2-0.3c0.3-2.3-0.1-4.9-1.1-7.7c0-0.1,0-0.1,0-0.1v-0.1
					C47.3,18.4,50.9,18.4,51,18.4 M47.8,27.5c0.6-1.1,1.9-2.8,3.9-4c0.1-0.5,0.4-2.6-0.9-4.6c-0.6,0.1-3.2,0.3-4.2,2.1
					C47.4,23.3,47.8,25.5,47.8,27.5 M51,18.2L51,18.2c-0.2,0-3.8,0-5,2.6c0,0.1,0,0.1-0.1,0.1c0,0.1,0,0.1,0,0.3
					c1,2.7,1.3,5.3,1.1,7.6c0,0.2,0.1,0.4,0.3,0.4c0,0,0.1,0,0.1,0c0.2,0,0.4-0.1,0.4-0.3c0.1-0.1,1.3-3.1,4.3-4.8
					c0.1-0.1,0.2-0.1,0.2-0.3c0,0,0.8-2.7-1-5.4C51.2,18.2,51.1,18.2,51,18.2L51,18.2L51,18.2z M46.8,21c0.9-1.6,3.1-1.9,3.9-2
					c1.1,1.9,0.9,3.8,0.8,4.3c-1.7,1-2.9,2.4-3.6,3.5C47.9,25.1,47.5,23.1,46.8,21L46.8,21z"/>
			</g>
		</g>
		<g>
			<g>
				<path class="st0" d="M57.1,45.9c-3,0-8.3-0.6-9.9-4.3c0-0.1-0.1-0.3,0-0.3c1.3-2.3,1.3-4.5,1.3-4.7c-0.5-0.9-1.1-1.3-1.9-1.3
					c-0.2,0-0.3,0-0.5,0.1h-0.1c-0.1,0-0.2-0.1-0.3-0.1c-0.1-0.1-0.1-0.3,0-0.4c0.1-0.1,1.1-1.9,3.8-1.9c0.1,0,0.3,0,0.4,0
					c2.9,0.2,4.7,2.2,6.1,6.7c1.3,4,3.7,5.5,3.8,5.5c0.1,0.1,0.2,0.3,0.2,0.4s-0.1,0.3-0.3,0.3C58.6,45.9,57.7,45.9,57.1,45.9z
					 M47.9,41.4c1.5,3.3,6.5,3.8,9.3,3.8l0,0c0.5,0,1,0,1.5-0.1c-0.9-0.8-2.4-2.5-3.3-5.4c-1.3-4.2-3-6.1-5.5-6.2
					c-0.1,0-0.3,0-0.3,0c-1.3,0-2.2,0.5-2.7,0.9c1,0.1,1.7,0.7,2.4,1.8c0,0.1,0.1,0.1,0.1,0.1C49.3,36.5,49.3,38.8,47.9,41.4z"/>
				<path class="st0" d="M49.5,33c0.1,0,0.3,0,0.4,0c2.8,0.2,4.6,2.2,6,6.7c1.3,4,3.8,5.5,3.8,5.5c0.1,0.1,0.1,0.2,0.1,0.3
					s-0.1,0.2-0.3,0.2c-0.1,0-1.1,0.1-2.5,0.1c-3.1,0-8.2-0.6-9.9-4.3c0-0.1,0-0.2,0-0.3c1.3-2.2,1.3-4.3,1.3-4.7
					c-0.6-0.9-1.2-1.4-2-1.4c-0.2,0-0.4,0-0.6,0.1h-0.1c-0.1,0-0.2-0.1-0.2-0.1c-0.1-0.1-0.1-0.2,0-0.3C45.8,34.7,46.8,33,49.5,33
					 M57.2,45.3c0.6,0,1.2,0,1.7-0.1c-0.8-0.8-2.4-2.4-3.4-5.4c-1.4-4.2-3.1-6.1-5.6-6.3c-0.1,0-0.3,0-0.4,0c-1.5,0-2.4,0.6-2.9,1.1
					c0.8,0,1.7,0.4,2.5,1.8c0,0.1,0,0.1,0.1,0.1c0,0.1,0.1,2.5-1.3,5C49.4,44.7,54.2,45.3,57.2,45.3 M49.5,32.8L49.5,32.8
					c-2.7,0-3.8,1.8-3.8,1.9c-0.1,0.1-0.1,0.3,0,0.4c0.1,0.1,0.2,0.2,0.3,0.2c0.1,0,0.1,0,0.1,0c0.2-0.1,0.3-0.1,0.5-0.1
					c0.7,0,1.3,0.4,1.8,1.3c0,0.4-0.1,2.5-1.3,4.6c-0.1,0.1-0.1,0.3,0,0.4l0,0l0,0c1.7,3.8,7,4.4,10,4.4c0.6,0,1.5,0,2.4-0.1h0.1
					c0.2,0,0.3-0.1,0.4-0.3c0.1-0.2-0.1-0.4-0.2-0.4c-0.1,0-2.4-1.6-3.7-5.5c-1.5-4.5-3.3-6.6-6.2-6.8
					C49.8,32.8,49.6,32.8,49.5,32.8L49.5,32.8z M47,34.5c0.5-0.4,1.3-0.8,2.5-0.8c0.1,0,0.3,0,0.3,0c2.5,0.2,4.1,2,5.4,6.2
					c0.9,2.8,2.3,4.4,3.2,5.2c-0.4,0-0.8,0-1.3,0c-2.8,0-7.6-0.5-9.2-3.7c1.4-2.6,1.3-5,1.3-5c0-0.1,0-0.1-0.1-0.2
					C48.6,35,47.7,34.5,47,34.5L47,34.5z"/>
			</g>
		</g>
		<g>
			<g>
				<path class="st0" d="M43.9,36.5c-0.1,0-0.2-0.1-0.3-0.1c-0.1-0.1-0.1-0.4,0-0.5c2-2,3.1-4.4,3.4-7.2c0,0,0,0,0-0.1
					c0.1-0.3,2.8-6.6,9.7-6.6c0.6,0,1.1,0.1,1.7,0.1c0.1,0,0.3,0.1,0.3,0.3c0,0.1-0.1,0.3-0.2,0.4c0,0-2.3,1.3-3.2,6
					c-0.4,2.2-1.3,4.1-2.8,5.6c-0.1,0.1-0.1,0.1-0.3,0.1c-0.1,0-0.1,0-0.2-0.1c-0.7-0.5-1.5-0.8-2.4-0.9c-0.1,0-0.3,0-0.4,0
					c-2.2,0-3.1,1.4-3.2,1.5c-0.1,0.1-0.1,0.1-0.2,0.2c-0.8,0.2-1.6,0.8-1.9,1.1C44.1,36.5,44,36.5,43.9,36.5z M56.8,22.8
					c-6.3,0-8.8,5.5-9,6.1c-0.2,2.1-1,4.1-2.2,5.8c0.1,0,0.1-0.1,0.2-0.1c0.3-0.4,1.3-1.8,3.7-1.8c0.1,0,0.3,0,0.4,0
					c1,0.1,1.8,0.3,2.5,0.8c1.2-1.3,2-3.1,2.4-5c0.6-3.4,2-5.2,2.8-5.9C57.3,22.8,57.1,22.8,56.8,22.8z"/>
				<path class="st0" d="M56.8,22.1c0.5,0,1.1,0.1,1.7,0.1c0.1,0,0.2,0.1,0.3,0.2c0,0.1-0.1,0.3-0.1,0.3c0,0-2.4,1.3-3.2,6
					C55,31,54,32.9,52.6,34.4c-0.1,0.1-0.1,0.1-0.2,0.1s-0.1,0-0.2-0.1c-0.7-0.6-1.5-0.8-2.4-0.9c-0.1,0-0.3,0-0.4,0
					c-2.3,0-3.2,1.5-3.2,1.6c-0.1,0.1-0.1,0.1-0.2,0.1c-0.8,0.2-1.5,0.8-2,1.2c0,0.1-0.1,0.1-0.1,0.1c-0.1,0-0.1,0-0.2-0.1
					c-0.1-0.1-0.1-0.3,0-0.4c2-2,3.2-4.5,3.4-7.2v-0.1C47.2,28.6,49.8,22.1,56.8,22.1 M45.4,34.9c0.1-0.1,0.3-0.1,0.4-0.1
					c0.3-0.4,1.3-1.8,3.6-1.8c0.1,0,0.3,0,0.4,0c1,0.1,1.8,0.3,2.5,0.9c1.3-1.4,2.1-3.1,2.5-5.1c0.6-3.6,2.1-5.3,2.9-6
					c-0.3,0-0.6-0.1-1-0.1c-6.4,0-8.9,5.7-9.1,6.2C47.5,31.1,46.7,33.1,45.4,34.9 M56.8,22c-7,0-9.7,6.4-9.8,6.6
					c0,0.1-0.1,0.1-0.1,0.1c-0.3,2.7-1.4,5.1-3.4,7.1c-0.2,0.2-0.2,0.4,0,0.6c0.1,0.1,0.2,0.1,0.3,0.1c0.1,0,0.2-0.1,0.3-0.1
					c0.4-0.4,1.1-0.9,1.9-1.1c0.1,0,0.2-0.1,0.3-0.2c0.1-0.1,1-1.5,3.1-1.5c0.1,0,0.3,0,0.3,0c0.9,0.1,1.7,0.3,2.4,0.9
					c0.1,0.1,0.2,0.1,0.3,0.1c0.1,0,0.3-0.1,0.3-0.1c1.4-1.5,2.4-3.4,2.8-5.6c0.8-4.7,3.1-5.9,3.1-5.9c0.1-0.1,0.3-0.3,0.2-0.4
					c0-0.2-0.2-0.3-0.4-0.4C58,22,57.4,22,56.8,22L56.8,22z M47.9,28.9c0.3-0.7,2.8-6,9-6c0.2,0,0.4,0,0.6,0
					c-0.8,0.8-2.1,2.6-2.7,5.9c-0.3,1.9-1.1,3.6-2.3,4.9c-0.8-0.5-1.6-0.8-2.5-0.8c-0.1,0-0.3,0-0.4,0c-1.8,0-2.9,0.8-3.4,1.4
					C47,32.6,47.7,30.8,47.9,28.9L47.9,28.9z"/>
			</g>
		</g>
		<g>
			<g>
				<g>
					<path class="st0" d="M35.8,33.9c-0.1,0-0.3-0.1-0.3-0.3c0-0.1,0-0.1,0-0.1c0-0.1,0.1-0.3,0.2-0.3c0.1,0,0.1,0,0.1,0
						c0.1,0,0.3,0.1,0.3,0.3c0,0.1,0,0.1,0,0.1C36.1,33.7,36,33.8,35.8,33.9C35.8,33.8,35.8,33.9,35.8,33.9z"/>
					<path class="st0" d="M35.8,33.3c0.1,0,0.3,0.1,0.3,0.2c0,0.1,0,0.1,0,0.1c0,0.1-0.1,0.2-0.2,0.3c-0.1,0-0.1,0-0.1,0
						c-0.1,0-0.3-0.1-0.3-0.2c0-0.1,0-0.1,0-0.1c0-0.1,0.1-0.2,0.2-0.3l0,0C35.7,33.3,35.7,33.3,35.8,33.3 M35.8,33.1
						c-0.1,0-0.1,0-0.1,0h-0.1l0,0c-0.2,0.1-0.3,0.2-0.3,0.4c0,0.1,0,0.1,0,0.2c0.1,0.2,0.2,0.3,0.4,0.3c0.1,0,0.1,0,0.1,0
						c0.2-0.1,0.3-0.2,0.3-0.4c0-0.1,0-0.1,0-0.1C36.1,33.2,35.9,33.1,35.8,33.1L35.8,33.1z"/>
				</g>
			</g>
			<g>
				<g>
					<path class="st0" d="M34.9,33.5L34.9,33.5c0.1-0.1,0.2-0.1,0.3-0.1c0.1,0,0.3,0.1,0.3,0.2c0,0.1,0.1,0.1,0.1,0.2
						s-0.1,0.3-0.2,0.3l-0.1,0.1L34.9,33.5z"/>
					<path class="st0" d="M35.1,33.5c0.1,0,0.2,0.1,0.3,0.1c0,0.1,0,0.1,0,0.1c0,0.1-0.1,0.2-0.1,0.3L35,33.5
						C35,33.5,35.1,33.5,35.1,33.5 M35.1,33.4L35.1,33.4c-0.1,0-0.1,0-0.2,0.1l-0.1,0.1l0.1,0.1l0.3,0.5l0.1,0.1l0.1-0.1
						c0.1-0.1,0.3-0.2,0.3-0.4c0-0.1,0-0.1-0.1-0.2C35.5,33.5,35.3,33.4,35.1,33.4L35.1,33.4z"/>
				</g>
			</g>
			<g>
				<g>
					<path class="st0" d="M31.1,37.2c-2.9,0-4.5-3-5.4-5.3c-1.3-3-2.9-3.2-2.9-3.2c-0.1,0-0.3-0.1-0.3-0.3c0-0.1,0.1-0.3,0.2-0.4
						c0.8-0.4,1.8-0.6,2.8-0.6c3.6,0,6.9,2.3,6.9,2.3c0.1,0.1,0.1,0.1,0.1,0.2c0.4,1.5,1.3,2.9,2.3,4c0.1,0.1,0.1,0.2,0.1,0.3
						c0,0.1-0.1,0.2-0.1,0.3c-0.7,0.5-1.3,1.3-1.8,2.3c-0.1,0.1-0.1,0.1-0.2,0.2l-0.2,0.1C32.1,37.1,31.6,37.2,31.1,37.2z
						 M23.9,28.4c0.7,0.4,1.7,1.3,2.5,3.3c1.4,3.3,2.9,4.8,4.8,4.8l0,0c0.4,0,0.8-0.1,1.3-0.2c0.5-0.9,1-1.6,1.7-2.1
						c-1-1.1-1.7-2.4-2.2-3.8c-0.6-0.4-3.5-2.1-6.4-2.1C24.9,28.2,24.4,28.3,23.9,28.4z"/>
					<path class="st0" d="M25.5,27.6c3.4,0,6.7,2.1,6.9,2.3c0.1,0.1,0.1,0.1,0.1,0.1c0.4,1.5,1.3,2.9,2.3,4c0.1,0.1,0.1,0.1,0.1,0.2
						s-0.1,0.1-0.1,0.2c-0.7,0.5-1.3,1.3-1.8,2.3c0,0.1-0.1,0.1-0.1,0.1l-0.1,0.1c-0.5,0.1-1,0.3-1.5,0.3c-2.7,0-4.3-2.9-5.3-5.2
						c-1.3-3.1-2.9-3.3-2.9-3.3c-0.1,0-0.3-0.1-0.3-0.3c0-0.1,0.1-0.3,0.2-0.3C23.6,27.7,24.6,27.6,25.5,27.6 M31.1,36.6
						c0.4,0,0.8-0.1,1.3-0.3l0,0c0.5-0.9,1.1-1.6,1.7-2.2c-1-1.1-1.7-2.4-2.2-3.9c-0.6-0.4-3.5-2.1-6.5-2.1c-0.6,0-1.2,0.1-1.8,0.3
						c0.7,0.4,1.7,1.3,2.6,3.3C27.7,35,29.2,36.6,31.1,36.6 M25.5,27.4L25.5,27.4c-1,0-2,0.2-2.8,0.6c-0.2,0.1-0.3,0.3-0.3,0.4
						s0.2,0.3,0.4,0.4c0,0,1.5,0.2,2.8,3.1c1,2.3,2.6,5.3,5.5,5.3c0.4,0,1-0.1,1.5-0.3l0.1-0.1c0.1,0,0.2-0.1,0.3-0.2
						c0.5-1,1.1-1.7,1.8-2.3c0.1-0.1,0.2-0.2,0.2-0.3s-0.1-0.3-0.1-0.3c-1-1.1-1.8-2.4-2.3-3.9c0-0.1-0.1-0.2-0.2-0.3
						C32.4,29.8,29,27.4,25.5,27.4L25.5,27.4z M24.1,28.4c0.4-0.1,0.9-0.1,1.4-0.1c2.9,0,5.7,1.6,6.4,2.1c0.4,1.4,1.2,2.7,2.1,3.8
						c-0.6,0.5-1.1,1.2-1.6,2.1c-0.4,0.1-0.8,0.2-1.2,0.2c-1.8,0-3.3-1.5-4.7-4.8C25.7,29.8,24.8,28.9,24.1,28.4L24.1,28.4z"/>
				</g>
			</g>
		</g>
		<g>
			<g>
				<path class="st0" d="M55.9,37.2c-0.5,0-1-0.1-1.5-0.3h-0.1c-0.1,0-0.2-0.1-0.3-0.2c-0.6-1-1.1-1.8-1.8-2.3
					c-0.1-0.1-0.1-0.1-0.1-0.3s0-0.2,0.1-0.3c1-1.1,1.8-2.5,2.3-4c0-0.1,0.1-0.1,0.1-0.1l0.1-0.1c0,0,3.3-2.3,6.9-2.3
					c1,0,1.9,0.2,2.8,0.6c0.1,0.1,0.3,0.2,0.2,0.4c0,0.1-0.1,0.3-0.3,0.3c0,0-1.6,0.2-2.9,3.2C60.3,34.2,58.7,37.2,55.9,37.2z
					 M54.7,36.3c0.4,0.1,0.9,0.2,1.3,0.2c1.8,0,3.4-1.5,4.8-4.8c0.8-2,1.8-2.8,2.5-3.3c-0.5-0.1-1-0.2-1.6-0.2c-3,0-5.9,1.8-6.4,2.1
					c-0.4,1.4-1.1,2.8-2.1,3.8C53.6,34.7,54.2,35.4,54.7,36.3z"/>
				<path class="st0" d="M61.5,27.6c0.9,0,1.8,0.1,2.7,0.6c0.1,0.1,0.2,0.2,0.2,0.3c0,0.1-0.1,0.2-0.3,0.3c0,0-1.7,0.2-2.9,3.3
					c-1,2.3-2.6,5.2-5.3,5.2c-0.4,0-1-0.1-1.5-0.3h-0.1c-0.1,0-0.2-0.1-0.2-0.1c-0.6-1-1.1-1.8-1.8-2.3c-0.1-0.1-0.1-0.1-0.1-0.2
					c0-0.1,0-0.1,0.1-0.2c1-1.1,1.8-2.5,2.3-4c0-0.1,0.1-0.1,0.1-0.1l0.1-0.1C54.9,29.8,58.1,27.6,61.5,27.6 M54.6,36.4L54.6,36.4
					c0.4,0.1,0.9,0.2,1.3,0.2c1.9,0,3.4-1.6,4.8-4.9c0.9-2.1,1.9-3,2.6-3.3c-0.6-0.2-1.2-0.3-1.8-0.3c-3.1,0-6,1.8-6.5,2.1
					c-0.4,1.4-1.2,2.8-2.2,3.9C53.5,34.7,54.1,35.4,54.6,36.4 M54.5,36.5L54.5,36.5l-0.1,0.1L54.5,36.5 M61.5,27.4L61.5,27.4
					c-3.6,0-6.9,2.3-6.9,2.3l-0.1,0.1c-0.1,0.1-0.1,0.1-0.1,0.2c-0.4,1.5-1.3,2.9-2.3,3.9c-0.1,0.1-0.1,0.2-0.1,0.3s0.1,0.3,0.2,0.3
					c0.6,0.5,1.3,1.2,1.8,2.2c0.1,0.1,0.3,0.2,0.3,0.2h0.1c0.5,0.2,1,0.3,1.5,0.3c2.9,0,4.5-3,5.5-5.3c1.3-3,2.8-3.1,2.8-3.1
					c0.2,0,0.4-0.2,0.4-0.4s-0.1-0.4-0.3-0.4C63.5,27.6,62.5,27.4,61.5,27.4L61.5,27.4z M55.2,30.4c0.6-0.4,3.5-2.1,6.4-2.1
					c0.5,0,1,0.1,1.4,0.1c-0.7,0.4-1.6,1.4-2.4,3.2c-1.4,3.3-2.9,4.8-4.7,4.8c-0.4,0-0.8-0.1-1.2-0.2c-0.5-0.9-1-1.5-1.6-2.1
					C54,33.1,54.7,31.8,55.2,30.4L55.2,30.4z"/>
			</g>
		</g>
		<g>
			<g>
				<path class="st0" d="M43.3,45.6c-5.4-6.1-2.3-10.5-2.2-10.7l0.1-0.1l0.1,0.1l0.4,0.3l-0.1,0.1c-0.1,0.2-3.1,4.2,2.1,10.1
					l0.1,0.1L43.3,45.6L43.3,45.6z"/>
				<path class="st0" d="M41.3,35l0.3,0.2c-0.1,0.2-3.2,4.2,2.1,10.1l-0.3,0.3C37.9,39.4,41.2,35,41.3,35 M41.2,34.7l-0.1,0.1
					l0.1,0.1l-0.1-0.1c-0.1,0.2-3.3,4.7,2.2,10.8l0.1,0.1l0.1-0.1l0.3-0.3l0.1-0.1l-0.1-0.1c-5.2-5.9-2.2-9.8-2.1-9.9l0.1-0.1
					l-0.1-0.1l-0.3-0.2L41.2,34.7L41.2,34.7z"/>
			</g>
		</g>
		<g>
			<g>
				<path class="st0" d="M36.4,33.5c-1.9-1.1-2.6-3.4-3.2-5.5c-0.4-1.3-0.8-2.5-1.4-3.3c-1.6-2-3.2-2-3.2-2h-0.1v-0.5h0.1
					c0,0,1.8,0,3.6,2.2c0.7,0.9,1.1,2.2,1.5,3.5c0.6,2,1.3,4.2,3.1,5.2l0.1,0.1L36.4,33.5L36.4,33.5z"/>
				<path class="st0" d="M28.5,22.4c0.1,0,1.8,0.1,3.6,2.2c0.7,0.8,1.1,2.1,1.5,3.5c0.6,2.1,1.3,4.2,3.1,5.2l-0.1,0.2
					c-1.8-1.1-2.6-3.4-3.2-5.4c-0.4-1.3-0.8-2.5-1.5-3.3c-1.6-2-3.2-2-3.2-2L28.5,22.4 M28.5,22.2h-0.1v0.1v0.4v0.2h0.2
					c0,0,1.6,0.1,3.1,2c0.6,0.8,1,2,1.4,3.2v0.1c0.6,2.1,1.4,4.3,3.3,5.5l0.1,0.1l0.1-0.1l0.2-0.3l0.1-0.1L36.7,33
					c-1.7-1-2.4-3.1-3-5.1c-0.4-1.3-0.8-2.6-1.5-3.5C30.4,22.2,28.5,22.2,28.5,22.2L28.5,22.2z"/>
			</g>
		</g>
		<g>
			<g>
				<path class="st0" d="M32.6,35.4c-3.9,0-7-4.2-7.3-4.6l-0.1-0.1l0.1-0.1l0.4-0.3l0.1,0.1c0.3,0.4,3.3,4.4,6.9,4.4
					c0.3,0,0.6-0.1,1-0.1h0.1l0.1,0.5h-0.1C33.3,35.4,32.9,35.4,32.6,35.4z"/>
				<path class="st0" d="M25.6,30.6c0.1,0.1,3.2,4.4,7,4.4c0.3,0,0.6-0.1,1-0.1l0.1,0.4c-0.4,0.1-0.8,0.1-1.1,0.1
					c-4,0-7.1-4.4-7.2-4.6L25.6,30.6 M25.7,30.3l-0.1,0.1l-0.3,0.2l-0.1,0.1l0.1,0.1c0.6,0.8,3.6,4.7,7.4,4.7c0.4,0,0.7-0.1,1.1-0.1
					h0.2l-0.1-0.2l-0.1-0.4l-0.1-0.1l-0.1,0.1c-0.3,0.1-0.6,0.1-1,0.1c-3.6,0-6.5-3.9-6.9-4.3L25.7,30.3L25.7,30.3z"/>
			</g>
		</g>
		<g>
			<g>
				<path class="st0" d="M27.3,45.7v-0.5h0.1c0.1,0,8.9-0.1,11.1-5.3v-0.1L39,40v0.1c-1,2.3-3.3,4-6.7,4.9c-2.5,0.7-4.8,0.8-4.9,0.8
					L27.3,45.7L27.3,45.7z"/>
				<path class="st0" d="M38.6,39.9l0.3,0.1c-1,2.3-3.2,3.9-6.7,4.8c-2.5,0.7-4.8,0.8-4.8,0.8v-0.4C27.5,45.2,36.4,45.1,38.6,39.9
					 M38.5,39.7l-0.1,0.1c-2.2,5.1-10.9,5.3-11.1,5.3h-0.2v0.2v0.4v0.1h0.1c0,0,2.4-0.1,4.9-0.8c3.4-0.9,5.8-2.6,6.7-4.9L39,40
					L38.9,40l-0.3-0.1L38.5,39.7L38.5,39.7z"/>
			</g>
		</g>
		<g>
			<g>
				<path class="st0" d="M43.2,45.3L43.2,45.3c5.1-5.8,2.5-9.7,2.2-10.1l-0.1-0.1l0.4-0.3l0.1,0.1c0.1,0.2,3.3,4.6-2.2,10.7
					l-0.1,0.1L43.2,45.3z"/>
				<path class="st0" d="M45.7,35c0.1,0.1,3.4,4.4-2.2,10.6l-0.3-0.3c5.3-5.9,2.2-9.9,2.1-10.1L45.7,35 M45.7,34.7l-0.1,0.1L45.3,35
					l-0.1,0.1l0.1,0.1c0.3,0.4,2.9,4.3-2.1,9.9L43,45.4l0.1,0.1l0.3,0.3l0.1,0.1l0.1-0.1c5.5-6.1,2.3-10.6,2.2-10.8L45.7,34.7
					L45.7,34.7z"/>
			</g>
		</g>
		<g>
			<g>
				<path class="st0" d="M50.3,33.2L50.3,33.2c1.8-1.1,2.4-3.1,3.1-5.2c0.4-1.3,0.8-2.6,1.5-3.5c1.6-2,3.2-2.2,3.6-2.2h0.1v0.1v0.4
					h-0.1c0,0-1.7,0.1-3.2,2c-0.6,0.8-1,2-1.4,3.3c-0.6,2-1.3,4.3-3.2,5.5l-0.1,0.1L50.3,33.2z"/>
				<path class="st0" d="M58.5,22.3v0.4c0,0-1.7,0.1-3.2,2c-0.6,0.8-1,2-1.5,3.3c-0.6,2-1.3,4.3-3.2,5.4l-0.2-0.3
					c1.7-1,2.4-3.1,3.1-5.2c0.4-1.3,0.8-2.6,1.5-3.5C56.6,22.4,58.4,22.4,58.5,22.3 M58.6,22.2h-0.2v0.1v-0.1c-0.3,0-2,0.3-3.6,2.2
					c-0.7,0.9-1.1,2.2-1.5,3.5c-0.6,2-1.3,4.2-3,5.1l-0.1,0.1l0.1,0.1l0.2,0.3l0.1,0.1l0.1-0.1c1.9-1.1,2.7-3.5,3.3-5.5
					c0.4-1.3,0.8-2.5,1.4-3.3c1.5-1.9,3.1-2,3.1-2h0.1v-0.1v-0.4L58.6,22.2L58.6,22.2z"/>
			</g>
		</g>
		<g>
			<g>
				<path class="st0" d="M54.3,35.4c-0.4,0-0.8-0.1-1.1-0.1h-0.1l0.1-0.5h0.1c0.3,0.1,0.6,0.1,1,0.1c3.8,0,6.9-4.3,6.9-4.4l0.1-0.1
					l0.4,0.3l-0.1,0.1C61.2,31.6,58.2,35.4,54.3,35.4z"/>
				<path class="st0" d="M61.3,30.6l0.3,0.2c-0.1,0.2-3.3,4.6-7.2,4.6c-0.4,0-0.7-0.1-1.1-0.1l0.1-0.4c0.3,0.1,0.6,0.1,1,0.1
					C58.2,35,61.3,30.6,61.3,30.6 M61.3,30.3l-0.1,0.1c-0.1,0.1-3.1,4.3-6.9,4.3c-0.3,0-0.6-0.1-1-0.1l-0.1-0.1l-0.1,0.1l-0.1,0.4
					l-0.1,0.1l0.1,0.1c0.4,0.1,0.8,0.1,1.1,0.1c3.8,0,6.8-3.9,7.4-4.7l0.1-0.1l-0.1-0.1L61.3,30.3L61.3,30.3L61.3,30.3z"/>
			</g>
		</g>
		<g>
			<g>
				<path class="st0" d="M59.5,45.7c0,0-2.3,0-4.9-0.8c-3.4-0.9-5.7-2.6-6.7-4.9V40l0.5-0.2v0.1c2.2,5.2,11,5.3,11.1,5.3h0.1v0.5
					L59.5,45.7L59.5,45.7z"/>
				<path class="st0" d="M48.4,39.9c2.2,5.2,11.1,5.4,11.2,5.4v0.4c0,0-2.3-0.1-4.8-0.8c-3.4-0.9-5.7-2.6-6.7-4.8L48.4,39.9
					 M48.4,39.7l-0.1,0.1L48,39.9L47.9,40l0.1,0.1c1,2.3,3.3,4,6.7,4.9c2.6,0.7,4.9,0.8,4.9,0.8h0.1v-0.1v-0.4v-0.2h-0.2
					C59.4,45.1,50.7,44.9,48.4,39.7L48.4,39.7L48.4,39.7z"/>
			</g>
		</g>
	</g>
	<g>
		<ellipse class="st1" cx="10.8" cy="56.6" rx="0.4" ry="0.4"/>
	</g>
	<g>
		<path class="st2" d="M23.1,55.3L23.1,55.3c0,0-0.1,0.1-0.1,0.2h-0.1l0,0c-0.1,0.1-0.1,0.2-0.2,0.2h-0.1l0,0
			c-0.1,0-0.1,0.1-0.1,0.1c-0.1,0.1-0.1,0.1-0.1,0.1c0,0-0.1,0-0.1,0c0,0.1-0.1,0.1-0.2,0.1l-0.3,0.2l-0.1,0.1c0,0-0.1,0.1-0.1,0.1
			c-0.1,0-0.1,0.1-0.1,0.1c-0.1,0.1-0.1,0.1-0.1,0.1h-0.1c-0.1,0.1-0.2,0.2-0.3,0.2c-0.1,0.1-0.2,0.1-0.3,0.1l-0.1,0.1L20.3,57
			C20.2,57,20.1,57,20.1,57c-0.1,0-0.2,0-0.3-0.1c-0.1,0.1-0.1,0.1-0.1,0.1l0,0c0,0,0,0-0.1,0s-0.1,0-0.1,0s0,0-0.1,0h-0.1
			c0,0-0.1,0-0.2-0.1l-0.1,0.1c-0.1,0-0.2-0.1-0.3-0.1L18.9,57c0,0-0.1,0-0.1-0.1c-0.1-0.1-0.1-0.1-0.1-0.2c0-0.1,0.2-0.4,0.8-0.9
			c0.5-0.4,0.8-0.7,1-0.8l0.1-0.1l0.1-0.1c0,0,0,0,0.1,0l0,0c0.1,0,0.1-0.1,0.1-0.1s0.1-0.1,0.1-0.1h0.1l0.6-0.4
			c0,0,0.1-0.1,0.3-0.2c0.1-0.1,0.3-0.1,0.3-0.2c0.1-0.1,0.1-0.1,0.3-0.1l0.1-0.1c0.1-0.1,0.1-0.1,0.1-0.1c0.3-0.1,0.4,0.1,0.4,0.3
			l-0.1,0.2c0,0.1-0.1,0.2-0.2,0.2h-0.1c0,0,0,0-0.1,0l-0.3,0.1h-0.1c0,0-0.1,0-0.1,0.1H22c0,0-0.1,0.1-0.1,0.1l-0.1,0.1
			c-0.1,0.1-0.3,0.2-0.6,0.3c-0.3,0.2-0.4,0.3-0.4,0.3c-0.1,0-0.2,0.1-0.2,0.1c-0.1,0.1-0.1,0.1-0.3,0.2c-0.4,0.3-0.6,0.5-0.6,0.6
			c0,0.1,0.3,0.1,0.7,0c0.2-0.1,0.3-0.1,0.4-0.1l0.6-0.2l0.1-0.1h0.1c0.1,0,0.1-0.1,0.1-0.1c0.1-0.1,0.1-0.1,0.2-0.1
			c0.1,0,0.1-0.1,0.1-0.1s0.1-0.1,0.1-0.1c0,0,0.1,0,0.1-0.1s0.1-0.1,0.2-0.1c0.1-0.1,0.1-0.1,0.2-0.1l0.1-0.1l0.1-0.1h0.1l0.1-0.1
			l0.2-0.2H23c0.1,0,0.1-0.1,0.2-0.2c0.1-0.1,0.1-0.1,0.1-0.1c0.1-0.1,0.2-0.2,0.3-0.3l0.1-0.1c0.1-0.1,0.1-0.2,0.2-0.3l0,0H24v-0.1
			c0,0,0,0,0-0.1l0,0v-0.1l0.1-0.1L24,53.4v-0.1c0-0.1-0.1-0.1-0.1-0.2v-0.1v-0.1c-0.1,0-0.1,0-0.1,0c-0.1-0.1-0.1-0.1-0.3-0.2
			c-0.2-0.1-0.4-0.1-0.7-0.1h-0.4l-0.2,0.1c-0.1,0-0.1,0-0.2,0s-0.1,0-0.1,0s-0.1,0-0.1,0c-0.1,0.1-0.1,0.1-0.2,0.1h-0.1L21.2,53
			c-0.3,0.1-0.4,0.1-0.5-0.1c-0.1-0.3,0.1-0.5,0.4-0.7c0.1,0,0.1-0.1,0.1-0.1l0.4-0.2c0,0,0.1-0.1,0.1-0.1s0.1-0.1,0.2-0.1l0.1-0.1
			H22c0-0.1,0.1-0.1,0.2-0.1c0.1-0.1,0.2-0.2,0.4-0.3c0.2-0.2,0.3-0.3,0.3-0.3l0.1-0.1c0,0,0.1-0.1,0-0.2c0-0.1-0.1-0.1-0.1-0.1
			l-0.1-0.1c0,0,0,0-0.1,0h-0.1c0,0-0.2,0-0.5,0h-0.3l-0.1,0.1h-0.1l-0.3,0.1l-0.1-0.1l0,0c0,0,0,0-0.1,0.1S21,50.8,21,50.8
			c-0.1,0-0.1,0-0.2,0l0,0c-0.1,0-0.1,0.1-0.1,0.1s0.1,0.1,0.1,0.2v0.1v0.1c0,0,0,0.1-0.1,0.1v0.1c0,0.1-0.1,0.2-0.1,0.3
			c-0.1,0.2-0.1,0.3-0.1,0.3l-0.2,0.4v0.1c-0.1,0.2-0.1,0.4-0.1,0.4c0,0.1-0.1,0.1-0.1,0.2c0,0.1,0,0.1-0.1,0.2l-0.1,0.6
			c0,0-0.1,0.1-0.1,0.1c0,0.1-0.1,0.2-0.1,0.3s0,0.2-0.1,0.3v0.1c0,0,0,0.1,0,0.1c0,0.1,0,0.1-0.1,0.1c0,0.1,0,0.1-0.1,0.1
			c-0.1,0-0.2-0.1-0.3-0.2c-0.1-0.1-0.2-0.2-0.2-0.2c0-0.1-0.1-0.2-0.1-0.3c0-0.1,0-0.2,0.1-0.3c0.1-0.1,0.1-0.3,0.1-0.3
			s0-0.1,0.1-0.2s0.1-0.1,0.1-0.1c0-0.1,0-0.1,0-0.1c0.1-0.1,0.1-0.1,0.1-0.2s0-0.1,0.1-0.2v-0.1c0,0,0-0.1,0.1-0.1
			c0.1-0.1,0.1-0.1,0.1-0.1s0-0.1,0-0.1h0.1c0-0.1,0-0.1,0-0.1s0-0.1,0.1-0.1c0-0.1,0-0.3,0.1-0.3s0.1-0.1,0.1-0.1
			c-0.1,0-0.1-0.1-0.1-0.1c0-0.1,0-0.1,0.1-0.2c0,0,0-0.1-0.1-0.1s0,0,0-0.1l0.1-0.3c0-0.1,0.1-0.2,0.1-0.3l0,0l-0.1-0.1
			c0-0.1,0.1-0.1,0.1-0.2c0-0.1,0.1-0.1,0-0.1l0,0h-0.1L20,51c-0.1,0-0.1,0.1-0.3,0.1h-0.1l0,0c0,0-0.1,0-0.1,0.1l-0.1,0.1h-0.1
			c-0.1,0-0.2,0.1-0.3,0.1s-0.1,0.1-0.2,0.1c0,0-0.1,0.1-0.1,0.1h-0.1c0,0,0,0-0.1,0.1s-0.1,0.1-0.2,0.1c-0.1,0-0.1,0-0.1,0
			s-3.8,3.6-6.9,4.9c-2.7,1.1-6.5,1.1-6.5,0.8c0-0.3,3.8-0.1,6.5-1.2c3.2-1.3,6.9-4.7,6.9-4.8c0.4-0.1,0.5-0.3,0.7-0.3l0,0h0.1
			l0.1-0.1c0.1-0.1,0.1-0.1,0.2-0.1s0.1,0,0.1,0s0,0,0.1,0l0.1-0.1c0.1-0.1,0.1-0.1,0.3-0.1c0.1-0.1,0.2-0.1,0.3-0.1l0,0h0.1
			l0.3-0.1l0.4-0.1l0.2-0.1h0.1l0.3-0.1h0.5c0.2,0,0.4,0.1,0.6,0.1s0.3,0.1,0.4,0.2c0.1,0.1,0.1,0.1,0.1,0.3
			c0.1,0.3-0.1,0.5-0.4,0.8c-0.3,0.3-0.6,0.5-0.8,0.6c-0.3,0.1-0.3,0.2-0.3,0.3c0,0,0.1,0.1,0.2,0.1s0.3,0,0.3,0c0.1,0,0.1,0,0.1,0
			s0.1,0,0.2,0.1c0.1,0.1,0.2,0.1,0.3,0.1c0.4,0.1,0.7,0.2,0.8,0.4H24c0.1,0,0.1,0.1,0.2,0.3c0.1,0,0.1,0.1,0.2,0.3v0.1
			c0,0.1,0.1,0.1,0.1,0.1c0.1,0.3,0.1,0.4,0,0.5c0,0,0,0.1,0,0.1s-0.1,0.1-0.2,0.3c-0.1,0.2-0.2,0.3-0.3,0.3c0,0-0.1,0.1-0.1,0.1
			l-0.1-0.2c-0.1,0.1-0.1,0.1-0.1,0.1c0,0,0,0.1-0.1,0.1l-0.1,0.1L23.5,55c0,0,0,0-0.1,0l0,0C23.4,55.2,23.3,55.3,23.1,55.3z"/>
		<path class="st2" d="M28.8,54.2L28.8,54.2c0.1-0.1,0.1-0.1,0.1-0.1s0.1-0.1,0.1-0.1c0.1-0.1,0.1-0.1,0.1-0.2
			c0.1-0.1,0.1-0.1,0.1-0.2c0,0,0.1,0,0.1,0.1s0.1,0.1,0.1,0.1c0,0.1,0,0.3-0.1,0.4v0.1v0.1c-0.1,0.1-0.1,0.1-0.1,0.1
			s-0.1,0.1-0.1,0.1l-0.1,0.1C29,54.6,29,54.6,29,54.7s-0.1,0.1-0.1,0.1c-0.1,0-0.1,0.1-0.1,0.1c0,0-0.1,0.1-0.1,0.1v0.1
			c0,0.1-0.1,0.1-0.1,0.1c-0.1,0.1-0.1,0.1-0.2,0.1s0.1,0.1,0,0.1c-0.1,0-0.1,0-0.2,0c-0.1,0-0.1,0-0.2,0l-0.1-0.1
			c0,0,0-0.1-0.1-0.1c-0.1-0.1-0.1-0.1-0.1-0.2v-0.1v-0.1c0,0,0-0.1-0.1-0.1c0,0,0,0,0-0.1s0,0,0-0.1v-0.1v-0.1v-0.3c0,0,0-0.1,0,0
			c0,0-0.1,0-0.1,0.1s-0.1,0.1-0.1,0.1c0,0-0.1,0.1-0.1,0.1s-0.1,0.1-0.1,0.1v0.1c0,0,0,0.1-0.1,0.1c-0.1,0-0.1,0.1-0.1,0.1
			l-0.1,0.1H27c0,0,0,0.1-0.1,0.1c0,0.1-0.1,0.1-0.1,0.1l-0.3,0.4c-0.1,0.1-0.1,0.1-0.2,0.1v0.1c-0.3,0.3-0.4,0.4-0.6,0.4
			s-0.2,0-0.3,0c-0.1-0.1-0.2-0.1-0.3-0.2l-0.1-0.2c-0.1,0.1-0.1,0-0.1-0.1c0-0.1,0-0.1,0-0.1v-0.1l-0.1-0.1c0-0.1,0-0.1,0.1-0.1
			v-0.1c0,0,0-0.1,0.1-0.2c0.1-0.1,0.1-0.2,0.1-0.2l0.1-0.1c0-0.1,0-0.1,0.1-0.1c0.1-0.1,0.1-0.1,0.1-0.2c0-0.1,0.1-0.1,0.1-0.2
			l0.1-0.2c0.1-0.1,0.2-0.3,0.4-0.4c0,0,0.1-0.1,0.1-0.1c0.1-0.1,0.1-0.1,0.2-0.2c0.1-0.1,0.1-0.1,0.3-0.1c0.1-0.1,0.1-0.1,0.2-0.1
			h0.1c0,0,0.1-0.1,0.3-0.2l0,0c0,0,0.1,0,0.1,0l0,0l0.1-0.1c0,0,0,0,0.1,0c0.2-0.1,0.4,0.1,0.4,0.4c0,0.1,0.1,0.1,0.1,0.1
			c0.1,0,0.1-0.1,0.1-0.2c0.1-0.1,0.2-0.3,0.4-0.3c0.1,0,0.3,0.1,0.3,0.3c0.1,0.3,0,0.4-0.2,0.7c0,0.1,0,0.1,0,0.1l-0.2,0.2l0,0
			c0,0,0,0.1,0,0.1s0,0.1,0,0.1v0.1v0.1c0,0.1,0,0.1,0.1,0.1c0.1-0.1,0.2-0.1,0.2-0.2c0.1-0.1,0.1-0.1,0.1-0.1l0.1-0.1
			C28.7,54.3,28.8,54.2,28.8,54.2z M27,54.5c0-0.1,0.1-0.1,0.1-0.2c0.1-0.1,0.1-0.1,0.1-0.1c0.1-0.1,0.1-0.2,0.3-0.3
			c0.1-0.1,0.2-0.3,0.1-0.3l0,0l0,0l-0.1,0.1h-0.1h-0.1h-0.1h-0.1h-0.1c-0.1,0-0.1,0-0.1,0.1c-0.1,0.1-0.1,0.1-0.2,0.1
			c-0.1,0.1-0.2,0.1-0.3,0.2c-0.1,0.1-0.1,0.1-0.2,0.1c0,0.1-0.1,0.1-0.2,0.3c-0.1,0.1-0.1,0.1-0.1,0.2c-0.1,0.1-0.1,0.1-0.1,0.1
			v0.1c0,0.1-0.1,0.1-0.1,0.1c-0.1,0-0.1,0.1-0.1,0.1s0,0.1-0.1,0.2c-0.1,0.1-0.1,0.1-0.1,0.1c0,0.2,0.1,0.3,0.1,0.3
			c0,0,0.1-0.1,0.2-0.1c0.1-0.1,0.1-0.1,0.1-0.1l0.1-0.1l0.1-0.1c0,0,0,0,0.1-0.1c0.1-0.1,0,0,0.1-0.1l0.1-0.1
			c0.1-0.1,0.1-0.1,0.1-0.1c0.1-0.1,0.1-0.1,0.3-0.2l0.1-0.1c0.1-0.1,0.1-0.1,0.1-0.1C26.9,54.6,27,54.5,27,54.5z"/>
		<path class="st2" d="M30.1,52.9l0.1-0.1c0-0.1,0.1-0.1,0.1-0.1c0-0.1,0.1-0.1,0.1-0.3c0-0.1,0.1-0.3,0.1-0.3
			c0.1-0.1,0.1-0.1,0.2-0.1s0.1,0,0.2,0.1c0.1,0.1,0.2,0.2,0.3,0.4c0.1,0.3,0.3,0.4,0.3,0.4s0,0.1,0.1,0.2c0,0.1,0.1,0.1,0.1,0.1
			c0,0.1,0,0.1,0,0.1l0.1,0.2l-0.1,0.2v0.1c0,0.1-0.1,0.1-0.1,0.1V54c0.2-0.1,0.3-0.2,0.3-0.2c0-0.1,0.1-0.1,0.1-0.1
			c0,0,0.1-0.1,0.1-0.2l0.1-0.1c0-0.1,0.1-0.1,0.1-0.1s0.1-0.1,0.1-0.1s0.1-0.1,0.1-0.1c0.1-0.1,0.1-0.1,0.2-0.1l0.1-0.1
			c0.1-0.1,0.1-0.1,0.2-0.2c0.1-0.1,0.1-0.1,0.1-0.1s0.1,0,0.1,0.1c0.1,0.1,0.1,0.1,0.1,0.2c0,0.1,0,0.1-0.1,0.2
			c-0.1,0.1-0.1,0.1-0.1,0.1c0,0.1-0.1,0.1-0.2,0.1c0,0-0.1,0.1-0.1,0.3l-0.1,0.1l-0.1,0.1c0,0-0.1,0.1-0.1,0.1c0,0,0,0,0,0.1
			S32,54,32,54c-0.1,0.1-0.2,0.2-0.2,0.2l-0.1,0.1c0,0.1,0,0.1-0.1,0.1c-0.1,0.1-0.1,0.1-0.1,0.1c0,0,0,0-0.1,0.1l0,0
			c-0.1,0.1-0.1,0.1-0.2,0.1l-0.1,0.1v0.1c0,0-0.1,0.1-0.1,0.1c-0.1,0.1-0.1,0.1-0.2,0.1l-0.1,0.1c-0.1,0.1-0.2,0.1-0.2,0.1h-0.1
			c-0.1,0-0.1,0.1-0.2,0.1c-0.1,0.1-0.2,0.1-0.3,0.1c-0.2,0.1-0.3,0-0.4,0c-0.1-0.1-0.1-0.1-0.2-0.2s-0.1-0.1-0.2-0.2
			c-0.1-0.1-0.1-0.1-0.1-0.1s0-0.1,0.1-0.1c0-0.1,0.1-0.1,0.1-0.2c0-0.1,0.1-0.1,0.3-0.2c0,0,0,0,0.1-0.1c0.1,0,0.1-0.1,0.1-0.1
			c0.1,0,0.1,0,0.1,0.1l0,0h0.1c0.1,0,0.1,0.1,0.1,0.1c0.1,0,0.2-0.1,0.3-0.2l0,0h0.1c0,0,0-0.1,0.1-0.1l0.1-0.2l0.1-0.3v-0.1
			c0,0,0-0.1,0-0.1v-0.1c0-0.1,0-0.1,0.1-0.1s0.1-0.1,0.1-0.1v-0.1c0-0.1-0.1-0.1-0.1-0.1l0.1-0.1V53v-0.1c0-0.1,0-0.1,0-0.1v-0.1
			c0,0,0-0.1-0.1-0.1c0-0.1-0.1-0.1-0.1-0.1s-0.1,0.1-0.2,0.2c-0.1,0.1-0.1,0.2-0.2,0.3c0,0.1-0.1,0.1-0.1,0.1
			c-0.1,0.1-0.1,0.1-0.1,0.1c0,0.1-0.1,0.1-0.1,0.1l-0.3,0.3L29.2,54c0,0.1-0.1,0.1-0.1,0.1c-0.1,0-0.2-0.1-0.3-0.2
			c0-0.1,0-0.1,0.1-0.3l0.1-0.1l0,0l0,0H29l0,0c0.1-0.1,0.2-0.2,0.3-0.2c0.1,0,0.1-0.1,0.1-0.1l0.2-0.2c0.1-0.1,0.1-0.1,0.3-0.3
			C30,53,30.1,52.9,30.1,52.9z"/>
		<path class="st2" d="M33,52.8l0.1-0.1c0.1,0,0.1-0.1,0.1-0.1s0.1-0.2,0.1-0.3l0.1-0.1c0.1-0.1,0.2-0.1,0.4-0.3
			c0.1-0.1,0.1-0.1,0.1-0.1l0,0h0.1c0.1,0,0.1,0,0.2-0.1c0.1-0.1,0.1-0.1,0.2-0.1l0.2-0.1h0.1c0,0,0.1,0,0.2,0c0.1,0,0.1,0,0.3,0.1
			c0.1,0.1,0.1,0.1,0.1,0.2c0,0.1,0,0.3-0.1,0.4c-0.1,0.1-0.2,0.2-0.3,0.3c-0.1,0.1-0.1,0.1-0.1,0.1l-0.1,0.1l-0.1,0.1l0,0l0,0
			c-0.1,0-0.1,0.1-0.2,0.3h-0.1c-0.1,0.1-0.1,0.1-0.1,0.1c0,0.1-0.1,0.1-0.1,0.1c-0.1,0.1-0.2,0.2-0.3,0.3c0,0,0,0-0.1,0
			c0,0.1,0,0.1,0,0.1s0,0.1-0.1,0.1l-0.1,0.1h-0.1l-0.1,0.1c-0.1,0-0.1,0.1-0.2,0.1c0,0.1,0,0.1,0,0.2c0,0.1,0,0.1,0,0.1
			c0,0.1,0.1,0.1,0.3,0.1l0.3-0.1c0.1,0,0.1-0.1,0.2-0.1c0.1,0,0.1-0.1,0.2-0.1c0,0,0.1,0,0.1-0.1h0.1c0-0.1,0.1-0.1,0.1-0.2
			s0.1-0.1,0.1-0.1l0.1-0.1c0-0.1,0-0.1,0.1-0.1l0.1-0.1c0-0.1,0.1-0.1,0.1-0.1H35l0,0c0-0.1,0.1-0.2,0.2-0.2c0.1,0,0.1-0.1,0.1-0.1
			s0.1-0.1,0.1-0.1s0.1-0.1,0.1-0.1s0.1-0.1,0.1-0.1s0.1-0.1,0.1-0.1c0,0,0-0.1,0.1-0.1c0,0,0,0,0.1,0.1c0,0.1,0,0.1,0,0.1l0,0v-0.1
			v-0.1c0-0.1,0-0.1,0.1-0.1l0.2-0.2c0-0.1,0-0.1,0.1-0.1c0.1,0,0.1-0.1,0.1-0.1s0-0.1,0.1-0.1s0.1,0,0.1,0.1v0.1l0.1,0.1
			c0,0,0,0.1-0.1,0.1c0,0.1-0.1,0.1-0.1,0.2s0,0.1-0.1,0.1l0,0c-0.1,0.1-0.1,0.1-0.1,0.1l-0.1,0.1L36,53.4c0,0.1-0.1,0.1-0.1,0.1
			s-0.1,0.1-0.1,0.1l-0.1-0.1l0,0c-0.1,0-0.1,0.1-0.1,0.1c0,0.1,0,0.1-0.1,0.1c-0.1,0.1-0.2,0.1-0.2,0.2l0,0h-0.1
			c-0.1,0-0.1,0.1-0.1,0.1c0,0.1-0.1,0.1-0.1,0.1S35,54.2,35,54.2c0,0,0,0-0.1,0c0,0-0.1,0.1-0.1,0.1l-0.4,0.2l-0.1,0.1l-0.4,0.3
			c0,0-0.1,0-0.1-0.1s-0.1-0.1-0.1-0.1l-0.1,0.1c-0.1,0.1-0.1,0.1-0.2,0.1c-0.1,0-0.1,0-0.1,0s-0.1-0.1-0.1-0.1
			c-0.1,0-0.2-0.1-0.3-0.2h-0.1c0,0-0.1-0.1-0.2-0.4c0,0-0.1-0.1-0.1-0.1s-0.1-0.1-0.1-0.1c0-0.2,0-0.3,0.1-0.3
			c0.1-0.1,0.1-0.1,0.1-0.1l0.1-0.3c0,0,0-0.1,0.1-0.1l0.1-0.3C32.9,53,32.9,52.9,33,52.8z M34.1,52.4L34.1,52.4
			c-0.1,0.1-0.1,0.1-0.2,0.1c-0.1,0.1-0.1,0.1-0.2,0.2c-0.1,0.1-0.1,0.1-0.2,0.3c-0.1,0.2-0.1,0.3-0.1,0.3s0,0.1,0.1,0l0.2-0.1
			c0.1-0.1,0.1-0.1,0.2-0.1c0.1-0.1,0.1-0.1,0.3-0.2l0.1-0.1l0.1-0.1c0.1-0.1,0.1-0.1,0.1-0.1h0.1c0.1-0.1,0.1-0.2,0.2-0.2
			c0.1-0.1,0.1-0.1,0.1-0.1c0-0.1-0.1-0.1-0.1-0.1c0,0-0.1,0-0.1,0.1h-0.1c0,0-0.1,0-0.1,0.1L34.1,52.4z"/>
		<path class="st2" d="M44.6,52.7L44.6,52.7c0,0-0.1,0.1-0.1,0.1h-0.1h-0.1C44.3,53,44.2,53,44.2,53H44l0,0c-0.1,0-0.1,0.1-0.1,0.1
			c-0.1,0.1-0.1,0.1-0.1,0.1c0,0-0.1,0-0.1,0c-0.1,0.1-0.1,0.1-0.2,0.1l-0.3,0.2c-0.1,0-0.1,0.1-0.1,0.1s-0.1,0-0.1,0.1
			c-0.1,0-0.1,0-0.1,0.1c-0.1,0.1-0.1,0.1-0.1,0.1l-0.1-0.1c-0.1,0.1-0.3,0.2-0.3,0.2c-0.1,0-0.2,0.1-0.3,0.1H42l-0.3,0.1
			c-0.1,0-0.1,0.1-0.2,0.1c-0.1,0-0.2,0-0.3-0.1c-0.1,0.1-0.1,0.1-0.1,0.1h-0.1c0,0,0,0-0.1,0h-0.1c0,0,0,0-0.1,0
			c-0.1,0-0.1,0-0.1,0s-0.1-0.1-0.2-0.1l-0.1,0.1c-0.1,0-0.2-0.1-0.3-0.2l-0.1-0.1l-0.1-0.1c-0.1-0.1-0.1-0.1-0.1-0.2
			c0-0.1,0.3-0.4,0.8-0.8c0.6-0.4,0.9-0.6,1.1-0.7l0.1-0.1l0.1-0.1c0,0,0,0,0.1,0h0.1c0.1,0,0.1-0.1,0.1-0.1c0-0.1,0.1-0.1,0.1-0.1
			h0.1l0.6-0.4c0,0,0.1-0.1,0.3-0.1c0.2-0.1,0.3-0.1,0.3-0.2c0.1-0.1,0.2-0.1,0.3-0.1L44,51c0.1-0.1,0.1-0.1,0.1-0.1
			c0.3,0,0.4,0.1,0.4,0.3l-0.1,0.3c-0.1,0.1-0.1,0.2-0.2,0.2s-0.1,0-0.1,0h-0.1l-0.3,0.1l-0.1-0.1c0,0-0.1,0-0.1,0.1h-0.1
			c0,0-0.1,0.1-0.1,0.1l-0.1,0.1c-0.1,0.1-0.4,0.1-0.6,0.3s-0.4,0.2-0.4,0.2c-0.1,0.1-0.1,0.1-0.2,0.1s-0.1,0.1-0.3,0.2
			c-0.4,0.3-0.7,0.4-0.7,0.6c0,0.1,0.3,0.1,0.7,0.1c0.2,0,0.3-0.1,0.4-0.1l0.6-0.2l0.1-0.1h0.1c0.1,0,0.1,0,0.1-0.1
			c0-0.1,0.1-0.1,0.2-0.1c0.1,0,0.1,0,0.1-0.1c0.1-0.1,0.1-0.1,0.1-0.1c0.1,0,0.1,0,0.1-0.1c0,0,0.1-0.1,0.2-0.1s0.1-0.1,0.2-0.1
			l0.1-0.1c0,0,0.1-0.1,0.1-0.1h0.1c0,0,0.1,0,0.1-0.1l0.3-0.2h0.1c0.1,0,0.1-0.1,0.2-0.2c0.1-0.1,0.1-0.1,0.2-0.1
			c0.1-0.1,0.2-0.2,0.3-0.3l0.1-0.1c0.1-0.1,0.1-0.1,0.2-0.2l0,0h0.1v-0.1c0,0,0,0,0-0.1l0,0c0,0,0-0.1,0.1-0.1s0.1-0.1,0.1-0.1
			l-0.1-0.1v-0.1c0-0.1-0.1-0.1-0.1-0.2v-0.1v-0.1c-0.1,0-0.1,0-0.1,0c-0.1-0.1-0.1-0.1-0.3-0.2c-0.2-0.1-0.4-0.1-0.7-0.1L44,50.2
			l-0.2,0.1c-0.1,0-0.1,0-0.2,0c-0.1,0-0.1,0-0.1,0c-0.1,0-0.1,0-0.1,0c-0.1,0.1-0.2,0.1-0.2,0.1H43l-0.1,0.1c-0.3,0-0.4,0-0.4-0.1
			c0-0.3,0.1-0.5,0.4-0.6c0.1,0,0.1-0.1,0.1-0.1l0.4-0.2c0.1,0,0.1-0.1,0.1-0.1c0.1-0.1,0.1-0.1,0.2-0.1l0.1-0.1h0.1
			c0-0.1,0.1-0.1,0.2-0.1c0.1-0.1,0.3-0.1,0.4-0.3c0.2-0.1,0.3-0.3,0.3-0.3l0.1-0.1c0.1,0,0.1-0.1,0.1-0.2c0-0.1-0.1-0.1-0.1-0.1
			L44.7,48c0,0,0,0-0.1-0.1c-0.1-0.1-0.1,0-0.1,0c-0.1,0-0.2,0-0.5-0.1l-0.3-0.1l-0.1,0.1h-0.1l-0.3,0.1l-0.1-0.1l0,0
			c0,0-0.1,0-0.1,0.1S43,48,43,48c-0.1,0-0.1,0-0.2,0l0,0c-0.1,0-0.1,0-0.1,0.1c0,0,0.1,0.1,0.1,0.2v0.1v0.1c0,0.1,0,0.1-0.1,0.1
			v0.1c0,0.1-0.1,0.2-0.1,0.3c-0.1,0.2-0.1,0.3-0.1,0.3l-0.1,0.4v0.1c-0.1,0.2-0.1,0.4-0.1,0.4c-0.1,0.1-0.1,0.1-0.1,0.2
			c0,0.1-0.1,0.1-0.1,0.2l-0.2,0.6l-0.1,0.1c-0.1,0.1-0.1,0.2-0.1,0.3s0,0.2-0.1,0.3V52c0,0,0,0.1-0.1,0.1c-0.1,0.1-0.1,0.1-0.1,0.1
			s-0.1,0.1-0.1,0.1c-0.1,0-0.2-0.1-0.3-0.2c-0.1-0.1-0.1-0.2-0.2-0.3s-0.1-0.1-0.1-0.2c0-0.1,0-0.2,0.1-0.3
			c0.1-0.1,0.1-0.2,0.1-0.3s0.1-0.1,0.1-0.1c0-0.1,0.1-0.1,0.1-0.1s0-0.1,0.1-0.1c0.1-0.1,0.1-0.1,0.1-0.2c0-0.1,0.1-0.1,0.1-0.2
			v-0.1c0,0,0-0.1,0.1-0.1s0.1-0.1,0.1-0.1c0-0.1,0-0.1,0.1-0.1h0.1c0-0.1,0-0.1,0-0.1s0-0.1,0.1-0.1c0-0.1,0.1-0.2,0.1-0.3
			c0.1,0,0.1-0.1,0.1-0.1c-0.1-0.1-0.1-0.1-0.1-0.1c0-0.1,0.1-0.1,0.1-0.2c0,0,0-0.1-0.1-0.1c0,0,0,0,0-0.1l0.1-0.3
			c0.1-0.1,0.1-0.2,0.2-0.3l0,0l-0.1-0.1c0-0.1,0.1-0.1,0.1-0.1c0.1-0.1,0.1-0.1,0.1-0.1l0,0h-0.1L42,48.1c-0.1,0-0.1,0.1-0.3,0.1
			h-0.1l0,0c0,0-0.1,0-0.1,0.1l-0.1-0.1h-0.1c-0.1,0-0.2,0-0.3,0.1c-0.1,0.1-0.1,0.1-0.2,0.1c0,0-0.1,0.1-0.1,0.1h-0.1
			c0,0,0,0-0.1,0c-0.1,0-0.1,0.1-0.2,0.1c-0.1,0-0.1,0-0.1,0s-0.1,0.1-0.1,0.1c-0.1,0.1-0.1,0.1-0.2,0.1c-0.1,0-0.1,0-0.1,0.1
			c-0.1,0.1-0.1,0.1-0.1,0.1L39.9,49c0,0.1-0.1,0.1-0.1,0.1c-0.1,0-0.1,0.1-0.1,0.1l-0.1,0.1c-0.1,0-0.1,0-0.1-0.1
			c0-0.1-0.1-0.1-0.1-0.1c0-0.1,0-0.2,0.1-0.3c0.1-0.1,0.1-0.1,0.2-0.2c0.1-0.1,0.3-0.2,0.4-0.2c0.2,0,0.3-0.1,0.3-0.1l0,0h0.1
			c0,0,0.1,0,0.1-0.1c0.3-0.1,0.6-0.3,0.7-0.3l0,0h0.3l0.1-0.1c0.1-0.1,0.1-0.1,0.2-0.1s0.1,0,0.1,0H42c0,0,0.1,0,0.1-0.1
			c0.1-0.1,0.2-0.1,0.3-0.1c0.1,0,0.2-0.1,0.3-0.1h0.1h0.1l0.3-0.1h0.4l0.2-0.1h0.1l0.3-0.1l0.5,0.1c0.2,0,0.4,0.1,0.6,0.2
			c0.2,0.1,0.3,0.2,0.4,0.3c0.1,0.1,0.1,0.1,0.1,0.3c0,0.3-0.1,0.5-0.5,0.8c-0.3,0.3-0.6,0.4-0.8,0.5c-0.3,0.1-0.4,0.2-0.4,0.2
			s0.1,0.1,0.2,0.1c0.1,0,0.3,0,0.3,0.1c0.1,0,0.1,0,0.1,0.1c0.1,0,0.1,0,0.2,0.1c0.1,0.1,0.2,0.1,0.3,0.1c0.4,0.1,0.7,0.3,0.8,0.4
			h0.1c0,0,0.1,0.1,0.1,0.3c0.1,0,0.1,0.1,0.2,0.3v0.1c0,0.1,0.1,0.1,0.1,0.1c0,0.3,0,0.4-0.1,0.5c0,0,0,0.1,0,0.1S46,52,45.9,52.2
			c-0.1,0.1-0.2,0.2-0.3,0.3c0,0-0.1,0.1-0.1,0.1l-0.1-0.4c-0.1,0.1-0.1,0.1-0.1,0.1c-0.1,0,0,0.1,0,0.1l-0.1,0.1
			c0,0.1-0.1,0.1-0.1,0.1c0,0,0,0-0.1,0l0,0C44.9,52.6,44.7,52.7,44.6,52.7z"/>
		<path class="st2" d="M47,51.7l0.1-0.1c0.1,0,0.1-0.1,0.1-0.1s0.1-0.1,0.2-0.2l0.1-0.1c0.1-0.1,0.2-0.1,0.4-0.2
			c0.1-0.1,0.1-0.1,0.1-0.1l0,0h0.1c0.1,0,0.1,0,0.2-0.1c0.1-0.1,0.1-0.1,0.2-0.1h0.3c0,0,0.1,0,0.1,0.1c0.1,0,0.1,0.1,0.2,0.1
			c0.1,0,0.1,0.1,0.2,0.1s0.1,0.1,0.1,0.2c0,0.1-0.1,0.2-0.2,0.3c-0.1,0.1-0.2,0.2-0.3,0.2c-0.1,0.1-0.1,0.1-0.1,0.1
			c-0.1,0-0.1,0.1-0.1,0.1c-0.1,0-0.1,0.1-0.1,0.1s0,0-0.1,0c0,0,0,0-0.1,0s-0.1,0.1-0.2,0.2h-0.1c-0.1,0.1-0.1,0.1-0.1,0.1
			s-0.1,0.1-0.1,0.1c-0.1,0.1-0.2,0.2-0.3,0.2h-0.1c0,0.1-0.1,0.1-0.1,0.1s0,0.1-0.1,0.1l-0.1,0.1h-0.1l0,0.1c-0.1,0-0.1,0-0.2,0.1
			c0,0.1,0,0.1-0.1,0.2c0,0.1,0,0.1,0,0.1c0,0.1,0.1,0.1,0.3,0.1l0.3-0.1c0.1,0,0.1,0,0.2-0.1c0.1-0.1,0.1-0.1,0.2-0.1
			c0,0,0.1,0,0.1,0h0.1c0-0.1,0.1-0.1,0.1-0.1c0.1,0,0.1-0.1,0.2-0.1l0.1-0.1c0-0.1,0.1-0.1,0.1-0.1l0.1-0.1c0-0.1,0.1-0.1,0.1-0.1
			h0.1l0,0c0.1-0.1,0.1-0.1,0.2-0.2c0.1,0,0.1-0.1,0.1-0.1c0-0.1,0.1-0.1,0.1-0.1c0.1,0,0.1-0.1,0.1-0.1c0.1-0.1,0.1-0.1,0.1-0.1
			c0.1-0.1,0.1-0.1,0.1-0.1h0.1c0,0,0.1,0,0.1,0.1c0,0.1,0,0.1,0,0.1l0,0v-0.1v-0.1c0-0.1,0-0.1,0.1-0.1l0.3-0.2
			c0-0.1,0-0.1,0.1-0.1c0.1,0,0.1,0,0.1-0.1h0.1c0.1,0,0.1,0,0.1,0.1v0.1v0.1c0,0,0,0.1-0.1,0.1s-0.1,0.1-0.1,0.2
			c0,0.1-0.1,0.1-0.1,0.1h-0.1C50,52.4,50,52.4,50,52.4c-0.1,0-0.1,0.1-0.1,0.1l-0.2,0.2c-0.1,0.1-0.1,0.1-0.1,0.1s-0.1,0.1-0.1,0.1
			l-0.1-0.1l0,0c-0.1,0-0.1,0-0.1,0.1s0,0.1-0.1,0.1c-0.1,0.1-0.2,0.1-0.2,0.1h-0.1H49c-0.1,0-0.1,0.1-0.1,0.1
			c-0.1,0.1-0.1,0.1-0.1,0.1c-0.1,0-0.1,0.1-0.2,0.1c0,0,0,0-0.1,0c-0.1,0-0.1,0.1-0.1,0.1l-0.4,0.2c-0.1,0-0.1,0-0.1,0h-0.1
			c0,0-0.1,0-0.1-0.1l-0.1-0.1l-0.1,0.1c-0.1,0-0.1,0.1-0.2,0.1c-0.1,0-0.1,0-0.1-0.1c-0.1-0.1-0.1-0.1-0.1-0.1
			c-0.1,0-0.2-0.1-0.2-0.3h-0.1c0,0-0.1-0.1-0.1-0.4c0,0-0.1-0.1-0.1-0.1c-0.1,0-0.1-0.1-0.1-0.1c0-0.2,0.1-0.3,0.1-0.3
			c0.1-0.1,0.1-0.1,0.1-0.1l0.1-0.3c0,0,0.1-0.1,0.1-0.1L47,51.7C47,51.8,47,51.7,47,51.7z M48.2,51.3L48.2,51.3
			c-0.1,0.1-0.1,0.1-0.2,0.1c-0.1,0.1-0.1,0.1-0.2,0.1c-0.1,0.1-0.1,0.1-0.2,0.3c-0.1,0.1-0.1,0.3-0.1,0.3s0,0.1,0.1,0.1l0.2-0.1
			c0.1-0.1,0.1-0.1,0.2-0.1c0.1-0.1,0.1-0.1,0.3-0.2l0.1-0.1c0,0,0.1-0.1,0.1-0.1c0.1-0.1,0.1-0.1,0.1-0.1h0.1
			c0.1-0.1,0.1-0.2,0.2-0.2c0.1,0,0.1-0.1,0.1-0.1c0-0.1-0.1-0.1-0.1-0.1c0,0-0.1,0-0.1,0.1h-0.1c0,0-0.1,0-0.1,0.1H48.2z"/>
		<path class="st2" d="M54,52.5L54,52.5c0.1-0.1,0.1-0.1,0.2-0.1c0-0.1,0.1-0.1,0.1-0.1c0.1-0.1,0.1-0.1,0.2-0.2
			c0.1-0.1,0.1-0.1,0.2-0.1c0,0,0.1,0,0.1,0.1s0.1,0.1,0.1,0.1c0,0.1-0.1,0.3-0.1,0.4v0.1l-0.1,0.1c-0.1,0-0.1,0.1-0.1,0.1
			c-0.1,0-0.1,0.1-0.1,0.1l-0.1,0.1c-0.1,0-0.1,0.1-0.2,0.1C54,53.1,54,53.1,54,53.2c-0.1,0-0.1,0.1-0.2,0.1c-0.1,0-0.1,0.1-0.1,0.1
			v0.1c-0.1,0.1-0.1,0.1-0.2,0.1c-0.1,0-0.1,0.1-0.2,0.1c-0.1,0-0.1,0-0.1,0c-0.1,0-0.1,0-0.2-0.1c-0.1-0.1-0.1-0.1-0.2-0.1
			l-0.1-0.1c0,0,0-0.1-0.1-0.1c-0.1-0.1-0.1-0.1-0.1-0.2v-0.1v-0.1v-0.1c0,0,0,0,0-0.1c0,0,0,0,0-0.1v-0.1v-0.1l0.1-0.3v-0.1
			c0,0-0.1,0-0.1,0.1c-0.1,0.1-0.1,0.1-0.1,0.1c-0.1,0-0.1,0.1-0.1,0.1c-0.1,0.1-0.1,0.1-0.1,0.1v0.1l-0.1,0.1c0,0-0.1,0.1-0.1,0.1
			l-0.1,0.1h-0.1c0,0,0,0.1-0.1,0.1c-0.1,0.1-0.1,0.1-0.1,0.1l-0.4,0.3c-0.1,0-0.1,0.1-0.2,0.1L51,53.6c-0.3,0.2-0.5,0.3-0.6,0.3
			s-0.2-0.1-0.3-0.1c-0.1-0.1-0.2-0.1-0.2-0.2l-0.1-0.2c-0.1-0.1-0.1-0.1-0.1-0.2s0-0.1,0-0.1V53v-0.2c0-0.1,0.1-0.1,0.1-0.1v-0.1
			c0,0,0.1-0.1,0.1-0.2c0.1-0.1,0.1-0.1,0.1-0.2l0.1-0.1c0-0.1,0-0.1,0.1-0.1c0.1-0.1,0.1-0.1,0.1-0.1c0.1-0.1,0.1-0.1,0.2-0.2
			l0.2-0.1c0.1-0.1,0.3-0.2,0.4-0.3c0,0,0.1-0.1,0.1-0.1c0.1-0.1,0.1-0.1,0.3-0.1s0.2-0.1,0.3-0.1c0.1-0.1,0.1-0.1,0.2-0.1h0.1
			c0,0,0.1-0.1,0.3-0.1h0.1c0,0,0.1,0,0.1,0.1l0,0l0.1-0.1h0.1c0.2,0,0.3,0.2,0.4,0.5c0,0.1,0,0.1,0.1,0.1c0.1,0,0.1-0.1,0.2-0.2
			c0.1-0.1,0.2-0.2,0.4-0.2c0.1,0,0.3,0.1,0.2,0.3c0,0.3-0.1,0.4-0.3,0.6c0,0,0,0.1-0.1,0.1l-0.1,0.3l0,0c0,0,0,0.1-0.1,0.1
			c-0.1,0-0.1,0.1-0.1,0.1v0.1v0.1c0,0.1,0,0.1,0.1,0.1c0.1,0,0.2-0.1,0.3-0.1c0.1-0.1,0.1-0.1,0.1-0.1H54
			C53.9,52.6,54,52.5,54,52.5z M52.2,52.5c0-0.1,0.1-0.1,0.1-0.2c0.1-0.1,0.1-0.1,0.1-0.1c0.1-0.1,0.2-0.1,0.3-0.3
			c0.1-0.1,0.2-0.2,0.2-0.3l0,0l0,0h-0.1h-0.1h-0.1l-0.1-0.1h-0.1h-0.1c-0.1,0-0.1,0-0.1,0.1c-0.1,0-0.1,0.1-0.3,0.1
			c-0.1,0-0.2,0.1-0.3,0.1S51.5,52,51.5,52c0,0.1-0.1,0.1-0.3,0.2c-0.1,0-0.1,0.1-0.2,0.2c-0.1,0.1-0.1,0.1-0.1,0.1l-0.1,0.1
			c-0.1,0-0.1,0.1-0.1,0.1c-0.1,0-0.1,0.1-0.1,0.1s-0.1,0.1-0.1,0.2c-0.1,0.1-0.1,0.1-0.1,0.1c0,0.2,0,0.3,0.1,0.3
			c0,0,0.1,0,0.2-0.1c0.1-0.1,0.1-0.1,0.2-0.1c0,0,0.1,0,0.1-0.1l0.1-0.1h0.1c0,0,0.1,0,0.1-0.1s0.1-0.1,0.1-0.1
			c0.1,0,0.1-0.1,0.1-0.1c0.1-0.1,0.2-0.1,0.3-0.1l0.1-0.1c0.1-0.1,0.1-0.1,0.1-0.1C52.1,52.5,52.2,52.5,52.2,52.5z"/>
		<path class="st2" d="M55.1,51.8L55.1,51.8c0.1,0,0.1-0.1,0.2-0.1h0.1c0.1,0,0.1-0.1,0.1-0.1l0.1-0.1h0.1c0,0,0.1,0,0.1-0.1
			c0,0,0.1-0.1,0.2-0.1l0,0c0,0,0.1,0,0.1-0.1c0.1-0.1,0.1-0.1,0.1-0.1l0.2-0.1c0.1,0,0.1,0,0.1,0c0.1,0,0.1,0.1,0.2,0.2
			c0.1,0.1,0.2,0.3,0.1,0.4c0,0.1-0.1,0.1-0.1,0.1h-0.1V52l-0.1,0.2c-0.1,0.1-0.1,0.1-0.1,0.1c-0.1,0.1-0.1,0.1-0.1,0.1h-0.1
			l-0.1,0.1v0.1c-0.1,0.1-0.1,0.1-0.2,0.3c-0.1,0.1-0.1,0.3-0.1,0.3c0,0.1,0,0.1,0.1,0.1h0.1c0,0,0.1-0.1,0.1-0.1s0.1-0.1,0.1-0.1
			s0.1-0.1,0.1-0.1c0.1,0,0.1-0.1,0.2-0.1c0.1-0.1,0.1-0.1,0.1-0.1l0.1-0.1l0.1-0.1c0,0,0.1,0,0.1,0c0-0.1,0-0.1,0.1-0.1l0.1-0.1
			l0.3-0.3l0.1-0.1c0.1,0,0.1,0,0.1,0c0.1-0.1,0.1-0.2,0.2-0.2c0,0,0,0,0.1,0c0.1-0.1,0.1-0.1,0.1-0.1c0.1,0,0.1-0.1,0.1-0.1
			l0.1-0.1c0.1,0,0.1-0.1,0.1-0.1c0.2-0.1,0.3-0.3,0.4-0.3c0.1,0,0.1,0,0.2,0c0.1,0,0.2,0.1,0.3,0.1c0.1,0.1,0.1,0.1,0.2,0.2
			c0.1,0.1,0.1,0.1,0.1,0.3c0,0.1-0.1,0.3-0.3,0.6c-0.1,0.3-0.2,0.5-0.2,0.6s-0.1,0.2-0.1,0.2c-0.1,0-0.1,0-0.1,0.1l0,0
			c0,0.1,0,0.1,0.1,0.1c0,0,0.1,0,0.1-0.1s0.1-0.1,0.3-0.1h0.1c0.1-0.1,0.2-0.2,0.3-0.3c0.1,0,0.1-0.1,0.1-0.1
			c0.1-0.1,0.1-0.1,0.1-0.1c0.1,0,0.1,0,0.1,0c0-0.1,0.1-0.2,0.3-0.3c0.1-0.1,0.3-0.1,0.3-0.1c0.1,0,0.1,0.1,0.1,0.1
			c0,0.1,0.1,0.1,0.1,0.1l0.1,0.1v0.1c0,0.1-0.1,0.1-0.1,0.1c-0.1,0.1-0.1,0.1-0.1,0.1h-0.1l-0.1,0.1l0,0c-0.1,0-0.1,0.1-0.2,0.1
			c-0.1,0.1-0.1,0.1-0.2,0.2v0.1c-0.1,0-0.1,0.1-0.1,0.1l-0.3,0.1c-0.1,0-0.1-0.1-0.1-0.1s0,0-0.1,0.1c-0.1,0.1-0.1,0.1-0.1,0.1
			c-0.1,0.1-0.1,0.1-0.2,0.1L58.7,54h-0.1c0,0-0.1,0-0.1,0.1l-0.1,0.1c-0.1,0.1-0.1,0.1-0.3,0.1c0,0-0.1,0-0.1-0.1S58,54.1,58,54.1
			c0-0.1-0.1-0.1-0.2-0.3c-0.1-0.1-0.1-0.2-0.1-0.3l0.1-0.2v-0.1c0,0,0-0.1,0.1-0.1c0.1-0.1,0.1-0.1,0.1-0.1v-0.2c0,0,0,0,0-0.1
			l0.1-0.1c0-0.1,0-0.1,0-0.1l0.1-0.2c-0.1,0-0.1,0.1-0.2,0.2c-0.1,0.1-0.1,0.1-0.2,0.1c-0.1,0.1-0.1,0.2-0.2,0.2c0,0,0,0-0.1,0.1
			L57.3,53h-0.1l-0.1,0.1c-0.1,0.1-0.1,0.1-0.2,0.1s-0.1,0.1-0.1,0.1l-0.1,0.1h-0.1c0,0.1-0.1,0.2-0.2,0.2l-0.1,0.1h-0.1
			c-0.1,0.1-0.1,0.2-0.2,0.2c-0.1,0-0.1,0.1-0.3,0.1s-0.2,0.1-0.3,0.1c-0.3-0.1-0.5-0.3-0.7-0.6c0,0,0-0.1-0.1-0.1
			c0-0.1-0.1-0.1,0-0.2c0-0.1,0.1-0.3,0.1-0.3c0.1-0.1,0.1-0.1,0.2-0.3c0.1-0.1,0.1-0.2,0.1-0.2v-0.1c0.1-0.1,0.1-0.1,0.1-0.1l0,0
			h-0.1l0.2-0.2c-0.1,0-0.1,0-0.1,0.1l-0.1,0.1c-0.1,0-0.1,0.1-0.1,0.1l0,0l-0.1-0.1c0,0.1-0.1,0.1-0.1,0.1h-0.1
			c-0.1,0.1-0.1,0.1-0.2,0.1c0,0-0.1,0-0.1-0.1c-0.1-0.1-0.1-0.1-0.1-0.1l0.1-0.2v-0.1c0,0,0,0,0.1-0.1c0,0,0.1-0.1,0.1-0.1
			C55,51.9,55,51.8,55.1,51.8z"/>
		<path class="st2" d="M62.1,50L62.1,50l0.1-0.1l0,0l0.1,0.1l0,0c0.1,0,0.2,0,0.3,0c0.1,0,0.1-0.1,0.2-0.1s0.1,0,0.1,0l0,0h0.1
			c0,0,0.1-0.1,0.1-0.1c0.1-0.1,0.1-0.2,0.2-0.2c0.1-0.1,0.1-0.1,0.2-0.3l0.1-0.1c0-0.1,0.1-0.1,0.1-0.1c0.1,0,0.1,0,0.1-0.1
			c0.1-0.1,0.2-0.1,0.3-0.1c0.1,0,0.1,0.1,0.1,0.3v0.2c0,0,0,0-0.1,0.1c-0.1,0.1-0.1,0.1-0.1,0.1s0,0.1,0,0.1v0.1c0,0,0,0.1,0.1,0.1
			c0,0,0.1,0,0.1,0h0.1c0.1,0,0.1,0.1,0.1,0.1s0.1,0,0.2,0s0.2-0.1,0.2,0c0,0,0.1,0,0.1,0h0.1h0.1c0,0,0.1,0,0.1-0.1
			c0.1-0.1,0.1,0,0.3,0h0.1l0,0c0.1,0,0.2,0.1,0.1,0.2c0,0,0,0.1-0.1,0.1c-0.1,0.1-0.1,0.1-0.1,0.2L65,50.7
			c-0.1,0.1-0.2,0.1-0.3,0.1c0,0-0.1-0.1-0.1-0.2l0,0c-0.1,0-0.1,0-0.1,0c-0.1,0-0.1,0-0.1,0c0,0-0.1,0-0.3,0.1h-0.1
			c0,0-0.1,0-0.1,0h-0.3c-0.1,0.1-0.2,0.1-0.3,0.2c0,0,0,0-0.1,0.1l-0.3,0.4c-0.1,0-0.1,0.1-0.2,0.1l0,0c-0.1,0-0.1,0-0.1,0.1
			c-0.1,0.1-0.1,0.1-0.1,0.1l-0.1,0.1c-0.1,0.1-0.1,0.1-0.1,0.1c0,0.1-0.1,0.1-0.1,0.2C62,52.1,62,52.2,62,52.2s0,0,0,0.1v0.1
			c-0.1,0.1-0.1,0.1-0.1,0.1v0.1c-0.1,0.2-0.1,0.3-0.1,0.3s0,0,0,0.1v0.1c0,0.1-0.1,0.2-0.1,0.3v0.1l-0.1,0.3c0,0.1,0,0.1,0,0.2l0,0
			c0,0.1,0,0.2,0.1,0.4c0.1,0.1,0.1,0.3,0.1,0.6c0,0,0,0.1-0.1,0.1c0,0.1-0.1,0.1-0.1,0.1s-0.1,0.1-0.1,0.1
			c-0.1,0.1-0.1,0.1-0.1,0.1c-0.2-0.1-0.3-0.2-0.4-0.5C61,54.1,61,54,61,53.9l0.1-0.2v-0.1l0.1-0.4V53l0.2-0.4v-0.2l0.1-0.1l0,0
			c0,0-0.1,0-0.1,0.1c-0.1,0.1-0.1,0.1-0.1,0.1l-0.1,0.1c0,0,0,0-0.1,0c0,0-0.1,0.1-0.2,0.2c-0.1,0-0.1,0.1-0.2,0.1
			c0.1-0.1,0.1,0-0.1-0.1l0,0c-0.1,0.1-0.1,0.1-0.2,0.1l0,0c-0.1,0.1-0.1,0.2-0.2,0.1c-0.1,0.1-0.1,0.2-0.3,0.2
			c0,0.1-0.1,0.1-0.1,0.1s-0.1,0.1-0.1,0.1c-0.1,0-0.1,0-0.1,0c-0.1,0-0.1-0.1-0.1-0.2c0,0,0-0.1,0.1-0.1c0.1,0,0.1-0.1,0.1-0.1
			s0-0.1-0.1-0.1c0-0.1,0.1-0.2,0.1-0.2c0.1,0,0.1-0.1,0.1-0.1s0.1-0.1,0.1-0.1c0.1,0,0.1,0,0.1-0.1c0,0,0.1-0.1,0.2-0.1
			c0.1-0.1,0.2-0.1,0.3-0.2c0.1-0.1,0.1-0.1,0.1-0.1l0,0c0-0.1,0.1-0.1,0.1-0.1h0.1V52h0.1h0.1H61c0-0.1,0.1-0.1,0.2-0.2
			s0.3-0.1,0.5-0.3c0.3-0.2,0.4-0.3,0.4-0.4c0.1-0.1,0.1-0.1,0.2-0.3c0.1-0.1,0.1-0.2,0.2-0.3v-0.1l-0.3,0.1c0,0-0.1-0.1-0.1-0.1
			S62,50.6,62,50.6c-0.1,0-0.1,0.1-0.1,0.1h-0.1h-0.3c-0.2,0-0.4,0-0.5,0.1h-0.3h-0.1c0,0-0.1,0-0.1,0.1l-0.1-0.1
			c-0.1,0.1-0.2,0.1-0.3,0.1c0,0,0,0-0.1,0l-0.6,0.1c-0.1,0-0.1,0.1-0.3,0.2h-0.1c-0.1,0-0.1-0.1-0.1-0.1c-0.1-0.1-0.1-0.2-0.1-0.3
			c0.1-0.4,0.4-0.5,1-0.4l0.3-0.1l0,0l0.1,0.1l0,0c0,0,0.1,0,0.1,0c0.1,0,0.2-0.1,0.3-0.1h0.3h0.1c0.1,0,0.1,0,0.1,0
			c0.1,0,0.1-0.1,0.2,0c0.1,0.1,0.2,0,0.2,0h0.1c0,0,0.1,0,0.1,0c0.1,0,0.1,0,0.2,0C62,50,62.1,50,62.1,50z"/>
		<path class="st2" d="M66.9,54.6L66.9,54.6v0.1l0,0c0,0,0,0.1-0.1,0.1s-0.1,0.1-0.1,0.2l-0.1,0.1c0,0.1-0.1,0.1-0.1,0.1
			c-0.1,0-0.1,0.1-0.1,0.1c-0.1,0.1-0.1,0.2-0.1,0.3l-0.2,0.3l0,0c0,0,0,0,0.1,0h0.1c0,0,0,0,0.1,0c0,0,0,0,0.1,0h0.1
			c0.1,0,0.1,0,0.2,0h0.2c0.1,0,0.1,0,0.3,0.1h0.2c0.1,0,3.4,0.5,6.4-0.4c3.4-1.1,6.4-3.5,6.4-3.5c0,0.2-3,2.7-6.3,3.7
			c-3.2,1-6.7,0.5-6.7,0.5l0,0c0,0-0.1,0-0.1-0.1l0,0h-0.2l-0.2-0.1l-0.1,0.1c-0.1,0-0.1,0-0.2,0s-0.1,0-0.2,0s-0.1,0-0.1,0.1
			c0,0.1-0.1,0.2-0.2,0.3s-0.1,0.1-0.1,0.1c0,0.1-0.1,0.1-0.1,0.1c-0.1,0.1-0.1,0.1-0.2,0.2L65.5,57l-0.1,0.1c0,0,0,0,0,0.1v0.1
			c0,0.1-0.1,0.2-0.3,0.3v0.1c0,0-0.1,0.1-0.1,0.1v0.1L65,57.8c-0.1,0.1-0.1,0.1-0.1,0.1c-0.1,0.1-0.1,0.1-0.2,0.1v0.1v0.1l0,0
			c0,0-0.1,0.1-0.1,0.1c0,0.1-0.1,0.1-0.1,0.1l-0.3,0.3c-0.1,0.1-0.1,0.1-0.1,0.1l-0.1,0.1c-0.1,0-0.1,0.1-0.1,0.1
			c0,0.1-0.1,0.1-0.2,0.2c-0.1,0.1-0.2,0.1-0.2,0.1c0,0.1,0,0.1,0,0.1c0,0.1-0.1,0.1-0.1,0.1c-0.1,0-0.1,0-0.1,0v0.1
			c0,0,0,0.1-0.1,0.1c-0.1,0-0.1,0-0.1,0h-0.1v0.1c0,0.1-0.1,0.1-0.1,0.1c-0.1,0-0.1,0.1-0.2,0.1c-0.1,0.1-0.1,0.1-0.2,0.1h-0.1
			h-0.2c-0.1-0.1-0.1-0.1-0.3-0.3c-0.1-0.1-0.2-0.3-0.2-0.3s0-0.2,0.1-0.4c0,0,0-0.1,0.1-0.1v-0.1v-0.1c0,0,0.1-0.1,0.1-0.2
			c0.1-0.1,0.1-0.2,0.1-0.2s0.1-0.1,0.2-0.2c0.1-0.1,0.1-0.2,0.2-0.2l0.6-0.6c0-0.1,0-0.1,0.1-0.1h0.1h0.1l0.1-0.1
			c0-0.1,0.1-0.1,0.1-0.1c0.1,0,0.1-0.1,0.2-0.1s0.1-0.1,0.1-0.1v-0.1c0,0,0.1,0,0.1,0s0.1-0.1,0.1-0.1l0.2-0.1c0,0,0.1,0,0.1-0.1
			c0.1,0,0.1-0.1,0.1-0.1h0.1h0.1l0,0c0.1-0.1,0.1-0.1,0.2-0.1s0.1,0,0.1,0c0-0.1,0.1-0.1,0.2-0.1h0.1l0.1-0.1c0,0,0.1-0.1,0.1-0.2
			l0,0l0.1,0.1l0,0v-0.1c0,0,0.1-0.1,0.1-0.1s0.1-0.1,0.1-0.1c0.1,0,0.1,0,0.1-0.1v-0.1v-0.1l0.1-0.1v-0.1l0,0c0,0,0.1-0.1,0.1-0.2
			h0.1l0.4-0.6c0,0,0.1-0.1,0.1-0.1l0.1-0.1c0.1-0.1,0.1-0.2,0.1-0.2l0,0c0,0-0.1,0-0.1,0.1c-0.1,0.1-0.1,0.1-0.1,0.1l-0.1-0.1l0,0
			c0,0-0.1,0-0.1,0.1c-0.1,0-0.1,0.1-0.1,0.1h-0.1c-0.1,0.1-0.1,0.1-0.1,0.1l-0.1,0.1l0,0L66,54.4l0,0c0,0-0.1,0.1-0.1,0.1l-0.2,0.1
			c-0.1,0-0.1,0-0.1,0c-0.1,0-0.1,0-0.1,0.1c-0.1,0.1-0.1,0.1-0.1,0.1c-0.1,0-0.1,0.1-0.2,0l-0.4,0.1c-0.1,0-0.1,0-0.1,0.1
			c-0.1,0-0.1,0-0.3,0.1l-0.1-0.1c-0.1,0-0.1,0-0.1,0.1c-0.1,0.1-0.1,0.1-0.1,0.1h-0.1H64h-0.2c-0.1,0-0.1-0.1-0.2-0.2
			c-0.1-0.1-0.1-0.2-0.1-0.3v-0.3c0,0,0,0,0.1-0.1c0.1-0.1,0.1-0.1,0.1-0.1s0,0,0-0.1v-0.1c0.1-0.1,0.1-0.3,0.3-0.4l0,0l0,0
			c-0.1,0-0.1,0-0.1,0.1c-0.1,0.1-0.1,0.1-0.1,0.1S63.6,54,63.5,54c-0.1,0-0.1,0-0.1,0l-0.1-0.1v-0.1c0,0-0.1-0.1-0.1-0.1
			c-0.1-0.1-0.1-0.1,0-0.1c0-0.1,0.1-0.1,0.2-0.1l0.1-0.1c0.2-0.1,0.3-0.2,0.4-0.2l0.1-0.1c0.1,0,0.1-0.1,0.2-0.1s0.2-0.1,0.2-0.1
			l0.3-0.2c0.1-0.1,0.3-0.1,0.4-0.1c0.1,0,0.1,0.1,0.1,0.3c-0.1,0.1-0.1,0.3-0.1,0.3C65,53.3,65,53.4,65,53.4c0,0.1-0.1,0.1-0.2,0.2
			c-0.1,0.1-0.2,0.1-0.2,0.2c-0.1,0.1-0.1,0.1-0.2,0.2s-0.1,0.1-0.1,0.2c0,0.1,0,0.1,0.1,0.1c0.1,0,0.1,0,0.3-0.1h0.1
			c0.1,0,0.1,0,0.1,0h0.1c0.1-0.1,0.1-0.1,0.1-0.1l0.1-0.1c0.1,0,0.1,0,0.2-0.1c0.1,0,0.1-0.1,0.2-0.1c0.1,0,0.1-0.1,0.1-0.1
			s0.1-0.1,0.1-0.1c0.1,0,0.3,0,0.4-0.1c0.2-0.1,0.4-0.1,0.5-0.2s0.3-0.1,0.3-0.1c0,0,0.1,0,0.1-0.1c0.1,0,0.1-0.1,0.2-0.1
			c0.1-0.1,0.2-0.1,0.3,0c0.1,0,0.2,0.1,0.3,0.2c0.1,0.1,0.1,0.2,0.1,0.3l-0.1,0.3c-0.1,0.2-0.1,0.3-0.3,0.4
			c-0.1,0.1-0.1,0.2-0.1,0.3v0.1C67.1,54.6,67,54.6,66.9,54.6z M63.5,58L63.5,58l0.1-0.1c0.1-0.1,0.1-0.3,0.2-0.3
			c0-0.1,0.1-0.1,0.1-0.1l0.1-0.1l0.3-0.3c0.1-0.1,0.1-0.1,0.1-0.1s0.1-0.1,0.1-0.1s0.1-0.1,0.3-0.3v-0.1c0-0.1,0-0.1,0-0.1
			s-0.1,0.1-0.1,0.1l-0.4,0.2c0,0-0.1,0.1-0.2,0.1L63.8,57C63.8,57,63.7,57,63.7,57s-0.1,0.1-0.1,0.1s-0.1,0.1-0.1,0.1l0,0
			c0,0,0,0-0.1-0.1c0,0-0.1,0-0.1,0.1v0.1c0,0,0,0.1-0.1,0.1s-0.1,0.1-0.1,0.1c0,0.1-0.1,0.1-0.1,0.1s-0.1,0.1-0.2,0.2l-0.1,0.1
			c-0.1,0.2-0.2,0.4-0.3,0.4c-0.1,0.1-0.1,0.1-0.1,0.1c-0.1,0.1-0.1,0.1-0.1,0.1c-0.1,0.1-0.1,0.2-0.2,0.2l0,0c0,0,0,0.1,0.1,0.1
			l0,0C62,58.8,62,58.9,62,59l0,0l0.2-0.1c0.1,0,0.2-0.1,0.3-0.1l0.1-0.1h0.1c0.1-0.1,0.1-0.1,0.1-0.1c0.1,0,0.1-0.1,0.1-0.1
			c0-0.1,0.1-0.1,0.3-0.3C63.4,58.2,63.5,58,63.5,58z"/>
	</g>
	<path class="st3" d="M18.9,49.1c-0.2-0.3-0.3-0.6-0.5-0.9c-2-3.8-3.2-8.2-3.2-12.9c0-5.2,1.4-9.9,3.9-14.1"/>
	<path class="st3" d="M67.4,21c2.5,4.2,3.9,9.1,3.9,14.3c0,4.3-1,8.4-2.8,12.1c-0.3,0.6-0.6,1.2-1,1.8"/>
	<path class="st4" d="M22.6,46.7"/>
</g>
</svg>
